<svg width="16" height="20" viewBox="0 0 16 20" fill="none" xmlns="http://www.w3.org/2000/svg">
<path d="M8 13.137C3.687 13.137 0 13.817 0 16.537C0 19.257 3.661 19.962 8 19.962C12.313 19.962 16 19.283 16 16.562C16 13.841 12.334 13.137 8 13.137Z" fill="#E65C00"/>
<path opacity="0.4" d="M7.99987 10.546C9.21897 10.5414 10.3988 10.1145 11.3387 9.33802C12.2785 8.56152 12.9202 7.48335 13.1547 6.28699C13.3891 5.09064 13.2018 3.85 12.6245 2.77622C12.0473 1.70244 11.1157 0.861856 9.98852 0.397498C8.86131 -0.0668588 7.60804 -0.126292 6.44195 0.229316C5.27586 0.584924 4.26903 1.3336 3.59277 2.34794C2.9165 3.36228 2.61254 4.57959 2.73272 5.79276C2.85289 7.00593 3.38975 8.14001 4.25188 9.00196C4.74387 9.49384 5.32829 9.88351 5.97155 10.1485C6.61481 10.4135 7.30417 10.5486 7.99987 10.546Z" fill="#E65C00"/>
</svg>
