<svg width="22" height="22" viewBox="0 0 22 22" fill="none" xmlns="http://www.w3.org/2000/svg">
<path opacity="0.4" d="M15.4772 4.68853H12.7794C12.1073 4.69297 11.4692 4.39401 11.0433 3.87513L10.1549 2.64691C9.73617 2.12348 9.09811 1.82312 8.42703 1.83351H6.51981C3.09659 1.83351 1.83326 3.8426 1.83326 7.25885V10.9517C1.829 11.3578 20.1626 11.3573 20.1638 10.9517V9.87798C20.1801 6.46173 18.9493 4.68853 15.4772 4.68853Z" fill="#E65C00"/>
<path fill-rule="evenodd" clip-rule="evenodd" d="M19.096 5.99814C19.3893 6.34105 19.616 6.7355 19.7644 7.16129C20.0564 8.03642 20.1916 8.95607 20.1638 9.87803V14.6933C20.1626 15.0989 20.1326 15.5039 20.0741 15.9053C19.9627 16.6136 19.7135 17.2934 19.3406 17.9062C19.1692 18.2023 18.961 18.4756 18.7211 18.7196C17.635 19.7164 16.1928 20.2353 14.7192 20.1593H7.26965C5.79371 20.2347 4.34915 19.7161 3.25959 18.7196C3.02254 18.4751 2.81717 18.2018 2.64831 17.9062C2.27761 17.2938 2.03372 16.6134 1.93106 15.9053C1.86578 15.5046 1.83308 15.0993 1.83325 14.6933V9.87803C1.83309 9.47587 1.85486 9.074 1.89846 8.67421C1.90763 8.60406 1.92138 8.53506 1.93499 8.46678C1.95767 8.35294 1.97996 8.24108 1.97996 8.12923C2.0627 7.64677 2.21363 7.17846 2.42824 6.73833C3.06398 5.37996 4.36806 4.68857 6.5035 4.68857H15.4691C16.6651 4.59607 17.8523 4.95614 18.7945 5.69718C18.903 5.7892 19.0038 5.88985 19.096 5.99814ZM6.38939 14.246H15.6158H15.6321C15.8345 14.2548 16.0321 14.1823 16.1806 14.0447C16.3292 13.9072 16.4163 13.716 16.4227 13.5139C16.4341 13.3362 16.3756 13.1611 16.2597 13.0259C16.1263 12.8441 15.9149 12.7356 15.6891 12.733H6.38939C5.97076 12.733 5.63139 13.0717 5.63139 13.4895C5.63139 13.9073 5.97076 14.246 6.38939 14.246Z" fill="#E65C00"/>
</svg>
