<svg width="185" height="66" viewBox="0 0 185 66" fill="none" xmlns="http://www.w3.org/2000/svg">
<path d="M0 32.8765C0 14.7193 14.7193 0 32.8765 0H151.97C170.127 0 184.846 14.7193 184.846 32.8765C184.846 51.0336 170.127 65.7529 151.97 65.7529H32.8764C14.7193 65.7529 0 51.0336 0 32.8765Z" fill="#E65C00"/>
<g opacity="0.8">
<path d="M74.6888 18.8132C75.4301 18.8132 76.0706 18.953 76.6103 19.2326C77.1566 19.5057 77.5727 19.8991 77.8588 20.4128C78.1514 20.9265 78.2978 21.5313 78.2978 22.227C78.2978 22.9228 78.1514 23.5276 77.8588 24.0413C77.5727 24.5485 77.1566 24.9386 76.6103 25.2117C76.0706 25.4783 75.4301 25.6116 74.6888 25.6116H72.5723V18.8132H74.6888ZM74.6888 24.8801C75.5667 24.8801 76.2364 24.6492 76.6981 24.1876C77.1598 23.7194 77.3906 23.0659 77.3906 22.227C77.3906 21.3817 77.1566 20.7217 76.6884 20.247C76.2267 19.7723 75.5602 19.535 74.6888 19.535H73.4599V24.8801H74.6888Z" fill="white"/>
<path d="M81.7997 25.6994C81.299 25.6994 80.8438 25.5856 80.4341 25.358C80.031 25.1304 79.7124 24.8086 79.4783 24.3924C79.2507 23.9697 79.1369 23.482 79.1369 22.9293C79.1369 22.3831 79.2539 21.9019 79.488 21.4858C79.7286 21.0631 80.0537 20.7412 80.4634 20.5201C80.8731 20.2925 81.3315 20.1787 81.8387 20.1787C82.3459 20.1787 82.8043 20.2925 83.214 20.5201C83.6236 20.7412 83.9455 21.0598 84.1796 21.476C84.4202 21.8922 84.5405 22.3766 84.5405 22.9293C84.5405 23.482 84.4169 23.9697 84.1699 24.3924C83.9293 24.8086 83.6009 25.1304 83.1847 25.358C82.7686 25.5856 82.3069 25.6994 81.7997 25.6994ZM81.7997 24.9191C82.1183 24.9191 82.4174 24.8443 82.697 24.6948C82.9766 24.5452 83.201 24.3209 83.37 24.0217C83.5456 23.7226 83.6334 23.3585 83.6334 22.9293C83.6334 22.5002 83.5489 22.136 83.3798 21.8369C83.2107 21.5378 82.9896 21.3167 82.7165 21.1736C82.4434 21.0241 82.1476 20.9493 81.8289 20.9493C81.5038 20.9493 81.2047 21.0241 80.9316 21.1736C80.665 21.3167 80.4504 21.5378 80.2878 21.8369C80.1253 22.136 80.044 22.5002 80.044 22.9293C80.044 23.365 80.122 23.7324 80.2781 24.0315C80.4406 24.3306 80.6552 24.555 80.9218 24.7045C81.1884 24.8476 81.4811 24.9191 81.7997 24.9191Z" fill="white"/>
<path d="M92.8278 20.2665L91.1599 25.6116H90.243L88.9555 21.3687L87.668 25.6116H86.7512L85.0735 20.2665H85.9806L87.2096 24.7533L88.5361 20.2665H89.4432L90.7405 24.763L91.95 20.2665H92.8278Z" fill="white"/>
<path d="M96.313 20.169C96.9632 20.169 97.4899 20.3673 97.8931 20.764C98.2962 21.1541 98.4978 21.7198 98.4978 22.4611V25.6116H97.62V22.5879C97.62 22.0547 97.4867 21.6483 97.2201 21.3687C96.9535 21.0826 96.5893 20.9395 96.1276 20.9395C95.6595 20.9395 95.2856 21.0859 95.006 21.3785C94.7328 21.6711 94.5963 22.097 94.5963 22.6562V25.6116H93.7087V20.2665H94.5963V21.0273C94.7719 20.7542 95.0092 20.5429 95.3083 20.3933C95.6139 20.2438 95.9488 20.169 96.313 20.169Z" fill="white"/>
<path d="M100.835 18.3938V25.6116H99.9477V18.3938H100.835Z" fill="white"/>
<path d="M104.679 25.6994C104.179 25.6994 103.723 25.5856 103.314 25.358C102.911 25.1304 102.592 24.8086 102.358 24.3924C102.13 23.9697 102.016 23.482 102.016 22.9293C102.016 22.3831 102.133 21.9019 102.368 21.4858C102.608 21.0631 102.933 20.7412 103.343 20.5201C103.753 20.2925 104.211 20.1787 104.718 20.1787C105.225 20.1787 105.684 20.2925 106.094 20.5201C106.503 20.7412 106.825 21.0598 107.059 21.476C107.3 21.8922 107.42 22.3766 107.42 22.9293C107.42 23.482 107.296 23.9697 107.049 24.3924C106.809 24.8086 106.48 25.1304 106.064 25.358C105.648 25.5856 105.186 25.6994 104.679 25.6994ZM104.679 24.9191C104.998 24.9191 105.297 24.8443 105.577 24.6948C105.856 24.5452 106.081 24.3209 106.25 24.0217C106.425 23.7226 106.513 23.3585 106.513 22.9293C106.513 22.5002 106.428 22.136 106.259 21.8369C106.09 21.5378 105.869 21.3167 105.596 21.1736C105.323 21.0241 105.027 20.9493 104.708 20.9493C104.383 20.9493 104.084 21.0241 103.811 21.1736C103.545 21.3167 103.33 21.5378 103.167 21.8369C103.005 22.136 102.924 22.5002 102.924 22.9293C102.924 23.365 103.002 23.7324 103.158 24.0315C103.32 24.3306 103.535 24.555 103.801 24.7045C104.068 24.8476 104.361 24.9191 104.679 24.9191Z" fill="white"/>
<path d="M108.255 22.9196C108.255 22.3734 108.366 21.8954 108.587 21.4858C108.808 21.0696 109.111 20.7477 109.494 20.5201C109.884 20.2925 110.317 20.1787 110.791 20.1787C111.26 20.1787 111.666 20.2795 112.011 20.4811C112.355 20.6827 112.612 20.9363 112.781 21.2419V20.2665H113.679V25.6116H112.781V24.6167C112.606 24.9289 112.342 25.189 111.991 25.397C111.647 25.5986 111.243 25.6994 110.782 25.6994C110.307 25.6994 109.878 25.5824 109.494 25.3483C109.111 25.1142 108.808 24.7858 108.587 24.3631C108.366 23.9405 108.255 23.4593 108.255 22.9196ZM112.781 22.9293C112.781 22.5262 112.7 22.175 112.537 21.8759C112.375 21.5768 112.154 21.3492 111.874 21.1931C111.601 21.0306 111.299 20.9493 110.967 20.9493C110.635 20.9493 110.333 21.0273 110.06 21.1834C109.787 21.3394 109.569 21.567 109.406 21.8662C109.244 22.1653 109.163 22.5164 109.163 22.9196C109.163 23.3292 109.244 23.6869 109.406 23.9925C109.569 24.2916 109.787 24.5224 110.06 24.685C110.333 24.8411 110.635 24.9191 110.967 24.9191C111.299 24.9191 111.601 24.8411 111.874 24.685C112.154 24.5224 112.375 24.2916 112.537 23.9925C112.7 23.6869 112.781 23.3325 112.781 22.9293Z" fill="white"/>
<path d="M114.847 22.9196C114.847 22.3734 114.957 21.8954 115.179 21.4858C115.4 21.0696 115.702 20.7477 116.086 20.5201C116.476 20.2925 116.911 20.1787 117.393 20.1787C117.809 20.1787 118.196 20.2763 118.553 20.4714C118.911 20.6599 119.184 20.9103 119.373 21.2224V18.3938H120.27V25.6116H119.373V24.607C119.197 24.9256 118.937 25.189 118.592 25.397C118.248 25.5986 117.845 25.6994 117.383 25.6994C116.908 25.6994 116.476 25.5824 116.086 25.3483C115.702 25.1142 115.4 24.7858 115.179 24.3631C114.957 23.9405 114.847 23.4593 114.847 22.9196ZM119.373 22.9293C119.373 22.5262 119.291 22.175 119.129 21.8759C118.966 21.5768 118.745 21.3492 118.466 21.1931C118.192 21.0306 117.89 20.9493 117.558 20.9493C117.227 20.9493 116.924 21.0273 116.651 21.1834C116.378 21.3394 116.16 21.567 115.998 21.8662C115.835 22.1653 115.754 22.5164 115.754 22.9196C115.754 23.3292 115.835 23.6869 115.998 23.9925C116.16 24.2916 116.378 24.5224 116.651 24.685C116.924 24.8411 117.227 24.9191 117.558 24.9191C117.89 24.9191 118.192 24.8411 118.466 24.685C118.745 24.5224 118.966 24.2916 119.129 23.9925C119.291 23.6869 119.373 23.3325 119.373 22.9293Z" fill="white"/>
<path d="M126.701 25.6994C126.201 25.6994 125.746 25.5856 125.336 25.358C124.933 25.1304 124.614 24.8086 124.38 24.3924C124.153 23.9697 124.039 23.482 124.039 22.9293C124.039 22.3831 124.156 21.9019 124.39 21.4858C124.63 21.0631 124.956 20.7412 125.365 20.5201C125.775 20.2925 126.233 20.1787 126.741 20.1787C127.248 20.1787 127.706 20.2925 128.116 20.5201C128.525 20.7412 128.847 21.0598 129.081 21.476C129.322 21.8922 129.442 22.3766 129.442 22.9293C129.442 23.482 129.319 23.9697 129.072 24.3924C128.831 24.8086 128.503 25.1304 128.087 25.358C127.67 25.5856 127.209 25.6994 126.701 25.6994ZM126.701 24.9191C127.02 24.9191 127.319 24.8443 127.599 24.6948C127.878 24.5452 128.103 24.3209 128.272 24.0217C128.447 23.7226 128.535 23.3585 128.535 22.9293C128.535 22.5002 128.451 22.136 128.282 21.8369C128.113 21.5378 127.891 21.3167 127.618 21.1736C127.345 21.0241 127.049 20.9493 126.731 20.9493C126.406 20.9493 126.107 21.0241 125.833 21.1736C125.567 21.3167 125.352 21.5378 125.19 21.8369C125.027 22.136 124.946 22.5002 124.946 22.9293C124.946 23.365 125.024 23.7324 125.18 24.0315C125.342 24.3306 125.557 24.555 125.824 24.7045C126.09 24.8476 126.383 24.9191 126.701 24.9191Z" fill="white"/>
<path d="M133.214 20.169C133.864 20.169 134.391 20.3673 134.794 20.764C135.197 21.1541 135.398 21.7198 135.398 22.4611V25.6116H134.521V22.5879C134.521 22.0547 134.387 21.6483 134.121 21.3687C133.854 21.0826 133.49 20.9395 133.028 20.9395C132.56 20.9395 132.186 21.0859 131.907 21.3785C131.633 21.6711 131.497 22.097 131.497 22.6562V25.6116H130.609V20.2665H131.497V21.0273C131.673 20.7542 131.91 20.5429 132.209 20.3933C132.515 20.2438 132.849 20.169 133.214 20.169Z" fill="white"/>
<path d="M140.531 20.9981V24.1485C140.531 24.4086 140.587 24.594 140.697 24.7045C140.808 24.8086 141 24.8606 141.273 24.8606H141.926V25.6116H141.126C140.632 25.6116 140.262 25.4978 140.014 25.2702C139.767 25.0426 139.644 24.6688 139.644 24.1485V20.9981H138.951V20.2665H139.644V18.9205H140.531V20.2665H141.926V20.9981H140.531Z" fill="white"/>
<path d="M145.655 20.169C146.058 20.169 146.422 20.2568 146.747 20.4323C147.072 20.6014 147.326 20.8583 147.508 21.2029C147.696 21.5475 147.791 21.9669 147.791 22.4611V25.6116H146.913V22.5879C146.913 22.0547 146.78 21.6483 146.513 21.3687C146.246 21.0826 145.882 20.9395 145.421 20.9395C144.952 20.9395 144.579 21.0859 144.299 21.3785C144.026 21.6711 143.889 22.097 143.889 22.6562V25.6116H143.002V18.3938H143.889V21.0273C144.065 20.7542 144.305 20.5429 144.611 20.3933C144.923 20.2438 145.271 20.169 145.655 20.169Z" fill="white"/>
<path d="M154.118 22.7342C154.118 22.9033 154.108 23.0821 154.088 23.2707H149.816C149.849 23.7974 150.027 24.2103 150.353 24.5094C150.684 24.8021 151.084 24.9484 151.552 24.9484C151.936 24.9484 152.255 24.8606 152.508 24.685C152.768 24.5029 152.95 24.2623 153.054 23.9632H154.01C153.867 24.4769 153.581 24.8963 153.152 25.2215C152.723 25.5401 152.19 25.6994 151.552 25.6994C151.045 25.6994 150.59 25.5856 150.187 25.358C149.79 25.1304 149.478 24.8086 149.25 24.3924C149.023 23.9697 148.909 23.482 148.909 22.9293C148.909 22.3766 149.02 21.8922 149.241 21.476C149.462 21.0598 149.771 20.7412 150.167 20.5201C150.57 20.2925 151.032 20.1787 151.552 20.1787C152.06 20.1787 152.508 20.2893 152.898 20.5104C153.288 20.7315 153.588 21.0371 153.796 21.4272C154.01 21.8109 154.118 22.2466 154.118 22.7342ZM153.201 22.5489C153.201 22.2108 153.126 21.9214 152.976 21.6808C152.827 21.4337 152.622 21.2484 152.362 21.1249C152.108 20.9948 151.825 20.9298 151.513 20.9298C151.065 20.9298 150.681 21.0728 150.362 21.359C150.05 21.6451 149.871 22.0417 149.826 22.5489H153.201Z" fill="white"/>
</g>
<path d="M79.6992 43.0488H75.2621L74.5279 45.1716H72.1816L76.1878 34.015H78.7894L82.7956 45.1716H80.4334L79.6992 43.0488ZM79.0927 41.2612L77.4806 36.6006L75.8686 41.2612H79.0927Z" fill="white"/>
<path d="M86.5275 37.6062C86.8148 37.2018 87.2085 36.8666 87.7086 36.6006C88.2194 36.324 88.7993 36.1857 89.4483 36.1857C90.2038 36.1857 90.8848 36.3719 91.4913 36.7443C92.1085 37.1167 92.5926 37.6487 92.9437 38.3404C93.3055 39.0213 93.4864 39.8141 93.4864 40.7185C93.4864 41.623 93.3055 42.4263 92.9437 43.1286C92.5926 43.8202 92.1085 44.3576 91.4913 44.7406C90.8848 45.1237 90.2038 45.3152 89.4483 45.3152C88.7993 45.3152 88.2247 45.1822 87.7246 44.9162C87.2351 44.6502 86.8361 44.315 86.5275 43.9107V49.3852H84.293V36.3293H86.5275V37.6062ZM91.204 40.7185C91.204 40.1865 91.0923 39.7289 90.8688 39.3459C90.656 38.9522 90.3687 38.6543 90.007 38.4521C89.6558 38.2499 89.2728 38.1488 88.8578 38.1488C88.4534 38.1488 88.0704 38.2552 87.7086 38.468C87.3575 38.6702 87.0702 38.9681 86.8467 39.3618C86.6339 39.7555 86.5275 40.2184 86.5275 40.7504C86.5275 41.2825 86.6339 41.7453 86.8467 42.139C87.0702 42.5327 87.3575 42.836 87.7086 43.0488C88.0704 43.251 88.4534 43.352 88.8578 43.352C89.2728 43.352 89.6558 43.2456 90.007 43.0328C90.3687 42.82 90.656 42.5168 90.8688 42.1231C91.0923 41.7294 91.204 41.2612 91.204 40.7185Z" fill="white"/>
<path d="M97.3447 37.6062C97.632 37.2018 98.0257 36.8666 98.5258 36.6006C99.0365 36.324 99.6164 36.1857 100.266 36.1857C101.021 36.1857 101.702 36.3719 102.308 36.7443C102.926 37.1167 103.41 37.6487 103.761 38.3404C104.123 39.0213 104.304 39.8141 104.304 40.7185C104.304 41.623 104.123 42.4263 103.761 43.1286C103.41 43.8202 102.926 44.3576 102.308 44.7406C101.702 45.1237 101.021 45.3152 100.266 45.3152C99.6164 45.3152 99.0418 45.1822 98.5417 44.9162C98.0523 44.6502 97.6533 44.315 97.3447 43.9107V49.3852H95.1102V36.3293H97.3447V37.6062ZM102.021 40.7185C102.021 40.1865 101.909 39.7289 101.686 39.3459C101.473 38.9522 101.186 38.6543 100.824 38.4521C100.473 38.2499 100.09 38.1488 99.675 38.1488C99.2706 38.1488 98.8876 38.2552 98.5258 38.468C98.1746 38.6702 97.8874 38.9681 97.6639 39.3618C97.4511 39.7555 97.3447 40.2184 97.3447 40.7504C97.3447 41.2825 97.4511 41.7453 97.6639 42.139C97.8874 42.5327 98.1746 42.836 98.5258 43.0488C98.8876 43.251 99.2706 43.352 99.675 43.352C100.09 43.352 100.473 43.2456 100.824 43.0328C101.186 42.82 101.473 42.5168 101.686 42.1231C101.909 41.7294 102.021 41.2612 102.021 40.7185Z" fill="white"/>
<path d="M113.577 45.2833C112.8 45.2833 112.098 45.1503 111.47 44.8843C110.853 44.6183 110.364 44.2352 110.002 43.7351C109.64 43.235 109.454 42.6444 109.443 41.9635H111.837C111.869 42.421 112.029 42.7828 112.316 43.0488C112.614 43.3148 113.018 43.4478 113.529 43.4478C114.051 43.4478 114.46 43.3254 114.758 43.0807C115.056 42.8253 115.205 42.4955 115.205 42.0911C115.205 41.7613 115.104 41.49 114.902 41.2771C114.7 41.0643 114.444 40.8994 114.136 40.7824C113.838 40.6547 113.423 40.5163 112.891 40.3674C112.167 40.1546 111.577 39.9471 111.119 39.7449C110.672 39.5321 110.284 39.2182 109.954 38.8032C109.635 38.3776 109.475 37.8137 109.475 37.1114C109.475 36.4517 109.64 35.8771 109.97 35.3876C110.3 34.8981 110.763 34.5257 111.359 34.2704C111.954 34.0043 112.635 33.8713 113.401 33.8713C114.551 33.8713 115.482 34.1533 116.195 34.7173C116.918 35.2706 117.317 36.0473 117.392 37.0475H114.934C114.912 36.6645 114.748 36.3506 114.439 36.1058C114.141 35.8505 113.742 35.7228 113.242 35.7228C112.806 35.7228 112.454 35.8345 112.188 36.058C111.933 36.2814 111.805 36.606 111.805 37.0316C111.805 37.3295 111.901 37.5796 112.093 37.7817C112.295 37.9733 112.54 38.1329 112.827 38.2606C113.125 38.3776 113.54 38.5159 114.072 38.6755C114.795 38.8883 115.386 39.1012 115.843 39.314C116.301 39.5268 116.695 39.846 117.025 40.2716C117.354 40.6972 117.519 41.2559 117.519 41.9475C117.519 42.5434 117.365 43.0967 117.056 43.6074C116.748 44.1182 116.296 44.5278 115.7 44.8364C115.104 45.1343 114.396 45.2833 113.577 45.2833Z" fill="white"/>
<path d="M122.058 38.1648V42.4423C122.058 42.7402 122.127 42.9583 122.266 43.0967C122.415 43.2244 122.659 43.2882 123 43.2882H124.037V45.1716H122.633C120.749 45.1716 119.808 44.2565 119.808 42.4263V38.1648H118.754V36.3293H119.808V34.1427H122.058V36.3293H124.037V38.1648H122.058Z" fill="white"/>
<path d="M129.571 45.3152C128.72 45.3152 127.954 45.129 127.273 44.7566C126.592 44.3735 126.054 43.8362 125.66 43.1446C125.277 42.4529 125.086 41.6549 125.086 40.7504C125.086 39.846 125.283 39.048 125.676 38.3563C126.081 37.6647 126.629 37.1327 127.32 36.7602C128.012 36.3772 128.783 36.1857 129.635 36.1857C130.486 36.1857 131.257 36.3772 131.949 36.7602C132.641 37.1327 133.183 37.6647 133.577 38.3563C133.981 39.048 134.184 39.846 134.184 40.7504C134.184 41.6549 133.976 42.4529 133.561 43.1446C133.157 43.8362 132.603 44.3735 131.901 44.7566C131.21 45.129 130.433 45.3152 129.571 45.3152ZM129.571 43.368C129.975 43.368 130.353 43.2722 130.704 43.0807C131.066 42.8785 131.353 42.5806 131.566 42.1869C131.779 41.7932 131.885 41.3144 131.885 40.7504C131.885 39.9098 131.662 39.2661 131.215 38.8192C130.779 38.3616 130.241 38.1329 129.603 38.1329C128.964 38.1329 128.427 38.3616 127.991 38.8192C127.565 39.2661 127.352 39.9098 127.352 40.7504C127.352 41.591 127.56 42.2401 127.975 42.6976C128.4 43.1446 128.932 43.368 129.571 43.368Z" fill="white"/>
<path d="M138.057 37.7019C138.344 37.2337 138.717 36.8666 139.174 36.6006C139.643 36.3346 140.175 36.2016 140.77 36.2016V38.5478H140.18C139.478 38.5478 138.946 38.7128 138.584 39.0426C138.233 39.3725 138.057 39.9471 138.057 40.7664V45.1716H135.823V36.3293H138.057V37.7019Z" fill="white"/>
<path d="M150.495 40.5589C150.495 40.8781 150.474 41.1654 150.431 41.4208H143.967C144.021 42.0592 144.244 42.5593 144.638 42.9211C145.031 43.2829 145.516 43.4638 146.09 43.4638C146.92 43.4638 147.511 43.1073 147.862 42.3944H150.272C150.017 43.2456 149.527 43.9479 148.803 44.5012C148.08 45.0439 147.191 45.3152 146.138 45.3152C145.287 45.3152 144.521 45.129 143.84 44.7566C143.169 44.3735 142.643 43.8362 142.26 43.1446C141.887 42.4529 141.701 41.6549 141.701 40.7504C141.701 39.8354 141.887 39.032 142.26 38.3404C142.632 37.6487 143.153 37.1167 143.824 36.7443C144.494 36.3719 145.266 36.1857 146.138 36.1857C146.979 36.1857 147.729 36.3665 148.389 36.7283C149.059 37.0901 149.575 37.6062 149.937 38.2765C150.309 38.9362 150.495 39.697 150.495 40.5589ZM148.181 39.9205C148.17 39.3459 147.963 38.8883 147.559 38.5478C147.154 38.1967 146.659 38.0211 146.074 38.0211C145.521 38.0211 145.053 38.1914 144.67 38.5319C144.297 38.8617 144.068 39.3246 143.983 39.9205H148.181Z" fill="white"/>
<path d="M51.332 46.5351C49.598 48.2159 47.7048 47.9505 45.8824 47.1543C43.9538 46.3404 42.1845 46.305 40.1497 47.1543C37.6019 48.2513 36.2572 47.9328 34.7355 46.5351C26.1012 37.6353 27.3751 24.0821 37.1772 23.5867C39.5658 23.7105 41.229 24.896 42.6268 25.0022C44.7146 24.5775 46.714 23.3567 48.9434 23.5159C51.6151 23.7282 53.6321 24.7898 54.9591 26.7007C49.4388 30.0094 50.7481 37.2814 55.8084 39.3161C54.7999 41.9701 53.4906 44.6065 51.3143 46.5527L51.332 46.5351ZM42.4499 23.4805C42.1845 19.5349 45.387 16.2793 49.0672 15.9608C49.5803 20.5257 44.927 23.9229 42.4499 23.4805Z" fill="white"/>
</svg>
