<svg width="24" height="24" viewBox="0 0 24 24" fill="none" xmlns="http://www.w3.org/2000/svg">
<path fill-rule="evenodd" clip-rule="evenodd" d="M20 14C20.1704 13.9999 20.3379 13.9563 20.4867 13.8733C20.6355 13.7902 20.7606 13.6706 20.8502 13.5256C20.9398 13.3806 20.9908 13.2152 20.9985 13.045C21.0061 12.8748 20.9702 12.7054 20.894 12.553L19.118 9L20.894 5.447C20.9702 5.29458 21.0061 5.12522 20.9985 4.95501C20.9908 4.78479 20.9398 4.61935 20.8502 4.47439C20.7606 4.32944 20.6355 4.20977 20.4867 4.12674C20.3379 4.04372 20.1704 4.00009 20 4H9V3C9 2.73478 8.89464 2.48043 8.70711 2.29289C8.51957 2.10536 8.26522 2 8 2C7.73478 2 7.48043 2.10536 7.29289 2.29289C7.10536 2.48043 7 2.73478 7 3V21C7 21.2652 7.10536 21.5196 7.29289 21.7071C7.48043 21.8946 7.73478 22 8 22C8.26522 22 8.51957 21.8946 8.70711 21.7071C8.89464 21.5196 9 21.2652 9 21V14H20Z" fill="#E65C00"/>
</svg>
