<svg width="22" height="22" viewBox="0 0 22 22" fill="none" xmlns="http://www.w3.org/2000/svg">
<g clip-path="url(#clip0_5380_7853)">
<path d="M11 0.6875C5.31271 0.6875 0.6875 5.31271 0.6875 11C0.6875 16.6873 5.31271 21.3125 11 21.3125C16.6873 21.3125 21.3125 16.6873 21.3125 11C21.3125 5.31271 16.6873 0.6875 11 0.6875ZM10.9906 5.50403C10.809 5.50723 10.636 5.58217 10.5094 5.7125C10.3829 5.84283 10.313 6.01794 10.3152 6.19958V6.77832C9.20511 6.98657 8.25537 7.70138 8.25537 8.94018C8.25537 9.79956 8.64278 10.4946 9.16308 10.8993C9.68339 11.304 10.2709 11.4834 10.7865 11.6553C11.3021 11.8271 11.7472 11.9915 12.0004 12.1884C12.2535 12.3852 12.375 12.5509 12.375 13.0665C12.375 14.2124 9.63037 14.2124 9.63037 13.0665C9.6324 12.975 9.61612 12.8839 9.58248 12.7987C9.54885 12.7135 9.49853 12.6359 9.43449 12.5704C9.37045 12.505 9.29397 12.4529 9.20955 12.4174C9.12513 12.3819 9.03446 12.3636 8.94287 12.3636C8.85128 12.3636 8.76061 12.3819 8.67619 12.4174C8.59177 12.4529 8.51529 12.505 8.45125 12.5704C8.38721 12.6359 8.33689 12.7135 8.30326 12.7987C8.26962 12.8839 8.25334 12.975 8.25537 13.0665C8.25537 14.3044 9.20595 15.0205 10.3152 15.2297V15.8058C10.3132 15.8974 10.3294 15.9884 10.3631 16.0736C10.3967 16.1588 10.447 16.2364 10.5111 16.3019C10.5751 16.3673 10.6516 16.4194 10.736 16.4549C10.8204 16.4904 10.9111 16.5087 11.0027 16.5087C11.0943 16.5087 11.1849 16.4904 11.2694 16.4549C11.3538 16.4194 11.4303 16.3673 11.4943 16.3019C11.5583 16.2364 11.6087 16.1588 11.6423 16.0736C11.6759 15.9884 11.6922 15.8974 11.6902 15.8058V15.2297C12.7996 15.0206 13.7513 14.3045 13.7513 13.0665C13.7513 12.2072 13.3626 11.5121 12.8423 11.1074C12.322 10.7027 11.7345 10.522 11.2189 10.3501C10.7032 10.1782 10.2581 10.0152 10.005 9.81836C9.75187 9.62147 9.63037 9.45581 9.63037 8.94018C9.63037 7.79435 12.375 7.79435 12.375 8.94018C12.375 9.1227 12.4475 9.29774 12.5766 9.4268C12.7056 9.55585 12.8807 9.62836 13.0632 9.62836C13.2457 9.62836 13.4207 9.55585 13.5498 9.4268C13.6788 9.29774 13.7513 9.1227 13.7513 8.94018C13.7513 7.70324 12.7993 6.98914 11.6902 6.77966V6.19958C11.6913 6.1076 11.6739 6.01634 11.6391 5.93119C11.6042 5.84605 11.5527 5.76876 11.4874 5.7039C11.4222 5.63905 11.3446 5.58794 11.2593 5.55361C11.1739 5.51927 11.0826 5.50241 10.9906 5.50403Z" fill="#E65C00"/>
<g clip-path="url(#clip1_5380_7853)">
<path d="M11.5304 10.2502V7.58385C12.1007 7.68006 12.6386 7.91411 13.0984 8.26558C13.19 8.32844 13.2976 8.36255 13.4089 8.36405C13.7657 8.36405 14.0566 8.07696 14.0604 7.72019C14.0611 7.56719 14.0013 7.42023 13.8937 7.31115C13.2294 6.74227 12.3962 6.40671 11.5228 6.35672V5.46288C11.5228 5.20759 11.316 5.0008 11.0607 5.0008C11.0554 5.00005 11.0501 5.00005 11.0448 5.00005C10.7857 4.99625 10.5721 5.20307 10.5683 5.46288V6.32642C8.86399 6.44761 7.70504 7.50053 7.70504 8.90187C7.70504 10.6214 9.167 11.0986 10.5683 11.4773V14.5073C9.82902 14.4081 9.13214 14.1013 8.56099 13.621C8.45343 13.5354 8.3201 13.4877 8.18224 13.4847C7.83304 13.5089 7.56414 13.8013 7.56866 14.1513C7.56791 14.3043 7.62775 14.4512 7.7353 14.5603C8.51779 15.2648 9.52374 15.6701 10.5759 15.7041V16.5374C10.5759 16.5427 10.5766 16.548 10.5766 16.5533C10.5888 16.8123 10.8092 17.0123 11.0682 16.9994C11.3235 16.9994 11.5303 16.7927 11.5303 16.5374V15.689C13.5982 15.5527 14.4315 14.2952 14.4315 12.962C14.4315 11.1743 12.9317 10.629 11.5304 10.2502ZM10.5759 10.0078C9.75027 9.76541 9.10641 9.51545 9.10641 8.81098C9.10641 8.10651 9.68968 7.59899 10.5759 7.53083V10.0078ZM11.5304 14.5224V11.7652C12.3863 12.0076 13.0529 12.3333 13.0453 13.1287C13.0453 13.7044 12.6514 14.3861 11.5304 14.5224Z" fill="#F5BE99"/>
</g>
</g>
<defs>
<clipPath id="clip0_5380_7853">
<rect width="22" height="22" fill="white"/>
</clipPath>
<clipPath id="clip1_5380_7853">
<rect width="12" height="12" fill="white" transform="translate(5 5)"/>
</clipPath>
</defs>
</svg>
