<svg width="32" height="26" viewBox="0 0 32 26" fill="none" xmlns="http://www.w3.org/2000/svg">
<path fill-rule="evenodd" clip-rule="evenodd" d="M29.3287 9.07305H23.6825C21.0549 9.07681 18.9263 10.7631 18.9216 12.8446C18.918 14.9308 21.049 16.6246 23.6825 16.6274H29.3334V16.9589C29.3334 20.598 26.6182 22.75 22.0232 22.75H9.97816C5.38201 22.75 2.66675 20.598 2.66675 16.9589V9.03268C2.66675 5.39351 5.38201 3.25 9.97816 3.25H22.0185C26.6134 3.25 29.3287 5.39351 29.3287 9.03268V9.07305ZM8.98616 9.0646H16.5062H16.5109H16.5204C17.0833 9.06273 17.5385 8.69937 17.5361 8.25246C17.5337 7.80648 17.0739 7.44594 16.5109 7.44782H8.98616C8.42675 7.4497 7.97282 7.8093 7.97045 8.25339C7.96808 8.69937 8.42319 9.06273 8.98616 9.0646Z" fill="#FA6D26"/>
<path opacity="0.4" d="M21.3834 13.3215C21.6622 14.3519 22.7741 15.0769 24.0436 15.0581H28.3769C28.905 15.0581 29.3335 14.7026 29.3335 14.2633V11.5208C29.3324 11.0824 28.905 10.726 28.3769 10.7251H23.9416C22.4976 10.7289 21.3312 11.7028 21.3335 12.9029C21.3335 13.0434 21.3505 13.1838 21.3834 13.3215" fill="#FA6D26"/>
<ellipse cx="24.0001" cy="12.8917" rx="1.33333" ry="1.08333" fill="#FA6D26"/>
</svg>
