<svg width="22" height="22" viewBox="0 0 22 22" fill="none" xmlns="http://www.w3.org/2000/svg">
<path fill-rule="evenodd" clip-rule="evenodd" d="M20.1633 7.6772H16.2815C14.4751 7.68038 13.0117 9.10722 13.0084 10.8685C13.006 12.6338 14.471 14.067 16.2815 14.0694H20.1666V14.3498C20.1666 17.4291 18.2998 19.25 15.1408 19.25H6.85984C3.69999 19.25 1.83325 17.4291 1.83325 14.3498V7.64304C1.83325 4.56374 3.69999 2.75 6.85984 2.75H15.1375C18.2966 2.75 20.1633 4.56374 20.1633 7.64304V7.6772ZM6.17784 7.67005H11.3478H11.3511H11.3576C11.7447 7.66846 12.0575 7.36101 12.0559 6.98285C12.0543 6.60548 11.7381 6.30041 11.3511 6.302H6.17784C5.79325 6.30359 5.48118 6.60787 5.47955 6.98364C5.47792 7.36101 5.79081 7.66846 6.17784 7.67005Z" fill="#E65C00"/>
<path opacity="0.4" d="M14.7008 11.2719C14.8925 12.1438 15.6569 12.7573 16.5297 12.7413H19.5088C19.8719 12.7413 20.1665 12.4406 20.1665 12.0688V9.74823C20.1657 9.37729 19.8719 9.07575 19.5088 9.07495H16.4596C15.4668 9.07814 14.6649 9.9022 14.6665 10.9177C14.6665 11.0366 14.6782 11.1554 14.7008 11.2719Z" fill="#E65C00"/>
<circle cx="16.4999" cy="10.9084" r="0.916667" fill="#E65C00"/>
</svg>
