<svg width="30" height="34" viewBox="0 0 30 34" fill="none" xmlns="http://www.w3.org/2000/svg">
<path fill-rule="evenodd" clip-rule="evenodd" d="M29.4707 24.0972L28.2168 13.9884C27.4538 10.3851 25.2918 8.90137 23.2309 8.90137H6.67532C4.58508 8.90137 2.35134 10.2807 1.70405 13.9884L0.435531 24.0972C-0.601438 31.5125 3.21715 33.3663 8.20307 33.3663H21.7179C26.6908 33.3663 30.3935 30.6826 29.4707 24.0972ZM10.2101 17.3047C9.91498 17.3131 9.62407 17.2333 9.37456 17.0755C9.12505 16.9177 8.92834 16.689 8.80951 16.4188C8.69069 16.1485 8.65514 15.849 8.70751 15.5584C8.75988 15.2679 8.89777 14.9995 9.10348 14.7878C9.30919 14.576 9.57338 14.4304 9.86228 14.3697C10.1512 14.3089 10.4517 14.3357 10.7253 14.4466C10.9989 14.5576 11.2332 14.7477 11.3982 14.9925C11.5632 15.2373 11.6513 15.5258 11.6515 15.821C11.6558 16.2086 11.5067 16.5821 11.2367 16.86C10.9667 17.138 10.5976 17.2978 10.2101 17.3047ZM18.2075 15.821C18.2158 16.1042 18.3074 16.3785 18.4707 16.6099C18.6341 16.8413 18.862 17.0194 19.126 17.122C19.39 17.2246 19.6784 17.2472 19.9551 17.1869C20.2318 17.1266 20.4847 16.9861 20.682 16.7829C20.8794 16.5797 21.0125 16.323 21.0648 16.0446C21.117 15.7662 21.0861 15.4786 20.9759 15.2177C20.8657 14.9568 20.681 14.7342 20.445 14.5776C20.209 14.421 19.932 14.3374 19.6488 14.3373C19.2599 14.3421 18.8888 14.501 18.617 14.7792C18.3452 15.0574 18.195 15.4321 18.1994 15.821H18.2075Z" fill="white"/>
<path opacity="0.4" d="M23.0478 8.54067C23.0529 8.66741 23.0283 8.7936 22.9761 8.90917H20.6331C20.5878 8.79154 20.5641 8.66671 20.5631 8.54067C20.5631 7.03411 19.9646 5.5893 18.8993 4.524C17.834 3.4587 16.3891 2.86021 14.8825 2.86021C13.376 2.86021 11.9311 3.4587 10.8658 4.524C9.80051 5.5893 9.20202 7.03411 9.20202 8.54067C9.22321 8.66258 9.22321 8.78726 9.20202 8.90917H6.80202C6.78084 8.78726 6.78084 8.66258 6.80202 8.54067C6.89587 6.44376 7.79485 4.46388 9.31189 3.01321C10.8289 1.56255 12.8471 0.75293 14.9461 0.75293C17.0451 0.75293 19.0632 1.56255 20.5803 3.01321C22.0973 4.46388 22.9964 6.44376 23.0902 8.54067H23.0478Z" fill="white"/>
</svg>
