<svg width="114" height="115" viewBox="0 0 114 115" fill="none" xmlns="http://www.w3.org/2000/svg">
<rect y="0.832275" width="114" height="114" rx="57" fill="#E45C01"/>
<path d="M51.0056 69.3197L51.0015 69.3075C50.7422 69.2283 50.4844 69.1442 50.2283 69.0552C46.5521 67.7531 43.3263 65.4242 40.9335 62.3445C39 59.8547 37.6715 56.9497 37.0527 53.8586C36.4339 50.7676 36.5417 47.575 37.3678 44.5327C38.1938 41.4905 39.7154 38.6818 41.8126 36.3281C43.9097 33.9745 46.525 32.1403 49.4523 30.9703C52.3795 29.8002 55.5385 29.3263 58.6802 29.586C61.8219 29.8456 64.8603 30.8316 67.5558 32.4663C70.2512 34.101 72.53 36.3396 74.2123 39.0056C75.8947 41.6716 76.9346 44.6919 77.25 47.8285C77.3599 48.9477 76.4361 49.8592 75.3129 49.8592C74.1897 49.8592 73.2903 48.9436 73.156 47.8285C72.7928 44.9507 71.6673 42.2222 69.8957 39.9253C68.1242 37.6284 65.7711 35.8466 63.08 34.7643C60.3888 33.6819 57.4573 33.3384 54.5888 33.7691C51.7203 34.1998 49.0189 35.3893 46.7643 37.2143C44.5097 39.0393 42.7837 41.4336 41.765 44.1495C40.7462 46.8653 40.4716 49.8041 40.9696 52.6617C41.4677 55.5193 42.7203 58.1919 44.5978 60.403C46.4753 62.6141 48.9095 64.2833 51.6486 65.238C52.3395 63.9778 53.4528 63.0019 54.7926 62.4819C56.1324 61.962 57.6126 61.9314 58.9727 62.3955C60.3328 62.8597 61.4856 63.7889 62.2279 65.0194C62.9703 66.2499 63.2547 67.7029 63.0311 69.1226C62.8075 70.5422 62.0901 71.8374 61.0054 72.7801C59.9207 73.7228 58.5381 74.2526 57.1012 74.2761C55.6643 74.2997 54.2651 73.8155 53.1501 72.9089C52.035 72.0022 51.2756 70.7312 51.0056 69.3197ZM47.7784 72.4736C43.7947 70.843 40.3109 68.1916 37.6779 64.7863C37.0077 65.7882 36.6508 66.9668 36.6523 68.1721V70.2069C36.6523 78.2279 44.2217 86.485 57 86.485C69.7783 86.485 77.3477 78.2279 77.3477 70.2069V68.1721C77.3477 66.5532 76.7045 65.0005 75.5597 63.8557C74.415 62.7109 72.8623 62.0678 71.2434 62.0678H65.1391C65.9926 63.2077 66.5973 64.5141 66.9141 65.9025C67.2309 67.2909 67.2527 68.7303 66.9781 70.1276C66.7035 71.525 66.1386 72.8491 65.3199 74.0143C64.5013 75.1796 63.4472 76.1599 62.2257 76.8921C61.0043 77.6242 59.6427 78.0917 58.2292 78.2645C56.8156 78.4372 55.3816 78.3112 54.0198 77.8947C52.658 77.4783 51.3988 76.7805 50.3237 75.8467C49.2485 74.9128 48.3814 73.7637 47.7784 72.4736ZM69.2086 49.8592C69.2086 46.1397 67.5442 42.8067 64.9193 40.5685C63.6377 39.4829 62.1459 38.6735 60.5372 38.1908C58.9285 37.7081 57.2375 37.5625 55.57 37.7631C53.9025 37.9638 52.2943 38.5064 50.846 39.3569C49.3977 40.2074 48.1405 41.3476 47.153 42.7062C46.1655 44.0648 45.469 45.6125 45.1069 47.2526C44.7449 48.8927 44.7251 50.5898 45.0489 52.2379C45.3727 53.8859 46.033 55.4495 46.9887 56.8307C47.9443 58.2118 49.1746 59.381 50.6027 60.265C52.4106 58.7951 54.6699 57.9931 57 57.9942C59.3291 57.9908 61.5883 58.7899 63.3973 60.2569C65.1738 59.1649 66.6407 57.6357 67.6581 55.8154C68.6754 53.9952 69.2093 51.9445 69.2086 49.8592Z" fill="white"/>
</svg>
