<svg width="11" height="11" viewBox="0 0 11 11" fill="none" xmlns="http://www.w3.org/2000/svg">
<path d="M10.1742 8.24428L7.41671 5.48838L10.1726 2.73248C10.7027 2.20393 10.7027 1.34368 10.1726 0.815126C9.64251 0.281926 8.78536 0.283476 8.25526 0.813576L5.49781 3.56948L2.74036 0.810476C2.21026 0.280376 1.35156 0.283476 0.821461 0.810476C0.292911 1.34058 0.292911 2.20083 0.821461 2.72938L3.58046 5.48838L0.827661 8.23963C0.297561 8.76973 0.297561 9.62998 0.827661 10.157C1.09271 10.4236 1.43836 10.5553 1.78556 10.5553C2.13431 10.5553 2.47996 10.4236 2.74501 10.1585L5.49781 7.40573L8.25681 10.1632C8.52186 10.4282 8.86751 10.56 9.21471 10.56C9.56191 10.56 9.90911 10.4267 10.1742 10.1632C10.7043 9.63308 10.7043 8.77438 10.1742 8.24428Z" fill="#979999"/>
</svg>
