<svg width="16" height="17" viewBox="0 0 16 17" fill="none" xmlns="http://www.w3.org/2000/svg">
<g clip-path="url(#clip0_5657_52)">
<path d="M15.8784 8.14818C15.8784 3.76349 12.3239 0.208984 7.9392 0.208984C3.5545 0.208984 0 3.76349 0 8.14818C0 12.5329 3.5545 16.0874 7.9392 16.0874C12.3239 16.0874 15.8784 12.5329 15.8784 8.14818Z" fill="#E65C00" fill-opacity="0.58"/>
<path d="M11.3741 5.79346C11.5413 5.92316 11.6501 6.11393 11.6766 6.32382C11.7031 6.53371 11.6452 6.74554 11.5155 6.91273L7.84061 10.6368C7.75723 10.7443 7.65086 10.8318 7.52929 10.8928C7.40773 10.9539 7.27404 10.9869 7.13803 10.9896C7.00203 10.9923 6.86715 10.9645 6.74327 10.9083C6.6194 10.8521 6.50968 10.7688 6.42215 10.6647L4.62271 8.78979C4.48654 8.62781 4.42028 8.41838 4.43852 8.20756C4.45677 7.99675 4.55801 7.80181 4.71998 7.66563C4.88195 7.52946 5.09138 7.46321 5.3022 7.48145C5.51302 7.49969 5.70796 7.60093 5.84413 7.7629L7.09858 8.99003L10.2547 5.93479C10.3189 5.852 10.3988 5.78267 10.4898 5.73076C10.5808 5.67886 10.6812 5.64538 10.7851 5.63226C10.8891 5.61913 10.9946 5.62662 11.0957 5.65428C11.1967 5.68193 11.2914 5.72923 11.3741 5.79346Z" fill="#FFF8F8"/>
</g>
<defs>
<clipPath id="clip0_5657_52">
<rect width="16" height="17" fill="white"/>
</clipPath>
</defs>
</svg>
