<svg width="16" height="17" viewBox="0 0 16 17" fill="none" xmlns="http://www.w3.org/2000/svg">
<rect y="0.209351" width="15.8784" height="15.8784" rx="7.93921" fill="#E65C00"/>
<path d="M11.374 5.79361C11.5412 5.92331 11.65 6.11408 11.6765 6.32397C11.703 6.53386 11.6451 6.74569 11.5154 6.91288L7.84053 10.6369C7.75715 10.7444 7.65078 10.8319 7.52921 10.8929C7.40765 10.954 7.27396 10.987 7.13795 10.9897C7.00195 10.9924 6.86707 10.9646 6.74319 10.9084C6.61932 10.8522 6.5096 10.7689 6.42207 10.6648L4.62263 8.78994C4.48646 8.62796 4.4202 8.41853 4.43844 8.20771C4.45669 7.9969 4.55793 7.80196 4.7199 7.66578C4.88187 7.52961 5.0913 7.46336 5.30212 7.4816C5.51294 7.49984 5.70788 7.60108 5.84405 7.76305L7.0985 8.99018L10.2546 5.93494C10.3188 5.85215 10.3987 5.78282 10.4897 5.73091C10.5807 5.67901 10.6811 5.64553 10.785 5.63241C10.889 5.61928 10.9945 5.62677 11.0956 5.65443C11.1966 5.68208 11.2913 5.72938 11.374 5.79361Z" fill="white"/>
</svg>
