<svg width="17" height="22" viewBox="0 0 17 22" fill="none" xmlns="http://www.w3.org/2000/svg">
<path d="M1.84237 3.41411C1.51577 3.51797 1.59057 4 1.93328 4H14V1.53893C14 1 14 0 12.7312 0C12.5996 0 12.4651 0.0250658 12.3311 0.0785804L1.84237 3.41411Z" fill="#C0C2C2"/>
<path d="M15.5703 3.26025H1.89664C1.40142 3.26025 1 3.66168 1 4.15689V16.0521V21.1033C1 21.5985 1.40142 22 1.89664 22H15.5703C16.0656 22 16.467 21.5985 16.467 21.1033V4.15689C16.467 3.66172 16.0655 3.26025 15.5703 3.26025ZM4.25031 11.3445H4.4451C4.73498 9.48856 6.20506 8.01848 8.06101 7.7286V7.39164C8.06101 7.02025 8.3621 6.71916 8.73349 6.71916C9.10488 6.71916 9.40597 7.02025 9.40597 7.39164V7.7286C11.2619 8.01848 12.732 9.48856 13.0219 11.3445H13.2167C13.5881 11.3445 13.8891 11.6456 13.8891 12.017C13.8891 12.3884 13.5881 12.6895 13.2167 12.6895H4.25031C3.87892 12.6895 3.57783 12.3884 3.57783 12.017C3.57783 11.6456 3.87888 11.3445 4.25031 11.3445ZM8.41146 15.1787C8.41146 15.5501 8.11037 15.8512 7.73898 15.8512H4.51109C4.13971 15.8512 3.83862 15.5501 3.83862 15.1787C3.83862 14.8073 4.13971 14.5062 4.51109 14.5062H7.73898C8.11037 14.5062 8.41146 14.8073 8.41146 15.1787ZM13.0486 18.5411H4.41843C4.04704 18.5411 3.74595 18.24 3.74595 17.8686C3.74595 17.4972 4.04704 17.1961 4.41843 17.1961H13.0486C13.4199 17.1961 13.721 17.4972 13.721 17.8686C13.721 18.24 13.4199 18.5411 13.0486 18.5411Z" fill="#E5E5E5"/>
<path d="M11.6534 11.3446C11.3474 10.0155 10.1545 9.02148 8.73395 9.02148C7.31336 9.02148 6.12052 10.0156 5.81445 11.3446H11.6534Z" fill="#E5E5E5"/>
</svg>
