<svg width="18" height="22" viewBox="0 0 18 22" fill="none" xmlns="http://www.w3.org/2000/svg">
<path d="M2.42037 3.4131C2.09074 3.51384 2.16337 4 2.50805 4H15V1.53893C15 1 15 0 13.7312 0C13.5996 0 13.4651 0.0250658 13.3311 0.0785804L2.42037 3.4131Z" fill="#CD5403"/>
<path d="M16.5703 3.26074H2.89664C2.40142 3.26074 2 3.66217 2 4.15738V16.0526V21.1038C2 21.599 2.40142 22.0004 2.89664 22.0004H16.5703C17.0656 22.0004 17.467 21.599 17.467 21.1038V4.15738C17.467 3.66221 17.0655 3.26074 16.5703 3.26074ZM5.25031 11.345H5.4451C5.73498 9.48905 7.20506 8.01897 9.06101 7.72908V7.39213C9.06101 7.02074 9.3621 6.71965 9.73349 6.71965C10.1049 6.71965 10.406 7.02074 10.406 7.39213V7.72908C12.2619 8.01897 13.732 9.48905 14.0219 11.345H14.2167C14.5881 11.345 14.8891 11.6461 14.8891 12.0175C14.8891 12.3889 14.5881 12.69 14.2167 12.69H5.25031C4.87892 12.69 4.57783 12.3889 4.57783 12.0175C4.57783 11.6461 4.87888 11.345 5.25031 11.345ZM9.41146 15.1792C9.41146 15.5506 9.11037 15.8517 8.73898 15.8517H5.51109C5.13971 15.8517 4.83862 15.5506 4.83862 15.1792C4.83862 14.8078 5.13971 14.5067 5.51109 14.5067H8.73898C9.11037 14.5067 9.41146 14.8078 9.41146 15.1792ZM14.0486 18.5416H5.41843C5.04704 18.5416 4.74595 18.2405 4.74595 17.8691C4.74595 17.4977 5.04704 17.1966 5.41843 17.1966H14.0486C14.4199 17.1966 14.721 17.4977 14.721 17.8691C14.721 18.2405 14.4199 18.5416 14.0486 18.5416Z" fill="#E65C00"/>
<path d="M12.6534 11.3446C12.3474 10.0155 11.1545 9.02148 9.73395 9.02148C8.31336 9.02148 7.12052 10.0156 6.81445 11.3446H12.6534Z" fill="#E65C00"/>
</svg>
