<svg width="17" height="17" viewBox="0 0 17 17" fill="none" xmlns="http://www.w3.org/2000/svg">
<path d="M10.7954 1.63976L11.6635 0.77049C12.6893 -0.25683 14.4747 -0.25683 15.5006 0.77049L16.201 1.47183C16.7139 1.98549 17 2.66708 17 3.38818C17 4.10928 16.7139 4.80074 16.201 5.30453L15.3329 6.1738L10.7954 1.62988V1.63976Z" fill="#979999" fill-opacity="0.4"/>
<path d="M9.74987 2.68701L0.763606 11.6859C0.477545 11.9724 0.299989 12.3478 0.270397 12.7528L0.00406409 15.647C-0.0255284 16.0125 0.102706 16.3681 0.359175 16.6349C0.595915 16.8719 0.901704 17.0003 1.22722 17.0003H1.33573L4.22593 16.7336C4.63036 16.6941 5.0052 16.5163 5.29126 16.2299L14.2775 7.23093L9.74001 2.68701H9.74987Z" fill="#979999"/>
</svg>
