<svg width="254" height="133" viewBox="0 0 254 133" fill="none" xmlns="http://www.w3.org/2000/svg">
<path d="M286.15 93.2936C286.092 92.9009 286.046 92.5083 285.995 92.1143C285.884 91.2875 286.217 90.6645 286.891 90.2123C287.262 89.9625 287.672 89.7697 288.02 89.495C288.482 89.1301 288.944 88.7472 289.329 88.3047C289.7 87.876 289.588 87.4806 289.082 87.2143C288.468 86.8924 287.834 86.6052 287.209 86.3069C286.897 86.1585 286.562 86.0447 286.27 85.8643C285.437 85.3552 285.205 84.7933 285.423 83.8583C285.513 83.4726 285.64 83.0952 285.753 82.7151C285.945 82.0728 285.769 81.54 285.261 81.1183C284.766 80.7076 284.243 80.3275 283.76 79.903C282.941 79.1843 282.098 78.4865 281.349 77.6985C279.793 76.0642 279.485 74.151 280.273 72.0506C280.733 70.8256 281.432 70.3095 282.747 70.3289C283.588 70.3414 284.436 70.3969 285.265 70.5273C286.852 70.777 288.421 70.7215 289.999 70.4538C290.728 70.3303 291.475 70.2596 292.216 70.2457C293.424 70.2235 294.441 70.6647 295.179 71.6594C295.445 72.0173 295.723 72.3669 295.975 72.736C297.408 74.8309 299.422 75.9504 301.906 76.3028C302.839 76.4346 303.774 76.5775 304.688 76.7967C306.576 77.249 307.317 78.2992 307.182 79.939C307.174 80.0375 307.181 80.1374 307.174 80.2359C307.107 81.1668 307.37 81.9979 307.911 82.7526C308.112 83.0342 308.31 83.3227 308.474 83.6266C309.166 84.9182 308.875 85.9268 307.607 86.6191C307.26 86.8091 306.89 86.9576 306.521 87.1018C305.966 87.3183 305.391 87.4861 304.849 87.7248C304.447 87.9023 303.983 88.0785 303.718 88.399C303.055 89.1995 302.174 89.6268 301.279 90.0527C300.429 90.4578 299.559 90.8227 298.715 91.2445C296.27 92.4667 294.305 94.2522 292.708 96.4553C292.611 96.5885 292.399 96.73 292.693 96.9853C293.194 96.7564 293.735 96.5261 294.261 96.2638C296.793 95.0069 299.315 93.7292 301.852 92.4833C304.85 91.0128 307.689 89.3174 310.125 86.9964C311.389 85.7922 312.847 84.8488 314.451 84.1385C314.759 84.0026 315.04 83.8028 315.338 83.6294C315.443 82.8941 315.144 82.3266 314.846 81.7564C314.57 81.2306 314.263 80.7146 314.05 80.1624C313.844 79.6324 313.821 79.0123 314.333 78.6613C315.128 78.1175 315.287 77.3405 315.406 76.4901C315.495 75.8533 315.626 75.2165 315.812 74.6019C316.186 73.3658 317.059 72.7346 318.345 72.6902C318.689 72.6777 319.039 72.6971 319.38 72.7457C319.968 72.8275 320.562 72.9094 321.138 73.0523C322.191 73.3145 323.106 73.0606 323.912 72.3822C324.442 71.9355 324.957 71.4665 325.445 70.9754C326.527 69.885 327.557 68.739 328.668 67.6791C330.066 66.3459 331.502 65.0487 332.966 63.789C334.02 62.8817 335.205 62.1478 336.475 61.5651C337.292 61.1891 338.137 60.9075 339.045 60.8825C340.716 60.8354 341.755 61.862 341.745 63.5338C341.74 64.5479 341.432 65.4857 341.018 66.3958C340.004 68.6267 338.66 70.648 336.977 72.4197C335.648 73.8209 334.22 75.1291 332.852 76.4929C332.669 76.676 332.296 76.7926 332.489 77.2754C333.658 76.8938 334.844 76.5442 336.003 76.1197C338.052 75.3705 340.08 74.5645 342.125 73.8042C343.008 73.4768 343.9 73.1619 344.808 72.9219C345.376 72.7721 345.988 72.6818 346.569 72.7207C347.974 72.8123 348.747 74.0054 348.365 75.3664C348.213 75.9116 347.904 76.3597 347.482 76.7135C347.104 77.0312 346.706 77.3433 346.272 77.5708C344.824 78.3311 343.36 79.0595 341.894 79.7836C341.139 80.1568 340.355 80.4732 339.604 80.8561C339.075 81.1266 338.569 81.4568 338.393 82.1824C338.549 82.3696 338.705 82.6194 338.919 82.8053C339.517 83.3255 340.151 83.8041 340.746 84.3272C341.383 84.8849 341.948 85.5106 342.318 86.2875C342.944 87.6027 342.723 88.6931 341.593 89.5963C341.131 89.9653 340.614 90.2761 340.096 90.5633C337.421 92.0408 334.57 93.0175 331.547 93.46C328.447 93.9137 325.418 94.667 322.426 95.5716C315.544 97.654 308.674 99.771 301.887 102.156C299.365 103.042 296.772 103.729 294.204 104.485C292.872 104.876 291.523 105.209 290.189 105.59C289.925 105.664 289.687 105.827 289.363 105.985C289.7 106.908 290.024 107.736 290.303 108.578C290.579 109.414 290.809 110.266 291.082 111.186C291.412 111.142 291.697 111.078 291.983 111.067C293.169 111.024 294.365 110.878 295.538 110.985C298.8 111.279 302.03 111.838 305.201 112.651C307.601 113.266 309.976 113.989 312.34 114.738C318.017 116.536 323.754 118.11 329.562 119.42C330.899 119.721 332.256 119.979 333.812 119.986C333.607 119.677 333.514 119.448 333.349 119.303C332.716 118.75 332.06 118.221 331.411 117.686C331.144 117.467 330.845 117.279 330.603 117.035C330.082 116.507 330.19 115.775 330.85 115.424C331.151 115.265 331.502 115.204 331.826 115.082C332.018 115.01 332.2 114.907 332.503 114.761C331.849 114.485 331.322 114.324 330.86 114.052C330.005 113.551 329.886 112.637 330.584 111.928C330.925 111.581 331.341 111.279 331.776 111.058C332.658 110.61 333.581 110.239 334.477 109.817C334.67 109.727 334.828 109.559 335.04 109.398C334.506 109.108 334.048 108.908 333.644 108.631C332.808 108.058 332.566 107.168 333.063 106.292C333.325 105.828 333.7 105.398 334.109 105.055C334.907 104.388 335.774 103.805 336.595 103.166C337.924 102.131 339.267 101.11 340.552 100.024C341.77 98.9941 342.769 97.758 343.615 96.404C343.704 96.2611 343.737 96.0835 343.866 95.7325C342.607 96.1556 341.548 96.5621 340.515 97.0186C335.852 99.0815 331.788 101.891 329.002 106.297C328.582 106.962 328.07 107.589 327.507 108.135C326.099 109.5 324.302 109.725 322.575 108.808C322.139 108.576 321.737 108.281 321.336 107.99C320.771 107.579 320.186 107.246 319.501 107.046C318.991 106.898 318.525 106.583 318.063 106.304C317.726 106.1 317.432 105.824 317.107 105.599C316.443 105.139 315.957 105.193 315.436 105.812C315.117 106.19 314.84 106.604 314.546 107.002C313.937 107.826 313.092 108.207 312.098 108.164C311.361 108.133 310.615 108.023 309.899 107.845C306.84 107.085 303.743 106.842 300.605 107.075C299.27 107.175 297.938 107.293 296.604 107.383C295.962 107.426 295.316 107.439 294.674 107.433C294.434 107.431 294.189 107.358 293.96 107.278C293.681 107.179 293.582 106.729 293.8 106.529C293.978 106.366 294.18 106.186 294.404 106.125C294.925 105.981 295.462 105.861 296 105.806C297.725 105.627 299.451 105.452 301.179 105.329C304.109 105.119 307.021 105.244 309.897 105.906C310.427 106.028 310.971 106.097 311.508 106.186C312.156 106.293 312.669 106.1 313.049 105.538C313.327 105.129 313.615 104.72 313.95 104.358C314.997 103.221 316.558 103.038 317.865 103.875C318.156 104.062 318.416 104.309 318.724 104.46C319.116 104.653 319.541 104.896 319.957 104.907C320.805 104.928 321.48 105.276 322.143 105.731C322.51 105.982 322.88 106.24 323.281 106.429C324.267 106.896 324.832 106.747 325.431 105.839C325.839 105.219 326.214 104.573 326.55 103.911C327.278 102.472 328.325 101.312 329.496 100.215C333.597 96.3734 338.647 94.3743 343.866 92.6845C344.147 92.5943 344.446 92.5416 344.742 92.5208C345.034 92.5 345.338 92.5055 345.626 92.5624C346.814 92.7983 347.435 93.6723 347.142 94.8446C346.964 95.5549 346.665 96.2569 346.304 96.8965C344.593 99.9347 342.116 102.279 339.387 104.381C338.483 105.076 337.532 105.709 336.613 106.385C336.39 106.55 336.211 106.773 335.943 107.038C336.418 107.238 336.784 107.376 337.136 107.544C337.583 107.758 338.058 107.941 338.45 108.232C339.366 108.914 339.328 110.089 338.385 110.731C338.062 110.952 337.686 111.107 337.315 111.242C336.197 111.649 335.066 112.023 333.95 112.431C333.647 112.54 333.264 112.547 333.058 113.023C333.425 113.156 333.771 113.299 334.126 113.409C334.742 113.599 335.369 113.751 335.979 113.955C336.436 114.108 336.72 114.444 336.774 114.936C336.817 115.327 336.526 115.698 335.986 115.891C335.614 116.022 335.226 116.122 334.838 116.192C334.252 116.294 333.66 116.347 333.073 116.441C332.809 116.484 332.555 116.58 332.195 116.68C332.905 117.276 333.55 117.745 334.104 118.304C334.549 118.754 334.962 119.273 335.248 119.833C335.573 120.467 335.198 121.175 334.5 121.337C334.026 121.447 333.52 121.465 333.028 121.452C330.337 121.38 327.712 120.848 325.107 120.233C319.842 118.993 314.648 117.492 309.498 115.845C305.236 114.482 300.874 113.549 296.466 112.826C295.153 112.611 293.806 112.578 292.471 112.525C291.998 112.505 291.473 112.453 291.103 112.738C290.734 113.987 290.486 115.211 290.013 116.34C289.383 117.845 288.618 119.299 287.837 120.734C286.582 123.042 284.811 124.904 282.607 126.326C278.724 128.83 274.552 130.607 269.92 131.124C266.374 131.519 262.825 131.895 259.272 132.211C254.823 132.608 250.357 132.539 245.901 132.472C232.524 132.271 219.149 132.003 205.773 131.74C198.343 131.594 190.914 131.343 183.483 131.251C173.912 131.133 164.365 130.695 154.87 129.432C151.87 129.033 148.886 128.521 146.01 127.546C144.887 127.165 143.777 126.709 142.731 126.158C141.954 125.749 141.213 125.202 140.588 124.585C139.543 123.551 139.507 122.261 140.412 121.09C140.771 120.624 141.205 120.193 141.676 119.842C142.429 119.28 143.222 118.765 144.034 118.291C145.883 117.211 147.846 116.365 149.89 115.745C153.258 114.724 156.623 113.675 160.036 112.826C168.985 110.601 177.909 108.284 186.781 105.759C194.553 103.547 202.394 101.58 210.202 99.4936C214.275 98.4059 218.376 97.4376 222.521 96.6676C228.662 95.5272 234.809 94.4201 240.947 93.2658C246.504 92.2212 252.088 91.3901 257.721 90.8741C260.244 90.6424 262.761 90.5675 265.29 90.7187C266.722 90.8047 268.161 90.7853 269.595 90.831C272.02 90.906 274.448 90.9739 276.798 91.6773C277.771 91.1279 277.875 91.0988 278.869 91.4303C281.186 92.2017 283.123 93.5294 284.649 95.4439C284.982 95.8615 285.312 96.2805 285.773 96.8632C286.357 94.9903 286.374 94.7988 286.15 93.2936ZM143.417 123.94C145.22 124.929 147.179 125.455 149.182 125.849C154.496 126.896 159.884 127.286 165.276 127.637C171.409 128.037 177.548 128.209 183.694 128.185C191.821 128.156 199.94 128.543 208.062 128.728C223.071 129.07 238.076 129.488 253.09 129.417C258.951 129.389 264.764 128.773 270.552 127.927C274.667 127.325 278.288 125.508 281.621 123.085C283.553 121.681 284.823 119.725 285.932 117.659C286.59 116.434 287.153 115.169 287.536 113.825C287.93 112.439 287.905 111.088 287.356 109.747C286.114 106.717 285.022 103.633 284.04 100.509C283.384 98.4239 282.17 96.6884 280.527 95.258C279.594 94.445 278.624 93.6737 277.621 92.8427C277.35 93.0258 277.108 93.2713 276.816 93.3629C276.551 93.4462 276.232 93.3574 275.938 93.3518C275.493 93.3449 275.047 93.3477 274.602 93.3407C273.811 93.3296 273.02 93.3088 272.23 93.3005C271.042 93.2894 269.856 93.2866 268.668 93.2783C267.826 93.2727 266.983 93.2977 266.145 93.245C263.514 93.0813 260.906 93.2242 258.288 93.5363C250.307 94.488 242.424 96.0086 234.551 97.5846C234.226 97.6498 233.907 97.7413 233.481 97.8468C233.792 98.4142 234.06 98.8735 234.298 99.3465C234.522 99.7891 234.716 100.246 234.92 100.698C235.376 101.708 235.598 102.773 235.603 103.873C235.604 104.31 235.511 104.757 235.392 105.18C235.278 105.581 234.665 105.656 234.43 105.297C234.217 104.968 234.042 104.603 233.917 104.233C233.458 102.87 233.022 101.501 232.584 100.132C232.374 99.4769 232.18 98.8166 231.962 98.1062C231.529 98.1673 231.141 98.2144 230.755 98.2797C223.369 99.5255 216.067 101.131 208.846 103.148C201.924 105.08 194.934 106.772 187.993 108.642C182.821 110.035 177.634 111.347 172.388 112.432C172.01 112.511 171.638 112.625 171.136 112.757C171.449 113.178 171.721 113.502 171.946 113.855C172.158 114.188 172.336 114.546 172.498 114.907C172.681 115.313 172.837 115.732 172.992 116.151C173.129 116.523 173.254 116.901 173.376 117.278C173.515 117.702 173.647 118.128 173.779 118.554C174.196 119.899 174.32 121.28 174.179 122.672C174.116 123.303 173.913 123.927 173.715 124.535C173.598 124.893 173.193 125.098 172.892 125.037C172.559 124.971 172.4 124.715 172.33 124.416C172.264 124.127 172.24 123.829 172.201 123.535C172.015 122.16 171.882 120.774 171.632 119.412C171.374 118.001 171.025 116.605 170.671 115.214C170.491 114.502 170.214 113.815 169.984 113.123C169.89 113.094 169.791 113.027 169.711 113.045C164.236 114.229 158.747 115.355 153.374 116.956C151.712 117.451 150.063 117.997 148.429 118.578C146.741 119.179 145.158 120.005 143.675 121.015C143.023 121.458 142.369 121.912 142.007 122.654C142.267 123.353 142.859 123.633 143.417 123.94ZM338.049 63.4422C337.123 63.9069 336.156 64.344 335.34 64.9683C333.926 66.049 332.578 67.2241 331.268 68.4311C330.104 69.5049 329.045 70.6924 327.915 71.8023C327.138 72.5653 326.348 73.3214 325.506 74.0096C324.176 75.0958 322.662 75.5744 320.927 75.2068C320.3 75.075 319.653 75.0278 319.012 74.9696C318.823 74.9529 318.626 75.0292 318.452 75.0584C317.999 75.4968 318.001 76.0656 317.924 76.5941C317.752 77.7831 317.517 78.9415 316.619 79.8738C316.79 80.2734 316.97 80.623 317.088 80.992C317.282 81.6024 317.528 82.2156 317.587 82.8441C317.715 84.1773 317.243 85.2775 316.043 85.9851C315.745 86.1612 315.441 86.3291 315.136 86.4942C313.953 87.1338 312.834 87.8746 311.863 88.8027C309.363 91.1917 306.462 92.9869 303.402 94.5408C299.999 96.2694 296.575 97.955 293.172 99.6823C292.112 100.221 291.086 100.825 290.05 101.41C289.438 101.755 288.826 102.081 288.034 101.852C287.994 102.604 288.392 103.126 288.55 103.805C288.822 103.729 289.015 103.71 289.172 103.625C290.748 102.769 292.438 102.199 294.125 101.612C297.26 100.523 300.386 99.4034 303.516 98.2963C305.712 97.5194 307.894 96.7008 310.105 95.9753C314.108 94.6642 318.131 93.4115 322.143 92.1268C325.126 91.1723 328.149 90.4703 331.3 90.3135C334.265 90.1651 337.021 89.1884 339.661 87.8677C339.793 87.8025 339.921 87.722 340.036 87.629C340.109 87.5694 340.155 87.4751 340.219 87.3904C340.096 86.7689 339.642 86.3707 339.204 85.9767C338.578 85.4148 337.919 84.8891 337.283 84.3369C335.809 83.055 335.657 81.5192 336.948 80.05C337.428 79.5048 338.052 79.0553 338.679 78.6765C339.396 78.2437 340.193 77.9399 340.952 77.575C342.107 77.02 343.26 76.4596 344.453 75.8825C344.172 75.5467 343.963 75.7618 343.772 75.8325C341.819 76.5512 339.885 77.3267 337.913 77.9912C335.331 78.8611 332.723 79.6519 330.121 80.4607C329.746 80.5772 329.348 80.6771 328.959 80.6757C327.812 80.6715 327.139 79.6768 327.593 78.6197C327.804 78.1299 328.13 77.6624 328.493 77.2684C329.299 76.3972 330.148 75.562 331.008 74.7434C332.301 73.5143 333.642 72.335 334.919 71.092C336.384 69.6672 337.596 68.0385 338.554 66.2307C339.019 65.3553 339.427 64.4577 339.459 63.4131C338.872 63.0634 338.428 63.2535 338.049 63.4422ZM282.94 76.1474C283.437 76.7579 284.017 77.3072 284.594 77.8455C285.172 78.3852 285.778 78.8971 286.4 79.3882C287.718 80.4315 288.115 81.7551 287.672 83.3561C287.632 83.499 287.59 83.6419 287.564 83.7875C287.546 83.8819 287.554 83.9817 287.549 84.1482C287.765 84.5214 288.212 84.6296 288.603 84.8197C289.226 85.1221 289.871 85.3885 290.465 85.7409C291.493 86.3513 291.82 87.2628 291.51 88.4073C291.25 89.3632 290.627 90.0597 289.879 90.6507C289.301 91.1071 288.682 91.515 288.056 91.9617C288.112 93.3088 288.577 94.6074 288.242 95.9545C287.936 97.192 287.815 98.4739 287.41 99.7377C287.527 99.617 287.669 99.5116 287.757 99.3729C288.738 97.8274 289.656 96.2402 290.697 94.7378C292.747 91.7813 295.433 89.5658 298.749 88.1354C299.385 87.8607 300.017 87.5736 300.662 87.3197C301.22 87.1005 301.694 86.7897 302.163 86.4026C302.722 85.9393 303.412 85.616 304.079 85.3053C304.745 84.9945 305.451 84.7739 306.195 84.4936C305.766 83.6016 305.289 82.8358 305.029 82.0034C304.785 81.2182 304.771 80.3622 304.652 79.502C303.935 79.1468 303.137 79.0955 302.371 78.9138C301.168 78.6294 299.956 78.3575 298.79 77.9551C297.311 77.4446 296.095 76.4998 295.083 75.3109C294.57 74.7088 294.072 74.0872 293.618 73.4407C293.17 72.8012 292.592 72.5473 291.833 72.6319C291.39 72.6819 290.942 72.6916 290.504 72.7623C288.578 73.0731 286.658 73.0134 284.735 72.7443C284.103 72.6555 283.462 72.6305 282.728 72.5695C281.969 73.9222 282.077 75.0847 282.94 76.1474Z" fill="#E65C00" fill-opacity="0.4"/>
<path d="M212.82 127.27C213.379 127.315 213.871 127.369 214.364 127.392C215.748 127.453 217.134 127.537 218.52 127.539C219.508 127.539 220.5 127.461 221.481 127.343C225.661 126.844 229.827 126.219 234.016 125.818C244.071 124.854 254.142 124.087 264.225 123.465C266.893 123.3 269.558 123.064 272.213 122.766C273.485 122.623 274.759 122.344 275.987 121.977C277.837 121.423 279.38 120.358 280.505 118.758C281.139 117.855 281.636 116.887 281.608 115.739C281.603 115.495 281.573 115.245 281.511 115.01C281.401 114.593 280.852 114.466 280.564 114.801C280.375 115.021 280.211 115.28 280.103 115.549C279.23 117.732 277.581 119.075 275.416 119.796C274.341 120.154 273.215 120.374 272.098 120.592C267.134 121.561 262.115 122.12 257.086 122.622C249.448 123.385 241.819 124.216 234.16 124.743C230.199 125.016 226.245 125.097 222.292 124.689C219.702 124.423 217.151 124.688 214.607 125.141C214.217 125.211 213.828 125.302 213.454 125.427C213.175 125.519 212.895 125.644 212.66 125.816C212.38 126.022 212.101 126.321 212.254 126.691C212.355 126.93 212.641 127.093 212.82 127.27Z" fill="#E65C00" fill-opacity="0.4"/>
<path d="M246.725 114.846C246.85 113.879 247.011 113.048 247.055 112.211C247.203 109.401 246.757 106.68 245.677 104.073C245.203 102.929 244.721 101.787 244.214 100.658C243.99 100.162 243.716 99.6864 243.419 99.2314C243.262 98.99 243.03 98.7791 242.79 98.6168C242.531 98.4406 242.228 98.4614 241.95 98.6334C241.66 98.8138 241.567 99.076 241.642 99.3964C241.698 99.6364 241.776 99.8723 241.852 100.108C242.853 103.178 243.495 106.335 244.078 109.502C244.419 111.357 244.624 113.224 244.534 115.118C244.516 115.505 244.559 115.911 244.66 116.286C244.781 116.738 245.48 116.91 245.745 116.537C246.139 115.978 246.436 115.352 246.725 114.846Z" fill="#E65C00" fill-opacity="0.4"/>
<path d="M217.424 119.692C217.448 118.807 217.533 117.919 217.485 117.038C217.349 114.498 216.742 112.055 215.758 109.714C215.146 108.257 214.462 106.828 213.773 105.405C213.561 104.967 213.257 104.563 212.94 104.19C212.742 103.957 212.417 103.904 212.123 104.054C211.839 104.199 211.663 104.441 211.738 104.778C211.833 105.211 211.939 105.644 212.071 106.067C213.452 110.509 214.615 115 215.128 119.638C215.16 119.93 215.22 120.226 215.318 120.502C215.44 120.842 215.678 121.108 216.073 121.117C216.439 121.124 216.743 120.968 216.939 120.642C217.015 120.516 217.094 120.387 217.147 120.251C217.218 120.068 217.266 119.875 217.323 119.686C217.358 119.689 217.391 119.69 217.424 119.692Z" fill="#E65C00" fill-opacity="0.4"/>
<path d="M202.723 125.345C202.152 124.968 201.607 124.945 201.09 124.846C197.637 124.184 194.147 123.858 190.637 123.739C188.368 123.661 186.097 123.579 183.827 123.525C183.34 123.514 182.845 123.584 182.363 123.671C182.033 123.731 181.856 124.033 181.903 124.335C181.935 124.542 182.128 124.797 182.316 124.888C182.667 125.054 183.063 125.151 183.451 125.212C184.965 125.452 186.481 125.605 188.022 125.563C190.637 125.491 193.255 125.451 195.871 125.483C197.399 125.501 198.924 125.702 200.453 125.781C201.04 125.812 201.634 125.752 202.219 125.691C202.369 125.674 202.505 125.499 202.723 125.345Z" fill="#E65C00" fill-opacity="0.4"/>
<path d="M194.306 117.357C194.555 116.251 194.695 115.155 194.522 114.087C194.295 112.682 193.942 111.29 193.547 109.921C193.405 109.428 193.029 108.98 192.681 108.579C192.406 108.262 191.831 108.325 191.641 108.653C191.527 108.847 191.441 109.137 191.498 109.34C192.159 111.684 192.15 114.123 192.545 116.504C192.617 116.939 192.675 117.386 192.825 117.797C192.896 117.988 193.151 118.174 193.359 118.237C193.666 118.327 193.931 118.139 194.092 117.868C194.192 117.698 194.245 117.504 194.306 117.357Z" fill="#E65C00" fill-opacity="0.4"/>
<path d="M230.887 105.519C230.906 105.382 230.979 105.136 230.969 104.893C230.926 103.749 230.769 102.617 230.353 101.546C230.238 101.249 229.973 100.971 229.706 100.782C229.357 100.533 228.791 100.819 228.827 101.222C228.949 102.603 229.114 103.978 229.272 105.354C229.289 105.497 229.364 105.637 229.429 105.769C229.569 106.056 229.799 106.229 230.123 106.251C230.442 106.272 230.729 106.02 230.887 105.519Z" fill="#E65C00" fill-opacity="0.4"/>
<path d="M209.496 112.438C209.43 112.733 209.282 113.062 209.299 113.381C209.383 115.007 209.497 116.633 209.633 118.256C209.661 118.588 209.799 118.919 209.938 119.229C210.046 119.469 210.592 119.484 210.708 119.248C210.858 118.947 211.035 118.609 211.027 118.291C210.984 116.51 210.772 114.746 210.295 113.024C210.202 112.689 210.038 112.372 209.496 112.438Z" fill="#E65C00" fill-opacity="0.4"/>
<path d="M159.02 117.697C158.992 117.866 158.908 118.063 158.937 118.241C159.105 119.262 159.289 120.282 159.492 121.297C159.549 121.582 159.646 121.873 159.79 122.123C160.094 122.648 160.837 122.636 161.119 122.095C161.249 121.844 161.365 121.519 161.322 121.254C161.147 120.182 160.9 119.119 160.32 118.178C160.041 117.723 159.64 117.468 159.02 117.697Z" fill="#E65C00" fill-opacity="0.4"/>
<path d="M186.757 114.573C186.742 114.821 186.695 115.057 186.72 115.284C186.865 116.552 187.011 117.82 187.196 119.081C187.239 119.377 187.484 119.625 187.816 119.621C188.129 119.617 188.368 119.426 188.466 119.113C188.525 118.927 188.593 118.732 188.59 118.54C188.573 117.403 188.419 116.285 187.96 115.233C187.752 114.757 187.429 114.413 186.757 114.573Z" fill="#E65C00" fill-opacity="0.4"/>
<path d="M0.000599522 33.9569C-0.0146612 31.7968 0.258643 29.6769 1.1396 27.6833C1.34077 27.2283 1.64597 26.7788 2.01084 26.4458C2.49363 26.0061 3.05274 25.6231 3.6382 25.3332C4.08214 25.1126 4.62044 24.9628 5.11017 24.9794C5.76222 25.003 6.41704 25.1833 7.05383 25.3581C9.42757 26.0088 11.5544 27.2089 13.6742 28.4131C21.1881 32.6833 28.8434 36.683 36.6278 40.4357C41.1505 42.6153 45.6954 44.7476 50.2251 46.9104C51.0242 47.292 51.8274 47.6763 52.5808 48.1383C54.3316 49.2148 55.164 50.777 54.6854 52.8302C54.3344 54.3341 54.0125 55.8921 53.3479 57.2669C50.9159 62.2974 47.2686 66.0752 41.9288 68.134C35.2432 70.7116 28.362 71.3124 21.4627 69.7114C13.2872 67.8135 6.88734 63.3726 3.6382 55.2442C3.20118 54.1496 2.83216 53.0231 2.51168 51.8882C1.10214 46.8952 0.115737 41.8314 0.118512 36.615C0.0782787 35.7285 0.00753622 34.8434 0.000599522 33.9569ZM47.3658 49.0303C45.1765 48.1646 42.9818 47.3114 40.6621 46.4055C40.6621 46.805 40.6594 47.0728 40.6621 47.3392C40.6843 49.0054 40.06 49.6144 38.4077 49.5173C38.1136 49.5006 37.8222 49.4396 37.5323 49.3869C37.2673 49.3383 37.0051 49.2745 36.4099 49.1455C36.8442 49.8669 37.1355 50.2762 37.3478 50.7229C37.7265 51.5178 38.1802 52.3058 38.3841 53.1493C38.749 54.6643 37.6599 56.1682 36.12 56.3694C35.7135 56.4221 35.1891 56.3264 34.8658 56.0947C34.1527 55.5869 33.4424 55.0222 32.8986 54.3452C32.2576 53.5461 31.7929 52.6041 31.2518 51.7259C30.9924 51.3042 30.7315 50.8824 30.4638 50.4496C29.888 50.7382 30.1752 51.1349 30.1503 51.4457C30.1211 51.8119 30.1683 52.1851 30.1419 52.5514C30.1086 53.012 29.9699 53.449 29.4524 53.5628C28.9724 53.6682 28.534 53.4615 28.319 53.0522C27.9444 52.3405 27.5726 51.6052 27.3534 50.8352C26.7138 48.5975 26.8526 46.2972 26.976 44.0109C26.9913 43.7223 27.3242 43.4518 27.6988 42.8872C28.1775 46.1627 27.8431 49.2107 29.0293 52.4765C29.3498 51.2931 29.0626 50.5217 29.1208 49.7698C29.1597 49.2675 29.0223 48.7168 29.537 48.3574C29.8908 48.1105 30.5262 48.2798 31.0853 48.8944C31.5778 49.4368 31.9538 50.0833 32.4158 50.6563C33.201 51.6302 33.9904 52.6 34.827 53.5281C35.024 53.7473 35.4166 53.7889 36.0714 54.0566C35.7829 53.3172 35.6816 52.9093 35.4749 52.5639C35.1363 51.9937 34.7077 51.4776 34.3581 50.9143C33.878 50.1388 33.6547 49.2981 33.8239 48.3755C34.0806 46.9881 34.87 46.3625 36.3045 46.4471C36.6513 46.4679 36.994 46.5511 37.6419 46.6552C36.6999 45.3095 35.7981 44.3259 34.5981 43.7571C30.264 41.7038 25.8953 39.7254 21.6542 37.7707C20.3113 38.2604 19.0904 38.746 17.8432 39.1511C16.3365 39.6394 15.5388 40.673 15.3251 42.199C15.2974 42.3961 15.3973 42.6111 15.4569 42.9108C16.2172 43.0925 16.9095 42.7956 17.6143 42.6582C18.4092 42.5043 19.2028 42.3087 20.006 42.231C20.5818 42.1755 21.2297 42.1977 21.5612 42.8178C21.8845 43.4213 21.6334 43.9693 21.2408 44.4465C20.8662 44.903 20.4167 45.3011 20.0699 45.7742C19.6814 46.3042 19.3387 46.8758 19.0446 47.4626C18.9308 47.6901 19.003 48.0106 18.9849 48.4351C19.9963 48.2451 20.8814 48.0772 21.7749 47.9093C21.8082 48.2104 21.8886 48.3949 21.829 48.4754C21.0715 49.4979 20.0046 49.9376 18.7685 49.9876C17.864 50.0237 17.2119 49.3896 17.2563 48.474C17.3063 47.4266 17.6378 46.4471 18.2067 45.5606C18.4689 45.1513 18.7491 44.7545 19.2055 44.0775C18.5479 44.1996 18.2011 44.2482 17.864 44.3314C17.2189 44.4882 16.589 44.7324 15.9356 44.8211C14.3124 45.0431 13.1942 43.9874 13.2761 42.3767C13.3981 40.0015 14.7425 38.2091 17.0274 37.4072C17.6462 37.1894 18.2802 37.0187 18.9766 36.8051C18.8476 36.5873 18.7866 36.3375 18.634 36.2501C15.364 34.3925 11.9275 32.8609 10.5804 32.6555C10.2752 37.6444 10.7344 42.5348 12.2022 47.3197C13.0402 50.0528 14.3554 52.4667 16.5113 54.4215C18.0943 55.856 19.4816 57.4903 21.2824 58.7042C23.867 60.4481 26.668 61.3582 29.7812 61.5164C32.8903 61.6759 35.7593 61.0918 38.5228 59.606C40.9507 58.3005 43.2856 56.9395 45.1085 54.8238C46.1296 53.6391 47.0064 52.3683 47.5808 50.9088C47.7653 50.4399 47.8541 49.9349 47.9845 49.4507C47.7195 49.2676 47.5586 49.1066 47.3658 49.0303ZM49.4676 49.871C49.3496 49.9973 49.2706 50.0431 49.2539 50.1055C48.0025 54.8502 44.8186 58.0036 40.7093 60.333C38.466 61.6052 36.1755 62.8579 33.5298 63.1007C27.6905 63.6348 22.3811 62.3446 17.8515 58.449C16.9553 57.679 16.1076 56.8507 15.1906 56.1085C12.9486 54.2966 11.4128 52.0103 10.3599 49.3425C8.69089 45.1166 7.7572 40.7327 7.42563 36.2169C7.32296 34.8198 7.33129 33.413 7.73639 32.0396C7.83766 31.6983 7.80299 31.3168 7.83351 30.9297C6.75971 30.1167 5.73724 29.3093 4.56494 28.7557C4.39291 28.9971 4.25278 29.1054 4.24723 29.2191C4.17093 30.7674 4.01832 32.3184 4.06827 33.8639C4.23336 38.9666 4.81327 44.0303 6.05632 48.9859C6.59184 51.1224 7.35904 53.2187 8.20948 55.2525C9.5552 58.4711 11.8166 60.9573 14.73 62.8857C18.0027 65.0541 21.571 66.2722 25.4805 66.6301C30.4055 67.0824 35.1877 66.6121 39.8672 64.9348C45.4013 62.9509 48.9515 59.0663 50.995 53.6751C51.3779 52.6651 51.8677 51.6552 51.7678 50.512C50.9937 50.0167 50.2195 49.8932 49.4676 49.871Z" fill="#E65C00" fill-opacity="0.4"/>
<path d="M22.8029 51.8107C22.7946 52.3476 23.4092 52.9164 23.9697 52.8914C24.9159 52.8498 25.7968 52.0687 25.9494 51.1378C26.0493 50.5218 25.629 49.9392 25.0338 49.8698C23.9766 49.7477 22.8196 50.7535 22.8029 51.8107Z" fill="#E65C00" fill-opacity="0.4"/>
<path d="M12.3964 36.4624C12.3479 36.9688 12.7682 37.5487 13.208 37.5847C13.6977 37.6236 14.132 37.2032 14.1916 36.6302C14.2402 36.1752 13.9364 35.759 13.5007 35.6785C12.9569 35.5787 12.4464 35.9421 12.3964 36.4624Z" fill="#E65C00" fill-opacity="0.4"/>
<path d="M120.339 1.57344C124.157 1.2377 127.967 1.63449 131.765 2.21994C134.33 2.61533 136.903 2.97327 139.461 3.41583C142.556 3.94995 145.547 4.87809 148.422 6.1378C155.573 9.2718 162.511 12.8303 169.051 17.0978C178.011 22.944 185.43 30.4218 191.584 39.1468C194.435 43.1895 196.453 47.6386 197.54 52.4846C198.23 55.5562 198.495 58.6694 198.388 61.8117C198.357 62.6913 198.165 63.5653 198.044 64.4421C197.932 65.2593 197.804 66.0736 197.703 66.8922C197.098 71.7312 195.981 76.4162 193.534 80.699C193.212 81.2622 192.89 81.8282 192.576 82.3971C189.698 87.6121 185.788 91.8809 180.865 95.2313C176.487 98.2113 171.775 100.449 166.669 101.903C162.829 102.996 158.976 103.009 155.091 102.382C151.271 101.766 147.661 100.503 144.218 98.7483C137.936 95.5463 132.499 91.2386 127.688 86.1179C122.897 81.0194 118.734 75.4548 115.238 69.388C112.348 64.3728 109.594 59.2923 107.324 53.9566C105.06 48.6375 103.695 43.0979 103.193 37.3529C102.952 34.5907 102.835 31.8147 102.749 29.0414C102.671 26.565 102.61 24.0802 102.732 21.6094C102.843 19.3744 103.151 17.1435 103.482 14.9266C103.805 12.7609 104.389 10.6508 105.318 8.65718C107.157 4.71297 110.218 2.0826 114.196 0.44415C115.56 -0.117722 116.975 -0.0469801 118.387 0.119501C119.14 0.20829 119.383 0.444144 120.339 1.57344ZM147.044 88.432C147.055 88.2933 147.065 88.1531 147.047 88.3987C147.03 88.1462 147.038 88.2808 147.048 88.4154C147.45 89.1881 147.844 89.965 148.268 90.7252C148.316 90.8126 148.528 90.8085 148.713 90.8612C148.225 89.4642 147.997 89.048 147.363 88.457C147.303 88.4015 147.145 88.45 147.044 88.432ZM193.586 75.4687C192.733 75.7337 192.381 76.4912 191.963 77.1654C191.658 77.6579 191.651 77.8979 191.68 78.8871C192.139 78.0644 192.5 77.4151 192.865 76.7686C193.115 76.3247 193.373 75.8849 193.618 75.4465C193.573 75.4187 193.51 75.4007 193.485 75.3605C193.47 75.3341 193.509 75.2745 193.523 75.2301C193.545 75.3105 193.566 75.3896 193.586 75.4687ZM137.609 84.3074C137.616 84.2006 137.623 84.0952 137.631 83.9883C137.62 84.0924 137.61 84.1964 137.599 84.3005C138.168 85.4145 138.413 86.6853 139.149 87.7494C139.285 87.637 139.359 87.6065 139.361 87.5704C139.436 86.1831 138.721 85.1703 137.777 84.2727C137.753 84.2519 137.667 84.2991 137.609 84.3074ZM117.637 2.93165C117.28 3.03986 116.922 3.08563 116.629 3.24656C114.708 4.29955 112.906 5.52596 111.292 7.01458C110.325 7.90664 109.561 8.95268 109.003 10.1402C107.197 13.9943 106.278 18.0425 106.352 22.3114C106.391 24.5672 106.774 26.7717 107.193 28.9789C107.983 33.134 109.401 37.0491 111.516 40.7158C113.022 43.331 114.763 45.781 116.631 48.145C120.107 52.5443 123.579 56.9477 127.059 61.3428C127.865 62.3611 128.685 63.3683 129.529 64.3561C134.427 70.0941 139.98 75.0885 146.338 79.1798C151.073 82.2264 156.282 84.0466 161.728 85.2689C164.981 85.9986 168.183 85.642 171.332 84.6445C175.415 83.3515 179.096 81.2539 182.736 79.0411C187.693 76.0264 191.184 71.745 193.831 66.6854C194.717 64.9901 195.236 63.1893 195.311 61.2651C195.48 56.895 194.788 52.6761 193.07 48.6459C191.651 45.3162 189.759 42.2558 187.572 39.3812C181.426 31.3055 174.036 24.588 165.382 19.2925C160.292 16.178 154.981 13.4643 149.599 10.8894C145.752 9.04842 141.751 7.6278 137.575 6.74823C133.305 5.84923 129.024 5.00156 124.736 4.19413C122.553 3.78348 120.36 3.2743 118.18 3.79594C118.035 3.61836 117.951 3.53653 117.893 3.43941C117.809 3.29652 117.742 3.14391 117.637 2.93165ZM127.951 81.0555C127.767 80.4672 127.675 80.0858 127.53 79.725C126.142 76.2747 125.102 72.7107 124.074 69.1424C123.58 67.4305 122.854 65.8281 121.969 64.2923C121.855 64.0939 121.632 63.9579 121.389 63.7249C121.273 64.8181 121.746 65.5992 122.048 66.4205C122.965 68.9066 123.964 71.3649 124.805 73.8774C125.286 75.3161 125.876 76.7575 125.809 78.3363C125.8 78.5541 125.861 78.8247 125.991 78.9912C126.527 79.6765 127.022 80.4104 127.951 81.0555ZM171.832 92.7813C171.483 94.1381 171.438 94.9941 171.654 96.1511C172.835 95.7849 173.939 95.2952 175.002 94.5848C174.39 94.3906 173.8 94.3032 173.323 94.0244C172.783 93.708 172.343 93.2183 171.832 92.7813ZM136.116 74.7847C136.626 76.4842 137.298 77.995 138.451 79.5142C138.451 78.4556 138.449 77.6593 138.449 76.7811C137.695 76.136 136.905 75.4604 136.116 74.7847ZM130.653 84.1701C131.565 85.0205 132.416 85.8279 133.289 86.6118C133.466 86.7713 133.644 87.132 133.999 86.8352C133.241 85.6268 132.494 84.4323 131.744 83.2392C131.682 83.1407 131.615 83.0352 131.525 82.9659C131.454 82.9118 131.346 82.9076 131.202 82.8646C131.042 83.2447 130.884 83.6193 130.653 84.1701ZM142.865 87.2292C142.467 84.7833 141.9 83.5139 140.94 82.6926C140.686 84.5946 141.819 85.882 142.865 87.2292ZM124.776 62.4915C125.503 65.8419 126.017 67.1502 127.213 68.6041C127.022 68.0173 126.889 67.6358 126.774 67.2501C126.524 66.4066 126.137 65.5686 126.077 64.7099C126.013 63.7804 125.61 63.181 124.776 62.4915ZM143.356 93.8371C143.427 93.4181 143.538 93.2031 143.473 93.0851C143.107 92.422 142.707 91.7769 142.296 91.1401C142.235 91.0457 142.056 91.0277 141.872 90.9486C141.837 91.6867 141.808 92.3179 141.776 92.9991C142.273 93.2613 142.725 93.5013 143.356 93.8371ZM179.209 92.071C179.434 91.9752 179.651 91.9197 179.825 91.8018C180.242 91.5216 180.638 91.2108 181.132 90.8473C180.858 90.5629 180.67 90.3687 180.487 90.1786C179.162 91.3079 179.162 91.3079 179.209 92.071ZM106.362 40.8268C106.646 40 106.646 39.9999 105.938 37.8329C106.016 38.8998 106.086 39.7849 106.362 40.8268ZM166.585 96.534C166.257 97.0418 165.819 97.3789 166.102 97.9602C166.467 97.8354 166.804 97.7202 167.277 97.5593C166.99 97.1334 166.787 96.8337 166.585 96.534ZM155.727 86.8976C156.12 87.7536 156.12 87.7536 156.754 88.2294C156.779 87.8687 156.803 87.5247 156.825 87.1945C156.478 86.9531 156.181 86.6298 155.727 86.8976ZM167.26 88.6484C167.443 89.3143 167.739 89.8096 168.355 90.2855C168.473 89.5807 168.488 89.0577 168.195 88.5305C167.867 88.5721 167.597 88.6054 167.26 88.6484ZM136.095 88.8121C136.413 89.4017 136.946 89.7153 137.74 90.0926C137.492 89.5363 137.36 89.1548 137.161 88.8149C136.873 88.3238 136.511 88.4306 136.095 88.8121ZM154.644 97.4774C154.028 97.5551 153.641 97.6037 153.195 97.6592C154.121 98.2211 154.121 98.221 154.644 97.4774ZM115.211 50.3856C115.198 50.4882 115.135 50.6214 115.178 50.6894C115.309 50.8961 115.478 51.0779 115.633 51.2707C115.694 51.1861 115.827 51.0654 115.807 51.0251C115.685 50.7976 115.529 50.5881 115.374 50.38C115.354 50.3551 115.267 50.3828 115.211 50.3856ZM158.659 97.1986C158.779 96.9947 158.904 96.8753 158.913 96.7477C158.928 96.4938 158.635 96.2621 158.498 96.3926C158.398 96.4869 158.331 96.6769 158.345 96.8143C158.356 96.9267 158.509 97.0252 158.659 97.1986ZM194.294 72.2334C194.248 72.2639 194.176 72.2847 194.161 72.3264C194.09 72.5234 194.032 72.7245 193.98 72.9271C193.976 72.9424 194.104 73.0089 194.107 73.0048C194.226 72.8397 194.358 72.6787 194.44 72.4956C194.465 72.4415 194.347 72.3222 194.294 72.2334ZM163.846 91.1553C163.753 91.0415 163.689 90.9625 163.625 90.8848C163.534 90.9944 163.381 91.0984 163.37 91.215C163.362 91.3107 163.523 91.4217 163.609 91.5257C163.691 91.3995 163.773 91.2719 163.846 91.1553ZM186.593 85.9431C186.651 85.9362 186.743 85.9459 186.755 85.9195C186.841 85.7364 186.912 85.5449 186.987 85.3562C186.934 85.3382 186.845 85.2924 186.836 85.3049C186.715 85.4714 186.603 85.6434 186.5 85.821C186.49 85.839 186.562 85.9043 186.593 85.9431ZM148.191 83.8662C148.25 83.9453 148.294 84.0688 148.369 84.0896C148.447 84.1118 148.552 84.0327 148.645 83.998C148.581 83.9245 148.53 83.8135 148.451 83.7872C148.38 83.765 148.279 83.8357 148.191 83.8662Z" fill="#E65C00" fill-opacity="0.4"/>
<path d="M169.151 69.947C164.476 70.477 160.449 70.0594 156.582 68.5625C151.718 66.6799 147.729 63.643 144.869 59.2271C142.9 56.1888 141.324 52.9632 140.34 49.4685C139.823 47.6317 139.597 45.7602 139.859 43.8595C140.081 42.2516 140.58 40.7657 141.861 39.6337C142.197 39.3368 142.413 38.8859 142.627 38.4752C143.171 37.4278 143.669 36.3581 144.211 35.3093C144.852 34.0704 145.807 33.1229 147.014 32.4292C148.716 31.4525 150.508 30.7006 152.456 30.3954C156.765 29.7225 161.045 29.9084 165.289 30.9115C167.324 31.3929 169.196 32.2405 170.901 33.4503C173.915 35.5896 176.568 38.1159 178.598 41.2028C181.787 46.0529 183.295 51.3511 182.319 57.1918C181.357 62.9368 178.047 66.7936 172.695 68.919C171.386 69.4407 169.981 69.7126 169.151 69.947ZM142.076 43.8082C141.936 45.0179 141.953 46.1347 142.204 47.2349C143.393 52.4374 146.012 56.8422 149.737 60.613C150.313 61.1957 150.997 61.6812 151.668 62.1585C156.49 65.5838 161.919 66.4898 167.664 65.8475C170.16 65.5686 172.449 64.6113 174.451 63.0436C176.019 61.8158 177.249 60.3217 177.879 58.4182C178.748 55.792 178.929 53.1061 178.297 50.3966C177.122 45.362 174.302 41.4039 170.301 38.2158C168.281 36.6065 166.034 35.505 163.503 34.9667C160.068 34.2369 156.608 34.1051 153.126 34.5047C151.772 34.6601 150.461 35.0055 149.201 35.5313C147.756 36.1362 146.493 36.988 145.689 38.374C145.068 39.4422 144.45 40.5188 143.932 41.6398C143.505 42.5651 143.116 43.4738 142.076 43.8082Z" fill="#E65C00" fill-opacity="0.4"/>
<path d="M188.083 47.7955C188.227 47.8496 188.449 47.8621 188.503 47.9634C189 48.8999 189.545 49.8211 189.929 50.8047C190.963 53.4503 191.701 56.1834 192.11 58.9983C192.513 61.7688 191.68 64.1245 189.693 66.0793C189.358 66.4095 189.011 66.7355 188.635 67.0185C186.67 68.4933 185.128 70.3481 183.806 72.3917C182.796 73.9524 181.565 75.2912 179.992 76.2776C179.25 76.7438 178.457 77.1891 177.625 77.4402C175.595 78.0548 173.523 78.5306 171.479 79.1008C169.889 79.5434 168.302 80.0054 166.736 80.5298C164.458 81.2901 162.263 81.1902 159.985 80.3953C157.99 79.6988 155.887 79.3159 153.829 78.7984C152.915 78.5681 151.99 78.3725 151.081 78.1214C149.161 77.59 147.528 76.5856 146.123 75.1664C143.714 72.733 141.259 70.3453 138.839 67.923C136.751 65.8323 134.763 63.6528 133.108 61.1917C131.88 59.3687 130.408 57.7622 128.771 56.3027C128.374 55.9489 127.987 55.5813 127.567 55.258C124.838 53.1534 122.517 50.6465 120.318 48.0106C119.217 46.6912 118.194 45.3178 117.398 43.7986C115.372 39.9321 113.363 36.0559 111.399 32.1574C110.818 31.0032 110.368 29.7768 109.926 28.5587C109.057 26.1711 108.892 23.7238 109.448 21.2391C109.835 19.5118 110.228 17.786 110.646 16.0671C110.741 15.6745 110.902 15.2763 111.128 14.9447C111.256 14.7574 111.578 14.7006 111.933 14.5258C111.98 14.9059 112.051 15.1251 112.029 15.3346C111.736 18.1495 111.424 20.963 111.133 23.7779C110.908 25.9491 111.364 28.0315 112.241 29.9849C113.327 32.4044 114.558 34.7601 115.761 37.1255C116.643 38.8611 117.587 40.5647 118.492 42.2878C119.348 43.9137 120.36 45.4329 121.583 46.8064C121.622 46.8508 121.661 46.8952 121.697 46.9423C123.856 49.7697 126.35 52.267 129.05 54.581C131.077 56.318 132.763 58.356 134.183 60.634C135.687 63.0452 137.578 65.1595 139.575 67.1822C141.937 69.5768 144.293 71.981 146.576 74.4505C148.2 76.2069 150.11 77.3528 152.445 77.8439C154.405 78.2573 156.357 78.7152 158.306 79.1855C158.992 79.3506 159.681 79.5518 160.322 79.8389C162.446 80.7906 164.584 80.6921 166.709 79.9347C168.656 79.241 170.633 78.6639 172.606 78.059C175.251 77.2488 177.823 76.2041 180.015 74.4089C180.892 73.6916 181.702 72.9328 182.33 71.9894C183.851 69.7044 185.687 67.7274 187.977 66.1917C188.222 66.028 188.441 65.8268 188.672 65.6437C190.862 63.9178 191.698 61.6426 191.369 58.9165C190.928 55.2581 190.015 51.7328 188.337 48.4309C188.231 48.2228 188.187 47.9856 188.115 47.7595L188.083 47.7955Z" fill="#E65C00" fill-opacity="0.4"/>
<path d="M162.634 72.9409C162.423 73.6859 161.811 73.8885 161.155 74.0037C159.228 74.3436 157.267 74.5516 155.342 74.2173C149.638 73.2267 144.683 70.8433 141.061 66.143C139.426 64.0245 138.16 61.7077 137.326 59.1591C137.044 58.299 136.933 57.4263 137.141 56.5454C137.202 56.2873 137.402 55.9891 137.625 55.8614C137.975 55.6617 138.327 55.8753 138.554 56.1625C138.952 56.6702 139.332 57.1974 139.677 57.7426C140.593 59.1855 141.457 60.663 142.397 62.0906C144.733 65.6435 147.856 68.26 151.829 69.8083C154.859 70.9889 157.953 71.9379 161.23 72.1404C162.029 72.189 162.027 72.2112 162.634 72.9409Z" fill="#E65C00" fill-opacity="0.4"/>
<path d="M179.272 35.4564C179.064 35.4287 178.785 35.4772 178.659 35.3607C178.009 34.76 177.396 34.1204 176.776 33.4892C175.075 31.7591 173.248 30.19 171.264 28.7791C169.826 27.7566 168.501 26.5663 167.174 25.3968C166.024 24.3827 164.937 23.295 163.831 22.2309C162.367 20.8241 160.684 19.7531 158.841 18.9138C155.94 17.5944 153.061 16.2279 150.15 14.9307C149.132 14.477 148.065 14.1094 146.991 13.8056C143.072 12.6999 139.099 11.8258 135.075 11.1821C134.265 11.0517 133.472 10.7978 132.686 10.5481C130.887 9.9779 129.114 9.31751 127.299 8.80559C125.827 8.38938 124.322 8.00235 122.809 7.85391C121.721 7.74708 120.533 7.8761 119.496 8.21738C117.198 8.97487 115.058 10.1014 113.088 11.5789C112.782 11.325 113.103 11.1197 113.255 10.9213C113.397 10.7368 113.57 10.5509 113.771 10.4427C116.049 9.22598 118.118 7.58753 120.73 7.03953C121.607 6.8564 122.47 6.70655 123.359 6.87581C125.268 7.23652 127.18 7.59028 129.086 7.96902C131.688 8.4865 134.287 9.00816 136.88 9.5617C141.275 10.4995 145.58 11.7107 149.616 13.757C151.404 14.6643 153.238 15.4815 155.057 16.3264C156.662 17.0714 158.276 17.8011 159.889 18.5295C161.687 19.3397 163.262 20.4662 164.667 21.8424C166.187 23.3296 167.7 24.8225 169.243 26.2833C169.97 26.9714 170.711 27.6679 171.535 28.2311C174.49 30.2497 176.972 32.7566 179.234 35.5008L179.272 35.4564Z" fill="#E65C00" fill-opacity="0.4"/>
<path d="M141.909 31.8147C142.251 31.8147 142.439 31.7745 142.6 31.823C142.87 31.9049 143.225 31.9743 143.356 32.1727C143.592 32.5292 143.294 32.8178 143.018 33.0578C140.865 34.9182 139.502 37.2711 138.477 39.9099C137.491 42.4459 136.486 44.9515 136.181 47.6804C136.149 47.9675 136.026 48.2464 135.923 48.5211C135.884 48.6237 135.797 48.7569 135.705 48.7805C135.551 48.8208 135.365 48.8193 135.214 48.7694C135.13 48.7416 135.064 48.5877 135.034 48.4781C134.935 48.1395 134.781 47.7955 134.783 47.4542C134.809 43.8513 134.899 40.2567 136.499 36.9035C137.359 35.0986 138.58 33.6183 140.299 32.5847C140.848 32.2559 141.459 32.027 141.909 31.8147Z" fill="#E65C00" fill-opacity="0.4"/>
<path d="M176.954 67.7053C177.27 68.0604 177.289 68.4947 177.06 68.854C175.699 70.9849 173.91 72.4985 171.268 72.7233C171.21 72.7288 171.139 72.7399 171.093 72.7149C170.849 72.5776 170.509 72.4819 170.398 72.2696C170.247 71.9797 170.487 71.7175 170.785 71.5884C171.218 71.4025 171.662 71.2402 172.097 71.0543C173.632 70.3953 175.024 69.531 176.113 68.2283C176.29 68.0146 176.551 67.869 176.782 67.7025C176.816 67.6775 176.893 67.7039 176.954 67.7053Z" fill="#E65C00" fill-opacity="0.4"/>
<path d="M186.784 45.3967C187.522 46.0294 188.075 46.7633 188.086 47.7927C188.084 47.7955 188.118 47.7566 188.115 47.7594C187.543 47.0352 186.962 46.3152 186.819 45.3607L186.784 45.3967Z" fill="#E65C00" fill-opacity="0.4"/>
<path d="M183.552 41.3985C183.815 41.3541 184.078 41.232 184.305 41.5219C184.581 41.8743 184.893 42.1976 185.19 42.5347L185.218 42.5042C184.914 42.697 184.716 42.5722 184.501 42.3252C184.211 41.9937 183.874 41.7051 183.556 41.3985H183.552Z" fill="#E65C00" fill-opacity="0.4"/>
<path d="M179.232 35.5008C179.43 35.7339 179.63 35.967 180.084 36.4997C179.318 36.1598 179.051 35.9531 179.266 35.4606C179.272 35.4564 179.232 35.5008 179.232 35.5008Z" fill="#E65C00" fill-opacity="0.4"/>
<path d="M182.313 39.7239C182.847 39.4922 183.059 40.1539 183.505 40.1595C183.501 40.1664 183.519 40.1525 183.519 40.1525C182.978 40.3773 182.722 39.8612 182.331 39.6947L182.313 39.7239Z" fill="#E65C00" fill-opacity="0.4"/>
<path d="M180.68 37.199C180.673 37.2476 180.668 37.2961 180.661 37.3447C180.605 37.2948 180.541 37.2504 180.498 37.1907C180.49 37.1782 180.554 37.113 180.584 37.0714C180.615 37.113 180.647 37.156 180.68 37.199Z" fill="#E65C00" fill-opacity="0.4"/>
<path d="M181.515 38.295C181.479 38.3075 181.422 38.3422 181.41 38.3297C181.377 38.2978 181.361 38.2465 181.339 38.2021C181.396 38.184 181.451 38.166 181.508 38.1479C181.51 38.1965 181.513 38.2464 181.515 38.295Z" fill="#E65C00" fill-opacity="0.4"/>
<path d="M182.332 39.6961C182.302 39.5962 182.267 39.4977 182.242 39.3964C182.23 39.3478 182.233 39.2937 182.228 39.2438C182.292 39.2951 182.403 39.3437 182.407 39.3978C182.414 39.4991 182.357 39.6045 182.32 39.7169C182.313 39.7238 182.332 39.6961 182.332 39.6961Z" fill="#E65C00" fill-opacity="0.4"/>
<path d="M183.555 41.3985C183.539 40.9878 183.526 40.5772 183.515 40.1596C183.519 40.154 183.501 40.1693 183.505 40.161C183.523 40.5688 183.537 40.9837 183.551 41.3985H183.555Z" fill="#E65C00" fill-opacity="0.4"/>
<path d="M185.189 42.5346C185.328 42.7663 185.466 42.998 185.6 43.238C185.593 43.2463 185.629 43.2047 185.629 43.2047C185.093 43.2214 185.035 43.1256 185.213 42.511C185.217 42.5041 185.189 42.5346 185.189 42.5346Z" fill="#E65C00" fill-opacity="0.4"/>
<path d="M186.027 43.908C185.534 43.908 185.471 43.7998 185.622 43.2101C185.627 43.2032 185.593 43.2448 185.598 43.2365C185.736 43.4668 185.866 43.704 185.994 43.9482C185.991 43.9538 186.027 43.908 186.027 43.908Z" fill="#E65C00" fill-opacity="0.4"/>
<path d="M186.492 44.5504C185.995 44.574 185.935 44.4935 186.023 43.9136C186.027 43.9094 185.989 43.9552 185.994 43.9497C186.153 44.1564 186.308 44.3687 186.46 44.5865C186.455 44.592 186.492 44.5504 186.492 44.5504Z" fill="#E65C00" fill-opacity="0.4"/>
<path d="M186.819 45.3607C186.318 45.258 186.325 44.9403 186.487 44.5546C186.491 44.549 186.455 44.592 186.46 44.5851C186.571 44.8515 186.677 45.1234 186.783 45.3967L186.819 45.3607Z" fill="#E65C00" fill-opacity="0.4"/>
<path d="M160.888 39.2286C162.19 38.6168 163.489 38.7583 164.766 38.9678C166.882 39.3147 168.842 40.1179 170.683 41.207C171.832 41.8868 172.674 42.8593 173.276 44.0371C174.044 45.541 174.33 47.1656 174.295 48.8332C174.259 50.5618 173.462 51.8728 171.89 52.665C169.692 53.7721 167.398 54.0579 165.029 53.3573C164.364 53.1603 163.711 52.8273 163.129 52.4416C160.296 50.5659 158.398 45.5965 159.594 42.2142C159.789 41.662 160.074 41.1418 160.31 40.6049C160.496 40.1873 160.665 39.7641 160.888 39.2286ZM163.047 40.0333C160.722 42.8093 160.797 45.6076 162.224 48.4628C163.895 51.8049 167.941 52.8967 171.157 50.9766C171.991 50.4785 172.491 49.7766 172.511 48.8373C172.571 46.071 171.715 43.7333 169.203 42.2461C167.878 41.4622 166.482 40.8366 164.995 40.4329C164.38 40.2664 163.745 40.1734 163.047 40.0333Z" fill="#E65C00" fill-opacity="0.4"/>
<path d="M43.678 96.1067C43.3145 94.4197 43.6447 92.8714 44.6339 91.4619C45.3498 90.4436 46.2085 89.5599 47.249 88.8787C49.4632 87.4303 51.8522 86.4911 54.5451 86.48C55.0292 86.4786 55.5134 86.4578 55.9962 86.4273C58.7792 86.2538 61.4984 85.7669 64.1025 84.7389C65.8241 84.0604 67.5597 83.4431 69.3896 83.1073C73.2672 82.397 77.1115 82.6579 80.9281 83.5041C84.8792 84.3796 88.5182 86.0374 91.9963 88.0726C96.6078 90.771 100.907 93.9009 104.961 97.3775C106.23 98.4666 107.516 99.5362 108.797 100.613C110.481 102.029 112.408 102.955 114.547 103.45C115.062 103.569 115.581 103.676 116.086 103.831C116.373 103.92 116.665 104.056 116.902 104.238C117.303 104.545 117.182 105.269 116.705 105.435C116.419 105.535 116.104 105.581 115.8 105.588C114.665 105.616 113.539 105.643 112.404 105.788C111.051 105.96 109.686 106.028 108.363 106.379C107.569 106.588 106.794 106.58 106.031 106.273C104.789 105.774 103.619 105.971 102.486 106.614C100.533 107.723 98.5626 108.801 96.6244 109.932C94.2285 111.33 91.8645 112.785 89.47 114.187C87.8745 115.12 86.2791 116.057 84.5602 116.76C79.9889 118.626 75.2955 119.145 70.4565 118.049C67.9051 117.472 65.5175 116.465 63.1896 115.288C59.0414 113.192 55.2776 110.523 51.6414 107.654C49.226 105.747 47.3836 103.339 45.7161 100.969C44.7421 99.3642 44.0443 97.8034 43.678 96.1067ZM104.624 100.842C102.332 98.8495 100.08 96.8129 97.6178 95.0246C94.266 92.5898 90.7727 90.3728 87.16 88.3515C83.9927 86.5799 80.659 85.2147 77.0727 84.5322C73.8333 83.9162 70.6008 83.8094 67.3863 84.6598C66.5372 84.8846 65.6896 85.1398 64.8752 85.4658C62.5375 86.4023 60.0944 86.9767 57.6582 87.5607C56.6427 87.8049 55.5647 87.8479 54.5131 87.8756C51.7967 87.9478 49.4841 89.0174 47.3753 90.635C47.1672 90.7946 46.9827 90.9874 46.7982 91.1747C45.2014 92.7951 44.8559 94.607 45.7729 96.7324C46.4486 98.2987 47.4252 99.6375 48.5046 100.917C50.1597 102.878 52.0617 104.565 54.2052 105.99C57.7998 108.382 61.4693 110.643 65.3427 112.562C67.4404 113.601 69.5991 114.478 71.8604 115.087C76.1945 116.254 80.4911 116.089 84.7252 114.621C86.5579 113.985 88.2754 113.078 89.9749 112.146C93.0645 110.455 96.1417 108.738 99.2521 107.086C100.337 106.51 101.493 106.058 102.637 105.607C103.693 105.19 104.8 105.151 105.871 105.542C106.742 105.86 107.575 105.86 108.449 105.574C109.105 105.359 109.792 105.235 110.466 105.072C108.214 103.962 106.419 102.401 104.624 100.842Z" fill="#E65C00" fill-opacity="0.4"/>
<path d="M76.0724 89.5848C75.9573 90.1106 76.25 90.5046 76.4942 90.9181C77.0769 91.9031 77.6568 92.8895 78.2284 93.8801C78.3532 94.0965 78.4434 94.3351 78.5267 94.5113C78.3227 94.8595 78.0883 94.7554 77.8926 94.7138C75.3663 94.1741 72.8205 94.1742 70.2748 94.5002C67.1241 94.9039 63.9679 95.0163 60.7937 94.8817C59.1705 94.8123 57.5403 94.9178 55.913 94.9594C55.5356 94.9691 55.1236 94.9608 54.8669 95.4838C55.1652 95.5476 55.4066 95.6323 55.6508 95.6448C58.0231 95.7766 60.3941 95.9277 62.7679 96.0124C64.7892 96.0845 66.8133 96.0901 68.8375 96.0956C70.469 96.0998 72.095 96.1359 73.6959 96.4855C74.1163 96.577 74.5283 96.7088 75.0971 96.8628C74.8599 97.1236 74.7489 97.304 74.5894 97.4108C72.6166 98.7357 70.6382 100.052 68.6585 101.365C68.2964 101.605 67.9204 101.824 67.5875 102.029C67.6319 102.43 67.8622 102.452 68.0716 102.401C68.4518 102.308 68.843 102.214 69.1912 102.045C71.651 100.849 73.9998 99.4683 76.1335 97.7438C76.2694 97.6342 76.4193 97.544 76.6343 97.3928C78.9054 98.1808 80.9586 99.4003 83.0202 100.883C82.1351 101.657 81.354 102.359 80.5536 103.037C79.076 104.288 77.5832 105.518 76.1085 106.773C75.8449 106.997 75.6188 107.273 75.4093 107.551C75.2525 107.758 75.4703 108.132 75.7436 108.114C76.0419 108.095 76.361 108.057 76.6246 107.932C77.0186 107.745 77.3918 107.497 77.7428 107.235C79.957 105.571 82.2336 103.978 84.101 101.902C84.1551 101.842 84.2508 101.818 84.3951 101.742C84.7044 101.893 85.0569 102.06 85.4037 102.237C90.5202 104.855 95.8711 105.409 101.437 104.053C101.82 103.96 102.211 103.855 102.562 103.682C103.4 103.27 103.447 102.254 102.626 101.798C102.217 101.57 101.72 101.442 101.25 101.391C100.509 101.309 99.7571 101.338 99.0093 101.305C97.4277 101.234 95.842 101.205 94.2674 101.064C91.827 100.846 89.531 100.094 87.3681 98.948C86.4359 98.4527 85.5313 97.9033 84.5963 97.415C83.5058 96.8448 82.4084 96.2815 81.2874 95.7752C80.7769 95.5449 80.4412 95.2479 80.1748 94.7429C79.5602 93.5776 78.886 92.4386 78.1743 91.3287C77.8219 90.7793 77.3405 90.3118 76.9007 89.8207C76.7495 89.6514 76.6399 89.6459 76.0724 89.5848Z" fill="#E65C00" fill-opacity="0.4"/>
<path d="M58.0884 101.852C58.223 101.936 58.352 102.081 58.4865 102.088C58.7404 102.1 59.0137 102.076 59.2495 101.988C59.9821 101.713 60.7215 101.441 61.4166 101.086C61.7454 100.918 62.0034 100.584 62.2421 100.284C62.3114 100.198 62.2393 99.9511 62.1644 99.8151C62.1186 99.7319 61.9452 99.6917 61.8259 99.6861C61.701 99.6792 61.5581 99.7069 61.4499 99.7679C60.3872 100.366 59.3287 100.972 58.2729 101.583C58.2091 101.62 58.1786 101.717 58.0884 101.852Z" fill="#E65C00" fill-opacity="0.4"/>
<path d="M69.9001 108.883C70.3857 108.512 70.8255 108.218 71.2139 107.864C71.3915 107.702 71.49 107.434 71.5788 107.197C71.6468 107.015 71.3637 106.75 71.1737 106.796C71.0488 106.827 70.9073 106.852 70.8102 106.927C70.0125 107.541 69.2231 108.167 68.4337 108.791C68.4004 108.816 68.363 108.859 68.3616 108.897C68.3519 109.057 68.2894 109.274 68.3685 109.367C68.4517 109.467 68.6903 109.511 68.8305 109.472C69.0774 109.402 69.3063 109.257 69.5352 109.13C69.6851 109.044 69.8238 108.934 69.9001 108.883Z" fill="#E65C00" fill-opacity="0.4"/>
<path d="M88.159 95.1467C88.2797 94.8373 88.4351 94.6167 88.4406 94.3906C88.4684 93.4666 88.2727 92.5759 87.9315 91.7186C87.9009 91.6423 87.8399 91.5563 87.7705 91.523C87.6623 91.4702 87.5194 91.4134 87.4181 91.4453C87.321 91.4758 87.2225 91.6062 87.192 91.713C87.1573 91.8296 87.1809 91.9725 87.2114 92.0959C87.4306 92.9797 87.6554 93.8634 87.8898 94.7443C87.9217 94.8567 88.0244 94.9497 88.159 95.1467Z" fill="#E65C00" fill-opacity="0.4"/>
</svg>
