<svg width="198" height="134" viewBox="0 0 198 134" fill="none" xmlns="http://www.w3.org/2000/svg">
<path d="M-89.4205 93.6937C-89.362 93.2994 -89.3159 92.9051 -89.2644 92.5094C-89.1529 91.679 -89.4874 91.0534 -90.1645 90.5992C-90.5365 90.3484 -90.9489 90.1547 -91.2986 89.8789C-91.7626 89.5124 -92.2265 89.1279 -92.6125 88.6834C-92.9859 88.2529 -92.873 87.8558 -92.3645 87.5883C-91.7486 87.2651 -91.1119 86.9766 -90.4835 86.6771C-90.17 86.528 -89.8343 86.4138 -89.5403 86.2326C-88.7043 85.7213 -88.4716 85.157 -88.6904 84.218C-88.7809 83.8306 -88.9077 83.4516 -89.022 83.0699C-89.2143 82.4248 -89.0373 81.8898 -88.5274 81.4662C-88.03 81.0538 -87.5047 80.672 -87.0198 80.2457C-86.1978 79.5239 -85.3506 78.8231 -84.5983 78.0317C-83.0364 76.3905 -82.7271 74.4691 -83.5185 72.3596C-83.9797 71.1294 -84.6819 70.6111 -86.0027 70.6306C-86.8471 70.6431 -87.6984 70.6989 -88.5316 70.8298C-90.1255 71.0806 -91.7013 71.0249 -93.2855 70.756C-94.0183 70.632 -94.7679 70.5609 -95.5119 70.547C-96.7255 70.5247 -97.7468 70.9678 -98.488 71.9668C-98.7555 72.3262 -99.0341 72.6773 -99.2877 73.048C-100.727 75.1518 -102.749 76.2762 -105.244 76.6301C-106.18 76.7624 -107.119 76.906 -108.038 77.1261C-109.934 77.5803 -110.678 78.635 -110.543 80.2819C-110.534 80.3808 -110.541 80.4811 -110.534 80.58C-110.468 81.5149 -110.731 82.3496 -111.274 83.1075C-111.476 83.3903 -111.675 83.6801 -111.84 83.9852C-112.535 85.2824 -112.243 86.2953 -110.969 86.9906C-110.621 87.1815 -110.249 87.3305 -109.878 87.4754C-109.321 87.6928 -108.744 87.8614 -108.199 88.101C-107.795 88.2794 -107.33 88.4563 -107.064 88.7782C-106.398 89.5821 -105.513 90.0112 -104.614 90.439C-103.76 90.8458 -102.887 91.2123 -102.039 91.6358C-99.5831 92.8633 -97.6102 94.6565 -96.0065 96.869C-95.909 97.0028 -95.6958 97.1449 -95.9912 97.4013C-96.4942 97.1714 -97.0376 96.9401 -97.5656 96.6767C-100.108 95.4144 -102.641 94.1312 -105.19 92.88C-108.201 91.4031 -111.051 89.7005 -113.498 87.3696C-114.767 86.1602 -116.232 85.2128 -117.842 84.4994C-118.151 84.3629 -118.434 84.1622 -118.734 83.9881C-118.838 83.2496 -118.539 82.6797 -118.239 82.1071C-117.962 81.579 -117.654 81.0608 -117.44 80.5062C-117.233 79.974 -117.21 79.3512 -117.724 78.9987C-118.522 78.4525 -118.682 77.6723 -118.802 76.8182C-118.891 76.1787 -119.022 75.5392 -119.209 74.9219C-119.585 73.6805 -120.462 73.0465 -121.753 73.002C-122.099 72.9894 -122.45 73.0089 -122.793 73.0577C-123.383 73.1399 -123.98 73.2221 -124.558 73.3656C-125.615 73.629 -126.535 73.374 -127.344 72.6927C-127.877 72.244 -128.394 71.7731 -128.884 71.2799C-129.971 70.1847 -131.005 69.0339 -132.121 67.9694C-133.525 66.6304 -134.967 65.3277 -136.437 64.0626C-137.496 63.1514 -138.686 62.4144 -139.961 61.8292C-140.781 61.4516 -141.63 61.1688 -142.542 61.1437C-144.22 61.0963 -145.264 62.1274 -145.254 63.8063C-145.248 64.8248 -144.939 65.7666 -144.524 66.6806C-143.505 68.921 -142.155 70.9511 -140.465 72.7303C-139.13 74.1375 -137.697 75.4514 -136.323 76.821C-136.139 77.0049 -135.764 77.1219 -135.958 77.6068C-137.132 77.2237 -138.324 76.8725 -139.487 76.4462C-141.545 75.6938 -143.582 74.8843 -145.636 74.1208C-146.522 73.792 -147.418 73.4757 -148.33 73.2347C-148.9 73.0842 -149.514 72.9936 -150.098 73.0326C-151.51 73.1246 -152.286 74.3228 -151.903 75.6896C-151.749 76.2372 -151.439 76.6872 -151.015 77.0425C-150.636 77.3616 -150.236 77.6751 -149.8 77.9036C-148.346 78.6671 -146.876 79.3986 -145.403 80.1258C-144.645 80.5006 -143.858 80.8183 -143.104 81.2029C-142.572 81.4746 -142.065 81.8062 -141.888 82.5349C-142.044 82.7229 -142.201 82.9737 -142.416 83.1604C-143.016 83.6829 -143.653 84.1636 -144.251 84.6889C-144.89 85.249 -145.457 85.8774 -145.829 86.6576C-146.458 87.9785 -146.236 89.0736 -145.101 89.9806C-144.637 90.3512 -144.118 90.6633 -143.597 90.9517C-140.911 92.4355 -138.048 93.4164 -135.012 93.8609C-131.899 94.3165 -128.856 95.0731 -125.852 95.9815C-118.94 98.0728 -112.041 100.199 -105.225 102.594C-102.692 103.484 -100.088 104.174 -97.5085 104.933C-96.171 105.326 -94.8167 105.661 -93.4763 106.042C-93.2116 106.118 -92.972 106.281 -92.6473 106.44C-92.9859 107.366 -93.3105 108.198 -93.5906 109.044C-93.8678 109.884 -94.0992 110.739 -94.3736 111.663C-94.7052 111.618 -94.9908 111.554 -95.2778 111.543C-96.4691 111.5 -97.6702 111.354 -98.8489 111.461C-102.124 111.756 -105.368 112.318 -108.553 113.134C-110.964 113.752 -113.349 114.477 -115.723 115.23C-121.424 117.035 -127.186 118.617 -133.018 119.932C-134.361 120.234 -135.724 120.494 -137.287 120.501C-137.081 120.19 -136.987 119.96 -136.822 119.815C-136.186 119.259 -135.527 118.728 -134.875 118.191C-134.608 117.97 -134.307 117.782 -134.064 117.537C-133.54 117.006 -133.649 116.272 -134.312 115.919C-134.615 115.759 -134.967 115.698 -135.292 115.575C-135.485 115.503 -135.668 115.4 -135.972 115.253C-135.315 114.976 -134.786 114.815 -134.322 114.541C-133.464 114.038 -133.344 113.12 -134.045 112.408C-134.388 112.06 -134.805 111.756 -135.242 111.535C-136.128 111.085 -137.054 110.711 -137.954 110.288C-138.148 110.197 -138.307 110.029 -138.52 109.867C-137.984 109.576 -137.524 109.375 -137.118 109.097C-136.278 108.521 -136.036 107.628 -136.535 106.747C-136.798 106.282 -137.174 105.85 -137.585 105.506C-138.386 104.836 -139.257 104.251 -140.082 103.608C-141.417 102.569 -142.765 101.543 -144.056 100.453C-145.279 99.4187 -146.282 98.1773 -147.132 96.8175C-147.221 96.674 -147.255 96.4956 -147.384 96.1431C-146.119 96.5681 -145.056 96.9763 -144.018 97.4347C-139.335 99.5065 -135.254 102.328 -132.456 106.753C-132.034 107.42 -131.52 108.05 -130.954 108.599C-129.54 109.97 -127.736 110.196 -126.001 109.275C-125.564 109.042 -125.16 108.745 -124.757 108.453C-124.19 108.04 -123.602 107.706 -122.914 107.505C-122.402 107.356 -121.934 107.04 -121.47 106.76C-121.132 106.555 -120.836 106.278 -120.51 106.052C-119.843 105.59 -119.355 105.644 -118.831 106.265C-118.511 106.646 -118.234 107.061 -117.938 107.461C-117.327 108.288 -116.478 108.672 -115.479 108.628C-114.739 108.596 -113.99 108.486 -113.271 108.308C-110.199 107.544 -107.089 107.301 -103.937 107.535C-102.597 107.635 -101.259 107.753 -99.9189 107.844C-99.2738 107.887 -98.6259 107.9 -97.9808 107.894C-97.7398 107.891 -97.4932 107.819 -97.2633 107.738C-96.9833 107.639 -96.8843 107.186 -97.1031 106.986C-97.2814 106.823 -97.4848 106.642 -97.7091 106.58C-98.233 106.435 -98.7722 106.316 -99.3128 106.26C-101.045 106.08 -102.778 105.904 -104.514 105.78C-107.457 105.57 -110.381 105.696 -113.269 106.36C-113.802 106.483 -114.348 106.552 -114.887 106.642C-115.538 106.749 -116.053 106.555 -116.435 105.991C-116.714 105.58 -117.003 105.169 -117.339 104.805C-118.391 103.664 -119.959 103.48 -121.271 104.32C-121.564 104.508 -121.824 104.756 -122.134 104.908C-122.528 105.102 -122.954 105.346 -123.372 105.357C-124.223 105.378 -124.902 105.728 -125.568 106.185C-125.936 106.437 -126.308 106.696 -126.71 106.885C-127.701 107.355 -128.268 107.204 -128.87 106.293C-129.28 105.67 -129.656 105.021 -129.993 104.357C-130.725 102.912 -131.776 101.747 -132.952 100.645C-137.071 96.7868 -142.143 94.7791 -147.384 93.0821C-147.666 92.9915 -147.966 92.9385 -148.263 92.9176C-148.557 92.8967 -148.862 92.9023 -149.151 92.9594C-150.345 93.1963 -150.968 94.0741 -150.674 95.2514C-150.495 95.9648 -150.194 96.6698 -149.832 97.3121C-148.114 100.363 -145.626 102.718 -142.885 104.829C-141.978 105.527 -141.022 106.162 -140.1 106.841C-139.876 107.007 -139.696 107.231 -139.427 107.497C-139.904 107.698 -140.271 107.837 -140.625 108.006C-141.074 108.22 -141.55 108.404 -141.945 108.697C-142.864 109.381 -142.827 110.561 -141.879 111.206C-141.555 111.427 -141.177 111.584 -140.805 111.719C-139.682 112.128 -138.546 112.503 -137.425 112.913C-137.121 113.023 -136.737 113.03 -136.529 113.508C-136.898 113.641 -137.245 113.785 -137.602 113.895C-138.22 114.086 -138.85 114.239 -139.463 114.444C-139.922 114.597 -140.207 114.934 -140.262 115.429C-140.305 115.822 -140.012 116.194 -139.47 116.388C-139.097 116.52 -138.707 116.62 -138.317 116.69C-137.729 116.793 -137.134 116.846 -136.544 116.941C-136.28 116.984 -136.025 117.08 -135.662 117.18C-136.376 117.779 -137.024 118.25 -137.58 118.812C-138.027 119.263 -138.442 119.784 -138.729 120.347C-139.055 120.984 -138.679 121.695 -137.978 121.858C-137.502 121.968 -136.993 121.986 -136.5 121.973C-133.797 121.901 -131.161 121.366 -128.544 120.749C-123.257 119.503 -118.04 117.995 -112.868 116.342C-108.588 114.973 -104.207 114.036 -99.781 113.31C-98.4615 113.094 -97.1087 113.06 -95.7683 113.007C-95.2932 112.988 -94.7665 112.935 -94.3945 113.222C-94.0239 114.476 -93.7745 115.705 -93.2994 116.839C-92.6669 118.351 -91.8991 119.811 -91.1147 121.252C-89.8538 123.57 -88.0759 125.44 -85.862 126.868C-81.9622 129.383 -77.7726 131.168 -73.1204 131.686C-69.5591 132.083 -65.9951 132.461 -62.4269 132.778C-57.9586 133.177 -53.4736 133.107 -48.9983 133.04C-35.5642 132.838 -22.1316 132.569 -8.69886 132.305C-1.2364 132.158 6.22469 131.906 13.6871 131.814C23.2994 131.696 32.8867 131.255 42.4223 129.988C45.436 129.586 48.433 129.072 51.3213 128.093C52.4484 127.711 53.5631 127.252 54.6136 126.699C55.3939 126.288 56.1379 125.739 56.7663 125.119C57.8154 124.081 57.8516 122.786 56.9432 121.61C56.5823 121.142 56.1462 120.708 55.6739 120.356C54.9173 119.791 54.1204 119.275 53.3053 118.798C51.4481 117.714 49.4766 116.864 47.4242 116.241C44.0413 115.216 40.6626 114.163 37.2351 113.31C28.247 111.075 19.2854 108.748 10.3753 106.212C2.57007 103.991 -5.30479 102.016 -13.1462 99.9203C-17.2369 98.828 -21.3555 97.8555 -25.5186 97.0822C-31.6853 95.9369 -37.859 94.8251 -44.0229 93.6659C-49.6044 92.6167 -55.2124 91.7821 -60.8692 91.2638C-63.4036 91.0312 -65.931 90.9559 -68.471 91.1078C-69.9088 91.1942 -71.3537 91.1747 -72.7943 91.2206C-75.2298 91.2959 -77.668 91.3641 -80.0283 92.0705C-81.005 91.5188 -81.1095 91.4895 -82.1085 91.8225C-84.4353 92.5972 -86.3803 93.9306 -87.9129 95.8533C-88.2473 96.2727 -88.5789 96.6935 -89.0415 97.2786C-89.6281 95.3977 -89.6448 95.2054 -89.4205 93.6937ZM53.9254 124.471C52.1141 125.465 50.1467 125.993 48.1348 126.389C42.7985 127.441 37.387 127.832 31.9727 128.185C25.8129 128.586 19.6476 128.759 13.4754 128.735C5.31347 128.706 -2.84007 129.094 -10.9978 129.28C-26.0704 129.624 -41.1402 130.043 -56.2184 129.972C-62.105 129.944 -67.9429 129.326 -73.7557 128.476C-77.8882 127.871 -81.5247 126.046 -84.8714 123.613C-86.8122 122.203 -88.0871 120.239 -89.2017 118.164C-89.8621 116.934 -90.4278 115.663 -90.8124 114.313C-91.2081 112.921 -91.183 111.564 -90.6312 110.218C-89.3842 107.175 -88.2877 104.078 -87.3013 100.94C-86.6422 98.8461 -85.4231 97.1031 -83.7735 95.6666C-82.8358 94.8501 -81.8619 94.0755 -80.8545 93.2409C-80.5828 93.4248 -80.339 93.6714 -80.0464 93.7634C-79.7803 93.847 -79.4598 93.7578 -79.1644 93.7522C-78.7172 93.7453 -78.27 93.748 -77.8227 93.7411C-77.0286 93.7299 -76.2344 93.709 -75.4402 93.7007C-74.2475 93.6895 -73.0563 93.6867 -71.8636 93.6784C-71.0179 93.6728 -70.1708 93.6979 -69.3292 93.6449C-66.6876 93.4805 -64.0682 93.624 -61.439 93.9375C-53.4234 94.8933 -45.5068 96.4204 -37.5998 98.0031C-37.2738 98.0686 -36.9534 98.1606 -36.5256 98.2665C-36.8377 98.8363 -37.1066 99.2975 -37.3463 99.7726C-37.5706 100.217 -37.7657 100.675 -37.9705 101.13C-38.4289 102.144 -38.6518 103.214 -38.6559 104.319C-38.6573 104.758 -38.564 105.206 -38.4442 105.631C-38.3299 106.034 -37.7141 106.109 -37.4786 105.748C-37.264 105.418 -37.0885 105.052 -36.9631 104.68C-36.5019 103.312 -36.0644 101.936 -35.6242 100.561C-35.4138 99.9036 -35.2187 99.2404 -35 98.527C-34.5653 98.5883 -34.1751 98.6357 -33.7878 98.7012C-26.3699 99.9524 -19.0371 101.564 -11.785 103.59C-4.83248 105.531 2.18692 107.23 9.15755 109.108C14.3517 110.507 19.5612 111.825 24.8293 112.914C25.2096 112.994 25.583 113.108 26.0874 113.24C25.7725 113.664 25.4994 113.988 25.2737 114.344C25.0605 114.678 24.8822 115.038 24.7192 115.4C24.5353 115.808 24.3792 116.229 24.2232 116.65C24.0852 117.023 23.9599 117.402 23.8373 117.781C23.6979 118.207 23.5656 118.635 23.4332 119.063C23.0138 120.413 22.8898 121.801 23.0305 123.198C23.0946 123.832 23.298 124.459 23.4973 125.069C23.6143 125.429 24.0212 125.635 24.3235 125.574C24.6579 125.507 24.8181 125.25 24.8878 124.949C24.9547 124.66 24.9783 124.36 25.0174 124.065C25.2041 122.684 25.3378 121.292 25.5886 119.924C25.8478 118.507 26.1989 117.105 26.5542 115.708C26.7353 114.993 27.0125 114.303 27.2438 113.608C27.3386 113.579 27.4375 113.512 27.5183 113.53C33.0163 114.718 38.5295 115.85 43.9257 117.458C45.5949 117.955 47.2501 118.503 48.8914 119.086C50.587 119.69 52.1768 120.52 53.6662 121.534C54.321 121.979 54.9773 122.434 55.3409 123.18C55.0804 123.882 54.4855 124.164 53.9254 124.471ZM-141.542 63.7143C-140.611 64.1811 -139.64 64.62 -138.821 65.2469C-137.401 66.3323 -136.047 67.5124 -134.732 68.7246C-133.563 69.803 -132.5 70.9956 -131.364 72.1103C-130.584 72.8766 -129.791 73.6359 -128.945 74.327C-127.609 75.4179 -126.089 75.8986 -124.346 75.5294C-123.716 75.397 -123.067 75.3497 -122.423 75.2911C-122.234 75.2744 -122.036 75.351 -121.86 75.3803C-121.406 75.8206 -121.408 76.3918 -121.331 76.9227C-121.158 78.1167 -120.921 79.2801 -120.02 80.2164C-120.191 80.6177 -120.372 80.9688 -120.491 81.3394C-120.686 81.9525 -120.932 82.5683 -120.992 83.1994C-121.121 84.5384 -120.647 85.6433 -119.442 86.3539C-119.142 86.5308 -118.837 86.6994 -118.53 86.8652C-117.342 87.5075 -116.219 88.2515 -115.244 89.1836C-112.733 91.5829 -109.82 93.3858 -106.746 94.9463C-103.328 96.6823 -99.8896 98.3752 -96.4719 100.11C-95.4074 100.65 -94.3778 101.258 -93.337 101.844C-92.7225 102.191 -92.1081 102.519 -91.3125 102.289C-91.2721 103.044 -91.672 103.568 -91.8309 104.251C-92.1039 104.174 -92.2976 104.155 -92.455 104.07C-94.0378 103.21 -95.7349 102.637 -97.4291 102.048C-100.578 100.954 -103.717 99.8297 -106.86 98.7179C-109.066 97.9377 -111.258 97.1156 -113.478 96.3869C-117.498 95.0703 -121.539 93.8121 -125.568 92.5219C-128.564 91.5634 -131.6 90.8584 -134.764 90.7009C-137.741 90.5518 -140.51 89.571 -143.161 88.2445C-143.293 88.1791 -143.422 88.0982 -143.537 88.0049C-143.611 87.945 -143.657 87.8502 -143.721 87.7653C-143.597 87.1411 -143.142 86.7412 -142.701 86.3455C-142.073 85.7812 -141.411 85.2532 -140.773 84.6986C-139.292 83.4112 -139.14 81.8689 -140.436 80.3934C-140.918 79.8458 -141.545 79.3944 -142.175 79.014C-142.895 78.5793 -143.695 78.2742 -144.457 77.9077C-145.617 77.3504 -146.775 76.7876 -147.973 76.2079C-147.691 75.8708 -147.482 76.0867 -147.289 76.1578C-145.328 76.8795 -143.385 77.6583 -141.405 78.3257C-138.813 79.1993 -136.193 79.9935 -133.579 80.8058C-133.203 80.9228 -132.803 81.0231 -132.413 81.0217C-131.261 81.0176 -130.585 80.0186 -131.041 78.9569C-131.253 78.4651 -131.58 77.9955 -131.945 77.5998C-132.755 76.7248 -133.607 75.8861 -134.471 75.064C-135.77 73.8296 -137.116 72.6453 -138.399 71.3969C-139.87 69.966 -141.086 68.3303 -142.049 66.5148C-142.516 65.6357 -142.926 64.7342 -142.958 63.6851C-142.368 63.3339 -141.922 63.5248 -141.542 63.7143ZM-86.1964 76.474C-86.6952 77.0871 -87.2776 77.6388 -87.8572 78.1794C-88.4382 78.7214 -89.0471 79.2355 -89.6713 79.7288C-90.9949 80.7765 -91.3934 82.1057 -90.9489 83.7136C-90.9085 83.8571 -90.8667 84.0006 -90.8402 84.1469C-90.8221 84.2416 -90.8305 84.3419 -90.8249 84.5091C-91.0423 84.8839 -91.4909 84.9926 -91.8838 85.1835C-92.5094 85.4872 -93.1573 85.7547 -93.7536 86.1086C-94.786 86.7217 -95.1148 87.6371 -94.8027 88.7865C-94.5422 89.7465 -93.9166 90.446 -93.1656 91.0395C-92.5846 91.4979 -91.9632 91.9075 -91.3349 92.3562C-91.3906 93.709 -91.8573 95.0132 -91.5216 96.366C-91.2136 97.6089 -91.0924 98.8962 -90.6856 100.166C-90.8026 100.044 -90.9461 99.9384 -91.0339 99.7991C-92.019 98.247 -92.9413 96.653 -93.9863 95.1441C-96.0455 92.175 -98.743 89.9499 -102.073 88.5134C-102.712 88.2376 -103.346 87.9492 -103.994 87.6942C-104.554 87.4741 -105.031 87.162 -105.502 86.7732C-106.063 86.3079 -106.756 85.9833 -107.426 85.6712C-108.095 85.3591 -108.804 85.1375 -109.551 84.8561C-109.12 83.9602 -108.641 83.1911 -108.38 82.3551C-108.135 81.5665 -108.121 80.7068 -108.001 79.843C-107.281 79.4863 -106.48 79.4348 -105.711 79.2523C-104.503 78.9667 -103.285 78.6936 -102.115 78.2895C-100.629 77.7768 -99.4076 76.8279 -98.3919 75.6339C-97.8764 75.0292 -97.3762 74.405 -96.9206 73.7557C-96.4705 73.1134 -95.8895 72.8585 -95.1274 72.9434C-94.6829 72.9936 -94.2329 73.0033 -93.7926 73.0744C-91.8587 73.3865 -89.9304 73.3266 -87.9993 73.0563C-87.364 72.9671 -86.7203 72.9421 -85.9832 72.8808C-85.2211 74.2392 -85.3298 75.4068 -86.1964 76.474Z" fill="#E65C00" fill-opacity="0.4"/>
<path d="M-5.63498 125.883C-5.06234 125.504 -4.51477 125.48 -3.99508 125.381C-0.527178 124.717 2.97694 124.389 6.50196 124.27C8.78138 124.192 11.0622 124.109 13.3416 124.055C13.8307 124.044 14.3281 124.114 14.8116 124.201C15.1432 124.261 15.3215 124.565 15.2741 124.869C15.2421 125.076 15.0484 125.333 14.8589 125.423C14.5064 125.59 14.1093 125.688 13.7192 125.749C12.1991 125.99 10.6763 126.144 9.12833 126.102C6.50198 126.029 3.87282 125.989 1.24647 126.021C-0.288935 126.039 -1.82013 126.241 -3.35554 126.32C-3.9449 126.351 -4.54124 126.291 -5.12921 126.23C-5.27968 126.213 -5.41623 126.038 -5.63498 125.883Z" fill="#E65C00" fill-opacity="0.4"/>
<path d="M2.81812 117.86C2.56733 116.75 2.4266 115.649 2.60076 114.576C2.82926 113.165 3.18316 111.768 3.58025 110.392C3.72236 109.898 4.09993 109.448 4.44965 109.045C4.72552 108.726 5.30374 108.79 5.49462 109.119C5.60887 109.314 5.69525 109.605 5.63812 109.809C4.97352 112.163 4.98327 114.613 4.58618 117.004C4.51373 117.441 4.45522 117.89 4.30474 118.302C4.23368 118.494 3.97731 118.681 3.76831 118.744C3.4604 118.834 3.1943 118.646 3.03268 118.373C2.93236 118.203 2.87943 118.008 2.81812 117.86Z" fill="#E65C00" fill-opacity="0.4"/>
<path d="M38.255 118.202C38.2828 118.372 38.3678 118.57 38.3386 118.748C38.17 119.773 37.9847 120.797 37.7813 121.817C37.7241 122.103 37.6266 122.396 37.4817 122.646C37.1766 123.174 36.4298 123.162 36.1469 122.619C36.016 122.366 35.9003 122.04 35.9435 121.774C36.1191 120.697 36.367 119.63 36.9494 118.685C37.2295 118.228 37.6322 117.972 38.255 118.202Z" fill="#E65C00" fill-opacity="0.4"/>
<path d="M10.399 115.064C10.4143 115.313 10.4617 115.55 10.4366 115.779C10.2903 117.052 10.144 118.326 9.95871 119.592C9.91552 119.889 9.66888 120.138 9.33588 120.134C9.021 120.13 8.78136 119.938 8.68244 119.624C8.62392 119.438 8.55566 119.241 8.55845 119.049C8.57517 117.906 8.7298 116.783 9.19098 115.727C9.39997 115.249 9.72461 114.904 10.399 115.064Z" fill="#E65C00" fill-opacity="0.4"/>
<path d="M197.956 34.1026C197.972 31.9332 197.697 29.8043 196.813 27.8021C196.611 27.3451 196.304 26.8937 195.938 26.5593C195.453 26.1176 194.891 25.7331 194.303 25.4419C193.857 25.2204 193.317 25.0699 192.825 25.0866C192.17 25.1103 191.513 25.2914 190.873 25.4669C188.489 26.1204 186.353 27.3256 184.224 28.535C176.678 32.8235 168.99 36.8404 161.172 40.6092C156.63 42.7981 152.066 44.9396 147.517 47.1117C146.714 47.4948 145.907 47.8808 145.151 48.3448C143.392 49.426 142.557 50.9948 143.037 53.0569C143.39 54.5672 143.713 56.1318 144.38 57.5126C146.823 62.5647 150.486 66.3586 155.848 68.4262C162.563 71.015 169.473 71.6182 176.402 70.0104C184.613 68.1044 191.04 63.6445 194.303 55.4812C194.742 54.3819 195.113 53.2505 195.435 52.1108C196.85 47.0964 197.841 42.0109 197.838 36.7721C197.878 35.8818 197.95 34.9929 197.956 34.1026ZM150.388 49.2407C152.587 48.3712 154.791 47.5144 157.121 46.6046C157.121 47.0058 157.123 47.2747 157.121 47.5422C157.098 49.2156 157.725 49.8272 159.385 49.7297C159.68 49.713 159.973 49.6517 160.264 49.5987C160.53 49.5499 160.793 49.4859 161.391 49.3563C160.955 50.0808 160.662 50.4918 160.449 50.9405C160.069 51.7388 159.613 52.5302 159.408 53.3773C159.042 54.8988 160.136 56.4091 161.682 56.6112C162.09 56.6641 162.617 56.568 162.942 56.3353C163.658 55.8254 164.371 55.2583 164.917 54.5783C165.561 53.7758 166.028 52.8298 166.571 51.9478C166.832 51.5242 167.094 51.1007 167.363 50.666C167.941 50.9558 167.652 51.3543 167.678 51.6664C167.707 52.0342 167.659 52.409 167.686 52.7768C167.719 53.2394 167.859 53.6783 168.378 53.7925C168.86 53.8984 169.301 53.6908 169.517 53.2798C169.893 52.565 170.266 51.8266 170.486 51.0533C171.129 48.8059 170.989 46.4959 170.865 44.1997C170.85 43.9099 170.516 43.6382 170.139 43.0712C169.659 46.3607 169.995 49.4218 168.803 52.7016C168.481 51.5131 168.77 50.7384 168.711 49.9833C168.672 49.4789 168.81 48.9257 168.293 48.5649C167.938 48.3169 167.3 48.4869 166.738 49.1041C166.244 49.6489 165.866 50.2982 165.402 50.8736C164.614 51.8517 163.821 52.8256 162.981 53.7577C162.783 53.9778 162.389 54.0196 161.731 54.2885C162.021 53.5459 162.122 53.1363 162.33 52.7894C162.67 52.2167 163.101 51.6984 163.452 51.1327C163.934 50.3539 164.158 49.5095 163.988 48.583C163.73 47.1897 162.938 46.5614 161.497 46.6464C161.149 46.6672 160.804 46.7508 160.154 46.8553C161.1 45.5038 162.005 44.516 163.211 43.9448C167.563 41.8827 171.951 39.8959 176.21 37.9327C177.559 38.4246 178.785 38.9122 180.037 39.319C181.551 39.8095 182.352 40.8475 182.566 42.3801C182.594 42.5779 182.494 42.7939 182.434 43.0948C181.67 43.2774 180.975 42.9792 180.267 42.8413C179.469 42.6866 178.672 42.4902 177.865 42.4121C177.287 42.3564 176.636 42.3787 176.303 43.0015C175.979 43.6076 176.231 44.1579 176.625 44.6372C177.001 45.0956 177.453 45.4955 177.801 45.9706C178.191 46.5028 178.535 47.0769 178.831 47.6662C178.945 47.8947 178.873 48.2166 178.891 48.6429C177.875 48.452 176.986 48.2834 176.089 48.1149C176.055 48.4172 175.975 48.6025 176.034 48.6833C176.795 49.7102 177.867 50.1519 179.108 50.202C180.016 50.2383 180.671 49.6015 180.627 48.6819C180.577 47.63 180.244 46.6463 179.672 45.756C179.409 45.345 179.128 44.9465 178.669 44.2666C179.33 44.3892 179.678 44.438 180.017 44.5216C180.664 44.679 181.297 44.9242 181.953 45.0134C183.583 45.2363 184.706 44.1761 184.624 42.5585C184.501 40.1731 183.151 38.373 180.857 37.5677C180.235 37.3489 179.599 37.1775 178.899 36.963C179.029 36.7442 179.09 36.4934 179.243 36.4057C182.527 34.5401 185.978 33.0019 187.331 32.7956C187.638 37.8059 187.177 42.7173 185.703 47.5227C184.861 50.2675 183.54 52.6918 181.375 54.655C179.785 56.0956 178.392 57.7369 176.583 58.9561C173.988 60.7074 171.175 61.6214 168.048 61.7803C164.926 61.9405 162.044 61.3539 159.269 59.8617C156.831 58.5506 154.486 57.1838 152.655 55.059C151.63 53.8692 150.749 52.5929 150.172 51.1272C149.987 50.6562 149.898 50.1491 149.767 49.6628C150.033 49.4789 150.195 49.3173 150.388 49.2407ZM148.277 50.085C148.396 50.2118 148.475 50.2577 148.492 50.3204C149.749 55.0855 152.946 58.2525 157.073 60.5918C159.326 61.8694 161.626 63.1276 164.283 63.3714C170.148 63.9078 175.48 62.6121 180.029 58.6997C180.929 57.9264 181.78 57.0946 182.701 56.3492C184.953 54.5296 186.495 52.2334 187.553 49.5542C189.229 45.3102 190.167 40.9074 190.5 36.3722C190.603 34.9692 190.594 33.5564 190.188 32.177C190.086 31.8343 190.121 31.4511 190.09 31.0624C191.168 30.2459 192.195 29.435 193.373 28.8791C193.545 29.1215 193.686 29.2302 193.692 29.3445C193.768 30.8994 193.922 32.4571 193.871 34.0092C193.706 39.1337 193.123 44.2192 191.875 49.1961C191.337 51.3417 190.566 53.447 189.712 55.4895C188.361 58.722 186.09 61.2188 183.164 63.1554C179.877 65.3331 176.294 66.5565 172.367 66.9159C167.421 67.3701 162.618 66.8978 157.919 65.2133C152.361 63.2209 148.796 59.3197 146.743 53.9054C146.359 52.8911 145.867 51.8767 145.967 50.7287C146.745 50.2313 147.522 50.1073 148.277 50.085Z" fill="#E65C00" fill-opacity="0.4"/>
<path d="M175.056 52.0329C175.065 52.5721 174.447 53.1434 173.885 53.1183C172.934 53.0765 172.05 52.2921 171.896 51.3572C171.796 50.7385 172.218 50.1534 172.816 50.0837C173.878 49.9611 175.04 50.9712 175.056 52.0329Z" fill="#E65C00" fill-opacity="0.4"/>
<path d="M185.508 36.6188C185.556 37.1274 185.134 37.7098 184.692 37.746C184.201 37.785 183.765 37.3628 183.705 36.7874C183.656 36.3304 183.961 35.9124 184.398 35.8316C184.945 35.7313 185.457 36.0964 185.508 36.6188Z" fill="#E65C00" fill-opacity="0.4"/>
<path d="M77.1019 1.58019C73.2675 1.24301 69.4416 1.6415 65.6267 2.22946C63.0505 2.62655 60.4673 2.98602 57.8981 3.43048C54.7897 3.9669 51.7858 4.89901 48.8989 6.16412C41.7165 9.31156 34.7486 12.8853 28.1807 17.1711C19.1828 23.0424 11.7315 30.5523 5.55087 39.3147C2.68766 43.3747 0.661819 47.843 -0.430519 52.7097C-1.12299 55.7945 -1.38909 58.921 -1.28181 62.0768C-1.25116 62.9601 -1.05751 63.8379 -0.936295 64.7185C-0.823441 65.5392 -0.695251 66.357 -0.593544 67.179C0.0139313 72.0388 1.13554 76.744 3.5933 81.0451C3.91654 81.6107 4.23979 82.1792 4.55467 82.7504C7.44575 87.9878 11.372 92.275 16.3168 95.6398C20.7126 98.6326 25.4456 100.88 30.5729 102.34C34.4296 103.438 38.2987 103.451 42.2013 102.821C46.0371 102.202 49.6624 100.934 53.1206 99.1718C59.4294 95.956 64.8897 91.6299 69.7216 86.4873C74.5326 81.3669 78.7139 75.7784 82.225 69.6856C85.1272 64.6488 87.8929 59.5466 90.1723 54.188C92.4461 48.8461 93.8171 43.2827 94.3215 37.5131C94.5639 34.7391 94.681 31.9511 94.7674 29.1659C94.8454 26.6789 94.9067 24.1835 94.7841 21.7021C94.6726 19.4575 94.3633 17.2171 94.0317 14.9906C93.7071 12.8157 93.1205 10.6965 92.187 8.6943C90.3409 4.73318 87.2659 2.09153 83.2713 0.446055C81.9017 -0.118227 80.4806 -0.0471816 79.0622 0.120013C78.3056 0.209184 78.0618 0.446049 77.1019 1.58019ZM50.2824 88.8113C50.2713 88.6719 50.2615 88.5312 50.2796 88.7778C50.2964 88.5242 50.288 88.6594 50.2782 88.7945C49.8742 89.5706 49.4785 90.3508 49.0535 91.1143C49.0048 91.2021 48.7916 91.198 48.6063 91.2509C49.0967 89.8479 49.3252 89.4299 49.962 88.8363C50.0219 88.7806 50.1807 88.8294 50.2824 88.8113ZM3.54036 75.7924C4.39724 76.0585 4.75111 76.8192 5.17049 77.4963C5.47701 77.991 5.48399 78.232 5.45473 79.2254C4.99355 78.3992 4.63129 77.7471 4.26486 77.0979C4.01407 76.652 3.75491 76.2103 3.5083 75.77C3.55428 75.7422 3.61699 75.7241 3.64207 75.6837C3.65739 75.6572 3.61837 75.5973 3.60444 75.5527C3.58215 75.6335 3.56126 75.7129 3.54036 75.7924ZM59.7582 84.669C59.7512 84.5617 59.7442 84.4558 59.7359 84.3485C59.747 84.453 59.7568 84.5575 59.7679 84.662C59.1967 85.7809 58.9501 87.0571 58.2116 88.1257C58.0751 88.0129 57.9999 87.9822 57.9985 87.946C57.9232 86.5527 58.6408 85.5356 59.5896 84.6341C59.6133 84.6133 59.6997 84.6607 59.7582 84.669ZM79.816 2.94422C80.1741 3.0529 80.5335 3.09886 80.8275 3.26048C82.7572 4.31799 84.5671 5.54966 86.1875 7.04466C87.1586 7.94055 87.9263 8.99108 88.4864 10.1837C90.3005 14.0543 91.2228 18.1199 91.149 22.4071C91.11 24.6726 90.7254 26.8865 90.3046 29.1032C89.5105 33.2761 88.0865 37.208 85.9632 40.8904C84.45 43.5168 82.7015 45.9774 80.8261 48.3515C77.3345 52.7696 73.8485 57.1919 70.3528 61.6059C69.5433 62.6286 68.7198 63.6401 67.8727 64.6321C62.953 70.3947 57.377 75.4106 50.9916 79.5194C46.2363 82.5791 41.0045 84.4071 35.5358 85.6346C32.2686 86.3674 29.0529 86.0093 25.8901 85.0076C21.7896 83.709 18.0932 81.6024 14.4373 79.3801C9.45903 76.3524 5.95354 72.0527 3.29515 66.9714C2.40484 65.2688 1.88373 63.4604 1.80849 61.5279C1.6385 57.139 2.33375 52.902 4.05864 48.8545C5.48397 45.5106 7.38443 42.437 9.58025 39.5501C15.7525 31.4397 23.1746 24.6935 31.8659 19.3753C36.9779 16.2473 42.3114 13.5221 47.716 10.9361C51.5796 9.08722 55.5978 7.66052 59.7916 6.77717C64.0802 5.87432 68.3799 5.02302 72.6865 4.21212C74.8782 3.79971 77.081 3.28834 79.2698 3.81222C79.4161 3.63388 79.4997 3.55169 79.5582 3.45416C79.6432 3.31065 79.7101 3.1574 79.816 2.94422ZM69.4569 81.4031C69.6422 80.8124 69.7341 80.4292 69.8804 80.067C71.2737 76.6019 72.3187 73.0225 73.3511 69.439C73.8471 67.7197 74.5758 66.1104 75.4647 64.568C75.579 64.3688 75.8033 64.2322 76.0471 63.9982C76.1641 65.0961 75.6891 65.8805 75.3853 66.7053C74.4644 69.2021 73.4612 71.671 72.6169 74.1943C72.1334 75.6391 71.5412 77.0867 71.6081 78.6723C71.6179 78.891 71.5566 79.1627 71.4256 79.3299C70.8878 80.0182 70.3904 80.7552 69.4569 81.4031ZM25.3885 93.1792C25.7382 94.5419 25.7842 95.4015 25.5669 96.5635C24.3812 96.1957 23.2721 95.7038 22.2049 94.9905C22.8193 94.7954 23.4114 94.7077 23.8907 94.4276C24.4327 94.1099 24.8744 93.6181 25.3885 93.1792ZM61.2574 75.1055C60.7446 76.8122 60.0703 78.3295 58.9125 79.8552C58.9125 78.7921 58.9138 77.9923 58.9138 77.1104C59.6718 76.4625 60.4646 75.784 61.2574 75.1055ZM66.7441 84.5311C65.8273 85.3852 64.9733 86.196 64.0969 86.9832C63.9185 87.1435 63.7402 87.5057 63.3835 87.2076C64.1443 85.994 64.8952 84.7944 65.6476 83.5962C65.7103 83.4972 65.7772 83.3914 65.8677 83.3217C65.9388 83.2673 66.0475 83.2632 66.1924 83.22C66.3526 83.6017 66.5114 83.9779 66.7441 84.5311ZM54.479 87.6033C54.8789 85.1469 55.4487 83.8721 56.4129 83.0472C56.6679 84.9574 55.5296 86.2504 54.479 87.6033ZM72.6461 62.7595C71.916 66.1243 71.3991 67.4382 70.1981 68.8984C70.3904 68.309 70.5241 67.9258 70.6398 67.5385C70.8906 66.6914 71.2793 65.8498 71.3392 64.9874C71.4033 64.0539 71.8088 63.452 72.6461 62.7595ZM53.9858 94.2395C53.9147 93.8187 53.8032 93.6028 53.8687 93.4844C54.2366 92.8184 54.6379 92.1705 55.0503 91.5309C55.1116 91.4362 55.2913 91.4181 55.4766 91.3387C55.5114 92.0799 55.5407 92.7138 55.5728 93.3979C55.074 93.6613 54.6197 93.9023 53.9858 94.2395ZM17.979 92.4658C17.7533 92.3697 17.5359 92.314 17.3604 92.1955C16.9424 91.9141 16.5439 91.602 16.0479 91.237C16.3238 90.9513 16.5119 90.7563 16.6958 90.5654C18.0264 91.6995 18.0264 91.6995 17.979 92.4658ZM91.1392 41.0019C90.8536 40.1715 90.8536 40.1715 91.5642 37.9952C91.4862 39.0666 91.4165 39.9556 91.1392 41.0019ZM30.6579 96.9481C30.9867 97.458 31.4271 97.7965 31.1428 98.3803C30.7764 98.2549 30.4378 98.1393 29.9627 97.9777C30.2511 97.55 30.4545 97.249 30.6579 96.9481ZM41.5618 87.2702C41.1675 88.1299 41.1675 88.1299 40.5308 88.6078C40.5057 88.2456 40.482 87.9 40.4597 87.5684C40.808 87.326 41.1062 87.0013 41.5618 87.2702ZM29.9794 89.0286C29.7955 89.6974 29.4987 90.1948 28.8801 90.6727C28.7617 89.9649 28.7464 89.4396 29.0403 88.9102C29.3706 88.952 29.6408 88.9854 29.9794 89.0286ZM61.2783 89.193C60.9592 89.7851 60.4242 90.1 59.6258 90.479C59.8752 89.9203 60.0076 89.5372 60.2082 89.1958C60.4966 88.7026 60.8603 88.8098 61.2783 89.193ZM42.65 97.8955C43.2686 97.9735 43.6573 98.0223 44.1046 98.078C43.1752 98.6423 43.1752 98.6423 42.65 97.8955ZM82.2514 50.6017C82.2654 50.7048 82.3281 50.8385 82.2849 50.9068C82.1539 51.1144 81.9839 51.2969 81.8279 51.4906C81.7666 51.4056 81.6328 51.2844 81.6537 51.244C81.7763 51.0155 81.9324 50.8051 82.0884 50.5961C82.1079 50.571 82.1957 50.5989 82.2514 50.6017ZM38.6178 97.6154C38.4966 97.4106 38.3712 97.2908 38.3628 97.1626C38.3475 96.9076 38.6415 96.675 38.7794 96.806C38.8797 96.9007 38.9466 97.0916 38.9327 97.2295C38.9215 97.3424 38.7683 97.4413 38.6178 97.6154ZM2.82977 72.5432C2.87575 72.5739 2.94821 72.5947 2.96354 72.6365C3.0346 72.8344 3.09312 73.0364 3.14468 73.2399C3.14886 73.2552 3.02067 73.3221 3.01788 73.3179C2.89806 73.1521 2.76566 72.9905 2.68346 72.8065C2.65838 72.7522 2.77682 72.6324 2.82977 72.5432ZM33.4083 91.5463C33.5016 91.432 33.5657 91.3526 33.6298 91.2746C33.7218 91.3847 33.8751 91.4891 33.8862 91.6062C33.8946 91.7023 33.7329 91.8138 33.6466 91.9183C33.5644 91.7915 33.4821 91.6633 33.4083 91.5463ZM10.5639 86.3117C10.5054 86.3047 10.4134 86.3145 10.4009 86.288C10.3145 86.1041 10.2435 85.9118 10.1682 85.7223C10.2212 85.7042 10.3103 85.6582 10.3201 85.6708C10.4413 85.838 10.5542 86.0107 10.6573 86.1891C10.667 86.2072 10.5946 86.2727 10.5639 86.3117ZM49.1301 84.2259C49.0716 84.3053 49.0271 84.4294 48.9518 84.4502C48.8738 84.4725 48.7679 84.3931 48.6746 84.3583C48.7386 84.2844 48.7902 84.173 48.8696 84.1465C48.9407 84.1242 49.0424 84.1953 49.1301 84.2259Z" fill="#E65C00" fill-opacity="0.4"/>
<path d="M28.0803 70.2471C32.7757 70.7793 36.8205 70.3599 40.7036 68.8566C45.5884 66.9659 49.5941 63.916 52.4671 59.4811C54.4442 56.4298 56.027 53.1904 57.0148 49.6807C57.5345 47.836 57.7616 45.9565 57.4983 44.0477C57.2753 42.4328 56.7738 40.9406 55.4878 39.8037C55.1506 39.5055 54.9332 39.0527 54.7187 38.6403C54.1725 37.5884 53.6723 36.5141 53.1275 35.4608C52.4838 34.2166 51.5252 33.265 50.313 32.5683C48.6035 31.5875 46.8034 30.8323 44.8472 30.5258C40.5197 29.85 36.2214 30.0367 31.9593 31.0441C29.9153 31.5276 28.0358 32.3788 26.3234 33.5938C23.2958 35.7422 20.6318 38.2794 18.5934 41.3795C15.3903 46.2504 13.8757 51.5714 14.8566 57.4372C15.8222 63.2068 19.1466 67.0801 24.5219 69.2146C25.8358 69.7385 27.2471 70.0116 28.0803 70.2471ZM55.2718 43.9961C55.4125 45.211 55.3958 46.3326 55.1436 47.4375C53.9495 52.6624 51.319 57.0861 47.578 60.873C46.9998 61.4582 46.3129 61.9458 45.6386 62.4251C40.7955 65.8651 35.3436 66.775 29.574 66.1299C27.0674 65.8499 24.7685 64.8885 22.758 63.314C21.1836 62.081 19.9477 60.5804 19.3152 58.6688C18.443 56.0313 18.2605 53.3339 18.8958 50.6128C20.0759 45.5566 22.9071 41.5815 26.9253 38.3797C28.954 36.7635 31.2111 35.6573 33.7524 35.1167C37.2022 34.3838 40.6771 34.2514 44.1742 34.6527C45.5341 34.8087 46.8507 35.1557 48.1158 35.6837C49.5676 36.2912 50.8356 37.1467 51.6437 38.5386C52.2665 39.6114 52.8879 40.6926 53.4076 41.8184C53.8367 42.7477 54.2268 43.6603 55.2718 43.9961Z" fill="#E65C00" fill-opacity="0.4"/>
<path d="M9.06755 48.0005C8.92266 48.0548 8.69975 48.0674 8.64542 48.1691C8.14662 49.1096 7.59904 50.0347 7.2131 51.0226C6.1751 53.6796 5.43388 56.4243 5.02286 59.2513C4.61881 62.0337 5.45478 64.3995 7.44998 66.3627C7.78715 66.6943 8.13548 67.0217 8.51306 67.306C10.486 68.787 12.0353 70.6498 13.3631 72.7021C14.3774 74.2696 15.6132 75.6141 17.1932 76.6047C17.9386 77.0729 18.7342 77.5201 19.5702 77.7723C21.6086 78.3896 23.6902 78.8674 25.7425 79.4401C27.3392 79.8845 28.9331 80.3485 30.5061 80.8752C32.7939 81.6387 34.9981 81.5384 37.2859 80.74C39.2894 80.0406 41.4016 79.6561 43.4679 79.1364C44.3861 78.9051 45.3154 78.7086 46.228 78.4564C48.1563 77.9228 49.7962 76.9141 51.2076 75.4887C53.6264 73.0449 56.0925 70.647 58.5224 68.2143C60.6193 66.1147 62.6159 63.9258 64.2781 61.4541C65.5111 59.6233 66.9894 58.0099 68.6335 56.5442C69.032 56.1889 69.4207 55.8196 69.8429 55.495C72.5835 53.3814 74.9144 50.8637 77.1228 48.2165C78.2291 46.8914 79.2559 45.5121 80.0557 43.9865C82.0899 40.1034 84.1074 36.2105 86.0803 32.2953C86.664 31.1361 87.1154 29.9045 87.5599 28.6812C88.4321 26.2833 88.5979 23.8255 88.0392 21.3302C87.6505 19.5955 87.2562 17.8623 86.8368 16.136C86.7407 15.7417 86.5791 15.3418 86.352 15.0088C86.2238 14.8207 85.9005 14.7636 85.5438 14.588C85.4965 14.9698 85.4254 15.19 85.4477 15.4003C85.7417 18.2273 86.0552 21.0529 86.3478 23.8799C86.5735 26.0604 86.1151 28.1517 85.2345 30.1135C84.1436 32.5434 82.9077 34.9092 81.6997 37.2847C80.8136 39.0277 79.8662 40.7387 78.9564 42.4691C78.0967 44.1021 77.081 45.6278 75.8521 47.0071C75.8131 47.0517 75.7741 47.0963 75.7379 47.1436C73.5699 49.9832 71.0648 52.4911 68.3534 54.8151C66.3179 56.5595 64.625 58.6062 63.1983 60.894C61.6879 63.3155 59.7889 65.4389 57.7839 67.4703C55.4111 69.8751 53.0453 72.2897 50.752 74.7698C49.1218 76.5337 47.2033 77.6845 44.8584 78.1778C42.8897 78.593 40.9293 79.0528 38.9717 79.5251C38.2835 79.6909 37.591 79.8929 36.9473 80.1813C34.8142 81.1371 32.6671 81.0382 30.5326 80.2775C28.5778 79.5808 26.5924 79.0012 24.6111 78.3938C21.9541 77.5801 19.3709 76.5309 17.1695 74.728C16.289 74.0077 15.4753 73.2456 14.8455 72.2981C13.3171 70.0034 11.4738 68.0179 9.17347 66.4755C8.92826 66.3111 8.7081 66.1091 8.47543 65.9252C6.27681 64.192 5.43666 61.907 5.76687 59.1691C6.20993 55.495 7.12673 51.9547 8.81261 48.6386C8.9185 48.4296 8.96309 48.1914 9.03554 47.9643L9.06755 48.0005Z" fill="#E65C00" fill-opacity="0.4"/>
<path d="M34.6259 73.2538C34.8377 74.002 35.4521 74.2054 36.1111 74.3211C38.0464 74.6624 40.0151 74.8714 41.949 74.5356C47.6768 73.5408 52.6537 71.1471 56.2916 66.4267C57.9329 64.2991 59.2049 61.9723 60.0423 59.4128C60.3251 58.549 60.4366 57.6726 60.2276 56.7879C60.1663 56.5287 59.9657 56.2292 59.7414 56.101C59.3903 55.9004 59.0364 56.1149 58.8092 56.4033C58.4094 56.9133 58.0276 57.4427 57.6807 57.9903C56.7611 59.4393 55.8931 60.9232 54.9498 62.3569C52.6035 65.9251 49.4672 68.5528 45.4769 70.1077C42.4339 71.2934 39.3269 72.2464 36.0359 72.4498C35.2334 72.4986 35.2348 72.5209 34.6259 73.2538Z" fill="#E65C00" fill-opacity="0.4"/>
<path d="M17.9163 35.6085C18.1253 35.5806 18.4053 35.6294 18.5321 35.5124C19.1842 34.9091 19.8001 34.2668 20.4229 33.6328C22.131 31.8954 23.966 30.3196 25.9584 28.9026C27.4032 27.8757 28.7338 26.6803 30.0658 25.5058C31.2208 24.4873 32.3132 23.3949 33.4236 22.3262C34.8936 20.9135 36.5836 19.8378 38.4353 18.9949C41.3486 17.6699 44.2397 16.2975 47.1628 14.9948C48.1855 14.5392 49.257 14.1699 50.3354 13.8648C54.2714 12.7544 58.2618 11.8766 62.3023 11.2301C63.116 11.0991 63.913 10.8442 64.7016 10.5934C66.5087 10.0207 68.2893 9.35751 70.1117 8.84338C71.59 8.4254 73.1017 8.03671 74.6218 7.88762C75.7142 7.78034 76.9068 7.90991 77.949 8.25266C80.2563 9.01339 82.4061 10.1447 84.3846 11.6286C84.6911 11.3736 84.3692 11.1674 84.216 10.9682C84.0739 10.7829 83.8997 10.5962 83.6977 10.4875C81.4099 9.26558 79.3325 7.6201 76.7089 7.06976C75.8284 6.88584 74.9618 6.73535 74.0687 6.90533C72.1515 7.26759 70.2316 7.62287 68.3172 8.00324C65.7048 8.52293 63.0937 9.04682 60.4897 9.60275C56.0757 10.5446 51.7524 11.7609 47.6993 13.816C45.9033 14.7272 44.0614 15.5479 42.2348 16.3964C40.6228 17.1446 39.0024 17.8775 37.382 18.609C35.5763 19.4226 33.9949 20.554 32.5835 21.9361C31.0578 23.4297 29.5377 24.9289 27.9884 26.3961C27.2583 27.0871 26.5143 27.7866 25.6867 28.3522C22.719 30.3795 20.2264 32.8971 17.9539 35.6531L17.9163 35.6085Z" fill="#E65C00" fill-opacity="0.4"/>
<path d="M55.4389 31.9512C55.0962 31.9512 54.9066 31.9108 54.745 31.9595C54.4747 32.0417 54.1181 32.1114 53.9857 32.3107C53.7488 32.6687 54.0484 32.9585 54.3256 33.1996C56.488 35.068 57.8563 37.431 58.8859 40.081C59.8765 42.628 60.8853 45.1443 61.1918 47.8849C61.2238 48.1733 61.3478 48.4533 61.4509 48.7292C61.49 48.8323 61.5777 48.966 61.6697 48.9897C61.8243 49.0301 62.011 49.0287 62.1629 48.9785C62.2479 48.9507 62.3134 48.796 62.344 48.686C62.443 48.346 62.5976 48.0005 62.5962 47.6577C62.5697 44.0393 62.4792 40.4294 60.8727 37.0618C60.0089 35.2491 58.7828 33.7625 57.0565 32.7245C56.5048 32.3942 55.8917 32.1644 55.4389 31.9512Z" fill="#E65C00" fill-opacity="0.4"/>
<path d="M20.2445 67.9956C19.9269 68.3523 19.9074 68.7884 20.1373 69.1493C21.5041 71.2893 23.3015 72.8094 25.9543 73.0351C26.0128 73.0407 26.0838 73.0518 26.1298 73.0268C26.375 72.8888 26.7164 72.7927 26.8278 72.5795C26.9797 72.2883 26.7387 72.025 26.4391 71.8954C26.0044 71.7087 25.5586 71.5457 25.1225 71.359C23.5801 70.6972 22.1826 69.8292 21.0889 68.5209C20.9106 68.3063 20.6486 68.16 20.4173 67.9928C20.3825 67.9677 20.3059 67.9942 20.2445 67.9956Z" fill="#E65C00" fill-opacity="0.4"/>
<path d="M10.3715 45.5914C9.63028 46.2268 9.07576 46.9638 9.06462 47.9977C9.06601 48.0004 9.03258 47.9614 9.03536 47.9642C9.6094 47.2369 10.1932 46.5138 10.3367 45.5552L10.3715 45.5914Z" fill="#E65C00" fill-opacity="0.4"/>
<path d="M13.618 41.576C13.3533 41.5314 13.0899 41.4088 12.8614 41.7C12.5842 42.0539 12.2707 42.3785 11.9725 42.7171L11.9446 42.6865C12.2497 42.8801 12.449 42.7547 12.6649 42.5067C12.9561 42.1737 13.2947 41.8839 13.6138 41.576H13.618Z" fill="#E65C00" fill-opacity="0.4"/>
<path d="M17.9566 35.6531C17.7574 35.8871 17.5568 36.1212 17.1012 36.6562C17.8703 36.3149 18.1378 36.1073 17.9218 35.6127C17.9162 35.6085 17.9566 35.6531 17.9566 35.6531Z" fill="#E65C00" fill-opacity="0.4"/>
<path d="M14.8621 39.8942C14.3257 39.6615 14.1126 40.3261 13.6653 40.3317C13.6695 40.3386 13.6514 40.3247 13.6514 40.3247C14.1947 40.5504 14.4511 40.0321 14.844 39.8649L14.8621 39.8942Z" fill="#E65C00" fill-opacity="0.4"/>
<path d="M16.5021 37.3585C16.509 37.4073 16.5146 37.456 16.5216 37.5048C16.5773 37.4547 16.6414 37.4101 16.6846 37.3502C16.693 37.3376 16.6289 37.2721 16.5982 37.2303C16.5676 37.2721 16.5355 37.3153 16.5021 37.3585Z" fill="#E65C00" fill-opacity="0.4"/>
<path d="M15.6633 38.4592C15.6995 38.4718 15.7566 38.5066 15.7691 38.494C15.8026 38.462 15.8179 38.4105 15.8402 38.3659C15.7831 38.3478 15.7274 38.3297 15.6702 38.3116C15.6689 38.3603 15.6661 38.4105 15.6633 38.4592Z" fill="#E65C00" fill-opacity="0.4"/>
<path d="M14.8427 39.8664C14.8733 39.7661 14.9082 39.6671 14.9333 39.5654C14.9458 39.5167 14.943 39.4623 14.9472 39.4121C14.8831 39.4637 14.7716 39.5125 14.7674 39.5668C14.7605 39.6685 14.8176 39.7744 14.8552 39.8873C14.8622 39.8942 14.8427 39.8664 14.8427 39.8664Z" fill="#E65C00" fill-opacity="0.4"/>
<path d="M13.6151 41.576C13.6305 41.1636 13.6444 40.7512 13.6555 40.3318C13.6514 40.3262 13.6695 40.3416 13.6653 40.3332C13.6472 40.7428 13.6332 41.1594 13.6193 41.576H13.6151Z" fill="#E65C00" fill-opacity="0.4"/>
<path d="M11.9738 42.717C11.8345 42.9497 11.6952 43.1823 11.5614 43.4234C11.5684 43.4317 11.5322 43.39 11.5322 43.39C12.07 43.4067 12.1285 43.3105 11.9502 42.6933C11.946 42.6864 11.9738 42.717 11.9738 42.717Z" fill="#E65C00" fill-opacity="0.4"/>
<path d="M11.1323 44.0963C11.6269 44.0963 11.691 43.9876 11.5391 43.3955C11.5336 43.3885 11.5684 43.4303 11.5628 43.422C11.4249 43.6532 11.2939 43.8915 11.1657 44.1367C11.1685 44.1423 11.1323 44.0963 11.1323 44.0963Z" fill="#E65C00" fill-opacity="0.4"/>
<path d="M10.6656 44.7415C11.1644 44.7652 11.2243 44.6844 11.1366 44.102C11.1324 44.0978 11.17 44.1438 11.1658 44.1382C11.0056 44.3458 10.8495 44.559 10.6977 44.7778C10.7018 44.7833 10.6656 44.7415 10.6656 44.7415Z" fill="#E65C00" fill-opacity="0.4"/>
<path d="M10.3369 45.5552C10.8398 45.452 10.8329 45.1329 10.6699 44.7456C10.6657 44.74 10.7019 44.7832 10.6977 44.7763C10.5863 45.0438 10.479 45.3169 10.3731 45.5913L10.3369 45.5552Z" fill="#E65C00" fill-opacity="0.4"/>
<path d="M36.3788 39.3969C35.0719 38.7825 33.7664 38.9246 32.4846 39.135C30.3598 39.4833 28.3911 40.29 26.5422 41.3837C25.3886 42.0664 24.5428 43.0431 23.9381 44.226C23.1663 45.7364 22.8793 47.3679 22.9141 49.0426C22.9503 50.7787 23.7514 52.0953 25.33 52.8909C27.537 54.0027 29.8415 54.2898 32.2199 53.5861C32.8886 53.3883 33.5435 53.0539 34.1287 52.6666C36.9737 50.7828 38.8798 45.7921 37.6788 42.3953C37.4823 41.8407 37.1967 41.3182 36.9598 40.779C36.7731 40.3597 36.6032 39.9347 36.3788 39.3969ZM34.2109 40.205C36.546 42.993 36.4708 45.8032 35.0371 48.6706C33.3596 52.0271 29.2953 53.1236 26.0657 51.1953C25.2283 50.6951 24.7267 49.9901 24.7058 49.0468C24.6459 46.2686 25.5056 43.9209 28.0288 42.4273C29.3594 41.6401 30.7611 41.0117 32.2547 40.6063C32.8719 40.4391 33.5101 40.3457 34.2109 40.205Z" fill="#E65C00" fill-opacity="0.4"/>
<path d="M154.092 96.5189C154.457 94.8247 154.125 93.2698 153.132 91.8542C152.413 90.8315 151.55 89.944 150.505 89.2599C148.282 87.8053 145.882 86.862 143.178 86.8509C142.692 86.8495 142.206 86.8286 141.721 86.7979C138.926 86.6238 136.195 86.1347 133.58 85.1023C131.851 84.421 130.108 83.801 128.27 83.4638C124.376 82.7504 120.515 83.0124 116.682 83.8623C112.714 84.7414 109.059 86.4064 105.566 88.4504C100.935 91.1603 96.6171 94.3036 92.5459 97.7952C91.2711 98.8889 89.9795 99.9631 88.6935 101.044C87.002 102.467 85.0668 103.396 82.9183 103.894C82.4014 104.013 81.8803 104.121 81.3731 104.277C81.0847 104.366 80.7922 104.502 80.5539 104.685C80.1513 104.993 80.2725 105.72 80.7518 105.887C81.0388 105.988 81.355 106.034 81.6602 106.041C82.7999 106.069 83.9313 106.096 85.071 106.241C86.4294 106.414 87.8004 106.482 89.1296 106.835C89.9266 107.045 90.7054 107.037 91.4717 106.729C92.7187 106.227 93.8933 106.425 95.0316 107.072C96.9933 108.185 98.9718 109.268 100.918 110.403C103.324 111.808 105.699 113.269 108.103 114.676C109.706 115.614 111.308 116.554 113.034 117.261C117.625 119.135 122.339 119.656 127.198 118.555C129.761 117.976 132.159 116.964 134.497 115.783C138.662 113.677 142.442 110.997 146.094 108.115C148.52 106.201 150.37 103.782 152.045 101.402C153.023 99.7904 153.724 98.2229 154.092 96.5189ZM92.8845 101.274C95.1862 99.2735 97.4475 97.2281 99.9206 95.4321C103.287 92.9869 106.795 90.7604 110.423 88.7304C113.604 86.9512 116.952 85.5802 120.554 84.8947C123.807 84.2761 127.054 84.1688 130.282 85.0229C131.134 85.2486 131.986 85.505 132.804 85.8324C135.151 86.7729 137.605 87.3497 140.052 87.9363C141.071 88.1815 142.154 88.2247 143.21 88.2525C145.938 88.325 148.261 89.3992 150.379 91.0238C150.588 91.184 150.773 91.3777 150.958 91.5658C152.562 93.1931 152.909 95.0128 151.988 97.1473C151.309 98.7203 150.328 100.065 149.244 101.349C147.582 103.32 145.672 105.014 143.519 106.445C139.909 108.847 136.224 111.118 132.334 113.045C130.227 114.088 128.06 114.969 125.788 115.58C121.436 116.752 117.121 116.586 112.868 115.112C111.028 114.474 109.303 113.563 107.596 112.627C104.493 110.928 101.403 109.205 98.2793 107.545C97.1898 106.967 96.0292 106.513 94.8797 106.06C93.8194 105.641 92.7076 105.602 91.6319 105.995C90.757 106.314 89.921 106.314 89.0432 106.027C88.3842 105.811 87.6945 105.687 87.0173 105.522C89.2787 104.408 91.0816 102.84 92.8845 101.274Z" fill="#E65C00" fill-opacity="0.4"/>
<path d="M121.558 89.9691C121.674 90.4971 121.38 90.8928 121.135 91.308C120.55 92.2972 119.967 93.2879 119.393 94.2827C119.268 94.5 119.177 94.7397 119.094 94.9166C119.298 95.2663 119.534 95.1618 119.73 95.12C122.268 94.578 124.824 94.5781 127.381 94.9055C130.545 95.3109 133.715 95.4238 136.903 95.2886C138.533 95.219 140.17 95.3249 141.804 95.3666C142.183 95.3764 142.597 95.3681 142.855 95.8933C142.555 95.9574 142.313 96.0424 142.068 96.055C139.685 96.1873 137.304 96.3392 134.92 96.4242C132.89 96.4966 130.857 96.5022 128.824 96.5078C127.186 96.5119 125.553 96.5482 123.945 96.8993C123.523 96.9912 123.109 97.1236 122.538 97.2783C122.776 97.5402 122.888 97.7213 123.048 97.8286C125.029 99.1592 127.016 100.481 129.004 101.799C129.368 102.041 129.745 102.261 130.08 102.467C130.035 102.87 129.804 102.892 129.593 102.84C129.212 102.747 128.819 102.652 128.469 102.482C125.999 101.281 123.64 99.8949 121.497 98.163C121.361 98.0529 121.21 97.9623 120.994 97.8105C118.713 98.6019 116.651 99.8266 114.581 101.316C115.47 102.093 116.254 102.798 117.058 103.478C118.542 104.735 120.041 105.971 121.522 107.231C121.787 107.456 122.014 107.734 122.224 108.012C122.382 108.22 122.163 108.596 121.889 108.578C121.589 108.558 121.269 108.521 121.004 108.395C120.608 108.207 120.233 107.958 119.881 107.695C117.657 106.024 115.371 104.424 113.495 102.339C113.441 102.279 113.345 102.255 113.2 102.178C112.889 102.33 112.535 102.498 112.187 102.676C107.049 105.305 101.675 105.861 96.0849 104.5C95.7003 104.406 95.3074 104.3 94.9549 104.126C94.1133 103.712 94.0659 102.693 94.8908 102.234C95.3018 102.006 95.8006 101.878 96.2729 101.826C97.0169 101.744 97.7721 101.773 98.5231 101.74C100.111 101.669 101.704 101.639 103.285 101.497C105.736 101.278 108.042 100.523 110.214 99.3724C111.15 98.875 112.059 98.3232 112.998 97.8328C114.093 97.2602 115.195 96.6945 116.321 96.1859C116.834 95.9546 117.171 95.6564 117.438 95.1493C118.056 93.9789 118.733 92.835 119.448 91.7204C119.801 91.1687 120.285 90.6992 120.727 90.2059C120.878 90.036 120.989 90.0304 121.558 89.9691Z" fill="#E65C00" fill-opacity="0.4"/>
<path d="M139.62 102.289C139.484 102.374 139.355 102.518 139.22 102.525C138.965 102.538 138.69 102.514 138.453 102.425C137.718 102.149 136.975 101.876 136.277 101.519C135.947 101.351 135.688 101.015 135.448 100.714C135.378 100.628 135.451 100.38 135.526 100.243C135.572 100.16 135.746 100.119 135.866 100.114C135.991 100.107 136.135 100.135 136.244 100.196C137.311 100.796 138.374 101.405 139.434 102.018C139.498 102.056 139.529 102.153 139.62 102.289Z" fill="#E65C00" fill-opacity="0.4"/>
<path d="M127.757 109.35C127.27 108.978 126.828 108.682 126.438 108.327C126.259 108.164 126.16 107.895 126.071 107.657C126.003 107.474 126.287 107.208 126.478 107.254C126.604 107.285 126.746 107.31 126.843 107.385C127.644 108.002 128.437 108.631 129.23 109.258C129.263 109.283 129.301 109.326 129.302 109.364C129.312 109.525 129.375 109.743 129.295 109.836C129.212 109.936 128.972 109.981 128.831 109.942C128.583 109.871 128.353 109.726 128.124 109.598C127.973 109.511 127.834 109.401 127.757 109.35Z" fill="#E65C00" fill-opacity="0.4"/>
<path d="M109.42 95.5548C109.299 95.2441 109.143 95.0225 109.137 94.7954C109.109 93.8675 109.306 92.973 109.649 92.1119C109.679 92.0353 109.74 91.9489 109.81 91.9155C109.919 91.8625 110.062 91.8054 110.164 91.8375C110.262 91.8681 110.36 91.9991 110.391 92.1064C110.426 92.2234 110.402 92.3669 110.372 92.4909C110.152 93.3784 109.926 94.266 109.69 95.1507C109.658 95.2635 109.555 95.3569 109.42 95.5548Z" fill="#E65C00" fill-opacity="0.4"/>
</svg>
