<svg width="68" height="73" viewBox="0 0 68 73" fill="none" xmlns="http://www.w3.org/2000/svg">
<path d="M39.193 49.5732C39.193 50.8006 38.198 51.7955 36.9707 51.7955C35.7434 51.7955 34.7484 50.8006 34.7484 49.5732C34.7484 48.3459 35.7434 47.351 36.9707 47.351C38.198 47.351 39.193 48.3459 39.193 49.5732Z" fill="#2E3333" stroke="white" stroke-width="1.2"/>
<path d="M53.6517 32.5188L53.4918 33.0769L53.6517 32.5187C53.1715 32.3812 52.6004 32.3224 51.9276 32.3224H11.2886C7.84497 32.3224 5.04431 35.1231 5.04431 38.5667V61.7084C5.04431 65.152 7.84497 67.9527 11.2886 67.9527H46.4244C47.6517 67.9528 48.6466 68.9477 48.6466 70.175C48.6466 71.4023 47.6517 72.3971 46.4244 72.3971H11.2886C5.39544 72.3971 0.6 67.6017 0.6 61.7085V38.5669C0.6 32.6737 5.39544 27.8782 11.2886 27.8782H14.67H15.27V27.2782V17.3254C15.27 8.52905 22.5853 1.35 31.6029 1.35C40.6205 1.35 47.9358 8.52905 47.9358 17.3254V27.2782V27.8782H48.5358H51.9276C53.06 27.8782 54.0212 28.0015 54.8758 28.2463C56.0555 28.5845 56.7379 29.8149 56.4 30.9945C56.0618 32.1743 54.8314 32.8567 53.6517 32.5188ZM42.8915 27.8782H43.4915V27.2782V17.3254C43.4915 10.9485 38.1405 5.79431 31.6029 5.79431C25.0653 5.79431 19.7143 10.9485 19.7143 17.3254V27.2782V27.8782H20.3143H42.8915Z" fill="#2E3333" stroke="white" stroke-width="1.2"/>
<path d="M28.61 49.5732C28.61 50.8006 27.615 51.7955 26.3877 51.7955C25.1604 51.7955 24.1654 50.8006 24.1654 49.5732C24.1654 48.3459 25.1604 47.351 26.3877 47.351C27.615 47.351 28.61 48.3459 28.61 49.5732Z" fill="#2E3333" stroke="white" stroke-width="1.2"/>
<path d="M67.147 47.5019L67.1469 47.493C67.0888 42.3479 62.884 38.1791 57.7253 38.1791C52.5306 38.1791 48.3031 42.4064 48.3031 47.6013C48.3031 48.8286 49.298 49.8234 50.5253 49.8234C51.7526 49.8234 52.7474 48.8286 52.7474 47.6013C52.7474 44.856 54.98 42.6234 57.7254 42.6234C60.4709 42.6234 62.7033 44.856 62.7033 47.6013C62.7033 47.6226 62.7035 47.6424 62.7041 47.6612L62.7044 47.6746L62.7042 47.688C62.6712 49.6526 61.4905 51.4119 59.6781 52.1856L67.147 47.5019ZM67.147 47.5019L67.1474 47.5108M67.147 47.5019L67.1474 47.5108M67.1474 47.5108C67.1486 47.5413 67.1493 47.5712 67.1493 47.6007V47.6009C67.1502 51.3841 64.903 54.7876 61.4232 56.2731L61.4232 56.2731M67.1474 47.5108L61.4232 56.2731M61.4232 56.2731C60.5146 56.661 59.9476 57.5689 59.9476 58.5624V61.003C59.9476 62.2303 58.9527 63.2251 57.7254 63.2251C56.4981 63.2251 55.5033 62.2303 55.5033 61.003V58.5624C55.5033 55.7678 57.1448 53.2675 59.678 52.1857L61.4232 56.2731Z" fill="#E65C00" stroke="white" stroke-width="1.2"/>
<path d="M59.9361 70.1753C59.9361 71.4026 58.9412 72.3976 57.7139 72.3976C56.4865 72.3976 55.4916 71.4026 55.4916 70.1753C55.4916 68.948 56.4865 67.953 57.7139 67.953C58.9412 67.953 59.9361 68.948 59.9361 70.1753Z" fill="#E65C00" stroke="white" stroke-width="1.2"/>
<path d="M18.026 49.5732C18.026 50.8006 17.031 51.7955 15.8037 51.7955C14.5764 51.7955 13.5814 50.8006 13.5814 49.5732C13.5814 48.3459 14.5764 47.351 15.8037 47.351C17.031 47.351 18.026 48.3459 18.026 49.5732Z" fill="#2E3333" stroke="white" stroke-width="1.2"/>
</svg>
