<svg width="198" height="66" viewBox="0 0 198 66" fill="none" xmlns="http://www.w3.org/2000/svg">
<path d="M0 32.8765C0 14.7193 14.7193 0 32.8765 0H164.866C183.023 0 197.743 14.7193 197.743 32.8765C197.743 51.0336 183.023 65.7529 164.866 65.7529H32.8764C14.7193 65.7529 0 51.0336 0 32.8765Z" fill="#E65C00"/>
<g opacity="0.8">
<path d="M76.9644 20.8492C76.7759 20.4525 76.5027 20.1469 76.1451 19.9323C75.7875 19.7112 75.3713 19.6007 74.8966 19.6007C74.4219 19.6007 73.9928 19.7112 73.6091 19.9323C73.232 20.1469 72.9329 20.459 72.7118 20.8687C72.4972 21.2718 72.3899 21.74 72.3899 22.2732C72.3899 22.8064 72.4972 23.2746 72.7118 23.6778C72.9329 24.0809 73.232 24.393 73.6091 24.6141C73.9928 24.8287 74.4219 24.936 74.8966 24.936C75.5599 24.936 76.1061 24.7377 76.5353 24.341C76.9644 23.9444 77.2148 23.4079 77.2863 22.7316H74.5747V22.0099H78.2324V22.6926C78.1804 23.2518 78.0048 23.7655 77.7057 24.2337C77.4066 24.6954 77.0132 25.0628 76.5255 25.3359C76.0378 25.6025 75.4949 25.7358 74.8966 25.7358C74.2659 25.7358 73.6904 25.5895 73.1702 25.2969C72.65 24.9978 72.2371 24.5849 71.9315 24.0582C71.6323 23.5315 71.4828 22.9365 71.4828 22.2732C71.4828 21.6099 71.6323 21.015 71.9315 20.4883C72.2371 19.9551 72.65 19.5421 73.1702 19.2495C73.6904 18.9504 74.2659 18.8009 74.8966 18.8009C75.6184 18.8009 76.2557 18.9797 76.8084 19.3373C77.3676 19.695 77.774 20.1989 78.0276 20.8492H76.9644Z" fill="white"/>
<path d="M84.2829 22.7999C84.2829 22.969 84.2732 23.1478 84.2537 23.3364H79.9815C80.014 23.8631 80.1928 24.276 80.5179 24.5751C80.8496 24.8677 81.2495 25.014 81.7177 25.014C82.1013 25.014 82.4199 24.9262 82.6735 24.7507C82.9336 24.5686 83.1157 24.328 83.2197 24.0289H84.1756C84.0326 24.5426 83.7465 24.962 83.3173 25.2871C82.8881 25.6058 82.3549 25.7651 81.7177 25.7651C81.2105 25.7651 80.7553 25.6513 80.3521 25.4237C79.9555 25.1961 79.6433 24.8742 79.4158 24.4581C79.1882 24.0354 79.0744 23.5477 79.0744 22.995C79.0744 22.4423 79.1849 21.9578 79.406 21.5417C79.6271 21.1255 79.936 20.8069 80.3326 20.5858C80.7358 20.3582 81.1975 20.2444 81.7177 20.2444C82.2249 20.2444 82.6735 20.355 83.0637 20.576C83.4538 20.7971 83.753 21.1028 83.961 21.4929C84.1756 21.8766 84.2829 22.3122 84.2829 22.7999ZM83.3661 22.6146C83.3661 22.2765 83.2913 21.9871 83.1417 21.7465C82.9922 21.4994 82.7873 21.3141 82.5272 21.1905C82.2736 21.0605 81.9908 20.9955 81.6786 20.9955C81.23 20.9955 80.8463 21.1385 80.5277 21.4246C80.2156 21.7107 80.0368 22.1074 79.9912 22.6146H83.3661Z" fill="white"/>
<path d="M86.5372 21.0637V24.2142C86.5372 24.4743 86.5925 24.6596 86.703 24.7702C86.8135 24.8742 87.0054 24.9262 87.2785 24.9262H87.932V25.6773H87.1322C86.638 25.6773 86.2673 25.5635 86.0202 25.3359C85.7731 25.1083 85.6496 24.7344 85.6496 24.2142V21.0637H84.9571V20.3322H85.6496V18.9862H86.5372V20.3322H87.932V21.0637H86.5372Z" fill="white"/>
<path d="M92.0662 19.4641C91.8972 19.4641 91.7541 19.4056 91.6371 19.2885C91.52 19.1715 91.4615 19.0284 91.4615 18.8594C91.4615 18.6903 91.52 18.5473 91.6371 18.4302C91.7541 18.3132 91.8972 18.2546 92.0662 18.2546C92.2288 18.2546 92.3653 18.3132 92.4759 18.4302C92.5929 18.5473 92.6515 18.6903 92.6515 18.8594C92.6515 19.0284 92.5929 19.1715 92.4759 19.2885C92.3653 19.4056 92.2288 19.4641 92.0662 19.4641ZM92.4954 20.3322V25.6773H91.6078V20.3322H92.4954Z" fill="white"/>
<path d="M95.0908 21.0637V24.2142C95.0908 24.4743 95.1461 24.6596 95.2566 24.7702C95.3672 24.8742 95.559 24.9262 95.8321 24.9262H96.4856V25.6773H95.6858C95.1916 25.6773 94.821 25.5635 94.5739 25.3359C94.3268 25.1083 94.2032 24.7344 94.2032 24.2142V21.0637H93.5107V20.3322H94.2032V18.9862H95.0908V20.3322H96.4856V21.0637H95.0908Z" fill="white"/>
<path d="M103.244 25.7456C102.613 25.7456 102.037 25.5993 101.517 25.3066C100.997 25.0075 100.584 24.5946 100.278 24.0679C99.9794 23.5347 99.8298 22.9365 99.8298 22.2732C99.8298 21.6099 99.9794 21.015 100.278 20.4883C100.584 19.9551 100.997 19.5421 101.517 19.2495C102.037 18.9504 102.613 18.8009 103.244 18.8009C103.881 18.8009 104.46 18.9504 104.98 19.2495C105.5 19.5421 105.91 19.9518 106.209 20.4785C106.508 21.0052 106.657 21.6034 106.657 22.2732C106.657 22.943 106.508 23.5412 106.209 24.0679C105.91 24.5946 105.5 25.0075 104.98 25.3066C104.46 25.5993 103.881 25.7456 103.244 25.7456ZM103.244 24.975C103.718 24.975 104.144 24.8645 104.521 24.6434C104.905 24.4223 105.204 24.1069 105.419 23.6973C105.64 23.2876 105.75 22.8129 105.75 22.2732C105.75 21.727 105.64 21.2523 105.419 20.8492C105.204 20.4395 104.908 20.1241 104.531 19.903C104.154 19.6819 103.725 19.5714 103.244 19.5714C102.762 19.5714 102.333 19.6819 101.956 19.903C101.579 20.1241 101.28 20.4395 101.059 20.8492C100.844 21.2523 100.737 21.727 100.737 22.2732C100.737 22.8129 100.844 23.2876 101.059 23.6973C101.28 24.1069 101.579 24.4223 101.956 24.6434C102.34 24.8645 102.769 24.975 103.244 24.975Z" fill="white"/>
<path d="M110.433 20.2347C111.084 20.2347 111.61 20.433 112.014 20.8296C112.417 21.2198 112.618 21.7855 112.618 22.5268V25.6773H111.74V22.6536C111.74 22.1204 111.607 21.714 111.341 21.4344C111.074 21.1483 110.71 21.0052 110.248 21.0052C109.78 21.0052 109.406 21.1515 109.126 21.4441C108.853 21.7367 108.717 22.1627 108.717 22.7219V25.6773H107.829V20.3322H108.717V21.093C108.892 20.8199 109.13 20.6086 109.429 20.459C109.734 20.3094 110.069 20.2347 110.433 20.2347Z" fill="white"/>
</g>
<path d="M79.9211 37.3112C79.6657 36.843 79.3146 36.4865 78.8677 36.2418C78.4208 35.9971 77.8994 35.8747 77.3035 35.8747C76.6438 35.8747 76.0586 36.0237 75.5478 36.3216C75.0371 36.6195 74.638 37.0452 74.3508 37.5985C74.0635 38.1518 73.9198 38.7902 73.9198 39.5138C73.9198 40.2586 74.0635 40.9077 74.3508 41.461C74.6487 42.0143 75.0583 42.4399 75.5797 42.7378C76.1011 43.0358 76.7076 43.1847 77.3993 43.1847C78.2505 43.1847 78.9475 42.9613 79.4901 42.5144C80.0328 42.0569 80.3892 41.4237 80.5595 40.6151H76.7289V38.9073H82.7621V40.8545C82.6131 41.6312 82.2939 42.3495 81.8044 43.0092C81.315 43.6689 80.6819 44.2009 79.9051 44.6053C79.139 44.999 78.2771 45.1958 77.3195 45.1958C76.2448 45.1958 75.2712 44.9564 74.3986 44.4776C73.5368 43.9881 72.8558 43.3124 72.3557 42.4506C71.8662 41.5887 71.6215 40.6097 71.6215 39.5138C71.6215 38.4178 71.8662 37.4389 72.3557 36.577C72.8558 35.7045 73.5368 35.0288 74.3986 34.55C75.2712 34.0605 76.2394 33.8158 77.3035 33.8158C78.5591 33.8158 79.6497 34.1243 80.5755 34.7415C81.5012 35.348 82.1396 36.2046 82.4908 37.3112H79.9211Z" fill="white"/>
<path d="M88.3416 45.2437C87.4904 45.2437 86.7243 45.0575 86.0433 44.6851C85.3623 44.302 84.8249 43.7647 84.4312 43.073C84.0482 42.3814 83.8566 41.5833 83.8566 40.6789C83.8566 39.7745 84.0535 38.9764 84.4472 38.2848C84.8515 37.5932 85.3995 37.0611 86.0912 36.6887C86.7828 36.3056 87.5542 36.1141 88.4055 36.1141C89.2567 36.1141 90.0281 36.3056 90.7198 36.6887C91.4114 37.0611 91.9541 37.5932 92.3478 38.2848C92.7521 38.9764 92.9543 39.7745 92.9543 40.6789C92.9543 41.5833 92.7468 42.3814 92.3318 43.073C91.9275 43.7647 91.3742 44.302 90.6719 44.6851C89.9803 45.0575 89.2035 45.2437 88.3416 45.2437ZM88.3416 43.2965C88.746 43.2965 89.1237 43.2007 89.4748 43.0092C89.8366 42.807 90.1239 42.5091 90.3367 42.1154C90.5495 41.7217 90.6559 41.2429 90.6559 40.6789C90.6559 39.8383 90.4325 39.1946 89.9856 38.7476C89.5493 38.2901 89.012 38.0613 88.3735 38.0613C87.7351 38.0613 87.1978 38.2901 86.7615 38.7476C86.3359 39.1946 86.1231 39.8383 86.1231 40.6789C86.1231 41.5195 86.3306 42.1686 86.7455 42.6261C87.1712 43.073 87.7032 43.2965 88.3416 43.2965Z" fill="white"/>
<path d="M98.5197 45.2437C97.6685 45.2437 96.9024 45.0575 96.2214 44.6851C95.5404 44.302 95.003 43.7647 94.6094 43.073C94.2263 42.3814 94.0348 41.5833 94.0348 40.6789C94.0348 39.7745 94.2316 38.9764 94.6253 38.2848C95.0296 37.5932 95.5776 37.0611 96.2693 36.6887C96.9609 36.3056 97.7323 36.1141 98.5836 36.1141C99.4348 36.1141 100.206 36.3056 100.898 36.6887C101.59 37.0611 102.132 37.5932 102.526 38.2848C102.93 38.9764 103.132 39.7745 103.132 40.6789C103.132 41.5833 102.925 42.3814 102.51 43.073C102.106 43.7647 101.552 44.302 100.85 44.6851C100.158 45.0575 99.3816 45.2437 98.5197 45.2437ZM98.5197 43.2965C98.9241 43.2965 99.3018 43.2007 99.653 43.0092C100.015 42.807 100.302 42.5091 100.515 42.1154C100.728 41.7217 100.834 41.2429 100.834 40.6789C100.834 39.8383 100.611 39.1946 100.164 38.7476C99.7274 38.2901 99.1901 38.0613 98.5517 38.0613C97.9132 38.0613 97.3759 38.2901 96.9396 38.7476C96.514 39.1946 96.3012 39.8383 96.3012 40.6789C96.3012 41.5195 96.5087 42.1686 96.9237 42.6261C97.3493 43.073 97.8813 43.2965 98.5197 43.2965Z" fill="white"/>
<path d="M108.235 36.1141C108.895 36.1141 109.475 36.2471 109.975 36.5131C110.475 36.7685 110.869 37.1037 111.156 37.5187V36.2578H113.406V45.1639C113.406 45.9832 113.241 46.7121 112.912 47.3505C112.582 47.9996 112.087 48.5103 111.427 48.8827C110.767 49.2658 109.969 49.4573 109.033 49.4573C107.777 49.4573 106.745 49.1647 105.937 48.5795C105.139 47.9943 104.686 47.1962 104.58 46.1854H106.799C106.916 46.5897 107.166 46.9089 107.549 47.143C107.942 47.3878 108.416 47.5101 108.969 47.5101C109.618 47.5101 110.145 47.3133 110.549 46.9196C110.954 46.5365 111.156 45.9513 111.156 45.1639V43.7913C110.869 44.2062 110.47 44.5521 109.959 44.8287C109.459 45.1054 108.884 45.2437 108.235 45.2437C107.49 45.2437 106.809 45.0522 106.192 44.6691C105.575 44.286 105.085 43.7487 104.724 43.0571C104.372 42.3548 104.197 41.5514 104.197 40.647C104.197 39.7532 104.372 38.9605 104.724 38.2688C105.085 37.5772 105.57 37.0452 106.176 36.6727C106.793 36.3003 107.48 36.1141 108.235 36.1141ZM111.156 40.6789C111.156 40.1362 111.049 39.6734 110.837 39.2903C110.624 38.8966 110.336 38.5987 109.975 38.3965C109.613 38.1837 109.225 38.0773 108.81 38.0773C108.395 38.0773 108.012 38.1784 107.66 38.3806C107.309 38.5827 107.022 38.8807 106.799 39.2744C106.586 39.6574 106.479 40.115 106.479 40.647C106.479 41.179 106.586 41.6472 106.799 42.0515C107.022 42.4452 107.309 42.7485 107.66 42.9613C108.022 43.1741 108.405 43.2805 108.81 43.2805C109.225 43.2805 109.613 43.1794 109.975 42.9773C110.336 42.7644 110.624 42.4665 110.837 42.0835C111.049 41.6898 111.156 41.2216 111.156 40.6789Z" fill="white"/>
<path d="M117.823 33.2891V45.1H115.589V33.2891H117.823Z" fill="white"/>
<path d="M128.251 40.4874C128.251 40.8066 128.229 41.0939 128.187 41.3493H121.723C121.776 41.9877 121.999 42.4878 122.393 42.8496C122.787 43.2113 123.271 43.3922 123.846 43.3922C124.675 43.3922 125.266 43.0358 125.617 42.3229H128.027C127.772 43.1741 127.282 43.8764 126.559 44.4297C125.835 44.9724 124.947 45.2437 123.893 45.2437C123.042 45.2437 122.276 45.0575 121.595 44.6851C120.925 44.302 120.398 43.7647 120.015 43.073C119.643 42.3814 119.456 41.5833 119.456 40.6789C119.456 39.7638 119.643 38.9605 120.015 38.2688C120.387 37.5772 120.909 37.0452 121.579 36.6727C122.249 36.3003 123.021 36.1141 123.893 36.1141C124.734 36.1141 125.484 36.295 126.144 36.6568C126.814 37.0186 127.33 37.5346 127.692 38.205C128.064 38.8647 128.251 39.6255 128.251 40.4874ZM125.936 39.8489C125.926 39.2744 125.718 38.8168 125.314 38.4763C124.91 38.1252 124.415 37.9496 123.83 37.9496C123.276 37.9496 122.808 38.1199 122.425 38.4604C122.053 38.7902 121.824 39.2531 121.739 39.8489H125.936Z" fill="white"/>
<path d="M141.809 37.4069C141.809 38.0028 141.665 38.5614 141.378 39.0828C141.101 39.6042 140.66 40.0245 140.053 40.3437C139.457 40.6629 138.702 40.8226 137.787 40.8226H135.919V45.1H133.685V33.9594H137.787C138.649 33.9594 139.383 34.1084 139.989 34.4063C140.596 34.7043 141.048 35.1139 141.346 35.6353C141.655 36.1567 141.809 36.7472 141.809 37.4069ZM137.691 39.019C138.308 39.019 138.766 38.8807 139.064 38.604C139.362 38.3167 139.511 37.9177 139.511 37.4069C139.511 36.3216 138.904 35.7789 137.691 35.7789H135.919V39.019H137.691Z" fill="white"/>
<path d="M145.63 33.2891V45.1H143.395V33.2891H145.63Z" fill="white"/>
<path d="M147.263 40.647C147.263 39.7532 147.439 38.9605 147.79 38.2688C148.151 37.5772 148.636 37.0452 149.242 36.6727C149.859 36.3003 150.546 36.1141 151.301 36.1141C151.961 36.1141 152.535 36.2471 153.025 36.5131C153.525 36.7792 153.924 37.1143 154.222 37.5187V36.2578H156.472V45.1H154.222V43.8072C153.935 44.2222 153.536 44.568 153.025 44.8447C152.525 45.1107 151.945 45.2437 151.285 45.2437C150.54 45.2437 149.859 45.0522 149.242 44.6691C148.636 44.286 148.151 43.7487 147.79 43.0571C147.439 42.3548 147.263 41.5514 147.263 40.647ZM154.222 40.6789C154.222 40.1362 154.115 39.6734 153.903 39.2903C153.69 38.8966 153.403 38.5987 153.041 38.3965C152.679 38.1837 152.291 38.0773 151.876 38.0773C151.461 38.0773 151.078 38.1784 150.726 38.3806C150.375 38.5827 150.088 38.8807 149.865 39.2744C149.652 39.6574 149.545 40.115 149.545 40.647C149.545 41.179 149.652 41.6472 149.865 42.0515C150.088 42.4452 150.375 42.7485 150.726 42.9613C151.088 43.1741 151.471 43.2805 151.876 43.2805C152.291 43.2805 152.679 43.1794 153.041 42.9773C153.403 42.7644 153.69 42.4665 153.903 42.0835C154.115 41.6898 154.222 41.2216 154.222 40.6789Z" fill="white"/>
<path d="M167.114 36.2578L161.639 49.2818H159.261L161.177 44.8766L157.633 36.2578H160.139L162.421 42.4346L164.736 36.2578H167.114Z" fill="white"/>
<path d="M28.266 17.9066V45.7227C28.2662 45.7831 28.2824 45.842 28.3127 45.8922C28.3431 45.9423 28.3861 45.9815 28.4364 46.0047C28.4867 46.0279 28.5421 46.0341 28.5957 46.0226C28.6492 46.0111 28.6984 45.9824 28.7373 45.94L41.8225 31.8154L28.7373 17.6893C28.6984 17.647 28.6492 17.6182 28.5957 17.6067C28.5421 17.5952 28.4867 17.6014 28.4364 17.6247C28.3861 17.6479 28.3431 17.687 28.3127 17.7372C28.2824 17.7873 28.2662 17.8463 28.266 17.9066ZM47.3091 26.0115L30.9018 16.0062L30.8916 15.9998C30.609 15.83 30.3404 16.2532 30.5719 16.4995L43.4333 30.1117L47.3091 26.0115ZM30.5732 47.1312C30.3404 47.3775 30.609 47.8008 30.8929 47.6309L30.9031 47.6245L47.3091 37.6192L43.4333 33.5176L30.5732 47.1312ZM53.9326 30.0459L49.3508 27.253L45.0428 31.8154L49.3508 36.3757L53.9326 33.5848C55.1789 32.8226 55.1789 30.8082 53.9326 30.0459Z" fill="white"/>
</svg>
