<svg width="160" height="160" viewBox="0 0 160 160" fill="none" xmlns="http://www.w3.org/2000/svg">
<circle cx="80" cy="80" r="79.5" stroke="#E55C00" stroke-dasharray="4 4"/>
<circle cx="80" cy="80" r="64" fill="#FDF6F1"/>
<circle cx="80" cy="80" r="63" stroke="#E55C00" stroke-opacity="0.5" stroke-width="2"/>
<path d="M118.12 86.0864L71.1842 117.093C70.3208 117.663 70.0832 118.826 70.652 119.69L73.6604 124.258C74.7867 125.966 76.5099 127.132 78.5133 127.543C80.5192 127.954 82.5615 127.56 84.2687 126.432L121.57 101.79C125.092 99.464 126.063 94.7081 123.737 91.187L120.719 86.6174C120.147 85.7526 118.985 85.5149 118.12 86.0864Z" fill="#E65C00" fill-opacity="0.07"/>
<path d="M78.7782 40.1437C77.82 40.7767 76.8993 41.5232 75.9853 42.4058C69.6464 40.596 62.9456 41.6113 57.4287 45.2559C47.0732 52.0969 44.2143 66.0856 51.0553 76.441C51.6256 77.3044 51.3877 78.4694 50.5241 79.0398C49.6607 79.6102 48.4958 79.3723 47.9253 78.5087C45.687 75.1205 44.3009 71.3274 43.8061 67.2355C43.7183 66.5077 43.2147 65.8985 42.5177 65.6741C41.8227 65.4528 41.0582 65.6548 40.5612 66.1917C34.1397 73.1889 33.2958 83.5852 38.5073 91.474C42.8041 97.9783 50.378 101.468 58.0678 100.587L66.5244 113.425C66.798 113.839 67.2252 114.13 67.7134 114.231C68.2021 114.33 68.7086 114.232 69.1242 113.958L116.053 82.9564C116.918 82.3849 117.155 81.2225 116.584 80.3575L108.094 67.5064C111.895 60.7852 111.647 52.4685 107.365 45.9857C101.094 36.494 88.2702 33.8731 78.7782 40.1437ZM74.6152 96.334C74.4807 96.7652 74.2061 97.1136 73.8577 97.3438C73.4054 97.6426 72.8268 97.7439 72.2682 97.5727C71.3347 97.2828 63.0745 94.635 60.3596 90.5254C59.7882 89.6604 60.0258 88.498 60.8908 87.9266C61.7558 87.3551 62.9182 87.5927 63.4896 88.4577C64.9859 90.7227 70.3478 93.0505 73.3765 93.9867C74.3657 94.2949 74.9206 95.3441 74.6152 96.334ZM86.9066 86.4754C87.4781 87.3405 87.2405 88.5028 86.3755 89.0743C85.5105 89.6457 84.3483 89.4081 83.7768 88.5431L77.5739 79.1534C77.0025 78.2884 77.24 77.126 78.105 76.5546C78.97 75.9832 80.1324 76.2207 80.7039 77.0857L86.9068 86.4754L86.9066 86.4754ZM99.7279 79.4325C99.666 80.0135 99.3474 80.5049 98.8951 80.8037C98.5452 81.0348 98.1169 81.1508 97.6691 81.1042C96.6387 80.9967 95.8898 80.0757 95.9957 79.0465C96.3199 75.8885 96.2794 70.0388 94.7882 67.7814C94.2167 66.9164 94.4543 65.754 95.3193 65.1826C96.1843 64.6112 97.3467 64.8487 97.9181 65.7137C100.633 69.8232 99.8275 78.4601 99.7279 79.4325Z" fill="#E65C00" fill-opacity="0.07"/>
<path d="M110.971 82.33C111.07 84.6929 110.227 86.9985 108.628 88.7411C107.029 90.4836 104.805 91.5208 102.442 91.625C102.304 91.6314 102.166 91.6346 102.028 91.6346C101.4 91.6342 100.775 91.5663 100.161 91.432C98.3417 94.2414 95.9559 96.64 93.1563 98.4745C90.3567 100.309 87.205 101.539 83.9029 102.086C83.5123 103.233 82.7331 104.208 81.7 104.842C80.6669 105.476 79.4448 105.729 78.2449 105.557C77.045 105.386 75.9428 104.8 75.1289 103.902C74.3149 103.004 73.8402 101.85 73.787 100.639C73.7338 99.4279 74.1053 98.2364 74.8373 97.2704C75.5694 96.3043 76.6159 95.6244 77.7961 95.3481C78.9763 95.0719 80.2159 95.2166 81.3006 95.7574C82.3854 96.2982 83.2471 97.2009 83.7369 98.3096C88.3859 97.4498 92.5857 94.986 95.6045 91.3474C98.6232 87.7088 100.269 83.1263 100.256 78.3985C100.256 67.2291 91.1694 58.1423 80 58.1423C68.8307 58.1423 59.7438 67.2291 59.7438 78.3985C59.7432 81.8523 60.6258 85.2488 62.3079 88.2653C62.3649 88.3648 62.4077 88.4719 62.435 88.5833C62.5975 89.0349 62.5801 89.5316 62.3865 89.9707C62.1929 90.4099 61.8379 90.7578 61.3949 90.9424C60.3102 91.3989 59.1452 91.634 57.9684 91.6338C57.8299 91.6338 57.6911 91.6306 57.552 91.6241C55.1904 91.5186 52.967 90.4808 51.3693 88.7384C49.7717 86.9959 48.9302 84.6911 49.0294 82.3291C49.0693 81.3873 49.047 80.5469 49.0253 79.7343C49.005 78.9691 48.9839 78.1779 49.0187 77.3523C49.1224 75.0461 50.1144 72.8695 51.787 71.2783C53.4595 69.6872 55.6829 68.805 57.9914 68.8164C61.6984 60.3349 70.1675 54.3923 80 54.3923C89.8325 54.3923 98.3018 60.3349 102.009 68.8165C104.317 68.8034 106.542 69.6848 108.214 71.276C109.887 72.8672 110.879 75.0444 110.981 77.3509C111.016 78.1778 110.995 78.9689 110.975 79.734C110.953 80.5468 110.931 81.3875 110.971 82.33ZM95.7257 78.3985C95.7247 80.8077 95.1705 83.1845 94.1057 85.3456C93.0409 87.5067 91.494 89.3944 89.5842 90.863C87.6745 92.3317 85.4529 93.3422 83.0909 93.8164C80.7289 94.2907 78.2894 94.2162 75.9608 93.5985L69.5957 97.2744C69.2745 97.4599 68.9055 97.5459 68.5355 97.5217C68.1654 97.4975 67.8108 97.364 67.5166 97.1383C67.2223 96.9125 67.0017 96.6045 66.8825 96.2533C66.7633 95.9022 66.7509 95.5235 66.8469 95.1653L68.4737 89.0968C65.7797 86.1849 64.2807 82.3655 64.275 78.3985C64.275 69.725 71.3289 62.6693 80 62.6693C88.6712 62.6693 95.7257 69.725 95.7257 78.3985ZM75.6282 78.3985C75.6282 77.9012 75.4306 77.4243 75.079 77.0727C74.7273 76.7211 74.2504 76.5235 73.7532 76.5235H73.75C73.3793 76.5242 73.0172 76.6348 72.7093 76.8412C72.4014 77.0477 72.1616 77.3407 72.0203 77.6834C71.8789 78.0261 71.8422 78.403 71.915 78.7665C71.9877 79.1299 72.1666 79.4637 72.4289 79.7256C72.6913 79.9875 73.0254 80.1657 73.389 80.2377C73.7526 80.3098 74.1295 80.2725 74.4719 80.1305C74.8143 79.9884 75.1069 79.7481 75.3128 79.4399C75.5186 79.1316 75.6285 78.7692 75.6285 78.3985H75.6282ZM81.8754 78.3985C81.8752 78.3371 81.8719 78.2758 81.8654 78.2148C81.8595 78.1535 81.8504 78.0926 81.838 78.0323C81.8268 77.9722 81.8117 77.9129 81.7929 77.8548C81.7755 77.796 81.7543 77.7385 81.7318 77.681C81.7093 77.6235 81.6818 77.5698 81.653 77.516C81.6245 77.462 81.5932 77.4094 81.5593 77.3585C81.5251 77.3071 81.4883 77.2575 81.4492 77.2098C81.4106 77.162 81.3694 77.1165 81.3255 77.0735C81.283 77.0298 81.2368 76.9885 81.1893 76.9485C81.1417 76.911 81.0917 76.8735 81.0404 76.8398C80.9896 76.8059 80.937 76.7746 80.883 76.746C80.8292 76.7173 80.773 76.691 80.7167 76.6673C80.6604 76.6437 80.6028 76.6233 80.5443 76.606C80.4274 76.5685 80.3066 76.5442 80.1843 76.5335C80.0006 76.5158 79.8154 76.5247 79.6343 76.5598C79.574 76.5721 79.5144 76.5875 79.4557 76.606C79.3971 76.6232 79.3395 76.6437 79.2832 76.6673C79.2269 76.691 79.1707 76.7173 79.1169 76.746C79.0632 76.7748 79.0107 76.806 78.9593 76.8398C78.9079 76.8735 78.858 76.911 78.8119 76.9485C78.7632 76.9885 78.7182 77.0298 78.6744 77.0735C78.6305 77.1165 78.5892 77.162 78.5505 77.2098C78.5118 77.2575 78.4756 77.3071 78.4419 77.3585C78.4075 77.4094 78.3758 77.4619 78.3469 77.516C78.3181 77.5696 78.2921 77.6247 78.2693 77.681C78.2455 77.7379 78.2247 77.7958 78.2068 77.8548C78.1894 77.9123 78.1744 77.9723 78.1619 78.0323C78.1496 78.0926 78.1403 78.1535 78.1343 78.2148C78.1282 78.276 78.1255 78.3373 78.1255 78.3985C78.1255 78.4598 78.1282 78.5223 78.1343 78.5835C78.1404 78.6444 78.1496 78.7049 78.1619 78.7648C78.1744 78.8248 78.1894 78.8848 78.2068 78.9435C78.2247 79.002 78.2456 79.0596 78.2693 79.116C78.2921 79.1728 78.3181 79.2283 78.3469 79.2823C78.3755 79.336 78.4082 79.3885 78.4419 79.4398C78.4756 79.4908 78.5118 79.54 78.5505 79.5873C78.5895 79.6352 78.6308 79.6811 78.6744 79.7248C78.7182 79.7673 78.7632 79.8098 78.8119 79.8485C78.8589 79.8876 78.9081 79.9239 78.9593 79.9573C79.0107 79.991 79.063 80.0235 79.1169 80.0523C79.2255 80.1089 79.3388 80.1557 79.4557 80.1923C79.5143 80.2098 79.5743 80.2248 79.6343 80.2373C79.7548 80.2619 79.8775 80.2741 80.0005 80.2735C80.4972 80.2722 80.9733 80.075 81.3255 79.7248C81.4119 79.6371 81.4902 79.5417 81.5593 79.4398C81.593 79.3885 81.6243 79.336 81.653 79.2823C81.6818 79.2285 81.708 79.1723 81.7318 79.116C81.7555 79.0598 81.7755 79.001 81.7929 78.9435C81.8116 78.8849 81.8267 78.8252 81.838 78.7648C81.8503 78.7049 81.8594 78.6444 81.8654 78.5835C81.8718 78.522 81.875 78.4601 81.875 78.3983L81.8754 78.3985ZM88.1254 78.3985C88.1254 77.9012 87.9279 77.4243 87.5762 77.0727C87.2246 76.7211 86.7477 76.5235 86.2504 76.5235H86.2468C85.8761 76.5242 85.5139 76.6348 85.2061 76.8413C84.8982 77.0477 84.6584 77.3408 84.5171 77.6835C84.3757 78.0262 84.3391 78.4031 84.4119 78.7665C84.4846 79.13 84.6635 79.4638 84.9259 79.7256C85.1882 79.9875 85.5223 80.1657 85.8859 80.2378C86.2496 80.3098 86.6264 80.2725 86.9688 80.1304C87.3112 79.9884 87.6038 79.7481 87.8097 79.4398C88.0155 79.1316 88.1254 78.7692 88.1254 78.3985Z" fill="#E05B01"/>
</svg>
