<svg width="22" height="22" viewBox="0 0 22 22" fill="none" xmlns="http://www.w3.org/2000/svg">
<path d="M7.69307 20.6601V17.2862C7.69459 16.8742 7.8676 16.4796 8.17435 16.1883C8.48109 15.8971 8.89668 15.733 9.33033 15.7319H12.6593C12.8749 15.7311 13.0885 15.7708 13.288 15.8485C13.4875 15.9262 13.6689 16.0405 13.8219 16.1848C13.9749 16.3292 14.0965 16.5007 14.1798 16.6897C14.263 16.8787 14.3062 17.0814 14.3069 17.2862V20.6502C14.3085 21.0077 14.4586 21.3502 14.7247 21.603C14.9909 21.8558 15.3514 21.9985 15.7277 22H17.9983C19.0572 22.0028 20.0742 21.6073 20.8271 20.8999C21.1984 20.5514 21.4933 20.1364 21.6946 19.6789C21.896 19.2213 21.9998 18.7304 22 18.2345V8.65082C21.9994 8.25152 21.9062 7.85724 21.7271 7.49601C21.548 7.13478 21.2874 6.81544 20.9637 6.56071L13.2498 0.74143C12.5946 0.248178 11.7795 -0.0136928 10.9436 0.000551933C10.1078 0.0147967 9.303 0.304272 8.66683 0.819533L1.1197 6.56071C0.78098 6.80786 0.504643 7.12379 0.310923 7.4854C0.117202 7.84702 0.010981 8.2452 0 8.65082V18.2213C0.00121385 18.7191 0.105733 19.2119 0.307566 19.6713C0.509398 20.1307 0.804567 20.5479 1.17623 20.8988C1.5479 21.2498 1.98875 21.5277 2.47357 21.7166C2.95838 21.9056 3.47766 22.0018 4.00168 22H6.22022C6.59819 22.0026 6.96178 21.8625 7.23105 21.6105C7.36406 21.4866 7.46973 21.3387 7.5419 21.1755C7.61407 21.0123 7.65129 20.8371 7.65137 20.6601H7.69307Z" fill="#E65C00"/>
</svg>
