<svg width="25" height="25" viewBox="0 0 25 25" fill="none" xmlns="http://www.w3.org/2000/svg">
<path d="M12.3476 17.3723C13.5514 17.3723 14.7058 16.8941 15.557 16.0429C16.4081 15.1918 16.8863 14.0373 16.8863 12.8336C16.8863 11.6299 16.4081 10.4754 15.557 9.62427C14.7058 8.7731 13.5514 8.29492 12.3476 8.29492C11.1439 8.29492 9.98948 8.7731 9.13831 9.62427C8.28714 10.4754 7.80896 11.6299 7.80896 12.8336C7.80896 14.0373 8.28714 15.1918 9.13831 16.0429C9.98948 16.8941 11.1439 17.3723 12.3476 17.3723Z" stroke="white" stroke-width="1.5" stroke-linecap="round" stroke-linejoin="round"/>
<path d="M2.13562 17.3723V8.29494C2.13562 6.79027 2.73335 5.34723 3.79731 4.28327C4.86127 3.21931 6.30431 2.62158 7.80897 2.62158H16.8863C18.391 2.62158 19.834 3.21931 20.898 4.28327C21.962 5.34723 22.5597 6.79027 22.5597 8.29494V17.3723C22.5597 18.877 21.962 20.32 20.898 21.384C19.834 22.4479 18.391 23.0457 16.8863 23.0457H7.80897C6.30431 23.0457 4.86127 22.4479 3.79731 21.384C2.73335 20.32 2.13562 18.877 2.13562 17.3723Z" stroke="white" stroke-width="1.5"/>
<path d="M18.5883 6.60452L18.6001 6.59155" stroke="white" stroke-width="1.5" stroke-linecap="round" stroke-linejoin="round"/>
</svg>
