<svg width="25" height="25" viewBox="0 0 25 25" fill="none" xmlns="http://www.w3.org/2000/svg">
<path fill-rule="evenodd" clip-rule="evenodd" d="M5.89844 2.0835C5.16909 2.0835 4.46962 2.37323 3.95389 2.88895C3.43817 3.40468 3.14844 4.10415 3.14844 4.8335C3.14844 5.56284 3.43817 6.26231 3.95389 6.77804C4.46962 7.29377 5.16909 7.5835 5.89844 7.5835C6.62778 7.5835 7.32726 7.29377 7.84298 6.77804C8.35871 6.26231 8.64844 5.56284 8.64844 4.8335C8.64844 4.10415 8.35871 3.40468 7.84298 2.88895C7.32726 2.37323 6.62778 2.0835 5.89844 2.0835ZM4.64844 4.8335C4.64844 4.50198 4.78013 4.18403 5.01455 3.94961C5.24897 3.71519 5.56692 3.5835 5.89844 3.5835C6.22996 3.5835 6.5479 3.71519 6.78232 3.94961C7.01674 4.18403 7.14844 4.50198 7.14844 4.8335C7.14844 5.16502 7.01674 5.48296 6.78232 5.71738C6.5479 5.9518 6.22996 6.0835 5.89844 6.0835C5.56692 6.0835 5.24897 5.9518 5.01455 5.71738C4.78013 5.48296 4.64844 5.16502 4.64844 4.8335ZM3.14844 8.8335C3.14844 8.63458 3.22746 8.44382 3.36811 8.30317C3.50876 8.16251 3.69953 8.0835 3.89844 8.0835H7.89844C8.09735 8.0835 8.28812 8.16251 8.42877 8.30317C8.56942 8.44382 8.64844 8.63458 8.64844 8.8335V21.8335C8.64844 22.0324 8.56942 22.2232 8.42877 22.3638C8.28812 22.5045 8.09735 22.5835 7.89844 22.5835H3.89844C3.69953 22.5835 3.50876 22.5045 3.36811 22.3638C3.22746 22.2232 3.14844 22.0324 3.14844 21.8335V8.8335ZM4.64844 9.5835V21.0835H7.14844V9.5835H4.64844ZM10.1484 8.8335C10.1484 8.63458 10.2275 8.44382 10.3681 8.30317C10.5088 8.16251 10.6995 8.0835 10.8984 8.0835H14.8984C15.0974 8.0835 15.2881 8.16251 15.4288 8.30317C15.5694 8.44382 15.6484 8.63458 15.6484 8.8335V9.2675L16.0834 9.0805C16.8335 8.75997 17.6291 8.55919 18.4414 8.4855C21.2164 8.2335 23.6484 10.4135 23.6484 13.2135V21.8335C23.6484 22.0324 23.5694 22.2232 23.4288 22.3638C23.2881 22.5045 23.0973 22.5835 22.8984 22.5835H18.8984C18.6995 22.5835 18.5088 22.5045 18.3681 22.3638C18.2275 22.2232 18.1484 22.0324 18.1484 21.8335V14.8335C18.1484 14.502 18.0167 14.184 17.7823 13.9496C17.5479 13.7152 17.23 13.5835 16.8984 13.5835C16.5669 13.5835 16.249 13.7152 16.0146 13.9496C15.7801 14.184 15.6484 14.502 15.6484 14.8335V21.8335C15.6484 22.0324 15.5694 22.2232 15.4288 22.3638C15.2881 22.5045 15.0974 22.5835 14.8984 22.5835H10.8984C10.6995 22.5835 10.5088 22.5045 10.3681 22.3638C10.2275 22.2232 10.1484 22.0324 10.1484 21.8335V8.8335ZM11.6484 9.5835V21.0835H14.1484V14.8335C14.1484 14.1042 14.4382 13.4047 14.9539 12.889C15.4696 12.3732 16.1691 12.0835 16.8984 12.0835C17.6278 12.0835 18.3273 12.3732 18.843 12.889C19.3587 13.4047 19.6484 14.1042 19.6484 14.8335V21.0835H22.1484V13.2135C22.1484 11.3095 20.4874 9.8055 18.5784 9.9795C17.9226 10.0392 17.2802 10.2011 16.6744 10.4595L15.1944 11.0945C15.0803 11.1435 14.9557 11.1634 14.832 11.1524C14.7082 11.1414 14.5892 11.0998 14.4855 11.0314C14.3817 10.963 14.2967 10.8699 14.2378 10.7605C14.179 10.6511 14.1483 10.5287 14.1484 10.4045V9.5835H11.6484Z" fill="white"/>
</svg>
