<svg width="30" height="30" viewBox="0 0 30 30" fill="none" xmlns="http://www.w3.org/2000/svg">
<g clip-path="url(#clip0_1237_62)">
<rect width="29.5" height="29.5" fill="white"/>
<path d="M26.9072 12.0996H2.59277C1.16306 12.0996 0 13.2627 0 14.6924C0 16.779 1.48704 18.5247 3.45703 18.9262V25.1787C3.45703 27.5614 5.39568 29.5 7.77832 29.5H21.7217C24.1043 29.5 26.043 27.5614 26.043 25.1787V18.9262C28.013 18.5247 29.5 16.779 29.5 14.6924C29.5 13.2627 28.3369 12.0996 26.9072 12.0996ZM1.72852 14.6924C1.72852 14.2155 2.11593 13.8281 2.59277 13.8281H3.45703V17.126C2.45322 16.768 1.72852 15.8176 1.72852 14.6924ZM26.043 17.126V13.8281H26.9072C27.3841 13.8281 27.7715 14.2155 27.7715 14.6924C27.7715 15.8176 27.0468 16.768 26.043 17.126Z" fill="#C0C2C2"/>
<path d="M3.59428 9.86815C3.79525 10.3063 4.3138 10.4897 4.74046 10.2919L23.6395 1.64986C24.0733 1.45068 24.2632 0.936678 24.0632 0.503685C23.8641 0.0698851 23.3501 -0.120885 22.9171 0.0799681L16.5784 2.93974C15.7802 1.2035 13.7238 0.443187 11.993 1.24499C10.2585 2.04235 9.50033 4.09283 10.2981 5.83085L4.01794 8.72197C3.58414 8.92115 3.39423 9.43429 3.59428 9.86815Z" fill="#C0C2C2"/>
<path d="M24.0182 4.61768C24.0182 4.13997 23.6316 3.75342 23.1539 3.75342C22.9919 3.75342 21.5487 3.77791 20.708 4.61768C19.8691 5.45831 19.8446 6.9007 19.8446 7.06278C19.8446 7.36406 19.74 8.03167 19.4868 8.28489C19.2471 8.52458 18.6141 8.64022 18.2646 8.64276C17.7869 8.64276 17.4004 9.02931 17.4004 9.50701C17.4004 9.98472 17.7869 10.3713 18.2646 10.3713C18.4267 10.3713 19.8691 10.3468 20.7089 9.50701C21.5487 8.66724 21.5731 7.22485 21.5731 7.06278C21.5731 6.7615 21.6786 6.09302 21.931 5.83979C22.1699 5.60091 22.802 5.48533 23.1557 5.48193C23.6325 5.48107 24.0182 5.09452 24.0182 4.61768Z" fill="white" fill-opacity="0.5"/>
<path d="M23.4501 10.3713C23.6122 10.3713 25.0546 10.3468 25.8944 9.50701C26.7341 8.66724 26.7586 7.22485 26.7586 7.06278C26.7586 6.7615 26.8641 6.09302 27.1165 5.83979C27.3554 5.60091 27.9875 5.48533 28.3411 5.48193C28.818 5.48107 29.2037 5.09452 29.2037 4.61768C29.2037 4.13997 28.8172 3.75342 28.3395 3.75342C28.1774 3.75342 26.7342 3.77791 25.8936 4.61768C25.0546 5.45831 25.0302 6.9007 25.0302 7.06278C25.0302 7.36406 24.9255 8.03167 24.6723 8.28489C24.4326 8.52458 23.7996 8.64022 23.4502 8.64276C22.9725 8.64276 22.5859 9.02931 22.5859 9.50701C22.5859 9.98472 22.9724 10.3713 23.4501 10.3713Z" fill="white" fill-opacity="0.5"/>
</g>
<defs>
<clipPath id="clip0_1237_62">
<rect width="29.5" height="29.5" fill="white"/>
</clipPath>
</defs>
</svg>
