<svg width="44" height="44" viewBox="0 0 44 44" fill="none" xmlns="http://www.w3.org/2000/svg">
<circle opacity="0.2" cx="22" cy="22" r="22" fill="#ABADAD"/>
<path d="M20.8717 28C20.9869 28.0006 21.1011 27.9789 21.2078 27.9361C21.3144 27.8933 21.4114 27.8301 21.4932 27.7504L26.7454 22.5855C26.9085 22.4243 27 22.2061 27 21.9787C27 21.7513 26.9085 21.5331 26.7454 21.3718L21.4932 16.207C21.3258 16.066 21.1103 15.9923 20.89 16.0006C20.6697 16.009 20.4607 16.0988 20.3048 16.2521C20.1489 16.4054 20.0576 16.6109 20.0491 16.8276C20.0406 17.0442 20.1155 17.256 20.2589 17.4207L24.8897 21.9744L20.2589 26.528C20.136 26.6479 20.052 26.8009 20.0175 26.9678C19.9831 27.1346 19.9997 27.3077 20.0652 27.4653C20.1308 27.6229 20.2425 27.7577 20.386 27.8529C20.5296 27.9481 20.6986 27.9993 20.8717 28Z" fill="#ABADAD"/>
</svg>
