<svg width="266" height="237" viewBox="0 0 266 237" fill="none" xmlns="http://www.w3.org/2000/svg">
<path d="M64.4492 226.336C64.2487 226.336 63.9661 226.126 63.6016 225.707L52.4727 211.871V222.344C52.4727 223.31 52.5456 223.957 52.6914 224.285C52.8008 224.486 53.0195 224.668 53.3477 224.832C53.6758 224.978 54.013 225.087 54.3594 225.16C54.7057 225.233 54.9701 225.269 55.1523 225.269C55.1888 225.269 55.2161 225.352 55.2344 225.516C55.2526 225.661 55.2617 225.816 55.2617 225.98C55.2617 226.144 55.2435 226.254 55.207 226.309C54.332 226.309 53.5846 226.272 52.9648 226.199C52.3633 226.126 51.8802 226.09 51.5156 226.09C51.0781 226.09 50.7318 226.099 50.4766 226.117C50.2214 226.135 49.9297 226.163 49.6016 226.199C49.2917 226.236 48.7995 226.272 48.125 226.309C48.0703 226.254 48.043 226.09 48.043 225.816C48.043 225.47 48.0703 225.297 48.125 225.297C48.5443 225.297 48.9818 225.215 49.4375 225.051C49.9115 224.868 50.2487 224.604 50.4492 224.258C50.6315 223.966 50.7227 223.301 50.7227 222.262V211.516C50.7227 210.568 50.5859 209.921 50.3125 209.574C50.2578 209.483 50.0846 209.41 49.793 209.355C49.5195 209.282 49.2188 209.228 48.8906 209.191C48.5807 209.137 48.3346 209.109 48.1523 209.109C48.1159 209.109 48.0794 209.036 48.043 208.891C48.0247 208.745 48.0156 208.59 48.0156 208.426C48.0339 208.243 48.0612 208.134 48.0977 208.098L49.8477 208.207C50.2669 208.243 50.6406 208.271 50.9688 208.289C51.3151 208.307 51.6068 208.316 51.8438 208.316C52.1536 208.316 52.5273 208.298 52.9648 208.262C53.4206 208.225 53.9401 208.171 54.5234 208.098C54.888 208.827 55.3893 209.629 56.0273 210.504C56.6836 211.379 57.4128 212.309 58.2148 213.293C59.0352 214.259 59.8737 215.262 60.7305 216.301C61.6055 217.34 62.4349 218.379 63.2188 219.418C63.237 219.345 63.2461 219.217 63.2461 219.035C63.2643 218.853 63.2734 218.607 63.2734 218.297V211.871C63.2734 210.814 63.1549 210.157 62.918 209.902C62.8086 209.756 62.6081 209.629 62.3164 209.519C62.043 209.392 61.7513 209.292 61.4414 209.219C61.1497 209.146 60.931 209.109 60.7852 209.109C60.7487 209.109 60.7122 209.036 60.6758 208.891C60.6576 208.745 60.6484 208.59 60.6484 208.426C60.6484 208.243 60.6667 208.134 60.7031 208.098C61.5417 208.171 62.2617 208.225 62.8633 208.262C63.4648 208.298 63.9479 208.316 64.3125 208.316C64.6224 208.316 65.0143 208.298 65.4883 208.262C65.9622 208.225 66.4089 208.189 66.8281 208.152C67.2656 208.116 67.5573 208.098 67.7031 208.098C67.776 208.225 67.8125 208.389 67.8125 208.59C67.8125 208.936 67.7669 209.109 67.6758 209.109C66.6914 209.109 65.9349 209.41 65.4062 210.012C65.151 210.322 65.0234 210.987 65.0234 212.008V222.398C65.0234 222.727 65.0326 223.21 65.0508 223.848C65.069 224.486 65.0964 225.279 65.1328 226.227C65.0599 226.299 64.832 226.336 64.4492 226.336ZM75.6602 226.391C74.4753 226.391 73.3906 226.117 72.4062 225.57C71.4401 225.005 70.6654 224.258 70.082 223.328C69.5169 222.38 69.2344 221.332 69.2344 220.184C69.2344 219.017 69.5169 217.969 70.082 217.039C70.6654 216.109 71.4401 215.371 72.4062 214.824C73.3906 214.259 74.4753 213.977 75.6602 213.977C76.8633 213.977 77.9479 214.259 78.9141 214.824C79.8802 215.371 80.6458 216.109 81.2109 217.039C81.7943 217.969 82.0859 219.017 82.0859 220.184C82.0859 221.332 81.8034 222.38 81.2383 223.328C80.6732 224.258 79.8984 225.005 78.9141 225.57C77.9479 226.117 76.8633 226.391 75.6602 226.391ZM75.9336 224.887C76.444 224.887 76.8633 224.713 77.1914 224.367C77.5195 224.021 77.7565 223.565 77.9023 223C78.0664 222.417 78.1484 221.797 78.1484 221.141C78.1484 217.367 77.1914 215.48 75.2773 215.48C74.7669 215.48 74.3477 215.663 74.0195 216.027C73.7096 216.392 73.4818 216.866 73.3359 217.449C73.1901 218.032 73.1172 218.661 73.1172 219.336C73.1172 223.036 74.056 224.887 75.9336 224.887ZM94.7188 226.363C93.7344 226.363 92.8047 226.117 91.9297 225.625C91.0729 225.133 90.3711 224.44 89.8242 223.547C89.2956 222.654 89.0312 221.605 89.0312 220.402C89.0312 219.181 89.3138 218.087 89.8789 217.121C90.4622 216.155 91.2461 215.389 92.2305 214.824C93.2331 214.259 94.3542 213.977 95.5938 213.977C96.3594 213.977 96.9974 214.059 97.5078 214.223C97.5625 214.223 97.5898 214.095 97.5898 213.84V211.68C97.5898 210.914 97.5352 210.258 97.4258 209.711C97.3529 209.419 96.8789 209.273 96.0039 209.273H95.7578C95.6484 209.273 95.5938 209.091 95.5938 208.727C95.5938 208.417 95.6484 208.262 95.7578 208.262C96.8151 208.171 97.8086 208.016 98.7383 207.797C99.6862 207.578 100.361 207.405 100.762 207.277L101.035 207.195H101.09C101.163 207.195 101.236 207.25 101.309 207.359C101.382 207.469 101.427 207.569 101.445 207.66C101.245 208.517 101.145 209.437 101.145 210.422V222.18C101.145 222.581 101.163 223.018 101.199 223.492C101.236 223.948 101.318 224.24 101.445 224.367C101.591 224.477 101.755 224.54 101.938 224.559C102.12 224.559 102.357 224.577 102.648 224.613L102.922 224.641C102.977 224.659 103.004 224.768 103.004 224.969C103.004 225.424 102.949 225.652 102.84 225.652C102.384 225.671 101.855 225.725 101.254 225.816C100.671 225.907 100.096 225.999 99.5312 226.09C98.9661 226.181 98.5104 226.254 98.1641 226.309L97.7539 226.363C97.6445 226.381 97.5898 226.227 97.5898 225.898V225.324C97.5898 225.178 97.5534 225.142 97.4805 225.215C96.7148 225.98 95.7943 226.363 94.7188 226.363ZM95.4297 224.695C96.0495 224.695 96.5599 224.522 96.9609 224.176C97.3802 223.811 97.5898 223.374 97.5898 222.863V217.887C97.5898 217.668 97.5716 217.458 97.5352 217.258C97.4987 217.057 97.4167 216.802 97.2891 216.492C97.1615 216.182 96.9336 215.936 96.6055 215.754C96.2956 215.553 95.9036 215.453 95.4297 215.453C94.5729 215.453 93.944 215.799 93.543 216.492C93.1602 217.167 92.9688 218.251 92.9688 219.746C92.9688 223.046 93.7891 224.695 95.4297 224.695ZM107.734 226.391C106.732 226.391 105.93 226.117 105.328 225.57C104.745 225.005 104.453 224.303 104.453 223.465C104.453 222.754 104.672 222.134 105.109 221.605C105.565 221.077 106.13 220.657 106.805 220.348C107.06 220.238 107.297 220.147 107.516 220.074C107.734 219.983 107.935 219.901 108.117 219.828C108.81 219.609 109.366 219.454 109.785 219.363C110.204 219.254 110.514 219.163 110.715 219.09C110.879 219.035 110.961 218.898 110.961 218.68V217.695C110.961 216.2 110.505 215.453 109.594 215.453C108.536 215.453 108.008 216.064 108.008 217.285C108.008 217.686 107.844 217.987 107.516 218.187C107.188 218.37 106.823 218.461 106.422 218.461C105.583 218.461 105.009 218.187 104.699 217.641C104.699 217.167 104.863 216.711 105.191 216.273C105.538 215.836 105.984 215.444 106.531 215.098C107.096 214.733 107.725 214.45 108.418 214.25C109.129 214.031 109.84 213.922 110.551 213.922C111.827 213.922 112.802 214.277 113.477 214.988C114.169 215.681 114.516 216.948 114.516 218.789V223.219C114.516 223.838 114.734 224.148 115.172 224.148C115.5 224.148 115.81 224.03 116.102 223.793C116.229 223.866 116.293 224.003 116.293 224.203C116.293 224.677 116.229 225.014 116.102 225.215C115.846 225.452 115.427 225.707 114.844 225.98C114.279 226.236 113.741 226.363 113.23 226.363C112.793 226.363 112.374 226.236 111.973 225.98C111.572 225.707 111.307 225.397 111.18 225.051C111.161 225.051 111.061 225.115 110.879 225.242C110.697 225.37 110.56 225.47 110.469 225.543C110.104 225.78 109.685 225.98 109.211 226.144C108.737 226.309 108.245 226.391 107.734 226.391ZM109.457 224.422C109.931 224.422 110.296 224.312 110.551 224.094C110.824 223.857 110.961 223.574 110.961 223.246V220.484L109.539 220.977C109.156 221.104 108.801 221.296 108.473 221.551C108.163 221.806 108.008 222.143 108.008 222.562C108.008 223.219 108.145 223.693 108.418 223.984C108.71 224.276 109.056 224.422 109.457 224.422ZM123.047 226.391C122.044 226.391 121.178 226.081 120.449 225.461C119.738 224.823 119.383 223.802 119.383 222.398V216.082H117.605C117.46 216.082 117.387 215.799 117.387 215.234C117.387 215.107 117.405 215.006 117.441 214.934C117.952 214.678 118.408 214.432 118.809 214.195C119.228 213.94 119.592 213.694 119.902 213.457C120.704 212.819 121.288 212.336 121.652 212.008C122.017 211.68 122.208 211.506 122.227 211.488C122.372 211.488 122.527 211.525 122.691 211.598C122.855 211.652 122.938 211.716 122.938 211.789V214.469H125.891C126.036 214.469 126.109 214.56 126.109 214.742C126.109 215.289 126.018 215.736 125.836 216.082H122.938V222.562C122.938 223.948 123.43 224.641 124.414 224.641C124.924 224.641 125.28 224.577 125.48 224.449C125.699 224.303 125.845 224.23 125.918 224.23C125.991 224.23 126.064 224.322 126.137 224.504C126.228 224.686 126.273 224.823 126.273 224.914C126.273 225.06 126.091 225.251 125.727 225.488C125.38 225.725 124.952 225.935 124.441 226.117C123.949 226.299 123.484 226.391 123.047 226.391ZM131.004 226.391C130.001 226.391 129.199 226.117 128.598 225.57C128.014 225.005 127.723 224.303 127.723 223.465C127.723 222.754 127.941 222.134 128.379 221.605C128.835 221.077 129.4 220.657 130.074 220.348C130.329 220.238 130.566 220.147 130.785 220.074C131.004 219.983 131.204 219.901 131.387 219.828C132.079 219.609 132.635 219.454 133.055 219.363C133.474 219.254 133.784 219.163 133.984 219.09C134.148 219.035 134.23 218.898 134.23 218.68V217.695C134.23 216.2 133.775 215.453 132.863 215.453C131.806 215.453 131.277 216.064 131.277 217.285C131.277 217.686 131.113 217.987 130.785 218.187C130.457 218.37 130.092 218.461 129.691 218.461C128.853 218.461 128.279 218.187 127.969 217.641C127.969 217.167 128.133 216.711 128.461 216.273C128.807 215.836 129.254 215.444 129.801 215.098C130.366 214.733 130.995 214.45 131.688 214.25C132.398 214.031 133.109 213.922 133.82 213.922C135.096 213.922 136.072 214.277 136.746 214.988C137.439 215.681 137.785 216.948 137.785 218.789V223.219C137.785 223.838 138.004 224.148 138.441 224.148C138.77 224.148 139.079 224.03 139.371 223.793C139.499 223.866 139.562 224.003 139.562 224.203C139.562 224.677 139.499 225.014 139.371 225.215C139.116 225.452 138.697 225.707 138.113 225.98C137.548 226.236 137.01 226.363 136.5 226.363C136.062 226.363 135.643 226.236 135.242 225.98C134.841 225.707 134.577 225.397 134.449 225.051C134.431 225.051 134.331 225.115 134.148 225.242C133.966 225.37 133.829 225.47 133.738 225.543C133.374 225.78 132.954 225.98 132.48 226.144C132.007 226.309 131.514 226.391 131.004 226.391ZM132.727 224.422C133.201 224.422 133.565 224.312 133.82 224.094C134.094 223.857 134.23 223.574 134.23 223.246V220.484L132.809 220.977C132.426 221.104 132.07 221.296 131.742 221.551C131.432 221.806 131.277 222.143 131.277 222.562C131.277 223.219 131.414 223.693 131.688 223.984C131.979 224.276 132.326 224.422 132.727 224.422ZM147.109 226.309C147.036 226.236 147 226.044 147 225.734C147 225.443 147.036 225.297 147.109 225.297C147.255 225.297 147.456 225.26 147.711 225.187C147.984 225.096 148.24 224.996 148.477 224.887C148.732 224.777 148.868 224.686 148.887 224.613C149.014 224.103 149.078 223.41 149.078 222.535V216.273C149.078 216.146 149.033 216.082 148.941 216.082H147.109C147.055 216.082 147.027 216.027 147.027 215.918C147.027 215.754 147.073 215.562 147.164 215.344C147.273 215.107 147.419 214.897 147.602 214.715C147.784 214.532 147.975 214.441 148.176 214.441H148.941C149.033 214.441 149.078 214.387 149.078 214.277V214.086C149.078 212.81 149.342 211.652 149.871 210.613C150.4 209.574 151.12 208.745 152.031 208.125C152.961 207.487 154 207.168 155.148 207.168C155.951 207.168 156.643 207.259 157.227 207.441C157.828 207.624 158.202 207.842 158.348 208.098C158.402 208.444 158.43 208.809 158.43 209.191C158.43 209.592 158.311 209.957 158.074 210.285C157.837 210.595 157.5 210.75 157.062 210.75C156.68 210.75 156.352 210.586 156.078 210.258C155.768 209.911 155.486 209.592 155.23 209.301C154.993 209.009 154.693 208.863 154.328 208.863C153.745 208.863 153.316 209.282 153.043 210.121C152.77 210.96 152.633 211.99 152.633 213.211V214.332C152.633 214.423 152.678 214.469 152.77 214.469H155.805C155.896 214.469 155.941 214.532 155.941 214.66C155.941 215.171 155.832 215.644 155.613 216.082H152.797C152.688 216.082 152.633 216.137 152.633 216.246V222.125C152.633 223.328 152.697 224.157 152.824 224.613C152.861 224.686 152.997 224.777 153.234 224.887C153.471 224.996 153.717 225.096 153.973 225.187C154.246 225.26 154.438 225.297 154.547 225.297C154.583 225.297 154.611 225.37 154.629 225.516C154.647 225.661 154.656 225.816 154.656 225.98C154.656 226.144 154.638 226.254 154.602 226.309C154.492 226.309 154.283 226.29 153.973 226.254C153.663 226.236 153.298 226.217 152.879 226.199C152.478 226.163 152.095 226.135 151.73 226.117C151.366 226.099 151.074 226.09 150.855 226.09C150.637 226.09 150.336 226.099 149.953 226.117C149.589 226.135 149.206 226.163 148.805 226.199C148.404 226.217 148.048 226.236 147.738 226.254C147.428 226.29 147.219 226.309 147.109 226.309ZM163.488 226.391C162.303 226.391 161.219 226.117 160.234 225.57C159.268 225.005 158.493 224.258 157.91 223.328C157.345 222.38 157.062 221.332 157.062 220.184C157.062 219.017 157.345 217.969 157.91 217.039C158.493 216.109 159.268 215.371 160.234 214.824C161.219 214.259 162.303 213.977 163.488 213.977C164.691 213.977 165.776 214.259 166.742 214.824C167.708 215.371 168.474 216.109 169.039 217.039C169.622 217.969 169.914 219.017 169.914 220.184C169.914 221.332 169.632 222.38 169.066 223.328C168.501 224.258 167.727 225.005 166.742 225.57C165.776 226.117 164.691 226.391 163.488 226.391ZM163.762 224.887C164.272 224.887 164.691 224.713 165.02 224.367C165.348 224.021 165.585 223.565 165.73 223C165.895 222.417 165.977 221.797 165.977 221.141C165.977 217.367 165.02 215.48 163.105 215.48C162.595 215.48 162.176 215.663 161.848 216.027C161.538 216.392 161.31 216.866 161.164 217.449C161.018 218.032 160.945 218.661 160.945 219.336C160.945 223.036 161.884 224.887 163.762 224.887ZM181.207 226.336C181.098 226.336 181.043 226.172 181.043 225.844V224.832C181.043 224.686 181.007 224.65 180.934 224.723C180.551 225.124 179.986 225.488 179.238 225.816C178.509 226.144 177.716 226.309 176.859 226.309C176.148 226.309 175.52 226.09 174.973 225.652C174.444 225.215 174.034 224.631 173.742 223.902C173.451 223.155 173.305 222.335 173.305 221.441V218.789C173.305 217.768 173.141 217.085 172.812 216.738C172.667 216.556 172.466 216.428 172.211 216.355C171.974 216.282 171.764 216.237 171.582 216.219C171.4 216.182 171.309 216.146 171.309 216.109C171.309 215.471 171.354 215.152 171.445 215.152C171.609 215.152 171.91 215.116 172.348 215.043C172.803 214.97 173.296 214.888 173.824 214.797C174.353 214.687 174.854 214.578 175.328 214.469C175.82 214.341 176.194 214.241 176.449 214.168C176.504 214.15 176.549 214.131 176.586 214.113C176.641 214.095 176.695 214.086 176.75 214.086C176.841 214.086 176.932 214.15 177.023 214.277C177.115 214.387 177.16 214.478 177.16 214.551C177.069 215.353 176.996 215.982 176.941 216.437C176.887 216.893 176.859 217.176 176.859 217.285V220.211C176.859 221.633 177.042 222.635 177.406 223.219C177.771 223.784 178.382 224.066 179.238 224.066C179.858 224.066 180.323 223.93 180.633 223.656C180.943 223.365 181.098 223.046 181.098 222.699V218.789C181.098 217.768 180.934 217.085 180.605 216.738C180.46 216.556 180.259 216.428 180.004 216.355C179.767 216.282 179.557 216.237 179.375 216.219C179.193 216.182 179.102 216.146 179.102 216.109C179.102 215.471 179.147 215.152 179.238 215.152C179.402 215.152 179.703 215.116 180.141 215.043C180.596 214.97 181.089 214.888 181.617 214.797C182.146 214.687 182.647 214.578 183.121 214.469C183.613 214.341 183.987 214.241 184.242 214.168L184.543 214.086C184.634 214.086 184.725 214.15 184.816 214.277C184.908 214.387 184.953 214.478 184.953 214.551C184.862 215.353 184.789 215.982 184.734 216.437C184.68 216.893 184.652 217.167 184.652 217.258V222.617C184.652 223.583 184.743 224.157 184.926 224.34C185.017 224.431 185.163 224.504 185.363 224.559C185.564 224.595 185.764 224.613 185.965 224.613H186.238C186.311 224.631 186.348 224.704 186.348 224.832C186.348 225.361 186.293 225.625 186.184 225.625C185.053 225.734 184.105 225.844 183.34 225.953C182.592 226.062 182.009 226.163 181.59 226.254L181.207 226.336ZM187.688 226.309C187.615 226.236 187.578 226.044 187.578 225.734C187.578 225.443 187.615 225.297 187.688 225.297C187.833 225.297 188.034 225.26 188.289 225.187C188.562 225.096 188.818 224.996 189.055 224.887C189.31 224.777 189.447 224.686 189.465 224.613C189.592 224.103 189.656 223.41 189.656 222.535V218.789C189.656 217.768 189.492 217.085 189.164 216.738C189.018 216.556 188.818 216.428 188.562 216.355C188.326 216.282 188.116 216.237 187.934 216.219C187.751 216.182 187.66 216.146 187.66 216.109C187.66 215.471 187.706 215.152 187.797 215.152C188.271 215.152 188.945 215.052 189.82 214.852C190.695 214.633 191.689 214.405 192.801 214.168L192.938 214.141C192.956 214.122 192.992 214.113 193.047 214.113L193.102 214.086C193.193 214.086 193.284 214.15 193.375 214.277C193.484 214.387 193.53 214.478 193.512 214.551L193.402 215.398C193.402 215.49 193.411 215.544 193.43 215.562C193.466 215.562 193.53 215.517 193.621 215.426C194.624 214.478 195.891 214.004 197.422 214.004C198.479 214.004 199.336 214.45 199.992 215.344C200.667 216.237 201.004 217.595 201.004 219.418V222.125C201.004 223.328 201.068 224.157 201.195 224.613C201.232 224.686 201.368 224.777 201.605 224.887C201.842 224.996 202.089 225.096 202.344 225.187C202.617 225.26 202.809 225.297 202.918 225.297C202.954 225.297 202.982 225.37 203 225.516C203.018 225.661 203.027 225.816 203.027 225.98C203.027 226.144 203.009 226.254 202.973 226.309C202.863 226.309 202.654 226.29 202.344 226.254C202.034 226.236 201.669 226.217 201.25 226.199C200.849 226.163 200.466 226.135 200.102 226.117C199.737 226.099 199.445 226.09 199.227 226.09C198.935 226.09 198.525 226.108 197.996 226.144C197.486 226.181 196.993 226.208 196.52 226.227C196.046 226.263 195.736 226.29 195.59 226.309C195.517 226.236 195.48 226.044 195.48 225.734C195.48 225.443 195.517 225.297 195.59 225.297C195.736 225.297 195.927 225.26 196.164 225.187C196.419 225.096 196.656 224.996 196.875 224.887C197.112 224.777 197.24 224.686 197.258 224.613C197.385 224.103 197.449 223.41 197.449 222.535V220.074C197.449 218.725 197.258 217.768 196.875 217.203C196.51 216.62 195.918 216.328 195.098 216.328C194.533 216.328 194.077 216.437 193.73 216.656C193.384 216.857 193.211 217.148 193.211 217.531V222.125C193.211 223.328 193.275 224.157 193.402 224.613C193.439 224.686 193.566 224.777 193.785 224.887C194.004 224.996 194.241 225.096 194.496 225.187C194.751 225.26 194.924 225.297 195.016 225.297C195.052 225.297 195.079 225.37 195.098 225.516C195.116 225.661 195.125 225.816 195.125 225.98C195.125 226.144 195.107 226.254 195.07 226.309C194.924 226.29 194.615 226.263 194.141 226.227C193.667 226.208 193.165 226.181 192.637 226.144C192.126 226.108 191.725 226.09 191.434 226.09C191.215 226.09 190.914 226.099 190.531 226.117C190.167 226.135 189.784 226.163 189.383 226.199C188.982 226.217 188.626 226.236 188.316 226.254C188.007 226.29 187.797 226.309 187.688 226.309ZM209.754 226.363C208.77 226.363 207.84 226.117 206.965 225.625C206.108 225.133 205.406 224.44 204.859 223.547C204.331 222.654 204.066 221.605 204.066 220.402C204.066 219.181 204.349 218.087 204.914 217.121C205.497 216.155 206.281 215.389 207.266 214.824C208.268 214.259 209.389 213.977 210.629 213.977C211.395 213.977 212.033 214.059 212.543 214.223C212.598 214.223 212.625 214.095 212.625 213.84V211.68C212.625 210.914 212.57 210.258 212.461 209.711C212.388 209.419 211.914 209.273 211.039 209.273H210.793C210.684 209.273 210.629 209.091 210.629 208.727C210.629 208.417 210.684 208.262 210.793 208.262C211.85 208.171 212.844 208.016 213.773 207.797C214.721 207.578 215.396 207.405 215.797 207.277L216.07 207.195H216.125C216.198 207.195 216.271 207.25 216.344 207.359C216.417 207.469 216.462 207.569 216.48 207.66C216.28 208.517 216.18 209.437 216.18 210.422V222.18C216.18 222.581 216.198 223.018 216.234 223.492C216.271 223.948 216.353 224.24 216.48 224.367C216.626 224.477 216.79 224.54 216.973 224.559C217.155 224.559 217.392 224.577 217.684 224.613L217.957 224.641C218.012 224.659 218.039 224.768 218.039 224.969C218.039 225.424 217.984 225.652 217.875 225.652C217.419 225.671 216.891 225.725 216.289 225.816C215.706 225.907 215.132 225.999 214.566 226.09C214.001 226.181 213.546 226.254 213.199 226.309L212.789 226.363C212.68 226.381 212.625 226.227 212.625 225.898V225.324C212.625 225.178 212.589 225.142 212.516 225.215C211.75 225.98 210.829 226.363 209.754 226.363ZM210.465 224.695C211.085 224.695 211.595 224.522 211.996 224.176C212.415 223.811 212.625 223.374 212.625 222.863V217.887C212.625 217.668 212.607 217.458 212.57 217.258C212.534 217.057 212.452 216.802 212.324 216.492C212.197 216.182 211.969 215.936 211.641 215.754C211.331 215.553 210.939 215.453 210.465 215.453C209.608 215.453 208.979 215.799 208.578 216.492C208.195 217.167 208.004 218.251 208.004 219.746C208.004 223.046 208.824 224.695 210.465 224.695Z" fill="#2E3333"/>
<g clip-path="url(#clip0_3401_554)">
<path d="M59.077 29.1494L9.48047 62.3263L58.3328 135.356L107.929 102.179L59.077 29.1494Z" fill="#F7F7F7"/>
<path d="M82.3045 98.7246L81.7387 102.208L57.082 98.6539L57.6478 95.1707L82.3045 98.7246Z" fill="#C4C4C4"/>
<path d="M69.8882 86.2946L73.4244 86.8074L69.5036 111.084L65.9629 110.571L69.8882 86.2946Z" fill="#C4C4C4"/>
<path d="M47.176 55.4407C47.2113 55.4937 42.2429 58.8797 36.0765 63.0039C29.9101 67.128 24.8842 70.43 24.8488 70.377C24.8135 70.3239 29.7819 66.938 35.9483 62.8138C42.1147 58.6896 47.1406 55.3876 47.176 55.4407Z" fill="#C4C4C4"/>
<path d="M65.4142 50.8656C65.4495 50.9187 57.1835 56.5104 46.9548 63.3486C36.7217 70.1913 28.4027 75.6947 28.3673 75.6416C28.3319 75.5886 36.5936 70.0013 46.8266 63.1542C57.0553 56.3115 65.3788 50.8081 65.4142 50.8612V50.8656Z" fill="#C4C4C4"/>
<path d="M69.0704 56.3291C69.1058 56.3822 60.8397 61.9739 50.6111 68.8122C40.378 75.6549 32.0589 81.1582 32.0236 81.1052C31.9882 81.0521 40.2498 75.4648 50.4829 68.6177C60.7116 61.775 69.035 56.2717 69.0704 56.3247V56.3291Z" fill="#C4C4C4"/>
<path d="M72.7257 61.7971C72.7611 61.8502 64.495 67.4419 54.2664 74.2802C44.0333 81.1228 35.7142 86.6262 35.6788 86.5731C35.6435 86.5201 43.9051 80.9328 54.1382 74.0857C64.3668 67.243 72.6903 61.7396 72.7257 61.7927V61.7971Z" fill="#C4C4C4"/>
<path d="M76.3858 67.2607C76.4212 67.3137 68.1552 72.9054 57.9265 79.7437C47.6934 86.5864 39.3743 92.0897 39.339 92.0367C39.3036 91.9836 47.5652 86.3963 57.7983 79.5492C68.027 72.7065 76.3505 67.2032 76.3858 67.2562V67.2607Z" fill="#C4C4C4"/>
<path d="M224.925 78.0877L183.271 105.951L224.298 167.283L265.952 139.419L224.925 78.0877Z" fill="#F7F7F7"/>
<path d="M244.434 136.527L243.961 139.454L223.252 136.47L223.725 133.544L244.434 136.527Z" fill="#C4C4C4"/>
<path d="M234.002 126.091L236.977 126.52L233.679 146.906L230.709 146.478L234.002 126.091Z" fill="#C4C4C4"/>
<path d="M214.932 100.179C214.968 100.232 210.799 103.083 205.619 106.544C200.438 110.01 196.212 112.772 196.177 112.719C196.142 112.666 200.31 109.815 205.491 106.35C210.667 102.889 214.897 100.121 214.932 100.174V100.179Z" fill="#C4C4C4"/>
<path d="M230.249 96.3332C230.284 96.3863 223.349 101.09 214.755 106.836C206.162 112.582 199.169 117.197 199.134 117.144C199.099 117.091 206.034 112.392 214.627 106.641C223.216 100.895 230.213 96.2802 230.249 96.3332Z" fill="#C4C4C4"/>
<path d="M233.321 100.922C233.356 100.975 226.421 105.678 217.828 111.424C209.235 117.171 202.242 121.786 202.206 121.732C202.171 121.679 209.106 116.981 217.699 111.23C226.288 105.483 233.286 100.868 233.321 100.922Z" fill="#C4C4C4"/>
<path d="M236.389 105.514C236.425 105.567 229.489 110.271 220.896 116.013C212.303 121.759 205.31 126.374 205.275 126.321C205.239 126.268 212.175 121.569 220.768 115.818C229.357 110.072 236.354 105.457 236.389 105.51V105.514Z" fill="#C4C4C4"/>
<path d="M239.461 110.103C239.496 110.156 232.56 114.859 223.967 120.605C215.374 126.352 208.381 130.967 208.346 130.914C208.31 130.86 215.246 126.162 223.839 120.411C232.428 114.664 239.425 110.05 239.461 110.103Z" fill="#C4C4C4"/>
<path d="M159.029 31.8338L113.58 7.52558L77.7869 74.4477L123.236 98.7559L159.029 31.8338Z" fill="#F7F7F7"/>
<path d="M115.457 77.8208L112.575 78.8066L105.255 58.5747L108.137 57.5845L115.457 77.8208Z" fill="#C4C4C4"/>
<path d="M119.877 63.3044L120.929 66.2086L100.834 73.0867L99.7822 70.1869L119.877 63.3044Z" fill="#C4C4C4"/>
<path d="M134.155 33.4495C134.12 33.5158 129.51 31.12 123.86 28.0964C118.207 25.0729 113.658 22.571 113.694 22.5047C113.729 22.4384 118.339 24.8342 123.989 27.8577C129.638 30.8813 134.191 33.3832 134.155 33.4495Z" fill="#C4C4C4"/>
<path d="M145.06 45.4861C145.024 45.5524 137.395 41.5431 128.024 36.5304C118.648 31.5178 111.076 27.398 111.111 27.3317C111.147 27.2654 118.776 31.2747 128.152 36.2917C137.523 41.3044 145.095 45.4242 145.06 45.4905V45.4861Z" fill="#C4C4C4"/>
<path d="M142.381 50.4987C142.346 50.565 134.716 46.5558 125.345 41.5431C115.969 36.5304 108.397 32.4107 108.433 32.3444C108.468 32.2781 116.098 36.2873 125.473 41.3044C134.844 46.3171 142.416 50.4368 142.381 50.5031V50.4987Z" fill="#C4C4C4"/>
<path d="M139.702 55.507C139.667 55.5733 132.037 51.564 122.666 46.5514C113.291 41.5387 105.719 37.4189 105.754 37.3526C105.789 37.2863 113.419 41.2956 122.794 46.3127C132.166 51.3253 139.738 55.4451 139.702 55.5114V55.507Z" fill="#C4C4C4"/>
<path d="M137.024 60.5152C136.988 60.5815 129.359 56.5723 119.988 51.5596C110.612 46.5469 103.04 42.4272 103.075 42.3609C103.111 42.2946 110.74 46.3038 120.116 51.3209C129.487 56.3336 137.059 60.4533 137.024 60.5196V60.5152Z" fill="#C4C4C4"/>
<path d="M255.246 169.525C255.246 169.587 198.113 169.64 127.653 169.64C57.193 169.64 0.046875 169.587 0.046875 169.525C0.046875 169.463 57.1665 169.41 127.653 169.41C198.14 169.41 255.246 169.463 255.246 169.525Z" fill="#263238"/>
<path d="M14.1696 141.841C15.6637 141.894 17.0649 142.703 18.0507 143.83C19.0364 144.953 19.642 146.367 20.0266 147.812C20.7736 150.606 20.3139 153.908 19.5182 156.689C16.4903 155.606 14.6249 152.379 13.7806 150.681C12.4457 147.998 11.6633 142.345 14.1652 141.841" fill="#FF8C40"/>
<path d="M23.8764 160.075C22.9216 158.704 22.8995 156.799 23.6553 155.305C24.4112 153.815 25.8611 152.741 27.4568 152.251C28.195 152.025 29.0526 151.928 29.6935 152.357C30.2947 152.759 30.5555 153.546 30.4759 154.262C30.3963 154.978 30.0339 155.637 29.6051 156.216C28.1331 158.209 26.3429 159.867 23.8764 160.07" fill="#FF8C40"/>
<path d="M24.2081 169.415C24.2081 169.415 24.1462 169.211 24.0711 168.836C23.9915 168.42 23.8855 167.885 23.7617 167.244C23.523 165.905 23.1428 164 23.4302 161.896C23.7042 159.8 24.5397 158.006 25.4149 156.936C25.8437 156.397 26.2592 156.012 26.5642 155.778C26.71 155.654 26.8427 155.579 26.9222 155.517C27.0062 155.46 27.0548 155.433 27.0593 155.442C27.0902 155.477 26.352 155.937 25.5342 157.029C24.7076 158.103 23.912 159.862 23.6379 161.927C23.355 163.991 23.7042 165.878 23.9076 167.222C24.0136 167.899 24.102 168.447 24.1551 168.827C24.2037 169.207 24.2258 169.419 24.2081 169.419V169.415Z" fill="#263238"/>
<path d="M15.1465 146.093C15.1465 146.093 15.1951 146.168 15.2703 146.323C15.3498 146.495 15.4559 146.721 15.5841 146.995C15.8493 147.583 16.2295 148.436 16.6848 149.492C17.5954 151.61 18.8154 154.554 20.0884 157.829C21.3615 161.109 22.4445 164.106 23.1959 166.281C23.5716 167.368 23.8722 168.252 24.0711 168.867C24.164 169.158 24.2391 169.393 24.2966 169.574C24.3452 169.737 24.3673 169.821 24.3629 169.826C24.3585 169.83 24.3187 169.746 24.2568 169.587C24.1905 169.406 24.1021 169.176 23.996 168.893C23.7661 168.265 23.4479 167.395 23.0589 166.329C22.2677 164.163 21.1626 161.18 19.8939 157.9C18.6209 154.624 17.4274 151.676 16.5522 149.545C16.1234 148.498 15.7698 147.64 15.5134 147.021C15.3984 146.738 15.31 146.509 15.2393 146.332C15.1774 146.173 15.1509 146.089 15.1553 146.084L15.1465 146.093Z" fill="#263238"/>
<path d="M20.619 163.235C18.8332 160.198 15.5046 158.13 11.9905 157.873C11.0976 157.807 10.019 157.957 9.62116 158.762C9.22333 159.566 9.75378 160.517 10.3638 161.18C12.9011 163.925 17.1888 164.884 20.6499 163.478" fill="#FF8C40"/>
<path d="M13.3521 160.269C13.3521 160.269 13.551 160.265 13.9135 160.291C14.0947 160.304 14.3157 160.318 14.5677 160.366C14.8196 160.415 15.1114 160.441 15.4252 160.525C15.7391 160.601 16.0883 160.68 16.4463 160.808C16.8132 160.914 17.1889 161.074 17.5824 161.241C18.3603 161.595 19.1914 162.059 19.9782 162.66C20.7606 163.27 21.4192 163.951 21.9585 164.619C22.2149 164.959 22.4624 165.286 22.6569 165.618C22.8691 165.936 23.0282 166.254 23.1741 166.541C23.3332 166.824 23.426 167.103 23.5321 167.337C23.6382 167.571 23.7001 167.784 23.7532 167.956C23.8592 168.301 23.9123 168.491 23.899 168.495C23.8548 168.513 23.6382 167.739 23.0415 166.608C22.8868 166.329 22.7232 166.02 22.5066 165.71C22.3121 165.388 22.0646 165.074 21.8038 164.742C21.2689 164.093 20.6147 163.43 19.8456 162.828C19.072 162.236 18.2631 161.776 17.4984 161.418C17.1138 161.25 16.7425 161.087 16.3844 160.976C16.0352 160.844 15.6949 160.76 15.3855 160.671C14.1433 160.357 13.3433 160.313 13.3477 160.269H13.3521Z" fill="#263238"/>
<path d="M214.005 21.7267C212.705 22.0273 212.073 23.5214 211.949 24.8475C211.825 26.1736 211.993 27.5793 211.436 28.7904C210.809 30.1563 209.31 31.1597 209.257 32.6582C209.226 33.5732 209.77 34.4352 209.743 35.3502C209.699 36.8531 208.17 37.9892 208.09 39.4877C208.033 40.5706 208.753 41.605 208.581 42.6747C208.448 43.5057 207.799 44.16 207.524 44.96C206.981 46.5469 208.068 48.2974 209.492 49.1903C211.074 50.1849 213.103 50.4457 214.884 49.8754C216.666 49.3052 218.169 47.9217 218.88 46.1889C219.667 44.2793 219.495 42.131 219.322 40.0711C218.792 33.6572 218.394 27.2345 218.133 20.8073" fill="#263238"/>
<path d="M210.23 44.3544C210.203 44.3279 210.583 44.2174 210.822 43.6472C210.937 43.3687 210.999 42.9974 210.972 42.5686C210.959 42.1354 210.809 41.6669 210.65 41.1364C210.504 40.6104 210.309 40.0004 210.42 39.3241C210.53 38.6345 211.025 38.0687 211.472 37.5162C211.697 37.2333 211.927 36.9415 212.069 36.61C212.219 36.2829 212.25 35.9028 212.139 35.5491C211.91 34.8286 211.202 34.2938 210.88 33.4627C210.72 33.0428 210.716 32.5875 210.809 32.172C210.897 31.7565 211.065 31.3763 211.238 31.0139C211.582 30.2933 211.967 29.6347 212.117 28.9319C212.427 27.5306 212.281 26.1913 212.493 25.0906C212.683 23.9899 213.152 23.1589 213.611 22.7346C213.837 22.5135 214.053 22.3986 214.195 22.3191C214.345 22.2527 214.425 22.2262 214.429 22.2306C214.442 22.2572 214.102 22.3588 213.673 22.7964C213.249 23.2252 212.82 24.0386 212.652 25.1171C212.564 25.652 212.551 26.2576 212.528 26.9029C212.506 27.5483 212.484 28.2511 212.321 28.9761C212.166 29.7099 211.777 30.3994 211.441 31.1023C211.109 31.7963 210.804 32.6096 211.096 33.3699C211.379 34.1214 212.091 34.6562 212.356 35.4696C212.489 35.8762 212.444 36.3227 212.272 36.6852C212.108 37.052 211.87 37.357 211.64 37.6399C211.176 38.1969 210.716 38.7318 210.61 39.3506C210.499 39.965 210.672 40.5618 210.809 41.0834C210.955 41.6094 211.101 42.1045 211.105 42.5554C211.118 43.0018 211.043 43.3908 210.906 43.6737C210.774 43.961 210.588 44.1423 210.455 44.2307C210.318 44.3235 210.234 44.3456 210.234 44.3456L210.23 44.3544Z" fill="#455A64"/>
<path d="M206.751 54.8307L202.76 66.3324L186.122 67.2253L183.346 73.4005L200.718 75.1598C204.183 76.592 208.139 74.8371 209.404 71.3097L214.041 58.3669L206.751 54.8351V54.8307Z" fill="#B78876"/>
<path d="M241.168 163.279C241.168 163.279 228.972 124.548 228.716 123.293C228.481 122.157 233.14 94.2866 233.728 87.0726L217.254 87.687C217.254 87.687 217.254 87.7312 217.254 87.8064L210.252 88.1954L216.524 167.403H224.105L223.354 141.125C228.031 153.678 234.727 166.466 234.727 166.466L241.172 163.279H241.168Z" fill="#B78876"/>
<path d="M223.659 150.54C223.667 150.301 223.566 141.735 223.566 141.735C223.473 142.247 220.657 134.3 220.728 133.813C220.763 133.561 223.659 150.54 223.659 150.54Z" fill="#A36957"/>
<path d="M220.405 130.052C220.405 130.052 220.37 130.224 220.357 130.533C220.339 130.843 220.335 131.294 220.365 131.846C220.374 132.125 220.405 132.425 220.441 132.752C220.48 133.075 220.525 133.424 220.6 133.782C220.737 134.507 220.949 135.29 221.219 136.09C221.771 137.69 222.377 139.091 222.81 140.112C223.013 140.576 223.19 140.974 223.336 141.31C223.464 141.593 223.544 141.743 223.561 141.735C223.579 141.73 223.53 141.562 223.429 141.27C223.327 140.979 223.172 140.559 222.973 140.042C222.584 139.007 222.005 137.597 221.457 136.006C221.188 135.21 220.975 134.441 220.825 133.734C220.746 133.38 220.693 133.04 220.644 132.721C220.6 132.403 220.56 132.103 220.538 131.829C220.485 131.28 220.463 130.834 220.449 130.529C220.436 130.22 220.419 130.052 220.401 130.052H220.405Z" fill="#A36957"/>
<path d="M216.375 167.792V167.081L224.137 166.74L224.159 169.675L223.681 169.706C221.551 169.83 212.834 170.193 211.406 169.764C209.815 169.287 216.375 167.788 216.375 167.788V167.792Z" fill="#455A64"/>
<path d="M224.269 169.499C224.269 169.499 224.225 169.508 224.136 169.512C224.021 169.521 223.898 169.525 223.756 169.538C223.376 169.556 222.907 169.578 222.351 169.605C221.166 169.653 219.526 169.693 217.714 169.702C215.901 169.711 214.261 169.68 213.077 169.645C212.524 169.622 212.056 169.605 211.671 169.592C211.53 169.583 211.406 169.578 211.291 169.569C211.202 169.565 211.158 169.561 211.158 169.556C211.158 169.556 211.202 169.552 211.291 169.552C211.406 169.552 211.53 169.552 211.671 169.552C212.051 169.556 212.524 169.565 213.077 169.574C214.261 169.592 215.901 169.614 217.714 169.605C219.521 169.596 221.161 169.565 222.351 169.534C222.903 169.521 223.372 169.508 223.756 169.499C223.898 169.499 224.021 169.494 224.136 169.49C224.225 169.49 224.269 169.49 224.269 169.49V169.499Z" fill="#263238"/>
<path d="M213.86 169.751C213.833 169.751 213.807 169.419 213.595 169.083C213.387 168.743 213.099 168.57 213.113 168.548C213.117 168.526 213.449 168.668 213.674 169.035C213.9 169.397 213.882 169.759 213.86 169.755V169.751Z" fill="#263238"/>
<path d="M216.135 168.588C216.135 168.588 216.003 168.469 215.892 168.292C215.777 168.115 215.707 167.96 215.724 167.947C215.746 167.934 215.857 168.066 215.967 168.243C216.082 168.42 216.153 168.575 216.135 168.588Z" fill="#263238"/>
<path d="M216.759 168.252C216.759 168.252 216.617 168.19 216.485 168.071C216.352 167.952 216.255 167.841 216.273 167.819C216.29 167.801 216.414 167.881 216.547 168C216.679 168.12 216.777 168.23 216.759 168.252Z" fill="#263238"/>
<path d="M217.152 167.523C217.152 167.549 216.971 167.571 216.75 167.576C216.529 167.576 216.348 167.563 216.348 167.536C216.348 167.51 216.529 167.487 216.75 167.483C216.971 167.483 217.152 167.496 217.152 167.523Z" fill="#263238"/>
<path d="M217.29 167.006C217.299 167.028 217.104 167.116 216.839 167.138C216.578 167.16 216.371 167.103 216.375 167.076C216.375 167.05 216.583 167.063 216.83 167.045C217.078 167.028 217.277 166.979 217.286 167.006H217.29Z" fill="#263238"/>
<path d="M215.871 167.912C215.871 167.912 215.681 167.947 215.376 167.912C215.221 167.894 215.04 167.859 214.845 167.797C214.748 167.761 214.646 167.739 214.54 167.673C214.492 167.642 214.434 167.594 214.416 167.518C214.394 167.443 214.434 167.359 214.492 167.319C214.964 167.072 215.442 167.337 215.619 167.58C215.716 167.704 215.76 167.828 215.782 167.912C215.804 167.996 215.8 168.044 215.795 168.044C215.778 168.049 215.76 167.85 215.566 167.62C215.468 167.51 215.327 167.399 215.141 167.346C214.964 167.293 214.717 167.28 214.549 167.39C214.469 167.448 214.5 167.54 214.589 167.594C214.673 167.647 214.774 167.678 214.867 167.713C215.057 167.775 215.23 167.819 215.38 167.845C215.676 167.899 215.866 167.899 215.866 167.912H215.871Z" fill="#263238"/>
<path d="M215.742 167.938C215.742 167.938 215.662 167.819 215.685 167.594C215.698 167.483 215.738 167.355 215.817 167.231C215.906 167.121 216.016 166.97 216.228 166.975C216.343 166.988 216.401 167.121 216.383 167.205C216.374 167.293 216.334 167.368 216.299 167.426C216.224 167.549 216.144 167.651 216.065 167.726C215.91 167.881 215.786 167.938 215.782 167.929C215.773 167.916 215.879 167.841 216.016 167.682C216.082 167.602 216.158 167.505 216.224 167.381C216.29 167.275 216.339 167.09 216.215 167.067C216.091 167.054 215.963 167.178 215.888 167.28C215.808 167.386 215.769 167.505 215.746 167.602C215.711 167.806 215.755 167.934 215.738 167.938H215.742Z" fill="#263238"/>
<path d="M224.106 167.386C224.106 167.386 223.885 167.364 223.536 167.408C223.191 167.448 222.709 167.589 222.294 167.925C221.878 168.261 221.631 168.699 221.52 169.026C221.405 169.357 221.392 169.578 221.374 169.578C221.37 169.578 221.365 169.521 221.374 169.424C221.383 169.322 221.405 169.18 221.458 169.008C221.56 168.663 221.803 168.204 222.236 167.854C222.669 167.505 223.173 167.368 223.531 167.342C223.713 167.328 223.858 167.337 223.956 167.35C224.053 167.364 224.11 167.381 224.106 167.386Z" fill="#263238"/>
<path d="M220.384 168.884C220.384 168.906 219.884 168.99 219.257 168.99C218.629 168.99 218.125 168.92 218.125 168.893C218.125 168.867 218.633 168.898 219.252 168.893C219.875 168.893 220.379 168.853 220.379 168.88L220.384 168.884Z" fill="#263238"/>
<path d="M221.9 168.867C221.9 168.867 221.86 168.973 221.807 169.088C221.754 169.203 221.727 169.304 221.701 169.304C221.674 169.304 221.661 169.18 221.723 169.048C221.78 168.915 221.882 168.844 221.9 168.862V168.867Z" fill="#263238"/>
<path d="M222.465 168.155C222.465 168.155 222.434 168.252 222.355 168.336C222.275 168.415 222.196 168.468 222.178 168.45C222.161 168.432 222.209 168.353 222.289 168.269C222.368 168.19 222.447 168.137 222.465 168.155Z" fill="#263238"/>
<path d="M223.284 167.828C223.279 167.854 223.177 167.854 223.063 167.894C222.948 167.934 222.868 167.996 222.846 167.978C222.824 167.965 222.89 167.854 223.032 167.806C223.173 167.757 223.292 167.806 223.284 167.828Z" fill="#263238"/>
<path d="M223.862 167.673C223.871 167.695 223.827 167.735 223.765 167.761C223.703 167.788 223.642 167.788 223.633 167.761C223.624 167.739 223.668 167.699 223.73 167.673C223.792 167.647 223.853 167.647 223.862 167.673Z" fill="#263238"/>
<path d="M234.573 167.107L234.277 166.457L241.221 162.965L242.445 165.635L242.021 165.861C240.129 166.846 232.323 170.745 230.847 170.94C229.198 171.156 234.573 167.103 234.573 167.103V167.107Z" fill="#455A64"/>
<path d="M242.472 165.432C242.472 165.432 242.432 165.458 242.357 165.498C242.255 165.551 242.145 165.609 242.021 165.675C241.681 165.847 241.261 166.06 240.766 166.312C239.705 166.842 238.224 167.549 236.575 168.301C234.927 169.048 233.419 169.693 232.319 170.148C231.806 170.356 231.368 170.533 231.015 170.674C230.882 170.728 230.767 170.772 230.657 170.812C230.573 170.842 230.533 170.856 230.528 170.851C230.528 170.851 230.568 170.829 230.648 170.794C230.754 170.75 230.869 170.697 230.997 170.639C231.346 170.489 231.779 170.303 232.288 170.087C233.379 169.618 234.882 168.964 236.531 168.217C238.18 167.47 239.661 166.767 240.73 166.254C241.23 166.015 241.654 165.812 241.999 165.644C242.127 165.582 242.242 165.529 242.344 165.481C242.423 165.445 242.468 165.428 242.468 165.428L242.472 165.432Z" fill="#263238"/>
<path d="M233.079 169.923C233.053 169.936 232.898 169.64 232.562 169.419C232.235 169.194 231.899 169.154 231.903 169.127C231.899 169.105 232.261 169.101 232.615 169.344C232.973 169.583 233.101 169.919 233.079 169.923Z" fill="#263238"/>
<path d="M234.679 167.929C234.679 167.929 234.512 167.876 234.335 167.761C234.158 167.647 234.03 167.536 234.043 167.514C234.056 167.492 234.211 167.567 234.388 167.682C234.565 167.797 234.693 167.907 234.679 167.929Z" fill="#263238"/>
<path d="M235.112 167.368C235.103 167.395 234.962 167.368 234.789 167.315C234.617 167.262 234.489 167.196 234.493 167.174C234.502 167.147 234.644 167.174 234.816 167.227C234.988 167.28 235.117 167.346 235.112 167.368Z" fill="#263238"/>
<path d="M235.17 166.541C235.179 166.564 235.024 166.661 234.825 166.754C234.622 166.846 234.45 166.904 234.441 166.882C234.432 166.86 234.587 166.762 234.786 166.67C234.989 166.577 235.161 166.519 235.17 166.541Z" fill="#263238"/>
<path d="M235.082 166.02C235.082 166.02 234.958 166.201 234.728 166.325C234.498 166.453 234.286 166.484 234.282 166.462C234.273 166.435 234.467 166.365 234.684 166.245C234.905 166.126 235.068 166.002 235.086 166.024L235.082 166.02Z" fill="#263238"/>
<path d="M234.162 167.426C234.162 167.426 234.003 167.536 233.706 167.629C233.561 167.673 233.379 167.717 233.176 167.739C233.074 167.748 232.973 167.766 232.849 167.753C232.791 167.744 232.721 167.722 232.672 167.664C232.623 167.607 232.623 167.514 232.659 167.452C232.99 167.032 233.534 167.081 233.795 167.231C233.936 167.306 234.025 167.399 234.078 167.465C234.131 167.536 234.149 167.58 234.144 167.58C234.131 167.594 234.034 167.417 233.764 167.289C233.631 167.227 233.455 167.187 233.264 167.213C233.083 167.24 232.849 167.328 232.743 167.496C232.694 167.58 232.761 167.655 232.862 167.664C232.959 167.677 233.07 167.664 233.167 167.66C233.366 167.642 233.543 167.607 233.689 167.571C233.981 167.496 234.153 167.421 234.162 167.434V167.426Z" fill="#263238"/>
<path d="M234.056 167.501C234.056 167.501 233.932 167.421 233.862 167.209C233.826 167.103 233.809 166.97 233.835 166.824C233.87 166.687 233.91 166.502 234.109 166.422C234.22 166.387 234.48 166.612 234.498 166.696C234.525 166.78 234.365 166.736 234.361 166.807C234.343 166.948 234.312 167.076 234.273 167.178C234.193 167.381 234.105 167.483 234.096 167.479C234.083 167.47 234.149 167.355 234.211 167.156C234.242 167.054 234.268 166.935 234.277 166.798C234.295 166.674 234.259 166.484 234.136 166.515C234.016 166.555 233.954 166.718 233.923 166.842C233.897 166.97 233.906 167.094 233.928 167.196C233.976 167.395 234.074 167.492 234.06 167.505L234.056 167.501Z" fill="#263238"/>
<path d="M241.456 163.571C241.456 163.571 241.244 163.642 240.943 163.823C240.642 164 240.262 164.327 240.019 164.804C239.776 165.282 239.732 165.781 239.763 166.126C239.794 166.475 239.873 166.683 239.856 166.687C239.851 166.687 239.825 166.639 239.789 166.546C239.754 166.453 239.719 166.312 239.692 166.13C239.643 165.777 239.674 165.255 239.931 164.756C240.183 164.261 240.589 163.925 240.903 163.761C241.062 163.677 241.199 163.624 241.297 163.598C241.394 163.571 241.447 163.562 241.451 163.567L241.456 163.571Z" fill="#263238"/>
<path d="M238.675 166.462C238.675 166.462 238.259 166.762 237.689 167.023C237.119 167.284 236.628 167.421 236.619 167.399C236.61 167.373 237.083 167.196 237.649 166.939C238.215 166.683 238.661 166.44 238.675 166.466V166.462Z" fill="#263238"/>
<path d="M240.049 165.825C240.076 165.834 240.054 165.94 240.058 166.069C240.058 166.197 240.076 166.298 240.049 166.312C240.027 166.32 239.961 166.219 239.961 166.069C239.961 165.923 240.023 165.817 240.049 165.825Z" fill="#263238"/>
<path d="M240.279 164.946C240.301 164.955 240.293 165.047 240.253 165.153C240.213 165.26 240.16 165.339 240.138 165.33C240.116 165.321 240.125 165.229 240.164 165.123C240.204 165.016 240.257 164.937 240.279 164.946Z" fill="#263238"/>
<path d="M240.889 164.314C240.894 164.34 240.801 164.38 240.713 164.464C240.624 164.543 240.576 164.636 240.549 164.627C240.523 164.627 240.54 164.495 240.646 164.393C240.757 164.292 240.881 164.287 240.885 164.309L240.889 164.314Z" fill="#263238"/>
<path d="M241.354 163.933C241.354 163.933 241.349 164.004 241.301 164.057C241.252 164.105 241.199 164.132 241.182 164.114C241.164 164.096 241.186 164.044 241.235 163.991C241.283 163.942 241.336 163.916 241.354 163.933Z" fill="#263238"/>
<path d="M232.658 73.9575L231.363 58.1769L238.007 58.2962C238.007 58.2962 238.317 55.9711 237.335 50.8656C236.734 47.736 234.652 45.8176 232.314 44.6771V44.6374L232.11 44.5843C229.135 43.1919 226.024 42.9974 226.024 42.9974L217.868 43.0902C217.868 43.0902 211.64 42.3123 208.192 46.7547C206.866 48.4654 202.755 60.1748 202.755 60.1748L212.542 64.8869L211.609 58.3934C211.609 58.3934 211.794 63.1011 212.396 64.5908C212.732 65.4218 213.7 68.0033 213.7 68.0033L213.571 75.7875L232.65 73.9575H232.658Z" fill="#E65C00"/>
<path d="M228.159 55.8871L226.952 61.0456H238.37L237.618 52.3995L228.159 55.8871Z" fill="#E8505B"/>
<path d="M238.369 61.0456C238.369 61.0103 237.795 60.9528 236.858 60.8954C235.921 60.8423 234.625 60.7937 233.198 60.8025C231.765 60.8114 230.47 60.8733 229.538 60.944C228.601 61.0191 228.026 61.0987 228.03 61.1296C228.03 61.165 228.614 61.1517 229.546 61.1208C230.484 61.0943 231.774 61.0589 233.198 61.0501C234.625 61.0457 235.916 61.0633 236.853 61.0722C237.79 61.081 238.369 61.081 238.369 61.0456Z" fill="#263238"/>
<path d="M227.667 52.3597C227.632 52.3597 227.619 52.8636 227.628 53.6725C227.636 54.4815 227.667 55.5998 227.712 56.8331C227.76 58.0663 227.818 59.1847 227.871 59.9892C227.924 60.7981 227.977 61.2932 228.012 61.2932C228.048 61.2932 228.061 60.7893 228.052 59.9804C228.043 59.1714 228.012 58.0531 227.968 56.8198C227.919 55.5865 227.862 54.4726 227.809 53.6637C227.756 52.8548 227.703 52.3597 227.667 52.3597Z" fill="#263238"/>
<g opacity="0.3">
<path d="M217.275 56.8242C217.275 56.8242 219.813 75.6416 226.947 75.1421C226.947 75.1421 230.161 75.1023 231.191 72.9673V72.1274L217.275 56.8242Z" fill="black"/>
</g>
<g opacity="0.3">
<path d="M227.669 53.4692L226.303 62.69L227.187 64.3123L228.641 61.1473L228.027 61.1296L227.669 53.4692Z" fill="black"/>
</g>
<path d="M213.704 68.0033C213.704 68.0033 213.62 67.853 213.51 67.5612C213.399 67.2739 213.253 66.8496 213.081 66.328C212.74 65.2759 212.321 63.8084 211.989 62.1507C211.662 60.4931 211.498 58.9725 211.45 57.8674C211.423 57.3149 211.414 56.8684 211.423 56.559C211.428 56.2496 211.441 56.0772 211.454 56.0772C211.49 56.0772 211.516 56.7579 211.609 57.8542C211.702 58.9504 211.887 60.4577 212.214 62.1021C212.542 63.7465 212.935 65.214 213.236 66.2749C213.377 66.7656 213.496 67.1855 213.594 67.5303C213.678 67.8265 213.717 67.9944 213.7 67.9989L213.704 68.0033Z" fill="#263238"/>
<path d="M216.59 73.4093C216.528 73.427 216.352 73.0204 216.197 72.5032C216.038 71.986 215.963 71.5484 216.025 71.5307C216.086 71.513 216.263 71.9197 216.418 72.4369C216.577 72.954 216.652 73.3917 216.59 73.4093Z" fill="#263238"/>
<path d="M217.577 73.3386C217.519 73.3519 217.325 72.7463 217.316 71.9639C217.303 71.1815 217.475 70.5671 217.537 70.5803C217.603 70.5936 217.537 71.2036 217.546 71.9595C217.555 72.7153 217.643 73.3254 217.577 73.3386Z" fill="#263238"/>
<path d="M212.745 65.0991C212.719 65.1566 210.438 64.0736 207.657 62.6856C204.877 61.2976 202.645 60.1218 202.671 60.0643C202.698 60.0069 204.979 61.0899 207.759 62.4778C210.539 63.8658 212.772 65.0416 212.745 65.0991Z" fill="#263238"/>
<path d="M216.759 44.6152C216.812 42.3786 216.821 40.0225 216.821 40.0225C216.821 40.0225 213.952 39.47 213.453 35.695C212.975 32.0968 214.31 23.6496 214.31 23.6496C218.501 22.0671 222.855 23.4993 225.724 26.8941L225.012 45.0484C224.928 47.1569 223.049 48.7659 220.795 48.6599C218.518 48.5538 216.711 46.7414 216.759 44.6108V44.6152Z" fill="#B78876"/>
<path d="M214.094 30.4039C214.076 30.6602 214.279 30.8813 214.545 30.9034C214.81 30.9255 215.035 30.7354 215.053 30.4834C215.071 30.227 214.867 30.006 214.602 29.9839C214.337 29.9618 214.107 30.1519 214.094 30.4039Z" fill="#263238"/>
<path d="M213.917 29.7717C213.974 29.8381 214.345 29.5773 214.867 29.5905C215.384 29.5994 215.76 29.8734 215.817 29.8115C215.844 29.785 215.787 29.6701 215.627 29.5463C215.468 29.4225 215.194 29.2988 214.867 29.2899C214.544 29.2855 214.27 29.396 214.111 29.5109C213.948 29.6303 213.89 29.7408 213.921 29.7717H213.917Z" fill="#263238"/>
<path d="M219.358 30.731C219.34 30.9873 219.543 31.2084 219.808 31.2305C220.074 31.2526 220.299 31.0625 220.317 30.8105C220.334 30.5586 220.131 30.3331 219.866 30.311C219.601 30.2889 219.371 30.479 219.358 30.731Z" fill="#263238"/>
<path d="M219.322 30.0989C219.38 30.1652 219.751 29.9044 220.273 29.9176C220.79 29.9265 221.166 30.2005 221.223 30.1386C221.25 30.1121 221.192 29.9972 221.029 29.869C220.87 29.7452 220.596 29.6215 220.268 29.6126C219.946 29.6082 219.672 29.7187 219.513 29.8336C219.349 29.953 219.292 30.0635 219.322 30.0944V30.0989Z" fill="#263238"/>
<path d="M217.338 33.8959C217.338 33.865 217.02 33.8031 216.498 33.7235C216.366 33.7059 216.242 33.6749 216.22 33.5865C216.193 33.4893 216.251 33.3478 216.317 33.1975C216.45 32.8792 216.587 32.5477 216.733 32.1985C217.312 30.7752 217.736 29.6082 217.679 29.5817C217.621 29.5596 217.104 30.6912 216.52 32.1145C216.379 32.4637 216.246 32.7997 216.118 33.1179C216.065 33.2682 215.972 33.4362 216.034 33.6351C216.065 33.7368 216.162 33.8075 216.246 33.834C216.33 33.8606 216.405 33.865 216.472 33.8694C216.998 33.9092 217.325 33.9224 217.325 33.8915L217.338 33.8959Z" fill="#263238"/>
<path d="M216.825 40.0225C216.825 40.0225 219.349 40.2524 221.895 38.8113C221.895 38.8113 220.609 41.3619 216.856 40.911L216.83 40.0225H216.825Z" fill="#A36957"/>
<path d="M220.98 28.6004C220.874 28.7639 220.481 28.6888 220.039 28.6092C219.597 28.5208 219.203 28.4412 219.168 28.2511C219.124 28.0699 219.579 27.818 220.171 27.9285C220.759 28.039 221.091 28.4412 220.985 28.5959L220.98 28.6004Z" fill="#263238"/>
<path d="M215.827 27.8401C215.787 28.0301 215.363 28.0964 214.876 28.123C214.39 28.1406 213.961 28.1141 213.904 27.9285C213.846 27.7517 214.257 27.4599 214.845 27.4334C215.433 27.4069 215.866 27.6588 215.827 27.8401Z" fill="#263238"/>
<path d="M217.347 35.138C217.236 35.1071 217.112 35.169 217.059 35.2706C216.993 35.39 217.024 35.5491 217.126 35.6375C217.227 35.7259 217.395 35.7259 217.501 35.642C217.608 35.558 217.643 35.3944 217.581 35.2751C217.519 35.1557 217.369 35.0894 217.236 35.1292" fill="#A36957"/>
<path d="M217.471 35.1867C217.493 35.1646 217.387 35.0364 217.162 35.0894C217.055 35.1115 216.918 35.2043 216.879 35.3679C216.839 35.5182 216.879 35.7127 217.033 35.8365C217.201 35.9514 217.4 35.9293 217.528 35.8365C217.67 35.7436 217.71 35.5756 217.688 35.4696C217.643 35.2353 217.471 35.1999 217.467 35.2309C217.449 35.2618 217.528 35.3414 217.511 35.4784C217.502 35.5447 217.471 35.611 217.405 35.642C217.343 35.6773 217.237 35.6773 217.179 35.6331C217.117 35.5889 217.086 35.4917 217.1 35.4209C217.109 35.3458 217.157 35.2927 217.219 35.2574C217.343 35.1867 217.449 35.222 217.467 35.1911L217.471 35.1867Z" fill="#263238"/>
<path d="M223.991 31.3365C223.545 32.3709 222.453 33.171 222.603 34.2893C222.7 35.0098 223.165 35.6862 223.076 36.4067C222.961 37.3128 222.02 37.945 221.887 38.8511C221.724 39.9606 222.802 40.8226 223.235 41.8614C223.863 43.3687 223.059 45.0661 223.041 46.7016C223.01 49.2036 225.14 51.5419 227.634 51.7497C228.641 51.8337 229.777 51.5287 230.303 50.6623C230.737 49.9462 230.648 49.04 230.909 48.2443C231.294 47.0597 232.421 46.1977 232.659 44.9733C233.093 42.7454 230.401 40.9066 230.578 38.6434C230.653 37.6753 231.249 36.8354 231.501 35.8983C231.833 34.6739 231.528 33.2948 230.71 32.3223C230.047 31.531 229.083 31.0139 228.518 30.1519C227.877 29.175 227.855 27.9329 227.611 26.788C227.024 23.9988 224.928 21.5764 222.254 20.5907C219.58 19.605 216.41 20.0868 214.152 21.824C214.152 21.824 213.511 24.737 216.499 25.2232C219.491 25.7095 220.875 25.1481 221.211 26.346C221.211 26.346 220.87 27.7472 222.108 29.0822C223.346 30.4215 224.508 30.1386 223.987 31.341L223.991 31.3365Z" fill="#263238"/>
<path d="M228.761 51.5419C228.761 51.5419 228.668 51.5419 228.487 51.5154C228.31 51.4889 228.049 51.427 227.726 51.3121C227.09 51.0778 226.184 50.5694 225.414 49.597C225.03 49.1152 224.672 48.5317 224.429 47.8465C224.181 47.1658 224.04 46.3922 224.026 45.5789C224.009 44.7655 224.124 43.908 224.345 43.0549C224.455 42.6261 224.601 42.2017 224.769 41.7774C224.933 41.353 225.136 40.9419 225.255 40.5088C225.379 40.0756 225.366 39.6335 225.255 39.2136C225.14 38.7937 224.941 38.3958 224.751 38.0024C224.557 37.609 224.362 37.22 224.234 36.8045C224.106 36.3934 224.057 35.947 224.141 35.5359C224.318 34.7048 224.822 34.086 225.123 33.4539C225.437 32.8262 225.538 32.1676 225.525 31.5708C225.472 30.3685 224.959 29.4756 224.539 28.9628C224.102 28.4501 223.77 28.2511 223.788 28.2335C223.788 28.2335 224.137 28.397 224.606 28.9054C225.056 29.4137 225.609 30.3154 225.684 31.562C225.711 32.1764 225.618 32.8748 225.295 33.5335C224.99 34.1877 224.504 34.8109 224.349 35.5712C224.194 36.3404 224.557 37.1316 224.95 37.9008C225.145 38.2942 225.348 38.7008 225.472 39.1517C225.596 39.5982 225.613 40.1065 225.476 40.5662C225.353 41.0303 225.145 41.4459 224.981 41.8614C224.818 42.2769 224.672 42.6968 224.561 43.1123C224.34 43.9478 224.225 44.7832 224.239 45.5745C224.243 47.1658 224.791 48.5626 225.538 49.4953C226.272 50.4545 227.138 50.9717 227.757 51.2237C228.385 51.4756 228.765 51.5154 228.756 51.5419H228.761Z" fill="#455A64"/>
<path d="M228.324 29.2369C228.324 29.2369 228.094 29.2944 227.665 29.3341C227.241 29.3695 226.613 29.4181 225.844 29.2855C225.097 29.1485 224.146 28.7816 223.545 27.8931C223.249 27.4467 223.134 26.9074 222.944 26.4079C222.763 25.904 222.414 25.4663 221.936 25.1658C220.968 24.5513 219.832 24.4762 218.838 24.3568C217.839 24.2419 216.897 24.0297 216.26 23.5523C215.62 23.097 215.292 22.5047 215.204 22.0759C215.155 21.8638 215.16 21.6914 215.169 21.5764C215.186 21.4615 215.195 21.404 215.204 21.404C215.231 21.404 215.173 21.6472 215.288 22.0494C215.394 22.4472 215.726 22.9954 216.349 23.4153C216.963 23.8485 217.861 24.0386 218.855 24.1402C219.841 24.2507 221.021 24.3126 222.056 24.9668C222.568 25.2851 222.962 25.7846 223.147 26.3195C223.346 26.8455 223.452 27.3627 223.718 27.7693C224.257 28.5915 225.15 28.9672 225.866 29.1175C226.604 29.2678 227.227 29.2457 227.652 29.2369C228.076 29.2236 228.315 29.2104 228.315 29.228L228.324 29.2369Z" fill="#455A64"/>
<path d="M227.222 25.6343C227.222 25.6343 227.045 25.7006 226.705 25.7095C226.369 25.7183 225.865 25.6608 225.308 25.3956C225.03 25.263 224.747 25.0773 224.486 24.8254C224.221 24.5734 224.004 24.2507 223.801 23.9104C223.403 23.2385 223.018 22.4075 222.192 22.0671C221.383 21.7179 220.49 21.7975 219.716 21.8505C218.934 21.9256 218.2 21.9522 217.603 21.8328C217.002 21.7267 216.551 21.4792 216.299 21.2493C216.171 21.1344 216.087 21.0327 216.039 20.9576C215.99 20.8824 215.968 20.8427 215.972 20.8382C215.99 20.825 216.096 20.9797 216.357 21.1786C216.613 21.3775 217.051 21.5897 217.63 21.6737C218.213 21.7665 218.912 21.7311 219.699 21.6427C220.477 21.5809 221.396 21.4836 222.284 21.8593C222.727 22.045 223.085 22.3765 223.341 22.7346C223.602 23.0926 223.787 23.4683 223.986 23.8043C224.181 24.1447 224.38 24.4541 224.623 24.6928C224.862 24.9359 225.122 25.1215 225.383 25.2542C225.9 25.5238 226.382 25.6078 226.709 25.6255C227.036 25.6431 227.222 25.621 227.226 25.6387L227.222 25.6343Z" fill="#455A64"/>
<path d="M230.083 50.5871C230.061 50.5783 230.202 50.291 230.366 49.7473C230.529 49.2036 230.688 48.3902 230.662 47.378C230.627 46.3745 230.388 45.1589 229.72 44.0008C229.398 43.4218 228.907 42.9046 228.505 42.2725C228.306 41.9542 228.133 41.6006 228.058 41.2072C227.983 40.8138 228.027 40.3938 228.156 40.0137C228.403 39.249 228.85 38.608 228.942 37.9052C229.062 37.2023 228.704 36.5614 228.368 35.9867C228.195 35.695 228.027 35.4077 227.895 35.1071C227.762 34.8065 227.678 34.4882 227.643 34.1832C227.576 33.5688 227.647 33.003 227.691 32.4991C227.82 31.4913 227.727 30.6602 227.484 30.1519C227.249 29.6347 226.94 29.48 226.962 29.4579C226.962 29.4579 226.984 29.4623 227.015 29.4844C227.046 29.5065 227.099 29.533 227.157 29.5861C227.276 29.6833 227.431 29.8513 227.563 30.1121C227.842 30.6293 227.961 31.4957 227.855 32.5124C227.82 33.0207 227.758 33.5777 227.833 34.1611C227.89 34.749 228.195 35.3016 228.549 35.8762C228.721 36.168 228.903 36.473 229.031 36.8178C229.163 37.1581 229.221 37.5515 229.163 37.9317C229.057 38.7053 228.602 39.3595 228.372 40.0756C228.253 40.4336 228.217 40.8049 228.279 41.1585C228.346 41.5122 228.5 41.8437 228.69 42.1487C229.071 42.7587 229.566 43.2847 229.897 43.8903C230.573 45.0882 230.803 46.3392 230.821 47.3691C230.83 48.4035 230.64 49.2301 230.45 49.7694C230.352 50.039 230.268 50.2468 230.193 50.3794C230.127 50.5164 230.087 50.5827 230.083 50.5827V50.5871Z" fill="#455A64"/>
<path d="M212.073 132.951C212.073 132.951 209.098 104.732 208.925 94.3043C208.753 83.8767 213.615 73.5862 213.615 73.5862L232.658 72.7817C232.658 72.7817 236.424 83.3639 236.491 87.8064C236.623 96.4437 234.196 104.971 234.475 111.822L235.111 132.951" fill="#2E3333"/>
<path d="M235.748 98.2561C235.748 98.2561 235.642 98.3445 235.438 98.4903C235.385 98.5301 235.328 98.5699 235.266 98.6141C235.209 98.6627 235.147 98.729 235.08 98.7909C234.948 98.9191 234.789 99.065 234.656 99.2639C234.042 100.015 233.591 101.364 233.166 103.043C232.932 103.879 232.693 104.811 232.203 105.726C232.07 105.947 231.951 106.186 231.778 106.394C231.694 106.5 231.619 106.615 231.531 106.717L231.239 107.008C230.841 107.402 230.337 107.693 229.807 107.928C228.742 108.396 227.539 108.617 226.439 109.17C225.334 109.709 224.503 110.752 223.994 111.955C223.459 113.153 223.132 114.408 222.686 115.584C222.248 116.751 221.647 117.882 220.697 118.598C219.755 119.341 218.588 119.509 217.58 119.575C216.555 119.637 215.604 119.606 214.756 119.734C213.907 119.854 213.156 120.119 212.625 120.539C212.09 120.959 211.781 121.485 211.635 121.936C211.485 122.391 211.511 122.776 211.56 123.019C211.608 123.266 211.679 123.386 211.661 123.39C211.661 123.39 211.577 123.28 211.511 123.028C211.445 122.78 211.401 122.382 211.546 121.905C211.684 121.432 211.993 120.884 212.541 120.437C213.089 119.991 213.863 119.704 214.729 119.571C215.596 119.429 216.555 119.452 217.567 119.381C218.566 119.31 219.68 119.133 220.568 118.426C221.466 117.745 222.045 116.654 222.474 115.5C222.911 114.337 223.238 113.082 223.782 111.857C224.295 110.633 225.174 109.524 226.333 108.967C227.477 108.401 228.68 108.184 229.719 107.733C230.236 107.508 230.718 107.229 231.098 106.862L231.381 106.584C231.469 106.487 231.54 106.376 231.619 106.279C231.787 106.08 231.902 105.85 232.03 105.638C232.517 104.754 232.76 103.83 233.007 102.999C233.454 101.328 233.931 99.9623 234.585 99.2109C234.727 99.0119 234.895 98.8661 235.032 98.7423C235.102 98.6804 235.164 98.6185 235.226 98.5699C235.293 98.5301 235.354 98.4903 235.407 98.455C235.624 98.3179 235.739 98.2516 235.743 98.2561H235.748Z" fill="#485050"/>
<path d="M235.868 85.1984C235.868 85.1984 235.885 85.3266 235.894 85.5785C235.894 85.8261 235.868 86.1974 235.762 86.6571C235.541 87.5765 234.869 88.8407 233.609 89.9856C232.986 90.5603 232.239 91.1128 231.377 91.6167C230.523 92.1251 229.582 92.6069 228.618 93.1506C227.659 93.6987 226.665 94.3131 225.794 95.1353C224.91 95.9442 224.251 97.0095 223.654 98.1411C223.053 99.2683 222.523 100.413 221.802 101.408C221.444 101.903 221.042 102.358 220.595 102.743C220.145 103.127 219.654 103.441 219.159 103.702C218.16 104.219 217.143 104.542 216.202 104.838C215.256 105.13 214.376 105.39 213.602 105.713C212.829 106.031 212.161 106.394 211.622 106.774C211.083 107.159 210.672 107.556 210.38 107.919C209.792 108.648 209.668 109.174 209.633 109.161C209.624 109.161 209.668 109.037 209.757 108.803C209.858 108.578 210.018 108.242 210.309 107.866C210.597 107.49 211.003 107.07 211.547 106.672C212.091 106.275 212.763 105.899 213.541 105.567C214.319 105.231 215.203 104.962 216.144 104.661C217.081 104.361 218.089 104.033 219.062 103.521C219.548 103.264 220.021 102.959 220.454 102.584C220.883 102.208 221.276 101.766 221.621 101.284C222.324 100.312 222.85 99.1755 223.455 98.0395C224.052 96.9079 224.733 95.8116 225.643 94.9806C226.536 94.1407 227.549 93.5219 228.517 92.9738C229.489 92.4301 230.431 91.9571 231.284 91.462C232.137 90.9758 232.88 90.4365 233.503 89.8795C234.754 88.77 235.434 87.5456 235.678 86.6483C235.916 85.7421 235.837 85.2117 235.872 85.2117L235.868 85.1984Z" fill="#485050"/>
<path d="M209.023 95.7939C209.023 95.7939 209.005 95.7674 208.983 95.71C208.965 95.6525 208.926 95.5641 208.899 95.4447C208.846 95.2105 208.811 94.8347 208.943 94.3839C209.191 93.4821 210.168 92.3638 211.741 91.8024C212.524 91.5327 213.417 91.3692 214.341 91.1261C215.256 90.8785 216.255 90.5337 217.002 89.769C217.373 89.3889 217.687 88.9424 217.943 88.4473C218.195 87.9478 218.407 87.413 218.602 86.8604C219 85.7598 219.331 84.5619 220.003 83.47C220.67 82.3738 221.758 81.6091 222.885 81.2289C224.008 80.8178 225.144 80.6322 226.191 80.3891C227.248 80.1592 228.234 79.863 229.069 79.4077C229.896 78.9392 230.55 78.3159 231.014 77.6529C231.969 76.3268 232.216 74.9697 232.252 74.0724C232.274 73.1618 232.128 72.6623 232.159 72.6579C232.159 72.6579 232.336 73.1441 232.345 74.0724C232.336 74.983 232.11 76.3754 231.151 77.7457C230.683 78.4309 230.015 79.0806 229.166 79.5713C228.309 80.0443 227.301 80.3537 226.245 80.5924C225.188 80.8399 224.061 81.03 222.969 81.4367C221.868 81.8168 220.847 82.5373 220.202 83.5894C219.552 84.637 219.221 85.8217 218.818 86.9312C218.619 87.4881 218.403 88.0318 218.142 88.5446C217.872 89.0529 217.545 89.5215 217.152 89.9149C216.361 90.7194 215.317 91.0642 214.389 91.3073C213.448 91.546 212.564 91.6963 211.794 91.9527C210.261 92.4743 209.288 93.5484 209.027 94.406C208.886 94.8347 208.904 95.1972 208.943 95.4315C208.992 95.6658 209.032 95.7851 209.023 95.7895V95.7939Z" fill="#485050"/>
<path d="M234.227 119.659C234.227 119.659 234.245 119.752 234.258 119.938C234.267 120.119 234.258 120.393 234.179 120.738C234.024 121.419 233.498 122.351 232.508 123.125C232.022 123.518 231.434 123.876 230.753 124.164C230.077 124.451 229.33 124.681 228.552 124.924C227.774 125.167 226.956 125.423 226.16 125.795C225.36 126.162 224.622 126.697 223.985 127.382C223.34 128.058 222.783 128.796 222.169 129.446C221.554 130.1 220.856 130.639 220.131 131.042C218.677 131.846 217.169 132.12 215.927 132.134C214.676 132.147 213.686 131.886 213.032 131.652C212.705 131.537 212.457 131.422 212.298 131.338C212.134 131.258 212.05 131.21 212.055 131.205C212.055 131.196 212.148 131.232 212.316 131.298C212.484 131.369 212.731 131.471 213.058 131.572C213.712 131.776 214.694 132.01 215.918 131.974C217.138 131.939 218.61 131.652 220.02 130.861C220.723 130.467 221.395 129.941 221.996 129.296C222.602 128.655 223.154 127.917 223.813 127.227C224.458 126.529 225.241 125.967 226.058 125.596C226.876 125.216 227.703 124.964 228.485 124.725C229.268 124.486 230.01 124.265 230.673 123.991C231.336 123.717 231.92 123.372 232.397 122.997C233.374 122.254 233.905 121.37 234.081 120.711C234.254 120.048 234.187 119.659 234.218 119.659H234.227Z" fill="#485050"/>
<path d="M232.058 61.0632L228.375 61.1516C228.132 62.3937 227.544 63.2424 227.544 63.2424C224.463 57.8982 222.076 50.7373 221.484 47.8596C221.572 47.5723 221.674 47.254 221.802 46.9004C221.948 46.4893 221.824 45.7113 221.754 45.2826C221.652 44.6416 221.471 43.7796 221.418 43.3818C221.254 42.1662 221.06 41.9761 220.635 42.1132C220.056 42.2988 220.874 45.5301 220.401 45.5964C220.149 45.6362 219.835 44.5267 219.747 43.6205C219.658 42.7143 219.247 39.9207 218.947 39.735C218.509 39.461 218.125 39.8942 218.235 40.7959C218.346 41.7109 218.487 44.4383 218.01 44.4736C217.537 44.509 217.139 39.8809 217.139 39.8809C217.139 39.8809 217.214 38.8731 216.657 38.8996C215.654 38.9438 216.436 43.8239 216.524 44.2836C216.586 44.6063 216.065 44.6637 216.021 44.3145C215.972 43.9565 215.733 39.6864 214.712 39.7218C213.93 39.7483 215.318 43.7443 214.88 44.6681C214.442 45.592 214.137 41.5253 213.386 41.5783C213.108 41.6004 212.904 41.6535 213.413 43.9565C213.687 45.1942 214.496 47.4706 215.198 49.3537C216.383 55.7411 221.581 76.1763 229.728 72.4323C234.285 70.3415 236.137 61.0632 236.137 61.0632H232.062H232.058Z" fill="#B78876"/>
<path d="M216.343 44.5931C216.343 44.5931 216.379 44.5976 216.449 44.5799C216.511 44.5622 216.635 44.4826 216.617 44.3235C216.608 44.0494 216.564 43.6516 216.502 43.1344C216.454 42.6128 216.299 41.9896 216.299 41.2514C216.295 40.8801 216.299 40.4822 216.326 40.0623C216.339 39.8501 216.343 39.6335 216.392 39.4258C216.427 39.2269 216.56 38.997 216.714 39.0235H216.732H216.741C216.9 39.0147 217.019 39.1384 217.073 39.3241C217.13 39.5053 217.143 39.7131 217.13 39.9164V39.9253V39.9297C217.232 41.0613 217.347 42.299 217.603 43.6207C217.638 43.7842 217.674 43.9522 217.727 44.1202C217.753 44.2042 217.78 44.2881 217.82 44.3721C217.842 44.4163 217.859 44.4561 217.895 44.5047C217.926 44.5445 217.965 44.6108 218.08 44.6197C218.266 44.6064 218.319 44.465 218.359 44.3854C218.399 44.2926 218.425 44.2042 218.443 44.1157C218.483 43.9345 218.5 43.7577 218.514 43.5765C218.562 42.856 218.536 42.1178 218.483 41.3663C218.465 40.9861 218.372 40.606 218.438 40.2612C218.469 40.0932 218.54 39.9208 218.655 39.8501C218.712 39.8148 218.774 39.8103 218.845 39.828C218.88 39.8369 218.916 39.8545 218.951 39.8722C218.982 39.8987 218.973 39.8855 219 39.9385C219.146 40.2568 219.225 40.6679 219.305 41.048C219.384 41.4414 219.451 41.8393 219.513 42.2415C219.574 42.6438 219.632 43.0549 219.681 43.4615C219.72 43.8726 219.778 44.3014 219.884 44.7169C219.937 44.9247 219.994 45.1324 220.083 45.3402C220.127 45.4419 220.176 45.5479 220.264 45.654C220.295 45.6982 220.401 45.7822 220.529 45.7513C220.653 45.7115 220.688 45.6098 220.71 45.5524C220.781 45.296 220.759 45.0882 220.759 44.8628C220.75 44.6418 220.733 44.4252 220.715 44.2086C220.684 43.8373 220.649 43.466 220.635 43.1035C220.631 42.9223 220.631 42.741 220.649 42.5731C220.657 42.4891 220.675 42.4051 220.702 42.3432C220.715 42.3123 220.733 42.2901 220.746 42.2769C220.755 42.268 220.759 42.2769 220.764 42.2636L220.821 42.2459C221.113 42.1266 221.21 42.5333 221.29 42.8604C221.356 43.2052 221.4 43.5588 221.471 43.908C221.586 44.6064 221.736 45.296 221.816 45.959C221.847 46.2906 221.873 46.6309 221.776 46.9094C221.67 47.2277 221.568 47.5459 221.466 47.8598L221.458 47.8863L221.466 47.9172C222.006 50.2954 222.753 52.4216 223.442 54.3091C224.141 56.1965 224.843 57.8232 225.458 59.1582C226.072 60.4931 226.625 61.5186 227.009 62.2215C227.204 62.553 227.354 62.8182 227.469 63.0127C227.575 63.1895 227.633 63.2823 227.642 63.2779C227.646 63.2779 227.602 63.1763 227.505 62.9906C227.398 62.7917 227.257 62.522 227.08 62.1817C226.722 61.47 226.192 60.4356 225.595 59.0963C224.998 57.7569 224.317 56.1258 223.632 54.2383C222.956 52.3508 222.222 50.2202 221.701 47.8686V47.9261C221.798 47.6167 221.904 47.3072 222.006 46.989C222.125 46.6265 222.09 46.2773 222.059 45.9325C221.979 45.2429 221.833 44.571 221.718 43.8682C221.652 43.5234 221.608 43.1654 221.537 42.8073C221.497 42.6261 221.458 42.4449 221.356 42.2592C221.307 42.1708 221.232 42.0691 221.113 42.0117C220.989 41.9586 220.865 41.9719 220.764 41.9984L220.688 42.0205C220.653 42.0338 220.613 42.0514 220.587 42.078C220.529 42.1266 220.498 42.1841 220.476 42.2371C220.428 42.3432 220.414 42.4404 220.401 42.5377C220.379 42.7322 220.379 42.9223 220.388 43.1079C220.401 43.4836 220.436 43.8549 220.467 44.2263C220.485 44.4429 220.503 44.655 220.512 44.8672C220.52 45.075 220.525 45.3004 220.481 45.4595C220.472 45.5037 220.45 45.4993 220.472 45.5214C220.472 45.5214 220.472 45.5479 220.472 45.5391V45.5214C220.472 45.5214 220.485 45.5037 220.476 45.4993C220.476 45.4993 220.463 45.4905 220.45 45.4728C220.401 45.4153 220.352 45.3269 220.313 45.2341C220.233 45.0484 220.176 44.8495 220.127 44.6462C220.025 44.2395 219.968 43.8373 219.928 43.4218C219.879 43.0062 219.822 42.5952 219.756 42.1885C219.694 41.7818 219.623 41.3796 219.544 40.9862C219.451 40.5883 219.393 40.2037 219.208 39.8059C219.194 39.7661 219.119 39.6777 219.071 39.6512C219.022 39.6203 218.964 39.5982 218.907 39.5805C218.788 39.5495 218.642 39.5628 218.531 39.6335C218.31 39.7794 218.244 40.0093 218.204 40.2082C218.169 40.4159 218.173 40.6193 218.195 40.8138C218.217 41.0038 218.235 41.1895 218.248 41.3751C218.306 42.1178 218.332 42.8515 218.288 43.5544C218.275 43.7268 218.257 43.9036 218.226 44.0671C218.209 44.1511 218.186 44.2263 218.16 44.297C218.147 44.3323 218.129 44.3633 218.111 44.381C218.094 44.4163 218.08 44.3721 218.085 44.434C218.107 44.3898 218.085 44.4119 218.067 44.3765C218.049 44.3544 218.032 44.3147 218.014 44.2837C217.983 44.213 217.957 44.1334 217.93 44.0583C217.881 43.9036 217.842 43.74 217.806 43.5765C217.546 42.2769 217.422 41.0348 217.307 39.9164V39.9297C217.316 39.7042 217.302 39.4877 217.236 39.2711C217.201 39.165 217.152 39.0589 217.064 38.9749C216.975 38.8909 216.852 38.8511 216.737 38.8555H216.763C216.586 38.8246 216.454 38.9351 216.383 39.0412C216.308 39.1517 216.272 39.2711 216.246 39.386C216.197 39.6158 216.197 39.8369 216.188 40.049C216.171 40.4734 216.171 40.8756 216.18 41.2469C216.193 42.0028 216.365 42.6261 216.423 43.1389C216.498 43.6516 216.555 44.0494 216.582 44.3191C216.608 44.4473 216.507 44.5268 216.454 44.5489C216.392 44.5755 216.356 44.5799 216.356 44.5843L216.343 44.5931Z" fill="#A36957"/>
<path d="M187.558 67.1501C187.558 67.1501 186.334 67.0927 184.999 67.4419C182.718 68.043 178.775 70.43 178.611 73.3828H181.471C181.471 73.3828 179.867 76.7953 180.34 76.4771C181.56 75.6593 183.995 73.1839 183.995 73.1839L187.558 67.1457V67.1501Z" fill="#B78876"/>
<path d="M226.599 15.7902C226.537 15.7946 226.276 13.4298 226.02 10.5035C225.763 7.57722 225.604 5.2035 225.67 5.19908C225.732 5.19466 225.993 7.55954 226.249 10.4858C226.506 13.4121 226.665 15.7858 226.599 15.7902Z" fill="#263238"/>
<path d="M239.157 5.34495C239.21 5.38031 237.274 8.18723 234.838 11.613C232.402 15.0388 230.382 17.7838 230.329 17.7484C230.276 17.7131 232.212 14.9061 234.648 11.4804C237.083 8.05462 239.104 5.30959 239.152 5.34495H239.157Z" fill="#263238"/>
<path d="M244.373 18.0667C244.386 18.1286 242.128 18.6458 239.334 19.2204C236.536 19.795 234.259 20.2106 234.246 20.1487C234.233 20.0868 236.492 19.5696 239.285 18.995C242.083 18.4203 244.36 18.0048 244.373 18.0667Z" fill="#263238"/>
<path d="M94.0314 78.7801L78.4011 159.142L76.3545 169.662L180.701 169.149C185.382 169.127 189.533 164.968 191.04 158.793L209.544 82.9219C210.689 78.2319 208.178 73.3563 204.624 73.3563L99.0131 73.4668C96.6792 73.4668 94.6414 75.646 94.0314 78.7801Z" fill="#E65C00"/>
<g opacity="0.5">
<path d="M94.0314 78.7801L78.4011 159.142L76.3545 169.662L180.701 169.149C185.382 169.127 189.533 164.968 191.04 158.793L209.544 82.9219C210.689 78.2319 208.178 73.3563 204.624 73.3563L99.0131 73.4668C96.6792 73.4668 94.6414 75.646 94.0314 78.7801Z" fill="black"/>
</g>
<path d="M170.694 153.696L159.647 64.6659C159.196 61.0191 156.288 58.2962 152.858 58.3095L128.63 58.389C126.835 58.3934 125.116 59.1582 123.843 60.5108L112.341 72.7375L44.9616 73.0911C40.8462 73.1132 37.6813 77.0075 38.225 81.3881L48.4846 163.673C48.9399 167.315 51.8396 170.034 55.2654 170.025L172.692 169.795C185.771 170.064 187.018 166.206 187.018 166.206C172.029 169.525 170.694 153.709 170.694 153.7V153.696Z" fill="#E65C00"/>
<g opacity="0.5">
<path d="M120.064 135.878L116.103 140.134L85.6025 112.693L89.5632 108.441L120.064 135.878Z" fill="white"/>
<path d="M114.441 107.499L118.821 111.433L91.2209 141.076L86.8447 137.137L114.441 107.499Z" fill="white"/>
</g>
<path d="M187.465 20.9797C187.182 20.8603 186.978 20.5819 186.965 20.2548L186.788 16.1527C186.775 15.8963 186.886 15.6443 187.085 15.4808C187.283 15.3172 187.549 15.2554 187.801 15.3128C188.459 15.4675 189.189 15.3261 189.794 14.9194C190.356 14.5437 190.731 13.9956 190.824 13.4077C190.921 12.8242 190.74 12.1744 190.329 11.6307C189.887 11.0472 189.237 10.6582 188.587 10.5831C187.257 10.4283 185.82 11.4494 185.449 12.8109C185.33 13.2485 184.879 13.5093 184.437 13.39C183.99 13.2662 183.738 12.8153 183.858 12.3777C184.437 10.2383 186.647 8.69999 188.778 8.94311C189.883 9.0713 190.93 9.68573 191.646 10.6361C192.327 11.5378 192.623 12.6429 192.455 13.6729C192.287 14.7072 191.651 15.662 190.709 16.2897C190.028 16.745 189.25 16.9925 188.473 17.0191L188.61 20.184C188.627 20.6393 188.278 21.0239 187.823 21.0416C187.695 21.046 187.575 21.0239 187.465 20.9753V20.9797Z" fill="#E65C00"/>
<path d="M188.671 22.6594C188.698 23.0307 188.415 23.3534 188.044 23.3799C187.672 23.4065 187.35 23.1236 187.323 22.7522C187.296 22.3809 187.579 22.0583 187.951 22.0317C188.322 22.0052 188.645 22.2881 188.671 22.6594Z" fill="#E65C00"/>
<path d="M173.257 15.1935C173.257 15.1935 173.275 15.1006 173.297 14.9238C173.319 14.7338 173.346 14.4685 173.386 14.1326C173.403 13.7834 173.496 13.359 173.598 12.8639C173.655 12.6164 173.686 12.3423 173.779 12.0639C173.867 11.7854 173.956 11.4848 174.053 11.171C174.482 9.92884 175.141 8.43919 176.25 6.95838C177.351 5.48198 178.902 4.01885 180.891 2.91376C181.873 2.33028 182.991 1.92361 184.167 1.56114C185.36 1.27824 186.625 1.03512 187.946 1.06606C188.605 1.0307 189.272 1.12795 189.953 1.18541C190.293 1.21635 190.625 1.30918 190.965 1.36665C191.306 1.42853 191.65 1.49484 191.982 1.61418C193.348 1.96339 194.674 2.60876 195.934 3.40442C198.471 5.00016 200.606 7.5949 201.777 10.7422C202.365 12.3158 202.644 14.0398 202.644 15.7858C202.679 17.5318 202.339 19.3044 201.72 20.9753L201.521 21.4792L201.495 21.5455L201.521 21.6074C202.631 24.1623 203.718 26.6643 204.77 29.091L204.956 28.8788C202.675 28.0036 200.46 27.1505 198.334 26.3371L198.25 26.3062L198.184 26.3681C196.345 28.1495 194.152 29.3518 191.933 29.9751C189.706 30.6028 187.46 30.6337 185.422 30.2712C183.376 29.9088 181.537 29.1264 179.998 28.123C178.46 27.1195 177.223 25.8951 176.272 24.653C175.326 23.3976 174.703 22.1069 174.234 20.9576C173.819 19.7818 173.567 18.7386 173.443 17.8722C173.39 17.439 173.346 17.0589 173.306 16.7229C173.297 16.3914 173.288 16.1129 173.284 15.8786C173.275 15.662 173.271 15.4896 173.266 15.3614C173.262 15.2465 173.257 15.1846 173.253 15.1846C173.253 15.1846 173.244 15.2421 173.244 15.3614C173.244 15.4896 173.244 15.662 173.235 15.8786C173.235 16.1129 173.235 16.3958 173.235 16.7273C173.271 17.0633 173.306 17.4523 173.35 17.8855C173.461 18.7563 173.699 19.8127 174.106 21.0062C174.566 22.1732 175.185 23.4816 176.131 24.7635C177.085 26.0277 178.328 27.2787 179.884 28.3086C181.435 29.3386 183.3 30.1431 185.378 30.5188C187.451 30.8945 189.732 30.8724 192 30.2403C194.263 29.6082 196.5 28.3926 198.378 26.5803L198.232 26.6112C200.354 27.429 202.569 28.2821 204.85 29.1662L205.181 29.2944L205.035 28.954C203.983 26.5272 202.896 24.0209 201.791 21.4659V21.5941L201.994 21.0769C202.631 19.3707 202.975 17.5539 202.94 15.7725C202.94 13.9911 202.653 12.2274 202.052 10.6184C200.854 7.40483 198.666 4.76147 196.08 3.14362C194.789 2.3347 193.441 1.68491 192.048 1.33128C191.708 1.21635 191.359 1.15005 191.014 1.08374C190.669 1.02628 190.329 0.933453 189.984 0.90251C189.294 0.845046 188.618 0.752219 187.946 0.792002C186.602 0.76548 185.321 1.01744 184.109 1.30918C182.916 1.68049 181.784 2.10042 180.794 2.69717C178.783 3.8332 177.223 5.32285 176.117 6.83019C175.008 8.33752 174.354 9.8537 173.943 11.1091C173.85 11.4273 173.761 11.7279 173.677 12.0152C173.589 12.2981 173.562 12.5766 173.509 12.8242C173.412 13.3281 173.333 13.7524 173.324 14.1061C173.297 14.4464 173.28 14.7072 173.266 14.9017C173.253 15.0785 173.253 15.1714 173.257 15.1714V15.1935Z" fill="#263238"/>
</g>
<defs>
<clipPath id="clip0_3401_554">
<rect width="265.905" height="170.152" fill="white" transform="translate(0.046875 0.800842)"/>
</clipPath>
</defs>
</svg>
