<svg width="139" height="151" viewBox="0 0 139 151" fill="none" xmlns="http://www.w3.org/2000/svg">
<path opacity="0.08" d="M69.0955 146.51C107.256 146.51 138.191 144.376 138.191 141.744C138.191 139.112 107.256 136.979 69.0955 136.979C30.9351 136.979 0 139.112 0 141.744C0 144.376 30.9351 146.51 69.0955 146.51Z" fill="black"/>
<g clip-path="url(#clip0_5394_9335)">
<path d="M115.436 123.194H119.009L119.191 121.781H115.253L115.436 123.194ZM119.267 123.488H115.177L114.919 121.487H119.525L119.267 123.488Z" fill="#D4D6D3"/>
<path d="M91.3982 113.148H94.9713L95.1535 111.736H91.2158L91.3982 113.148ZM95.2297 113.442H91.1399L90.8818 111.442H95.4877L95.2297 113.442Z" fill="#D4D6D3"/>
<path d="M83.447 129.643L83.0815 132.246L82.3461 137.475H80.9082V129.643H83.447Z" fill="#E7E8E5"/>
<path d="M83.447 129.643L83.0815 132.245H80.9082V129.643H83.447Z" fill="#D4D6D3"/>
<path d="M22.7236 40.2634C6.5365 40.2634 6.50979 63.2812 22.7236 63.2812C38.9099 63.2812 38.9367 40.2634 22.7236 40.2634Z" fill="#E7E8E5"/>
<path d="M32.5666 53.9298C31.7031 57.89 28.4197 61.3247 22.7215 61.3247C9.26741 61.3247 9.28802 42.2202 22.7215 42.2202C22.8095 42.2202 22.8974 42.2202 22.9852 42.2249C10.343 42.4567 10.4049 60.5487 23.2334 60.5487C28.4662 60.5487 31.5841 57.521 32.5666 53.9298Z" fill="#D4D6D3"/>
<path d="M23.2048 51.8053V56.2278C24.9562 56.196 26.0945 55.2663 26.0945 54.0489C26.0945 52.943 25.4815 52.2698 23.2048 51.8053ZM22.4345 50.8279V46.4535C20.7357 46.4856 19.615 47.4147 19.615 48.5683C19.615 49.6583 20.1754 50.3315 22.4345 50.8279ZM22.8196 44.7387C23.0471 44.7387 23.24 44.9152 23.24 45.1236V45.7643C24.5008 45.8605 25.4112 46.2454 26.3571 46.8858C26.5145 46.9983 26.6022 47.0945 26.6022 47.2547C26.6022 47.479 26.3919 47.6552 26.1468 47.6552C26.0418 47.6552 25.954 47.6393 25.8314 47.5431C24.9737 46.918 24.1332 46.5978 23.2048 46.5019V50.9878C25.8666 51.5007 26.9873 52.4142 26.9873 53.9846C26.9873 55.683 25.4288 56.8848 23.24 56.9488V58.1987C23.24 58.4071 23.0471 58.5833 22.8196 58.5833C22.5917 58.5833 22.3993 58.4071 22.3993 58.1987V56.9329C20.8758 56.8207 19.6326 56.3078 18.459 55.3784C18.3365 55.2825 18.2664 55.1863 18.2664 55.0423C18.2664 54.8336 18.4766 54.6415 18.7042 54.6415C18.8619 54.6415 18.9668 54.7059 19.0195 54.7537C20.0001 55.5871 21.0682 56.0838 22.4345 56.2119V51.6451C19.8073 51.1165 18.7218 50.2349 18.7218 48.6327C18.7218 47.0145 20.2627 45.7806 22.3993 45.7325V45.1236C22.3993 44.9152 22.5917 44.7387 22.8196 44.7387Z" fill="#D4D6D3"/>
<path d="M118.416 61.6798C105.96 64.8512 110.45 82.5684 122.926 79.3917C135.381 76.2203 130.892 58.5031 118.416 61.6798Z" fill="#E7E8E5"/>
<path d="M128.668 70.2675C128.779 73.4839 126.926 76.7702 122.541 77.8867C112.188 80.523 108.461 65.8182 118.798 63.186C118.865 63.1688 118.933 63.1516 119.002 63.1382C109.319 65.7935 112.912 79.703 122.783 77.1895C126.809 76.1642 128.615 73.2234 128.668 70.2675Z" fill="#D4D6D3"/>
<path d="M121.048 70.4668L121.914 73.8699C123.256 73.5023 123.949 72.5638 123.711 71.627C123.494 70.776 122.891 70.3784 121.048 70.4668ZM120.263 69.8657L119.406 66.4997C118.105 66.8574 117.425 67.7918 117.651 68.6796C117.865 69.518 118.428 69.9263 120.263 69.8657ZM119.367 65.1049C119.542 65.0602 119.725 65.1583 119.766 65.3183L119.891 65.8115C120.88 65.6385 121.656 65.7562 122.51 66.0639C122.653 66.1196 122.739 66.1764 122.77 66.2998C122.814 66.4722 122.687 66.6487 122.498 66.6968C122.418 66.7175 122.347 66.7225 122.234 66.6725C121.451 66.3598 120.742 66.2779 120.009 66.386L120.888 69.8379C123.036 69.7111 124.078 70.1941 124.385 71.4027C124.718 72.7097 123.754 73.9396 122.083 74.4179L122.327 75.3794C122.368 75.54 122.254 75.7134 122.079 75.7577C121.904 75.8024 121.721 75.7046 121.681 75.5444L121.433 74.5703C120.238 74.7824 119.181 74.6316 118.096 74.1461C117.983 74.0964 117.91 74.0361 117.882 73.9252C117.841 73.7647 117.965 73.5757 118.14 73.531C118.262 73.5001 118.355 73.5291 118.405 73.5557C119.323 74.0046 120.242 74.1776 121.318 74.0086L120.424 70.4943C118.299 70.6023 117.29 70.1369 116.977 68.9039C116.659 67.6587 117.603 66.4073 119.238 65.9518L119.119 65.4832C119.078 65.323 119.191 65.1496 119.367 65.1049Z" fill="#D4D6D3"/>
<path d="M103.316 78.7622C88.7406 81.3775 92.5898 102.969 107.189 100.35C121.764 97.7346 117.914 76.1428 103.316 78.7622Z" fill="#D4D6D3"/>
<path d="M104.684 78.5167C90.7933 81.0093 94.6442 102.601 108.558 100.104C122.448 97.6119 118.597 76.0204 104.684 78.5167Z" fill="#E7E8E5"/>
<path d="M115.431 89.8183C115.356 93.6654 113.116 97.3922 108.227 98.2697C96.6812 100.341 93.4839 82.4209 105.012 80.3522C105.087 80.3388 105.163 80.3254 105.239 80.316C94.4289 82.4802 97.5269 99.4383 108.536 97.4631C113.026 96.6574 115.192 93.3374 115.431 89.8183Z" fill="#D4D6D3"/>
<path d="M107.003 89.4164L106.511 93.6018C108.031 93.7495 109.121 92.986 109.256 91.8336C109.379 90.7871 108.923 90.088 107.003 89.4164ZM106.445 88.4133L106.932 84.2735C105.458 84.131 104.384 84.8961 104.255 85.9879C104.134 87.0191 104.544 87.7132 106.445 88.4133ZM107.456 82.6903C107.654 82.7134 107.801 82.8999 107.778 83.097L107.706 83.7034C108.787 83.9227 109.533 84.3797 110.28 85.0823C110.404 85.2047 110.469 85.3047 110.452 85.4562C110.427 85.6686 110.225 85.8136 110.013 85.7886C109.922 85.778 109.848 85.7542 109.752 85.6505C109.079 84.9717 108.387 84.5831 107.594 84.3975L107.094 88.6429C109.342 89.3992 110.211 90.3779 110.036 91.8639C109.847 93.4712 108.364 94.4496 106.461 94.2875L106.322 95.4702C106.299 95.6673 106.113 95.8144 105.916 95.7913C105.718 95.7679 105.571 95.5817 105.595 95.3846L105.735 94.1866C104.429 93.9254 103.409 93.3134 102.497 92.3144C102.401 92.211 102.351 92.1132 102.367 91.9767C102.39 91.7793 102.594 91.619 102.791 91.6421C102.927 91.6581 103.011 91.7296 103.051 91.7802C103.808 92.6687 104.677 93.2475 105.846 93.508L106.354 89.1864C104.139 88.4186 103.297 87.4739 103.475 85.9576C103.655 84.4262 105.127 83.4157 106.982 83.5878L107.05 83.0114C107.073 82.8143 107.259 82.6672 107.456 82.6903Z" fill="#D4D6D3"/>
<path d="M18.1497 72.5692C18.1187 71.5464 18.0862 70.0763 18.0645 69.0736L18.1496 69.1588C15.7576 69.2023 12.3048 69.2232 9.87737 69.2294L10.0334 69.0736L10.0166 72.5692L9.87737 72.4299C12.2162 72.4355 15.7789 72.5205 18.1497 72.5692ZM18.1497 72.5692C15.7476 72.6145 12.2486 72.7088 9.87737 72.7085L9.73888 72.7095L9.73813 72.5692L9.72142 69.0736L9.7207 68.9167L9.87737 68.9177C12.3534 68.9289 15.7948 68.9408 18.2358 68.9892C18.2298 70.0492 18.1684 71.5002 18.1497 72.5692Z" fill="#E7E8E5"/>
<path d="M13.535 76.9769C13.504 75.9542 13.4715 74.4841 13.4497 73.4813L13.535 73.5666C11.143 73.61 7.69002 73.6309 5.26276 73.6372L5.41871 73.4813L5.402 76.9769L5.26276 76.8376C7.60142 76.8429 11.1643 76.9282 13.535 76.9769ZM13.535 76.9769C11.1329 77.0222 7.63401 77.1166 5.26276 77.1159L5.12414 77.1172L5.12353 76.9769L5.10669 73.4813L5.10596 73.3245L5.26276 73.3251C7.73881 73.3366 11.1801 73.3485 13.621 73.3969C13.6151 74.4569 13.5537 75.9079 13.535 76.9769Z" fill="#E7E8E5"/>
<path d="M72.9798 114.056L72.9351 112.29C72.921 111.708 72.9001 111.132 72.8945 110.56L72.9794 110.645C71.6009 110.662 70.2223 110.695 68.8434 110.697L64.7074 110.716L64.8632 110.56L64.8467 114.056L64.7074 113.917C65.389 113.922 66.0688 113.919 66.7523 113.934L68.8075 113.969L72.9798 114.056ZM72.9798 114.056L68.8796 114.143L66.7988 114.178C66.1034 114.193 65.4046 114.189 64.7074 114.195L64.5687 114.196L64.568 114.056L64.5512 110.56L64.5505 110.404L64.7074 110.404L68.8434 110.424C70.2223 110.425 71.6009 110.459 72.9794 110.475L73.0657 110.476L73.0647 110.56C73.0591 111.153 73.0382 111.743 73.0241 112.326L72.9798 114.056Z" fill="#E7E8E5"/>
<path d="M68.3653 118.464L68.3209 116.697C68.3068 116.116 68.2859 115.54 68.28 114.968L68.3653 115.053C66.9864 115.069 65.6078 115.103 64.2292 115.105L60.0929 115.124L60.249 114.968L60.2322 118.464L60.0929 118.324C60.7745 118.33 61.4543 118.327 62.1378 118.342L64.193 118.377L68.3653 118.464ZM68.3653 118.464L64.2651 118.551L62.1843 118.586C61.4889 118.601 60.7901 118.597 60.0929 118.603L59.9545 118.604L59.9538 118.464L59.937 114.968L59.936 114.811L60.0929 114.812L64.2292 114.832C65.6078 114.833 66.9864 114.867 68.3653 114.883L68.4512 114.884L68.4505 114.968C68.4446 115.561 68.4237 116.151 68.4096 116.734L68.3653 118.464Z" fill="#E7E8E5"/>
<path d="M63.7688 114.056L63.7244 112.29C63.7103 111.708 63.6894 111.132 63.6835 110.56L63.7688 110.645C62.3902 110.662 61.0113 110.695 59.6327 110.697L55.4967 110.716L55.6525 110.56L55.6357 114.056L55.4967 113.917C56.178 113.922 56.8577 113.919 57.5413 113.934L59.5968 113.969L63.7688 114.056ZM63.7688 114.056L59.6686 114.143L57.5878 114.178C56.8927 114.193 56.1936 114.189 55.4967 114.195L55.358 114.196L55.3573 114.056L55.3405 110.56L55.3398 110.404L55.4967 110.404L59.6327 110.424C61.0113 110.425 62.3902 110.459 63.7688 110.475L63.855 110.476L63.854 110.56C63.8484 111.153 63.8272 111.743 63.8131 112.326L63.7688 114.056Z" fill="#E7E8E5"/>
<path d="M113.76 110.914C119.479 116.513 120.439 125.175 119.234 132.762C119.202 132.934 118.936 132.887 118.936 132.726C118.936 130.998 118.988 129.287 118.983 127.581C118.952 127.503 118.926 127.429 118.894 127.351C117.402 126.266 116.03 125.04 115.179 123.359C114.224 121.481 113.849 119.362 113.118 117.4C113.05 117.212 113.25 117.268 113.382 117.365C116.86 119.93 117.969 122.691 118.967 126.38C118.921 124.465 118.774 122.551 118.362 120.636C117.611 117.134 116.124 113.664 113.608 111.065C113.515 110.966 113.661 110.815 113.76 110.914Z" fill="#17282F"/>
<path d="M109.812 113.793C109.594 113.793 109.395 113.69 109.232 113.461C109.048 113.205 108.97 112.935 108.97 112.662C108.971 111.802 109.751 110.915 110.494 110.36C109.793 110.648 109.212 111.155 108.456 111.298C108.381 111.312 108.309 111.319 108.241 111.319C107.889 111.319 107.625 111.137 107.536 110.748C107.509 110.629 107.496 110.515 107.496 110.408C107.496 109.2 109.118 108.656 110.261 108.628C109.78 108.294 108.584 107.502 108.583 106.91C108.583 106.76 108.66 106.622 108.847 106.508C108.981 106.427 109.137 106.392 109.309 106.392C110.333 106.392 111.901 107.652 112.468 108.112C113.441 108.901 114.6 110.081 114.644 111.315C114.646 111.345 114.646 111.375 114.646 111.404C114.646 111.564 114.628 111.691 114.596 111.792C114.562 111.893 114.514 111.966 114.454 112.017C114.373 112.086 114.271 112.114 114.155 112.114C113.732 112.114 113.124 111.742 112.685 111.567C111.701 111.6 111.084 113.173 110.317 113.632C110.144 113.736 109.973 113.793 109.812 113.793Z" fill="#E65C00"/>
<path d="M112.969 111.81C111.711 111.238 109.295 112.061 109.089 111.585C108.673 110.616 110.604 109.951 111.646 109.822C110.686 109.562 108.847 109.148 108.903 108.222C108.972 107.091 111.725 108.064 113.118 109.132C114.873 110.477 114.861 111.776 114.571 112.036C114.173 112.392 113.177 111.904 112.969 111.81Z" fill="#E65C00"/>
<path d="M126.784 110.36C120.857 115.737 119.568 124.356 120.484 131.983C120.508 132.157 120.776 132.12 120.782 131.958C120.848 130.233 120.861 128.52 120.931 126.815C120.965 126.739 120.994 126.666 121.028 126.589C122.561 125.562 123.979 124.388 124.893 122.742C125.918 120.901 126.374 118.798 127.179 116.866C127.254 116.68 127.052 116.728 126.917 116.819C123.343 119.251 122.13 121.968 120.992 125.617C121.112 123.705 121.331 121.797 121.816 119.899C122.7 116.429 124.318 113.018 126.93 110.517C127.027 110.421 126.887 110.265 126.784 110.36Z" fill="#17282F"/>
<path d="M130.646 113.387C130.477 113.387 130.298 113.323 130.12 113.206C129.876 113.047 129.653 112.771 129.428 112.468C129.339 112.347 129.249 112.222 129.158 112.098C128.776 111.581 128.368 111.091 127.833 111.053C127.398 111.208 126.793 111.544 126.372 111.544C126.244 111.544 126.133 111.513 126.048 111.436C126.041 111.429 126.033 111.422 126.026 111.414C126.019 111.345 125.991 111.305 125.949 111.297C125.903 111.198 125.878 111.065 125.878 110.89C125.878 110.839 125.88 110.785 125.885 110.727C125.976 109.495 127.179 108.361 128.181 107.609C128.756 107.178 130.329 106.009 131.354 106.009C131.546 106.009 131.718 106.05 131.861 106.144C132.036 106.26 132.109 106.395 132.109 106.539C132.109 107.133 130.865 107.89 130.368 108.208C131.492 108.279 133.064 108.869 133.063 110.042C133.063 110.165 133.046 110.294 133.01 110.43C132.909 110.802 132.654 110.975 132.321 110.975C132.241 110.975 132.157 110.965 132.069 110.946C131.319 110.774 130.757 110.245 130.068 109.93C130.775 110.502 131.505 111.392 131.505 112.235C131.504 112.526 131.417 112.812 131.212 113.077C131.047 113.291 130.853 113.387 130.646 113.387Z" fill="#E65C00"/>
<path d="M127.54 111.285C128.819 110.761 131.202 111.675 131.426 111.208C131.879 110.255 129.974 109.517 128.938 109.349C129.907 109.125 131.76 108.781 131.739 107.854C131.713 106.722 128.926 107.589 127.493 108.603C125.688 109.881 125.651 111.179 125.931 111.45C126.315 111.821 127.329 111.371 127.54 111.285Z" fill="#E65C00"/>
<path d="M120.722 124.562C120.285 127.396 119.742 130.326 118.882 133.064C118.8 133.314 118.429 133.25 118.467 132.981C118.857 130.36 119.567 127.789 119.956 125.168C120.352 122.517 120.563 119.829 120.411 117.148C120.162 112.733 118.963 108.036 116.082 104.582C116.018 104.5 116.153 104.384 116.218 104.46C121.986 111.186 121.068 119.432 121.063 120.17C121.88 117.386 122.721 114.194 125.81 111.36C125.943 111.237 126.047 111.295 126.025 111.503C125.473 116.667 124.037 119.364 121.043 122.124C120.958 122.943 120.853 123.757 120.722 124.562Z" fill="#17282F"/>
<path d="M117.53 106.727C117.015 106.727 116.468 105.835 116.03 105.355C115.877 105.287 115.714 105.258 115.547 105.258C114.578 105.258 113.409 106.229 112.534 106.306C112.484 106.31 112.435 106.313 112.388 106.313C111.919 106.313 111.579 106.089 111.493 105.582C111.477 105.484 111.468 105.388 111.468 105.295C111.468 103.991 113.071 103.249 114.365 103.001C114.269 102.995 114.173 102.992 114.078 102.992C113.841 102.992 113.605 103.007 113.371 103.022C113.135 103.038 112.901 103.053 112.667 103.053C112.37 103.053 112.074 103.028 111.777 102.948C111.341 102.827 111.071 102.556 111.071 102.151C111.071 102.077 111.08 101.997 111.1 101.913C111.317 100.967 112.121 100.636 113.014 100.636C113.695 100.636 114.428 100.829 114.993 101.086C114.711 100.583 114.056 99.4712 114.056 98.7748C114.056 98.4481 114.2 98.2129 114.594 98.1747C114.62 98.1722 114.646 98.171 114.672 98.171C115.896 98.171 117.136 100.79 117.544 101.662C117.982 102.599 118.42 103.794 118.42 104.875C118.421 105.302 118.353 105.711 118.189 106.08C118.073 106.347 117.95 106.52 117.823 106.619C117.742 106.682 117.659 106.716 117.576 106.725C117.561 106.726 117.546 106.727 117.53 106.727Z" fill="#E65C00"/>
<path d="M116.203 105.75C115.186 104.524 112.264 104.161 112.29 103.564C112.346 102.349 114.684 102.631 115.83 103.022C114.965 102.269 113.265 100.913 113.79 99.9811C114.431 98.843 116.797 101.237 117.705 103.047C118.848 105.326 118.183 106.667 117.751 106.791C117.158 106.961 116.371 105.953 116.203 105.75Z" fill="#E65C00"/>
<path d="M114.125 138.459L111.581 124.905H127.061C126.742 126.106 123.861 138.475 123.861 138.475L114.125 138.459Z" fill="#33535F"/>
<path d="M98.853 128.635C98.853 131.496 96.7099 133.811 94.0671 133.811H46.8213C44.1722 133.811 42.0292 131.496 42.0292 128.635V27.4019C42.0292 21.5727 44.1722 21.2884 46.8213 21.2884H56.2867C56.8365 21.2884 57.2863 21.9132 57.2863 22.6879V23.0222C57.2863 24.8372 58.2797 24.8434 59.498 24.8434H81.3841C82.6149 24.8434 83.6021 24.8372 83.6021 23.0222V22.6879C83.6021 21.9132 84.0457 21.2884 84.6048 21.2884H94.0671C96.7099 21.2884 98.853 22.0632 98.853 27.4019V128.635ZM96.8474 17.8397H44.0347C41.0858 17.8397 38.6929 20.2732 38.6929 23.2815V131.996C38.6929 134.998 41.0858 137.438 44.0347 137.438H96.8474C99.7964 137.438 102.196 134.998 102.196 131.996V23.2815C102.196 20.2732 99.7964 17.8397 96.8474 17.8397Z" fill="#E65C00"/>
<path d="M98.856 27.4018V128.635C98.856 131.496 96.713 133.811 94.0702 133.811H46.8243C44.1752 133.811 42.0322 131.496 42.0322 128.635V27.4018C42.0322 21.5726 44.1752 21.2884 46.8243 21.2884H56.2897C56.8395 21.2884 57.2894 21.9131 57.2894 22.6879V23.0221C57.2894 24.8371 58.2828 24.8434 59.5011 24.8434H81.3871C82.6179 24.8434 83.6051 24.8371 83.6051 23.0221V22.6879C83.6051 21.9131 84.0487 21.2884 84.6079 21.2884H94.0702C96.713 21.2884 98.856 22.0631 98.856 27.4018Z" fill="#F3F6FD"/>
<path d="M73.4292 22.5776H67.4594C67.2558 22.5776 67.0908 22.4124 67.0908 22.2087C67.0908 22.005 67.2558 21.8401 67.4594 21.8401H73.4292C73.6332 21.8401 73.7982 22.005 73.7982 22.2087C73.7982 22.4124 73.6332 22.5776 73.4292 22.5776Z" fill="#273E47"/>
<path d="M54.6538 23.5633C54.6235 23.5936 54.5929 23.6239 54.5626 23.6542L54.5107 23.706C54.2649 23.4677 53.9725 23.3405 53.6301 23.3405C53.2877 23.3405 52.9953 23.4674 52.7476 23.7073L52.6982 23.6554C52.6686 23.6251 52.6383 23.5951 52.6083 23.5648L52.6055 23.5633V23.5611L52.612 23.5555C52.6508 23.5214 52.6883 23.4858 52.7276 23.4533C52.8098 23.3855 52.8997 23.3296 52.995 23.2827C53.1078 23.2274 53.2259 23.1862 53.3496 23.1637C53.408 23.1528 53.4677 23.1475 53.5267 23.14L53.6817 23.1375C53.7219 23.1406 53.7622 23.1422 53.8025 23.1465C53.9141 23.1587 54.0222 23.1856 54.1274 23.2243C54.2037 23.2521 54.2771 23.2868 54.3474 23.3271C54.422 23.3699 54.492 23.4186 54.5573 23.4742C54.5904 23.5023 54.6216 23.532 54.6538 23.5611V23.5633Z" fill="white"/>
<path d="M53.0377 23.9934C52.9893 23.9456 52.9421 23.8984 52.8931 23.85C53.0577 23.6885 53.2523 23.5861 53.4813 23.5548C53.8231 23.5086 54.1164 23.6126 54.3654 23.8481C54.3163 23.8969 54.2685 23.9444 54.2204 23.9925C54.0567 23.8338 53.8599 23.7482 53.6291 23.7482C53.3988 23.7482 53.2023 23.8338 53.0377 23.9934Z" fill="white"/>
<path d="M54.0761 24.1377C54.0283 24.1851 53.9805 24.2329 53.932 24.281C53.8489 24.2004 53.7477 24.1555 53.6293 24.1558C53.5109 24.1558 53.4103 24.2001 53.3263 24.282C53.2782 24.2339 53.2304 24.1864 53.1826 24.1386C53.4113 23.899 53.8227 23.8799 54.0761 24.1377Z" fill="white"/>
<path d="M53.7594 24.4121C53.7594 24.4836 53.701 24.5417 53.6295 24.5417C53.5576 24.5417 53.4995 24.4836 53.4995 24.4121C53.4995 24.3403 53.5576 24.2822 53.6295 24.2822C53.701 24.2822 53.7594 24.3403 53.7594 24.4121Z" fill="white"/>
<path d="M45.7373 23.8396C45.7373 23.6316 45.906 23.4629 46.1137 23.4629C46.3218 23.4629 46.4905 23.6316 46.4905 23.8396C46.4905 24.0474 46.3218 24.2161 46.1137 24.2161C45.906 24.2161 45.7373 24.0474 45.7373 23.8396Z" fill="white"/>
<path d="M46.9233 23.8396C46.9233 23.6316 47.092 23.4629 47.3001 23.4629C47.5078 23.4629 47.6765 23.6316 47.6765 23.8396C47.6765 24.0474 47.5078 24.2161 47.3001 24.2161C47.092 24.2161 46.9233 24.0474 46.9233 23.8396Z" fill="white"/>
<path d="M48.1094 23.8396C48.1094 23.6316 48.2781 23.4629 48.4861 23.4629C48.6939 23.4629 48.8625 23.6316 48.8625 23.8396C48.8625 24.0474 48.6939 24.2161 48.4861 24.2161C48.2781 24.2161 48.1094 24.0474 48.1094 23.8396Z" fill="white"/>
<path d="M49.2957 23.8396C49.2957 23.6316 49.4643 23.4629 49.6724 23.4629C49.8801 23.4629 50.0488 23.6316 50.0488 23.8396C50.0488 24.0474 49.8801 24.2161 49.6724 24.2161C49.4643 24.2161 49.2957 24.0474 49.2957 23.8396Z" fill="white"/>
<path d="M50.4817 23.8396C50.4817 23.6316 50.6504 23.4629 50.8584 23.4629C51.0662 23.4629 51.2349 23.6316 51.2349 23.8396C51.2349 24.0474 51.0662 24.2161 50.8584 24.2161C50.6504 24.2161 50.4817 24.0474 50.4817 23.8396Z" fill="white"/>
<path d="M91.6835 24.5054H94.4366V23.3977H91.6835V24.5054ZM94.5928 24.6616H91.5273V23.2415H94.5928V24.6616Z" fill="white"/>
<path d="M93.7579 23.4826H91.7817V24.4204H93.7579V23.4826Z" fill="white"/>
<path d="M94.8674 24.3315H94.5947V23.5718H94.8674V24.3315Z" fill="white"/>
<path d="M60.096 63.4328H59.8848V48.6836H60.096V63.4328ZM59.4403 63.4328H59.2291V48.6836H59.4403V63.4328ZM58.7849 63.4328H58.5737V48.6836H58.7849V63.4328ZM58.0017 48.0026V64.1138H60.6676V48.0026H58.0017Z" fill="white"/>
<path d="M61.3482 48.0037H57.3215V47.2667H61.3482V48.0037Z" fill="white"/>
<path d="M61.3482 64.8486H57.3215V64.112H61.3482V64.8486Z" fill="white"/>
<path d="M65.874 63.4328H65.6628V48.6836H65.874V63.4328ZM65.2183 63.4328H65.0071V48.6836H65.2183V63.4328ZM64.5629 63.4328H64.3517V48.6836H64.5629V63.4328ZM63.78 48.0026V64.1138H66.4457V48.0026H63.78Z" fill="white"/>
<path d="M67.1263 48.0037H63.0996V47.2667H67.1263V48.0037Z" fill="white"/>
<path d="M67.1263 64.8486H63.0996V64.112H67.1263V64.8486Z" fill="white"/>
<path d="M76.5358 63.4328H76.3247V48.6836H76.5358V63.4328ZM75.8805 63.4328H75.669V48.6836H75.8805V63.4328ZM75.2247 63.4328H75.0136V48.6836H75.2247V63.4328ZM74.4419 48.0026V64.1138H77.1075V48.0026H74.4419Z" fill="white"/>
<path d="M77.7882 48.0037H73.7615V47.2667H77.7882V48.0037Z" fill="white"/>
<path d="M77.7882 64.8486H73.7615V64.112H77.7882V64.8486Z" fill="white"/>
<path d="M82.3137 63.4328H82.1025V48.6836H82.3137V63.4328ZM81.6583 63.4328H81.4471V48.6836H81.6583V63.4328ZM81.0026 63.4328H80.7914V48.6836H81.0026V63.4328ZM80.2197 48.0026V64.1138H82.8853V48.0026H80.2197Z" fill="white"/>
<path d="M83.5665 48.0037H79.5398V47.2667H83.5665V48.0037Z" fill="white"/>
<path d="M83.5665 64.8486H79.5398V64.112H83.5665V64.8486Z" fill="white"/>
<path d="M56.2075 46.226H84.68V47.2668H56.2075V46.226Z" fill="white"/>
<path d="M56.2075 46.226H84.68V46.4419L56.2075 46.5715V46.226Z" fill="#BEBFBD"/>
<path d="M56.2075 64.8488H84.68V65.8896H56.2075V64.8488Z" fill="white"/>
<path d="M56.2075 65.5829L84.68 65.7363V65.8896H56.2075V65.5829Z" fill="#BEBFBD"/>
<path d="M55.4258 65.8897H85.4621V66.9309H55.4258V65.8897Z" fill="white"/>
<path d="M86.3316 45.3475V46.2253H54.5569V45.3475L70.4422 37.0514L86.3316 45.3475Z" fill="white"/>
<path d="M84.0274 45.3547C80.0666 43.2933 74.3902 40.4586 70.375 38.3912H70.5103L63.7298 41.9578L56.9432 45.5122L56.861 45.1767C65.6104 45.1792 75.237 45.3119 84.0274 45.3547ZM84.0274 45.3547C74.9531 45.4016 65.1806 45.5347 56.1294 45.5347L56.7785 45.197C60.2026 43.412 67.0149 39.8698 70.4437 38.0967C74.4236 40.2194 80.1069 43.2833 84.0274 45.3547Z" fill="#BEBFBD"/>
<path d="M86.8842 81.9912H54.0039V77.2263H86.8842V81.9912Z" fill="white"/>
<path d="M58.7688 81.9912H54.0039V77.2263H58.7688V81.9912Z" fill="#E65C00"/>
<path d="M56.8421 79.2103C56.8421 79.4618 56.6381 79.6658 56.3866 79.6658C56.1348 79.6658 55.9312 79.4618 55.9312 79.2103C55.9312 78.9588 56.1351 78.7548 56.3866 78.7548C56.6381 78.7548 56.8421 78.9588 56.8421 79.2103Z" fill="white"/>
<path d="M57.1744 80.4624H55.5984C55.6018 80.0294 55.9533 79.6814 56.3866 79.6814C56.823 79.6814 57.171 80.0294 57.1744 80.4624Z" fill="white"/>
<path d="M86.8842 89.5322H54.0039V84.7673H86.8842V89.5322Z" fill="white"/>
<path d="M61.6631 86.5874C61.3638 87.0369 60.988 87.414 60.5378 87.7126C60.8365 87.2622 61.2135 86.8867 61.6631 86.5874Z" fill="#999B9B"/>
<path d="M60.5378 86.5874C60.9874 86.8867 61.3644 87.2622 61.6631 87.7126C61.2129 87.414 60.8371 87.0369 60.5378 86.5874Z" fill="#999B9B"/>
<path d="M61.8962 87.15C61.3667 87.2562 60.8344 87.2571 60.3049 87.15C60.8344 87.0428 61.3667 87.0438 61.8962 87.15Z" fill="#999B9B"/>
<path d="M61.1006 86.3542C61.2068 86.8837 61.2078 87.4161 61.1006 87.9456C60.9932 87.4161 60.9944 86.8837 61.1006 86.3542Z" fill="#999B9B"/>
<path d="M64.4082 86.5874C64.1089 87.0369 63.7331 87.414 63.283 87.7126C63.5816 87.2622 63.9587 86.8867 64.4082 86.5874Z" fill="#999B9B"/>
<path d="M63.283 86.5874C63.7325 86.8867 64.1095 87.2622 64.4082 87.7126C63.958 87.414 63.5822 87.0369 63.283 86.5874Z" fill="#999B9B"/>
<path d="M64.6411 87.15C64.1116 87.2562 63.5793 87.2571 63.0498 87.15C63.5793 87.0428 64.1116 87.0438 64.6411 87.15Z" fill="#999B9B"/>
<path d="M63.8456 86.3542C63.9518 86.8837 63.9528 87.4161 63.8456 87.9456C63.7385 87.4161 63.7394 86.8837 63.8456 86.3542Z" fill="#999B9B"/>
<path d="M67.1531 86.5874C66.8538 87.0369 66.478 87.414 66.0278 87.7126C66.3265 87.2622 66.7035 86.8867 67.1531 86.5874Z" fill="#999B9B"/>
<path d="M66.0278 86.5874C66.4774 86.8867 66.8544 87.2622 67.1531 87.7126C66.7029 87.414 66.3271 87.0369 66.0278 86.5874Z" fill="#999B9B"/>
<path d="M67.3862 87.15C66.8567 87.2562 66.3244 87.2571 65.7949 87.15C66.3244 87.0428 66.8567 87.0438 67.3862 87.15Z" fill="#999B9B"/>
<path d="M66.5905 86.3542C66.6967 86.8837 66.6977 87.4161 66.5905 87.9456C66.4834 87.4161 66.4843 86.8837 66.5905 86.3542Z" fill="#999B9B"/>
<path d="M69.8982 86.5874C69.5989 87.0369 69.2231 87.414 68.7729 87.7126C69.0716 87.2622 69.4486 86.8867 69.8982 86.5874Z" fill="#999B9B"/>
<path d="M68.7729 86.5874C69.2225 86.8867 69.5995 87.2622 69.8982 87.7126C69.448 87.414 69.0722 87.0369 68.7729 86.5874Z" fill="#999B9B"/>
<path d="M70.1311 87.15C69.6016 87.2562 69.0693 87.2571 68.5398 87.15C69.0693 87.0428 69.6016 87.0438 70.1311 87.15Z" fill="#999B9B"/>
<path d="M69.3354 86.3542C69.4416 86.8837 69.4425 87.4161 69.3354 87.9456C69.2282 87.4161 69.2292 86.8837 69.3354 86.3542Z" fill="#999B9B"/>
<path d="M58.7688 89.5322H54.0039V84.7673H58.7688V89.5322Z" fill="#E65C00"/>
<path d="M56.9204 86.6369V87.2126H56.7573V86.6369C56.7573 86.4176 56.5911 86.2399 56.3865 86.2399C56.1816 86.2399 56.0154 86.4176 56.0154 86.6369V87.2126H55.8523V86.6369C55.8523 86.3236 56.0922 86.068 56.3865 86.068C56.6808 86.068 56.9204 86.3236 56.9204 86.6369Z" fill="white"/>
<path d="M56.5115 87.9025H56.2472L56.3097 87.6076C56.2725 87.5845 56.2472 87.5436 56.2472 87.4961C56.2472 87.4233 56.3066 87.3646 56.3793 87.3646C56.4521 87.3646 56.5115 87.4233 56.5115 87.4961C56.5115 87.5436 56.4862 87.5845 56.449 87.6076L56.5115 87.9025ZM55.6443 87V88.2314H57.1285V87H55.6443Z" fill="white"/>
<path d="M78.388 99.9673H62.5005V95.0271H78.388V99.9673Z" fill="#E65C00"/>
<path d="M66.3799 98.2366V96.6653C66.3799 96.5856 66.4439 96.5191 66.5264 96.5191C66.6089 96.5191 66.6754 96.5856 66.6754 96.6653V98.0873H67.397C67.4745 98.0873 67.5432 98.1538 67.5432 98.2366C67.5432 98.3163 67.4745 98.3828 67.397 98.3828H66.5345H66.5292H66.5264C66.4439 98.3828 66.3799 98.3163 66.3799 98.2366Z" fill="white"/>
<path d="M69.2069 97.4244C69.2069 97.2435 69.1347 97.0755 69.0254 96.9586C68.9135 96.8387 68.7645 96.7693 68.6052 96.7693C68.4346 96.7693 68.2856 96.8387 68.1735 96.9586C68.0616 97.0755 67.9923 97.2435 67.9923 97.4244C67.9923 97.6056 68.0616 97.773 68.1735 97.8877C68.2856 98.0073 68.4346 98.0792 68.6052 98.0792C68.7645 98.0792 68.9135 98.0073 69.0254 97.8877C69.1347 97.773 69.2069 97.6056 69.2069 97.4244ZM69.2409 96.7506C69.4062 96.9264 69.5102 97.1607 69.5102 97.4244C69.5102 97.6877 69.4062 97.9252 69.2409 98.0979C69.0841 98.2713 68.8498 98.3828 68.6052 98.3828C68.3494 98.3828 68.1151 98.2713 67.9523 98.0979C67.7874 97.9252 67.689 97.6877 67.689 97.4244C67.689 97.1607 67.7874 96.9264 67.9523 96.7506C68.1151 96.575 68.3494 96.466 68.6052 96.466C68.8498 96.466 69.0841 96.575 69.2409 96.7506Z" fill="white"/>
<path d="M69.9504 97.4269C69.9504 96.8918 70.3925 96.466 70.9329 96.466C71.1591 96.466 71.3746 96.5431 71.5399 96.6734C71.6089 96.724 71.6195 96.8227 71.5692 96.8893C71.5186 96.9533 71.4199 96.9661 71.3534 96.9133C71.2391 96.8252 71.0925 96.7693 70.9329 96.7693C70.7414 96.7693 70.5733 96.8412 70.4537 96.9639C70.3284 97.0836 70.2538 97.246 70.2538 97.4269C70.2538 97.6028 70.3284 97.7652 70.4537 97.8852C70.5733 98.0073 70.7414 98.0792 70.9329 98.0792C71.0657 98.0792 71.1909 98.0392 71.2975 97.978V97.6131H70.917C70.8342 97.6131 70.7652 97.5444 70.7652 97.4616C70.7652 97.3763 70.8342 97.3123 70.917 97.3123H71.4412H71.444H71.4465C71.5318 97.3123 71.6008 97.3763 71.6008 97.4616V98.0501L71.5933 98.0954L71.588 98.1085V98.1113L71.5368 98.1754C71.3693 98.306 71.1591 98.3828 70.9329 98.3828C70.3925 98.3828 69.9504 97.9598 69.9504 97.4269Z" fill="white"/>
<path d="M72.217 96.6653C72.217 96.5831 72.2811 96.5191 72.3636 96.5191C72.4432 96.5191 72.5126 96.5831 72.5126 96.6653V98.2366C72.5126 98.3188 72.4432 98.3828 72.3636 98.3828C72.2811 98.3828 72.217 98.3188 72.217 98.2366V96.6653Z" fill="white"/>
<path d="M73.3032 98.2366C73.3032 98.3163 73.2364 98.3828 73.1592 98.3828C73.0767 98.3828 73.0127 98.3163 73.0127 98.2366V96.6893V96.6872C73.0099 96.6419 73.0311 96.5938 73.0711 96.5644C73.138 96.5191 73.2286 96.5325 73.2739 96.5966L74.1336 97.7865V96.6893C74.1336 96.6125 74.1976 96.5456 74.2773 96.5456C74.3572 96.5456 74.4238 96.6125 74.4238 96.6893V98.2366C74.4238 98.3163 74.3572 98.3828 74.2773 98.3828C74.2351 98.3828 74.1951 98.3616 74.1682 98.3294L74.1551 98.3135L73.3032 97.1314V98.2366Z" fill="white"/>
<path d="M12.1318 137.316C12.1318 137.316 22.9006 142.4 37.0293 142.4C52.039 142.4 59.318 137.51 59.318 137.51C70.2795 128.903 71.4116 116.15 63.5915 108.421C58.8585 103.745 55.3994 104.688 49.6767 103.944L49.6605 103.942C47.6671 103.682 45.7122 103.217 43.8553 102.238C37.963 99.1295 34.6411 91.7962 29.6838 85.6277C29.0658 84.8539 28.4205 84.102 27.7424 83.3773C23.6656 79.0244 15.5518 78.8826 11.3078 85.0023C0.524227 100.552 0.826003 123.696 12.1318 137.316Z" fill="#E65C00"/>
<path d="M37.0293 142.4C22.9006 142.4 12.1318 137.316 12.1318 137.316C6.33528 130.333 3.4314 120.847 3.43091 111.164C3.43042 101.961 6.05291 92.58 11.3078 85.0023C13.5813 81.7241 16.9645 80.2427 20.2436 80.2427C23.0856 80.2427 25.8495 81.3564 27.7424 83.3773C28.4203 84.1017 29.0655 84.8533 29.6833 85.6271C28.2577 84.8871 26.7481 84.5278 25.2467 84.5278C18.9687 84.5278 12.8271 90.805 13.527 101.737C14.5261 117.4 24.1076 125.589 35.751 125.589C37.8624 125.589 40.042 125.319 42.2499 124.776C53.4207 122.031 56.8436 108.124 50.2877 104.019C50.0859 103.996 49.8841 103.973 49.678 103.945L49.6592 103.943C48.4768 103.789 47.3075 103.562 46.1642 103.198C47.3075 103.561 48.4771 103.788 49.6605 103.942L49.6767 103.944C55.3994 104.688 58.8585 103.745 63.5915 108.421C66.9366 111.727 68.6435 115.952 68.6441 120.379C68.6447 124.901 66.8641 129.634 63.2297 133.811C62.1276 135.078 60.8546 136.295 59.4095 137.438C59.3789 137.462 59.3486 137.486 59.318 137.51C59.318 137.51 59.263 137.547 59.1531 137.614C57.9963 138.322 50.7363 142.4 37.0293 142.4ZM43.9384 102.282C43.9106 102.267 43.8828 102.253 43.8547 102.238C43.5804 102.093 43.3111 101.939 43.0475 101.776C43.3114 101.939 43.5807 102.093 43.8553 102.238C43.8831 102.253 43.9109 102.267 43.9384 102.282ZM43.0431 101.774C43.0409 101.772 43.0381 101.77 43.0359 101.769C43.0384 101.771 43.0406 101.772 43.0431 101.774ZM43.0262 101.763C43.0256 101.763 43.025 101.763 43.0244 101.762C43.0247 101.762 43.0259 101.763 43.0262 101.763Z" fill="#E65C00"/>
<path d="M46.1643 103.198C45.4099 102.958 44.6667 102.659 43.9385 102.282C44.6667 102.659 45.4099 102.958 46.1643 103.198ZM43.0476 101.776C43.0464 101.775 43.0445 101.774 43.0432 101.773C43.0448 101.775 43.046 101.775 43.0476 101.776Z" fill="#A7AAA9"/>
<path d="M42.0323 101.091C42.0314 101.09 42.0302 101.09 42.0292 101.089C42.0305 101.09 42.0311 101.09 42.0323 101.091ZM38.6929 97.9537C35.5827 94.3987 32.9988 89.7526 29.6839 85.6278C29.6838 85.6274 29.6835 85.6271 29.6834 85.6271C29.6838 85.6271 29.683 85.6268 29.6835 85.6271C32.9993 89.7526 35.5827 94.3984 38.6929 97.9537Z" fill="#E0E1DE"/>
<path d="M42.0292 101.089C40.8271 100.205 39.7309 99.1405 38.6929 97.9537C39.7306 99.1399 40.8274 100.205 42.0292 101.089Z" fill="#142228"/>
<path d="M43.0244 101.762C42.6854 101.552 42.3552 101.328 42.0322 101.091C42.3549 101.328 42.6857 101.552 43.0244 101.762Z" fill="#A7AAA9"/>
<path d="M35.7511 125.589C24.1077 125.589 14.5262 117.4 13.527 101.737C12.8272 90.8049 18.9687 84.5277 25.2468 84.5277C26.7482 84.5277 28.2578 84.887 29.6833 85.627C29.6835 85.627 29.6837 85.6273 29.6838 85.6277C34.4032 91.5003 37.6404 98.4281 43.0244 101.762C43.0251 101.763 43.0257 101.763 43.0263 101.763C43.0297 101.765 43.0326 101.767 43.036 101.769C43.0382 101.77 43.041 101.772 43.0432 101.774C43.0444 101.774 43.0463 101.775 43.0476 101.776C43.3112 101.939 43.5805 102.093 43.8548 102.238C43.8829 102.253 43.9107 102.267 43.9385 102.282C44.6667 102.659 45.4098 102.958 46.1643 103.198C47.3076 103.562 48.4769 103.788 49.6593 103.942L49.678 103.945C49.8842 103.973 50.086 103.996 50.2878 104.019C56.8436 108.123 53.4208 122.031 42.25 124.776C40.042 125.319 37.8625 125.589 35.7511 125.589Z" fill="#F86706"/>
<path d="M55.0011 150.244C54.2864 150.07 37.3902 139.416 37.0025 138.602C36.8538 138.294 38.2617 135.743 40.0508 132.709C40.4372 132.053 40.8399 131.379 41.2529 130.696C43.9288 126.262 46.8718 121.619 46.8718 121.619L58.195 128.713L52.2646 137.595L50.9641 139.546C50.9641 139.546 55.6087 146.519 55.9383 147.457C56.2641 148.392 55.7159 150.419 55.0011 150.244Z" fill="#F68C95"/>
<path d="M55.0002 150.244C54.2863 150.07 37.3904 139.417 37.0027 138.603C36.8715 138.331 37.9512 136.316 39.4338 133.761L39.4359 133.761C40.0745 134.804 49.7998 143.751 53.0852 144.675C54.4291 145.053 52.4292 141.778 52.3439 141.639L52.3498 141.645C53.745 143.779 55.7277 146.855 55.9376 147.457C56.2635 148.392 55.7171 150.419 55.0002 150.244Z" fill="#17282F"/>
<path d="M52.5309 141.91C52.5309 141.91 51.0698 140.537 48.1477 141.615L52.5309 141.91Z" fill="#17282F"/>
<path d="M66.2423 114.673C64.9968 120.012 53.2296 137.606 53.2296 137.606L41.1514 129.793L49.8115 117.161C49.8115 117.161 32.8901 118.672 26.5453 115.776C19.7719 112.684 21.0205 104.495 21.0205 104.495L37.7832 103.017C37.7832 103.017 38.1771 104.602 40.0583 104.514C46.5426 104.207 55.3558 104.72 58.7405 105.192C63.1071 105.803 67.3853 109.774 66.2423 114.673Z" fill="#273E47"/>
<path d="M53.7638 112.778C53.3499 113.122 53.0019 113.569 52.6357 113.963C52.2484 114.379 51.8557 114.79 51.4687 115.207L51.4574 115.22C51.5311 115.094 51.6036 114.967 51.6795 114.842C51.94 114.416 52.1587 113.97 52.4567 113.567L52.4186 113.538C52.114 113.937 51.7692 114.312 51.4999 114.737C51.3734 114.938 51.2522 115.141 51.1372 115.348C51.0744 115.462 51.0104 115.575 50.9526 115.692C50.926 115.745 50.8939 115.801 50.8723 115.859C50.6983 116.052 50.5259 116.248 50.3575 116.447C49.9839 116.888 49.6462 117.36 49.2688 117.798L49.3069 117.826C49.6852 117.417 50.1016 117.043 50.4852 116.637C50.8757 116.225 51.2497 115.799 51.6198 115.369C51.981 114.949 52.3358 114.524 52.6967 114.103C53.06 113.68 53.482 113.269 53.7891 112.802L53.7638 112.778Z" fill="#17282F"/>
<path d="M54.107 134.743C53.7943 134.489 53.4563 134.255 53.129 134.018C52.805 133.784 52.4807 133.551 52.1543 133.319C51.4867 132.846 50.8095 132.385 50.1338 131.922C48.7783 130.993 47.4085 130.081 46.0405 129.168C45.2739 128.657 44.4964 128.16 43.7257 127.654L43.7051 127.678C45.0143 128.637 46.3282 129.587 47.6574 130.522C49.002 131.467 50.3596 132.396 51.7357 133.301C52.1174 133.553 52.5029 133.799 52.8906 134.043C53.283 134.289 53.6738 134.549 54.0814 134.773L54.107 134.743Z" fill="#17282F"/>
<path d="M23.3009 105.081C23.0868 107.239 23.6658 109.494 25.0038 111.197C25.6701 112.047 26.5056 112.761 27.4429 113.297C28.3673 113.855 29.4279 114.139 30.4795 114.382C32.5993 114.836 34.7689 115.041 36.9363 115.153C39.1055 115.258 41.2804 115.256 43.4499 115.158C45.6182 115.059 47.7878 114.88 49.9248 114.509C50.4584 114.414 50.9898 114.307 51.5149 114.177C51.777 114.112 52.0382 114.042 52.2962 113.963C52.548 113.888 52.8144 113.779 53.1031 113.754C53.2465 113.741 53.3967 113.739 53.5498 113.789C53.7032 113.833 53.8494 113.979 53.8813 114.142C53.9 114.221 53.9066 114.3 53.9006 114.375C53.8975 114.459 53.8653 114.542 53.8391 114.603C53.7829 114.735 53.7185 114.856 53.6529 114.977C53.3852 115.457 53.0934 115.916 52.8001 116.376C50.4237 120.026 47.8912 123.564 45.3533 127.099C46.5935 125.311 47.824 123.517 49.0433 121.716C50.2653 119.916 51.4868 118.116 52.6483 116.279C52.9356 115.819 53.2227 115.357 53.4805 114.884C53.5432 114.765 53.6067 114.646 53.6563 114.527C53.6826 114.463 53.7004 114.417 53.7023 114.364C53.7073 114.303 53.7004 114.245 53.6882 114.192C53.6463 113.973 53.3746 113.924 53.1237 113.955C52.8669 113.977 52.6239 114.077 52.3562 114.159C52.0941 114.239 51.8301 114.311 51.5649 114.378C51.0344 114.511 50.499 114.621 49.962 114.718C47.8118 115.098 45.636 115.287 43.4602 115.39C41.2829 115.481 39.1018 115.477 36.9253 115.364C34.7514 115.242 32.5721 115.04 30.4403 114.555C29.3832 114.3 28.3102 114.002 27.3694 113.422C26.4241 112.869 25.5793 112.137 24.9151 111.266C24.2514 110.393 23.7837 109.38 23.5171 108.323C23.2539 107.266 23.1655 106.16 23.3009 105.081Z" fill="#17282F"/>
<path d="M39.0176 150.964C38.3547 150.644 24.0468 136.706 23.837 135.829C23.7556 135.497 25.6641 133.295 28.0457 130.7C28.5599 130.139 29.0943 129.563 29.6405 128.982C33.181 125.202 37.0261 121.273 37.0261 121.273L46.624 130.569L38.9745 138.022L37.2963 139.659C37.2963 139.659 40.3874 147.446 40.5146 148.432C40.6383 149.415 39.6802 151.283 39.0176 150.964Z" fill="#F68C95"/>
<path d="M39.0167 150.963C38.3548 150.644 24.0471 136.706 23.8372 135.83C23.7657 135.536 25.2412 133.79 27.2231 131.6H27.2254C27.6327 132.754 35.2821 143.53 38.3032 145.118C39.5387 145.767 38.2648 142.147 38.2101 141.993L38.2148 142C39.1348 144.378 40.4337 147.8 40.514 148.432C40.638 149.414 39.6812 151.284 39.0167 150.963Z" fill="#17282F"/>
<path d="M38.3366 142.297C38.3366 142.297 37.1932 140.65 34.1108 141.096L38.3366 142.297Z" fill="#17282F"/>
<path d="M58.7054 115.698C57.4596 121.037 42.5923 135.342 40.8754 136.981C40.6224 137.223 40.4846 137.354 40.4846 137.354L30.2911 127.795L30.4342 127.644L38.6443 119.138C38.6443 119.138 26.285 122.907 21.2748 115.186C19.2817 112.115 21.0204 104.495 21.0204 104.495L34.4848 103.364C34.4848 103.364 34.6432 105.667 36.5244 105.579C43.009 105.272 48.1094 104.949 51.4942 105.42C55.8608 106.032 59.8481 110.799 58.7054 115.698Z" fill="#273E47"/>
<path d="M36.8904 105.561C41.0633 105.29 45.2456 105.072 49.4341 105.206C49.9577 105.226 50.4812 105.256 51.0045 105.304C51.5274 105.354 52.0504 105.418 52.5683 105.55C52.8304 105.617 53.0766 105.726 53.3165 105.83C53.5583 105.937 53.7957 106.053 54.0278 106.179C54.4929 106.428 54.9403 106.71 55.3636 107.026C56.2117 107.654 56.9702 108.411 57.5715 109.284C58.1745 110.154 58.614 111.142 58.8364 112.18C58.9476 112.699 59.0048 113.229 59.0138 113.759C59.0204 113.891 59.0138 114.023 59.0117 114.156C59.0117 114.288 59.0029 114.421 58.9907 114.556C58.9623 114.822 58.9114 115.085 58.8467 115.343C58.5737 116.372 58.101 117.323 57.5847 118.237C56.5341 120.058 55.2727 121.74 53.9497 123.362C52.6227 124.982 51.2275 126.543 49.7955 128.068C48.3579 129.589 46.8809 131.07 45.3849 132.531C46.8541 131.043 48.3036 129.535 49.7118 127.991C51.1251 126.451 52.5033 124.878 53.8101 123.249C55.1071 121.614 56.3688 119.942 57.4 118.132C57.9083 117.227 58.37 116.285 58.6305 115.288C58.6921 115.038 58.7399 114.786 58.7661 114.533C58.7889 114.282 58.7896 114.02 58.7855 113.763C58.7752 113.248 58.7168 112.733 58.6087 112.23C58.3959 111.221 57.973 110.26 57.3882 109.41C56.8053 108.558 56.0664 107.815 55.2371 107.196C54.8234 106.885 54.3852 106.607 53.9297 106.36C53.7026 106.236 53.4699 106.122 53.2337 106.017C52.9957 105.912 52.7607 105.808 52.5161 105.745C52.0207 105.615 51.5021 105.552 50.9854 105.497C50.4678 105.445 49.9474 105.41 49.4263 105.384C47.3411 105.286 45.249 105.305 43.1594 105.346C41.0692 105.384 38.979 105.456 36.8904 105.561Z" fill="#17282F"/>
<path d="M43.1212 114.094C42.707 114.438 42.3593 114.886 41.9932 115.279C41.6058 115.695 41.2128 116.107 40.8261 116.523L40.8145 116.536C40.8882 116.41 40.961 116.283 41.0369 116.159C41.2975 115.732 41.5161 115.286 41.8142 114.883L41.776 114.854C41.4715 115.254 41.1266 115.628 40.8573 116.054C40.7308 116.254 40.6096 116.457 40.4946 116.665C40.4318 116.778 40.3678 116.892 40.3097 117.008C40.2835 117.061 40.2513 117.117 40.2297 117.175C40.0557 117.369 39.8833 117.564 39.7149 117.763C39.3413 118.204 39.0036 118.677 38.6262 119.114L38.664 119.143C39.0426 118.734 39.4591 118.359 39.8427 117.954C40.2328 117.542 40.6071 117.115 40.977 116.685C41.3381 116.265 41.6933 115.84 42.0541 115.42C42.4174 114.996 42.8394 114.585 43.1462 114.119L43.1212 114.094Z" fill="#17282F"/>
<path d="M41.896 134.96C41.6305 134.657 41.3368 134.37 41.0538 134.081C40.7739 133.796 40.4934 133.511 40.2106 133.228C39.6324 132.649 39.0423 132.081 38.4541 131.511C37.2742 130.367 36.0777 129.237 34.8825 128.107C34.2132 127.474 33.5302 126.853 32.8557 126.225L32.8313 126.246C33.9606 127.411 35.0956 128.569 36.2486 129.714C37.4148 130.871 38.5971 132.016 39.8011 133.14C40.135 133.452 40.4737 133.759 40.8148 134.065C41.16 134.374 41.5014 134.695 41.8657 134.986L41.896 134.96Z" fill="#17282F"/>
<path d="M22.8186 105.29C22.5373 106.454 22.42 107.657 22.4534 108.851C22.4938 110.043 22.7041 111.238 23.1785 112.329C23.6485 113.419 24.4177 114.376 25.3958 115.044C26.3672 115.727 27.5329 116.066 28.7034 116.247C29.8797 116.424 31.078 116.442 32.2691 116.387C33.4613 116.331 34.6499 116.194 35.8304 116.011C38.1911 115.643 40.5322 115.109 42.8186 114.418L42.9051 114.392L42.9414 114.468C43.0835 114.77 43.1435 115.077 43.1672 115.394C43.1888 115.709 43.1591 116.028 43.0819 116.333C43.0051 116.639 42.8842 116.929 42.7308 117.204C42.5643 117.477 42.3697 117.712 42.1747 117.951C41.3828 118.887 40.5359 119.767 39.6875 120.645C38.8381 121.522 37.9737 122.384 37.1015 123.238C36.23 124.093 35.3537 124.943 34.4711 125.786C35.3356 124.924 36.1937 124.056 37.0465 123.183C37.8975 122.309 38.7472 121.433 39.5875 120.549C40.4241 119.662 41.2607 118.772 42.0342 117.835C42.2229 117.599 42.4147 117.359 42.563 117.108C42.7024 116.849 42.818 116.572 42.8886 116.285C43.0291 115.717 42.996 115.084 42.7586 114.566L42.8814 114.616C40.5819 115.319 38.2405 115.866 35.8657 116.24C34.678 116.42 33.4813 116.552 32.279 116.605C31.0777 116.655 29.8671 116.632 28.6724 116.448C27.4852 116.264 26.2857 115.905 25.2952 115.188C24.2983 114.491 23.5206 113.497 23.0552 112.382C22.581 111.266 22.3943 110.052 22.3795 108.852C22.3709 107.651 22.5134 106.449 22.8186 105.29Z" fill="#17282F"/>
<path d="M28.5747 105.296C28.4319 105.923 28.2533 106.543 28.0585 107.156C27.8852 107.702 27.6871 108.262 27.3151 108.708C26.965 109.128 26.4805 109.409 25.9869 109.628C25.6967 109.756 25.3965 109.862 25.0934 109.955C24.7935 110.047 24.4609 110.118 24.1788 110.255C24.1255 110.281 24.134 110.371 24.1981 110.375C24.5274 110.394 24.8884 110.327 25.2109 110.263C25.5326 110.199 25.8508 110.117 26.1579 110.001C26.7136 109.79 27.2265 109.446 27.6084 108.989C28.0124 108.506 28.193 107.902 28.3495 107.303C28.5208 106.647 28.6165 105.981 28.6578 105.305C28.6612 105.25 28.5864 105.245 28.5747 105.296Z" fill="#17282F"/>
<path d="M33.3798 71.7345C33.3798 71.7345 30.7662 69.9958 28.2085 71.3094C25.6508 72.623 24.186 76.2579 24.3455 79.4225C24.505 82.587 21.7836 84.4444 21.3164 86.7471C20.8492 89.05 22.2874 90.2512 22.6996 91.5135C23.1715 92.9586 20.4133 97.7285 26.2997 99.3711C33.6607 101.425 36.9008 97.0609 36.4504 93.1945C36.2298 91.3008 35.2908 89.8907 35.4342 88.3849C35.5772 86.8792 36.7415 85.7655 36.3429 83.8084C35.944 81.8516 35.1867 82.0509 35.1299 79.0248C35.073 75.999 35.9861 72.4627 33.3798 71.7345Z" fill="#17282F"/>
<path d="M28.7316 71.2802C27.0249 72.2026 25.6937 73.5822 24.8451 75.2444C24.4152 76.0863 24.1229 76.9881 23.9877 77.9153C23.8102 79.1321 23.9033 80.2923 23.3505 81.4416C22.4653 83.2828 20.8772 84.7492 20.7722 86.8722C20.7238 87.8515 20.9528 88.8352 21.4444 89.7087C22.0123 90.7183 22.8707 91.549 23.3275 92.618C23.3463 92.662 23.4154 92.6305 23.398 92.5867C23.0221 91.6389 22.3477 90.8833 21.8064 90.0186C21.1584 88.9833 20.8423 87.79 20.9747 86.5988C21.1979 84.5911 22.7626 83.1619 23.5852 81.3825C23.9574 80.5772 24.0429 79.7744 24.0876 78.9022C24.1404 77.871 24.3331 76.8713 24.7247 75.9063C25.4969 74.0036 26.9388 72.4232 28.7505 71.307L28.7316 71.2802Z" fill="#17282F"/>
<path d="M36.468 92.6534C36.3536 91.7381 35.95 90.8834 35.8363 89.9715C35.6992 88.8732 36.0603 87.8204 36.3533 86.7774C36.7716 85.2891 36.8556 83.8581 36.3052 82.3792C35.9494 81.423 35.4939 80.518 35.2534 79.523C34.9929 78.4453 34.8882 77.3282 34.9498 76.2261L34.9104 76.2229C34.7658 77.843 34.9426 79.4034 35.5299 80.9419C35.8672 81.8257 36.3093 82.666 36.4683 83.6032C36.6595 84.7296 36.462 85.7865 36.1784 86.877C35.9894 87.6036 35.7726 88.3384 35.7167 89.09C35.6586 89.8719 35.8482 90.5841 36.0644 91.3361C36.6245 93.2844 36.4539 95.2194 35.562 97.04C35.5467 97.0715 35.6023 97.0993 35.6192 97.0681C36.3468 95.7089 36.6588 94.1829 36.468 92.6534Z" fill="#17282F"/>
<path d="M21.1376 86.4614C21.3405 84.8092 22.5881 83.7783 23.4074 82.3988C24.0265 81.3566 24.4818 80.2267 24.4047 79.0159L24.3673 79.0174C24.3149 80.7568 23.4589 82.2672 22.3811 83.6383C21.6646 84.5502 21.061 85.4336 20.9597 86.5935C20.8605 87.7297 21.236 88.725 21.8061 89.7187C22.2125 90.4272 22.6152 91.0898 22.7452 91.8982C22.8746 92.702 22.7632 93.5267 22.659 94.3239C22.6536 94.3658 22.7215 94.3705 22.7285 94.3296C22.9404 93.0972 23.0576 91.8942 22.5261 90.709C21.873 89.2526 20.9318 88.1402 21.1376 86.4614Z" fill="#17282F"/>
<path d="M36.8519 91.5006C36.6488 90.9108 36.3408 90.3632 36.0312 89.8168C35.4736 88.8325 35.4299 88.0674 35.7319 86.9778L35.691 86.9638C35.3121 87.8503 35.1778 88.6019 35.6492 89.486C36.307 90.7196 36.9581 91.8483 36.9984 93.2597C37.0696 95.765 35.4767 97.9652 33.1004 99.0345C33.0669 99.0498 33.0915 99.097 33.1258 99.0836C35.1106 98.3007 36.5882 96.711 37.0315 94.7292C37.2692 93.6655 37.2102 92.5418 36.8519 91.5006Z" fill="#17282F"/>
<path d="M34.4724 86.3814C41.3012 91.8998 47.6846 98.0008 48.3347 101.256C49.234 105.763 46.5081 107.174 45.2573 107.254C41.851 107.471 34.9122 93.9931 32.4734 88.8355C30.1056 83.8276 32.9728 85.17 34.4724 86.3814Z" fill="#E7E8E5"/>
<path d="M44.4112 107.071C44.5486 107.133 44.683 107.18 44.811 107.211L45.7045 107.18H45.7076C45.8638 107.14 46.0294 107.083 46.2012 107.008L44.4112 107.071ZM42.9367 105.996C42.9898 106.049 43.046 106.099 43.0991 106.146L47.5445 105.99C47.5851 105.94 47.6257 105.887 47.6694 105.831L42.9367 105.996ZM41.9152 104.906C41.9589 104.956 42.0027 105.006 42.0433 105.056L48.1973 104.84C48.2161 104.79 48.2348 104.737 48.2536 104.684L41.9152 104.906ZM41.0374 103.809C41.0749 103.863 41.1155 103.913 41.153 103.963L48.466 103.706C48.4754 103.656 48.4785 103.603 48.4847 103.55L41.0374 103.809ZM48.4941 102.426L40.2408 102.713C40.2751 102.766 40.3126 102.816 40.347 102.866L48.5035 102.579C48.5004 102.529 48.4972 102.479 48.4941 102.426ZM48.3442 101.304L39.491 101.613C39.5254 101.663 39.5598 101.713 39.591 101.766L48.3723 101.46C48.366 101.41 48.3535 101.357 48.3442 101.304ZM47.9693 100.192L38.785 100.514C38.8163 100.567 38.8506 100.617 38.8819 100.667L48.0349 100.345C48.0162 100.295 47.9943 100.242 47.9693 100.192ZM47.3633 99.0893L38.1071 99.411C38.1353 99.461 38.1665 99.5141 38.1977 99.5641L47.457 99.2392C47.4257 99.1892 47.3945 99.1393 47.3633 99.0893ZM46.601 97.9897L37.4511 98.3083C37.4792 98.3583 37.5105 98.4114 37.5386 98.4614L46.7135 98.1427C46.6791 98.0928 46.6416 98.0428 46.601 97.9897ZM45.7357 96.8963L36.817 97.2056C36.8451 97.2556 36.8732 97.3087 36.9044 97.3586L45.8607 97.0463C45.8201 96.9963 45.7763 96.9463 45.7357 96.8963ZM44.7829 95.8029L36.1984 96.1028C36.2266 96.1528 36.2547 96.2059 36.2828 96.2559L44.9173 95.9529C44.8735 95.9029 44.8298 95.8529 44.7829 95.8029ZM43.7614 94.7127L35.5955 94.997C35.6205 95.047 35.6486 95.0969 35.6768 95.15L43.9082 94.8626C43.8614 94.8127 43.8114 94.7627 43.7614 94.7127ZM42.6868 93.6256L35.0082 93.8942C35.0332 93.9473 35.0613 93.9973 35.0895 94.0473L42.8399 93.7755C42.7899 93.7255 42.7368 93.6756 42.6868 93.6256ZM41.5622 92.5385L34.4304 92.7884C34.4584 92.8384 34.4834 92.8883 34.5084 92.9414L41.7215 92.6884C41.6684 92.6384 41.6153 92.5884 41.5622 92.5385ZM40.397 91.4545L33.8681 91.6825C33.8931 91.7325 33.9181 91.7825 33.943 91.8356L40.5594 91.6044C40.5063 91.5544 40.4532 91.5045 40.397 91.4545ZM39.1943 90.3705L33.3152 90.5767C33.3402 90.6266 33.3651 90.6766 33.3933 90.7297L39.363 90.5204C39.3067 90.4736 39.2505 90.4205 39.1943 90.3705ZM37.9541 89.2896L32.7779 89.4677C32.7997 89.5177 32.8248 89.5708 32.8496 89.6239L38.1259 89.4396C38.0697 89.3864 38.0134 89.3365 37.9541 89.2896ZM36.6889 88.2087L32.2561 88.3618C32.2811 88.4118 32.3029 88.4649 32.328 88.518L36.867 88.3587C36.8076 88.3087 36.7483 88.2587 36.6889 88.2087ZM35.3862 87.1279L31.8219 87.2528C31.8407 87.3028 31.8563 87.3528 31.875 87.4059L35.5705 87.2778C35.5112 87.2278 35.4487 87.1779 35.3862 87.1279ZM34.2367 86.1969L31.5908 86.2907C31.5844 86.2376 31.5782 86.1876 31.5752 86.1376L34.0337 86.0501C34.1024 86.1001 34.1711 86.1501 34.2367 86.1969Z" fill="#D4D6D3"/>
<path d="M39.7583 104.413L38.5946 98.686C38.5946 98.686 40.7767 96.225 39.4909 93.7999C38.8414 92.5713 34.5229 86.6296 32.2912 85.1867C30.1979 83.8334 27.8395 85.1333 27.0044 86.7318C24.8966 90.7656 22.9257 95.3825 22.0269 105.177L39.7583 104.413Z" fill="#E7E8E5"/>
<path d="M39.6472 103.859L22.0972 104.472C22.0909 104.525 22.0847 104.578 22.0815 104.631L39.6784 104.016L39.6472 103.859ZM39.4192 102.741L22.2159 103.344C22.2097 103.394 22.2035 103.447 22.1971 103.5L39.4504 102.897L39.4192 102.741ZM39.1911 101.626L22.3503 102.213C22.344 102.266 22.3377 102.316 22.3315 102.369L39.2255 101.779L39.1911 101.626ZM38.9662 100.508L22.5033 101.082C22.4971 101.135 22.4876 101.185 22.4814 101.239L38.9974 100.661L38.9662 100.508ZM38.7381 99.3892L22.6783 99.9515C22.6689 100.005 22.6595 100.055 22.6532 100.108L38.7694 99.5454L38.7381 99.3892ZM22.8719 98.8175C22.8625 98.8706 22.8531 98.9237 22.8407 98.9768L38.8069 98.4177C38.8412 98.3708 38.8787 98.3177 38.9193 98.2583L22.8719 98.8175ZM23.0906 97.6867C23.0782 97.7398 23.0688 97.7898 23.0594 97.8429L39.4754 97.2681C39.4973 97.2181 39.5191 97.165 39.541 97.1119L23.0906 97.6867ZM23.3373 96.5527C23.3217 96.6058 23.3125 96.6589 23.2999 96.7089L39.8315 96.131C39.8409 96.081 39.8503 96.0279 39.8565 95.9748L23.3373 96.5527ZM39.8503 94.8502L23.6123 95.4156C23.5966 95.4687 23.5842 95.5187 23.5716 95.5749L39.8721 95.0032C39.8659 94.9533 39.8565 94.9001 39.8503 94.8502ZM39.491 93.8005L39.4566 93.7381L23.9184 94.2816C23.9028 94.3347 23.8904 94.3878 23.8748 94.4409L39.5379 93.8911C39.5222 93.8599 39.5066 93.8318 39.491 93.8005ZM38.7506 92.6353L24.2652 93.1445C24.2464 93.1976 24.2308 93.2476 24.2152 93.3007L38.8569 92.7884C38.8225 92.7384 38.7881 92.6884 38.7506 92.6353ZM37.979 91.5388L24.6525 92.0043C24.6337 92.0543 24.6119 92.1105 24.5933 92.1636L38.0884 91.6919C38.0509 91.6419 38.0134 91.5888 37.979 91.5388ZM37.1606 90.4423L25.0805 90.8641C25.0587 90.9172 25.0398 90.9703 25.018 91.0234L37.2762 90.5954C37.2387 90.5454 37.1981 90.4923 37.1606 90.4423ZM36.3046 89.3459L25.5585 89.7207C25.5335 89.7738 25.5116 89.8269 25.4866 89.88L36.4265 89.4989C36.3859 89.4489 36.3452 89.399 36.3046 89.3459ZM35.4049 88.2525L26.0801 88.5805C26.0551 88.6305 26.0302 88.6836 26.0052 88.7367L35.533 88.4056C35.4893 88.3525 35.4487 88.3025 35.4049 88.2525ZM34.446 87.1591L26.6424 87.434C26.6144 87.4871 26.5894 87.5402 26.5613 87.5933L34.5834 87.3122C34.5365 87.2622 34.4896 87.2091 34.446 87.1591ZM33.3776 86.072L27.2828 86.2876C27.2422 86.3407 27.2079 86.3938 27.1735 86.4469L33.5369 86.222C33.4838 86.172 33.4307 86.122 33.3776 86.072ZM32.2156 85.1442L28.345 85.2785C28.4325 85.2192 28.523 85.163 28.6167 85.113L31.9563 84.9974C32.0438 85.038 32.1311 85.088 32.2156 85.1442Z" fill="#D4D6D3"/>
<path d="M35.8576 98.057C34.9445 98.2092 34.0299 98.3932 33.1479 98.679C32.709 98.8214 32.2798 98.9829 31.8517 99.1544C31.6383 99.2397 31.4234 99.3178 31.207 99.395C30.9848 99.474 30.7459 99.5499 30.51 99.5721L30.5126 99.6052C30.7428 99.5971 30.9634 99.5887 31.1912 99.5499C31.4076 99.5131 31.6216 99.4528 31.8312 99.3872C32.2776 99.2472 32.7172 99.0863 33.1621 98.9417C34.0598 98.6499 34.957 98.3588 35.8739 98.1323C35.916 98.1217 35.9007 98.0498 35.8576 98.057Z" fill="#17282F"/>
<path d="M38.1879 98.7309C37.4273 98.7015 36.6535 98.7078 35.8937 98.7646C35.5117 98.793 35.1343 98.8436 34.756 98.9043C34.5755 98.9333 34.3954 98.9655 34.2159 98.9998C34.0182 99.038 33.8254 99.1023 33.6274 99.1373L33.63 99.1704C33.8178 99.1429 34.0108 99.1467 34.2 99.1301C34.39 99.1139 34.5798 99.0957 34.7698 99.0792C35.1502 99.0461 35.5307 99.017 35.9109 98.9802C36.6719 98.9064 37.4301 98.8408 38.1929 98.7937C38.2345 98.7909 38.2276 98.7324 38.1879 98.7309Z" fill="#17282F"/>
<path d="M39.0512 100.933C38.8669 100.178 38.6861 99.4225 38.5192 98.664C41.0059 95.9737 39.4452 93.716 37.682 91.2244C37.1338 90.4631 36.5674 89.7137 35.9839 88.9758C36.6268 89.6631 37.2341 90.3834 37.8092 91.1297C38.6492 92.2625 39.5445 93.4252 39.9419 94.8053C40.2714 96.232 39.6973 97.7612 38.6404 98.7374L38.6623 98.6721C38.8023 99.4237 38.9285 100.178 39.0512 100.933Z" fill="#17282F"/>
<path d="M36.8291 89.4848C37.1868 89.8506 37.4248 90.3279 37.4898 90.8362C37.224 90.4035 37.0059 89.9643 36.8291 89.4848Z" fill="#17282F"/>
<path d="M26.7476 86.1462C20.8287 91.2204 15.1642 99.7936 15.3188 104.445C15.4714 109.038 17.0514 108.524 17.5042 108.475C20.2702 108.175 26.2544 95.1184 28.0199 89.8252C29.7725 84.5702 28.2112 84.8913 26.7476 86.1462Z" fill="#E7E8E5"/>
<path d="M16.1617 108.055C16.2085 108.114 16.2586 108.164 16.3054 108.208L18.2673 108.139C18.339 108.092 18.4079 108.036 18.4828 107.973L16.1617 108.055ZM15.64 106.949C15.6556 107.002 15.6713 107.055 15.6869 107.105L19.4544 106.971C19.498 106.921 19.5417 106.868 19.5855 106.811L15.64 106.949ZM15.4245 105.83C15.4308 105.884 15.437 105.934 15.4464 105.984L20.3259 105.815C20.3603 105.762 20.3978 105.709 20.4352 105.656L15.4245 105.83ZM15.3276 104.709C15.3308 104.762 15.3339 104.815 15.337 104.865L21.0788 104.665C21.1131 104.612 21.1443 104.559 21.1818 104.506L15.3276 104.709ZM15.3527 103.581C15.3464 103.634 15.3401 103.687 15.337 103.741L21.7691 103.516C21.8003 103.463 21.8316 103.409 21.8628 103.356L15.3527 103.581ZM15.5431 102.45C15.5275 102.504 15.5183 102.554 15.5057 102.607L22.4189 102.366C22.4501 102.313 22.4782 102.26 22.5094 102.207L15.5431 102.45ZM15.8587 101.313C15.8399 101.366 15.8212 101.42 15.8087 101.473L23.0343 101.22C23.0625 101.166 23.0905 101.113 23.1186 101.06L15.8587 101.313ZM16.271 100.176C16.2492 100.229 16.2274 100.282 16.2085 100.332L23.6216 100.073C23.6496 100.02 23.6747 99.9669 23.7029 99.9169L16.271 100.176ZM16.7678 99.0329C16.7428 99.086 16.7178 99.1391 16.6959 99.1922L24.1871 98.9298C24.2151 98.8767 24.2402 98.8236 24.2652 98.7705L16.7678 99.0329ZM17.3394 97.8864C17.3113 97.9395 17.2833 97.9926 17.2551 98.0457L24.7338 97.7833C24.7586 97.7302 24.7837 97.6802 24.8087 97.6271L17.3394 97.8864ZM17.9735 96.7368C17.9423 96.7899 17.9111 96.8461 17.883 96.8992L25.2616 96.64C25.2867 96.5869 25.3117 96.5337 25.3335 96.4806L17.9735 96.7368ZM18.6734 95.5872C18.639 95.6403 18.6045 95.6934 18.5733 95.7465L25.7739 95.4966C25.7989 95.4435 25.8208 95.3904 25.8428 95.3373L18.6734 95.5872ZM19.4231 94.4376C19.3887 94.4907 19.3513 94.5469 19.3138 94.6L26.2645 94.3564C26.2893 94.3033 26.3113 94.2502 26.3332 94.1971L19.4231 94.4376ZM20.2353 93.2849C20.1977 93.338 20.1572 93.3911 20.1196 93.4442L26.7423 93.213C26.7643 93.1599 26.7861 93.1068 26.808 93.0537L20.2353 93.2849ZM21.1037 92.129C21.0632 92.1821 21.0225 92.2353 20.9819 92.2884L27.1985 92.0697C27.2203 92.0166 27.2391 91.9666 27.2578 91.9135L21.1037 92.129ZM22.0408 90.9701C21.994 91.0232 21.9503 91.0763 21.9066 91.1294L27.6326 90.9295C27.6514 90.8764 27.6702 90.8264 27.6889 90.7733L22.0408 90.9701ZM23.0405 89.808C22.9936 89.8611 22.9437 89.9173 22.8969 89.9704L28.0295 89.7924C28.0481 89.7393 28.0669 89.6862 28.0826 89.633L23.0405 89.808ZM24.1152 88.649C24.0621 88.7021 24.0121 88.7552 23.959 88.8083L28.3793 88.6553C28.398 88.6022 28.4106 88.5491 28.4262 88.4959L24.1152 88.649ZM25.2804 87.4807C25.2242 87.5338 25.1679 87.59 25.1117 87.6431L28.6605 87.5182C28.6699 87.4651 28.6791 87.412 28.6885 87.362L25.2804 87.4807ZM28.7948 86.3873L26.3738 86.4717C26.4363 86.4186 26.4988 86.3654 26.5581 86.3123L28.7916 86.2342C28.7948 86.2842 28.7979 86.3342 28.7948 86.3873Z" fill="#D4D6D3"/>
<path d="M21.0369 104.731C21.3334 104.139 21.6396 103.553 21.9268 102.956L22.8076 101.178C23.3883 99.9904 23.9792 98.8077 24.541 97.6106C25.126 96.4251 25.6835 95.2264 26.238 94.0268C26.517 93.4277 26.7897 92.8257 27.0521 92.219C27.3263 91.6171 27.573 91.0045 27.8254 90.3916C27.4569 91.6652 26.9713 92.9022 26.4641 94.1262C25.9548 95.3501 25.3935 96.551 24.83 97.7499C24.2429 98.9376 23.6551 100.125 23.0263 101.291C22.397 102.456 21.7512 103.615 21.0369 104.731Z" fill="#17282F"/>
<path d="M27.2434 91.9585C27.3465 91.737 27.4711 91.5405 27.5954 91.3425C27.6609 91.2456 27.722 91.1466 27.7913 91.0516C27.8598 90.9557 27.9242 90.8579 28.0035 90.7636C27.9647 91.006 27.858 91.2272 27.7303 91.4293C27.5974 91.6289 27.4434 91.816 27.2434 91.9585Z" fill="#17282F"/>
<path d="M46.1271 94.6177C45.7129 92.4763 44.9413 89.4992 44.1359 88.9104C43.2909 88.2925 40.2332 86.2388 39.3685 85.9905C38.5042 85.7424 34.643 84.5063 33.9696 84.9458C33.4303 85.2979 34.1683 86.7258 36.0066 87.33C37.6226 87.8614 38.4679 88.3921 38.9312 88.5636C39.4035 88.7382 40.5937 90.1724 40.3266 90.8503C40.1689 91.2495 39.0596 91.7681 38.3373 91.487C37.6151 91.2061 37.3655 89.8197 36.5242 89.2046C35.6833 88.5895 34.2665 88.7461 34.205 89.1344C34.1434 89.5223 34.6224 89.6763 35.4199 90.9415C35.9326 91.7553 36.0725 93.7662 37.2106 95.1522C37.7825 95.8486 38.8153 97.7285 38.8153 97.7285L46.1271 94.6177Z" fill="#F68C95"/>
<path d="M35.7404 88.6504C35.4883 88.6073 35.2137 88.5464 35.0188 88.3693C34.9363 88.2943 34.8707 88.1993 34.8432 88.0903C34.8285 88.0328 34.8235 87.9694 34.8282 87.9104C34.8323 87.8557 34.8432 87.7713 34.8882 87.7345L34.8729 87.722C34.8585 87.7548 34.8307 87.781 34.8126 87.8113C34.797 87.8373 34.7857 87.866 34.7763 87.8947C34.7576 87.9528 34.7514 88.0113 34.7557 88.0722C34.7654 88.2043 34.8257 88.3268 34.9154 88.4233C35.1287 88.652 35.4421 88.6985 35.7398 88.6717L35.7404 88.6504Z" fill="#17282F"/>
<path d="M44.136 88.9102C43.3931 87.8703 41.5344 86.0225 39.7606 85.4483C38.562 85.0603 34.6237 87.2449 34.783 88.0115C34.942 88.7778 35.6324 88.7437 36.6486 88.5675C37.0188 88.5032 38.9516 87.6906 39.3092 88.0861C39.8237 88.6547 40.5451 90.6521 40.5451 90.6521L44.136 88.9102Z" fill="#F68C95"/>
<path d="M34.8669 87.7041C35.3224 86.8503 36.3967 86.3505 37.4704 85.9434L37.4816 85.969C37.208 86.0728 35.4714 86.9868 34.8798 87.7166L34.8669 87.7041Z" fill="#17282F"/>
<path d="M44.1358 88.9103C43.393 87.8704 41.5342 86.0226 39.7605 85.4484C38.5618 85.0604 35.4973 87.7504 35.6566 88.517C35.8156 89.2836 36.8112 89.292 37.8874 88.8522C38.2354 88.7097 39.3791 87.8098 39.7367 88.2052C40.2513 88.7735 41.5064 90.1858 41.5064 90.1858L44.1358 88.9103Z" fill="#F68C95"/>
<path d="M40.7795 89.3084C40.6601 89.1447 40.6192 89.0869 40.4971 88.9251C40.3756 88.7639 40.2512 88.6039 40.1182 88.4521C40.0032 88.3209 39.8904 88.175 39.7352 88.0894C39.5865 88.0073 39.4109 87.9954 39.245 88.0198C38.8667 88.0754 38.5362 88.335 38.2235 88.5374C37.8743 88.7633 37.1451 89.1381 36.5697 89.1081C36.4113 89.1 36.2548 89.0819 36.1118 89.0097C36.0187 88.9629 35.8937 88.9051 35.8297 88.8086C35.5594 88.4006 35.8437 87.9036 36.1424 87.5465C36.6994 86.8811 37.4691 86.3788 38.2198 85.9599C38.4041 85.8571 38.5909 85.759 38.7777 85.6609C38.9907 85.5488 39.2125 85.4407 39.4609 85.4254C39.8582 85.4013 40.5311 85.7706 40.7401 85.8818L40.7504 85.8562C40.498 85.7168 39.8661 85.2533 39.2263 85.3201C38.9923 85.3445 38.7796 85.4766 38.5709 85.5803C38.3525 85.6887 38.1373 85.8043 37.9255 85.9246C37.5128 86.1592 37.1123 86.4166 36.7412 86.7131C36.3907 86.993 36.018 87.3182 35.7916 87.7111C35.5954 88.052 35.5563 88.5243 35.7828 88.8592C35.9737 89.1413 36.3517 89.1916 36.5241 89.2047C36.6965 89.2175 36.8599 89.2056 37.0302 89.1728C37.2064 89.1391 37.8446 88.9163 38.1123 88.7929C38.4528 88.6358 38.7533 88.3847 39.106 88.2575C39.2744 88.1966 39.4618 88.1844 39.6265 88.2638C39.7795 88.3375 39.9113 88.4815 40.0332 88.5968C40.3087 88.8576 40.4911 89.0269 40.7217 89.3303C40.7776 89.404 40.8295 89.3771 40.7795 89.3084Z" fill="#17282F"/>
<path d="M44.695 89.8225C44.4157 89.3239 43.8784 87.2353 43.4367 86.6096C42.995 85.9839 41.0147 83.844 40.151 83.9871C39.0654 84.167 40.3078 86.0741 40.9232 86.8542C41.5383 87.6342 41.5149 89.0165 41.5149 89.0165L44.695 89.8225Z" fill="#F68C95"/>
<path d="M40.0546 85.5527C40.2714 85.7986 40.4667 86.0735 40.6578 86.3393C40.839 86.5917 41.0468 86.8401 41.1889 87.1169C41.3317 87.3949 41.4041 87.6973 41.4498 88.005C41.4722 88.1562 41.4851 88.3071 41.4941 88.4598C41.5041 88.6263 41.4982 88.7947 41.5107 88.9606L41.4835 88.9644C41.4544 88.6648 41.3845 88.3586 41.3167 88.0653C41.2464 87.7601 41.1377 87.4574 40.9952 87.1787C40.7097 86.6202 40.3086 86.13 40.0181 85.5746L40.0546 85.5527Z" fill="#17282F"/>
<path d="M41.5136 89.2484C41.6101 89.7676 41.482 90.3046 41.3158 90.7975C41.2293 91.0462 41.1259 91.2889 41.0038 91.5242C40.8807 91.76 40.7317 91.9852 40.5858 92.192C40.2934 92.6116 40.0378 93.0386 39.8598 93.5091C39.6805 93.9777 39.5802 94.48 39.519 94.9951C39.4618 94.4809 39.4834 93.9455 39.6299 93.4338C39.767 92.9196 40.031 92.4429 40.3224 92.0143C40.6236 91.5913 40.8651 91.1699 41.0734 90.7016C41.2702 90.2377 41.4764 89.766 41.5136 89.2484Z" fill="#17282F"/>
<path d="M44.9337 107.11C42.7919 106.914 41.2472 103.412 38.5481 97.2535C38.0742 96.173 43.3496 89.1776 44.1493 90.1535C45.1567 91.3828 48.027 98.3453 48.379 100.261C49.0732 104.038 47.4347 107.339 44.9337 107.11Z" fill="#F68C95"/>
<path d="M39.9814 100.693L46.5594 93.7307C46.5594 93.7307 48.7546 99.3868 48.6753 101.8C48.5962 104.213 47.8749 106.991 44.9847 107.266C42.8211 107.472 39.9814 100.693 39.9814 100.693Z" fill="#E7E8E5"/>
<path d="M44.2175 107.077C44.3331 107.139 44.4486 107.189 44.5642 107.221L45.4702 107.189C45.6826 107.146 45.8825 107.086 46.0668 107.011L44.2175 107.077ZM42.9992 105.993C43.0429 106.046 43.0866 106.096 43.1304 106.143L47.4507 105.993C47.4944 105.94 47.5351 105.89 47.5757 105.834L42.9992 105.993ZM42.1963 104.897C42.2276 104.947 42.2619 104.996 42.2963 105.046L48.113 104.843C48.1348 104.793 48.1536 104.74 48.1755 104.687L42.1963 104.897ZM41.5215 103.794C41.5497 103.844 41.5778 103.894 41.609 103.947L48.4566 103.706C48.466 103.656 48.4785 103.603 48.4878 103.55L41.5215 103.794ZM40.9249 102.691C40.9499 102.741 40.9749 102.791 41.003 102.841L48.6253 102.575C48.6315 102.525 48.6347 102.472 48.6409 102.419L40.9249 102.691ZM48.6659 101.295L40.3813 101.582C40.4032 101.632 40.4282 101.685 40.4563 101.738L48.6722 101.451C48.6722 101.401 48.669 101.348 48.6659 101.295ZM48.5128 100.173L40.197 100.464L40.0439 100.626L48.541 100.329C48.5316 100.279 48.5222 100.226 48.5128 100.173ZM48.2692 99.058L41.2966 99.3016L41.1436 99.4609L48.3067 99.211C48.2942 99.161 48.2817 99.1079 48.2692 99.058ZM47.9724 97.9427L42.3962 98.1364L42.2432 98.2988L48.0161 98.0958C48.0005 98.0458 47.988 97.9927 47.9724 97.9427ZM47.6381 96.8275L43.4959 96.9743L43.3459 97.1336L47.685 96.9806C47.6694 96.9306 47.6538 96.8775 47.6381 96.8275ZM47.2758 95.7154L44.5955 95.8091L44.4424 95.9715L47.3258 95.8716C47.307 95.8185 47.2914 95.7654 47.2758 95.7154ZM46.9384 94.7563L45.5451 94.8063L45.6982 94.6439L46.8853 94.6033C46.9009 94.6533 46.9197 94.7032 46.9384 94.7563Z" fill="#D4D6D3"/>
<path d="M42.3981 105.215C42.1351 104.874 41.8983 104.516 41.6674 104.156C41.4341 103.796 41.2207 103.424 41.0108 103.051C40.8055 102.674 40.6068 102.294 40.4316 101.901C40.2554 101.511 40.0864 101.112 39.9814 100.693C40.1795 101.075 40.3869 101.446 40.5969 101.818L41.2216 102.934C41.4253 103.309 41.6324 103.683 41.827 104.063C42.0242 104.443 42.2203 104.823 42.3981 105.215Z" fill="#17282F"/>
<path d="M41.5093 101.793C41.8264 101.413 42.1772 101.058 42.5164 100.698C42.8557 100.337 43.1987 99.9795 43.5464 99.6265C44.2418 98.9208 44.9403 98.2189 45.6484 97.526C45.8421 97.3364 46.0361 97.1474 46.2332 96.9612C46.4444 96.7619 46.6803 96.5888 46.8889 96.3886L46.9133 96.4136C46.7462 96.5898 46.6031 96.7903 46.4388 96.9703C46.2689 97.1568 46.0945 97.3398 45.9193 97.5213C45.575 97.8777 45.2298 98.2329 44.8828 98.5863C44.189 99.2929 43.4908 99.9967 42.7741 100.68C42.3693 101.066 41.9719 101.467 41.5449 101.829L41.5093 101.793Z" fill="#17282F"/>
<path d="M28.5465 85.539C28.612 85.8877 30.1613 88.2322 32.0739 88.0335C33.1858 87.9179 32.3307 85.7277 32.3307 85.7277L33.1641 82.6457L29.3678 79.9944C29.3678 79.9944 28.5209 85.391 28.5465 85.539Z" fill="#F68C95"/>
<path d="M29.0601 82.0112C29.8358 84.2082 31.548 85.196 32.377 85.5562L33.1649 82.6465L29.3683 79.9944C29.3683 79.9944 29.2289 80.9053 29.0601 82.0112Z" fill="#17282F"/>
<path d="M37.3149 78.1913C37.6473 83.4101 34.5593 84.1989 33.4336 84.2692C32.412 84.3332 28.9251 84.421 28.0553 79.2643C27.1853 74.108 29.5067 72.3034 31.8356 72.0338C34.1646 71.7639 36.9825 72.9725 37.3149 78.1913Z" fill="#F68C95"/>
<path d="M36.1453 77.9629C36.0238 77.9411 35.9151 77.9008 35.797 77.8667C35.6639 77.8283 35.5539 77.8114 35.4605 77.7008C35.4106 77.6415 35.4218 77.5281 35.4749 77.474C35.5986 77.3485 35.7735 77.3547 35.9357 77.3947C36.1119 77.4378 36.2365 77.5159 36.3455 77.6602C36.4511 77.8002 36.3055 77.9917 36.1453 77.9629Z" fill="#17282F"/>
<path d="M32.5613 77.8467C32.6847 77.8398 32.7975 77.8132 32.9187 77.7939C33.0558 77.7723 33.167 77.7692 33.2731 77.6708C33.33 77.6183 33.3328 77.5043 33.2869 77.4443C33.1798 77.304 33.0054 77.289 32.8395 77.3084C32.6594 77.3293 32.5262 77.3915 32.4 77.5211C32.2779 77.647 32.3985 77.8554 32.5613 77.8467Z" fill="#17282F"/>
<path d="M33.226 79.2118L33.1974 79.2424C33.1951 79.5985 33.1322 80.0062 32.8057 80.1121L32.808 80.1321C33.203 80.0918 33.2808 79.5498 33.226 79.2118Z" fill="#17282F"/>
<path d="M32.9226 78.8279C32.3519 78.7626 32.2628 79.9088 32.7916 79.9694C33.3119 80.0294 33.401 78.8829 32.9226 78.8279Z" fill="#17282F"/>
<path d="M32.6928 78.871C32.5876 78.9282 32.4807 79.035 32.359 79.0375C32.2183 79.0406 32.1222 78.9122 32.0398 78.7898L32.0193 78.8013C31.9989 79.0209 32.0659 79.2527 32.2989 79.3036C32.5112 79.3505 32.6806 79.1677 32.7526 78.9513C32.766 78.9113 32.7351 78.8482 32.6928 78.871Z" fill="#17282F"/>
<path d="M35.3761 79.2216L35.4008 79.2554C35.3592 79.6093 35.3711 80.0217 35.6819 80.1669L35.6772 80.1863C35.2902 80.0979 35.2802 79.5503 35.3761 79.2216Z" fill="#17282F"/>
<path d="M35.7249 78.8781C36.2994 78.8834 36.2462 80.0321 35.7139 80.0271C35.1901 80.0221 35.2435 78.8734 35.7249 78.8781Z" fill="#17282F"/>
<path d="M35.9609 78.9648C36.0487 79.0298 36.1333 79.1447 36.2414 79.1569C36.3667 79.171 36.4654 79.051 36.551 78.9354L36.5685 78.9489C36.5641 79.1688 36.481 79.394 36.2683 79.4262C36.074 79.4559 35.9415 79.2609 35.8993 79.0398C35.8915 78.9988 35.9253 78.9386 35.9609 78.9648Z" fill="#17282F"/>
<path d="M33.2545 81.9465C33.3289 82.0396 33.3993 82.1639 33.5263 82.1908C33.6482 82.2161 33.7991 82.1786 33.9172 82.1486L33.9303 82.1686C33.8218 82.2929 33.6183 82.3541 33.4579 82.3051C33.3013 82.2573 33.2392 82.1092 33.2185 81.9583L33.2545 81.9465Z" fill="#17282F"/>
<path d="M34.8252 80.7598C34.8252 80.7598 34.8636 81.2953 34.847 81.5458C34.8455 81.5692 34.7842 81.5764 34.6986 81.5758L34.689 81.5755C34.2423 81.6151 33.8072 81.4333 33.5623 81.0547L33.6018 81.0225C33.9159 81.2865 34.2765 81.373 34.6683 81.4055C34.6905 81.3374 34.5718 80.4902 34.6118 80.4899C34.7496 80.4874 35.0129 80.598 35.1719 80.6561C35.1241 79.5381 34.8976 78.4369 34.867 77.3229C34.8667 77.2832 34.9242 77.2751 34.9336 77.311C35.2525 78.4484 35.3356 79.7339 35.4143 80.8873C35.4256 81.031 34.9226 80.8092 34.8252 80.7598Z" fill="#17282F"/>
<path d="M34.5399 81.4305C34.5399 81.4305 34.3159 81.7182 34.0162 81.8169C33.9057 81.8538 33.7874 81.8663 33.6646 81.8304C33.4122 81.7579 33.4115 81.5245 33.4628 81.3265C33.5044 81.1631 33.5838 81.0238 33.5838 81.0238C33.5838 81.0238 33.9462 81.3796 34.5399 81.4305Z" fill="#17282F"/>
<path d="M34.0162 81.8169C33.9057 81.8538 33.7874 81.8663 33.6646 81.8304C33.4122 81.7579 33.4115 81.5245 33.4628 81.3265C33.7343 81.3605 33.9993 81.5517 34.0162 81.8169Z" fill="#F578BA"/>
<path d="M28.0167 79.3572C28.5961 79.3288 30.1204 77.7522 30.1966 74.9566C30.1966 74.9566 29.9546 77.4623 29.762 77.8281C29.5695 78.1939 30.6145 76.9406 30.7071 74.687C30.7071 74.687 31.9463 75.6017 33.0079 75.9116C34.0695 76.2211 34.721 76.2183 34.7978 76.1421C34.8747 76.0659 33.3133 75.5554 32.8949 75.0622C32.8949 75.0622 35.7131 76.4092 37.0177 76.5229C37.1686 76.536 37.3819 73.4321 35.3776 72.0926C33.3736 70.7531 30.161 72.1423 29.2924 72.9635C29.2924 72.9635 28.2812 73.0963 27.1681 74.5776C26.055 76.059 27.3928 79.3875 28.0167 79.3572Z" fill="#17282F"/>
<path d="M30.7693 74.3977C30.7588 74.3355 30.6632 74.3368 30.6684 74.403C30.7547 75.4673 30.5575 76.3901 30.2241 77.3991L30.2486 77.4082C30.6799 76.426 30.9499 75.4733 30.7693 74.3977Z" fill="#17282F"/>
<path d="M34.3913 76.3065C32.8764 76.111 31.5757 75.6187 30.5734 74.4244C30.5523 74.3991 30.5104 74.4231 30.5291 74.4528C31.3505 75.7558 32.9082 76.3019 34.3868 76.3628C34.4186 76.364 34.4231 76.3106 34.3913 76.3065Z" fill="#17282F"/>
<path d="M34.2194 79.4104L34.093 79.2433C34.3322 79.0443 34.879 78.7812 35.2398 79.2086L35.0851 79.3517C34.7624 78.9684 34.2414 79.3923 34.2194 79.4104Z" fill="#273E47"/>
<path d="M27.125 80.1367L26.9221 80.0667C26.9551 79.9721 27.2553 79.1386 27.7184 78.9927C28.1516 78.8578 31.0371 78.7113 31.1597 78.7053L31.1703 78.9196C30.3429 78.9606 28.1171 79.0921 27.7829 79.1974C27.4771 79.2936 27.2045 79.908 27.125 80.1367Z" fill="#273E47"/>
<path d="M31.1211 78.2643C31.1825 78.7341 31.3557 79.645 31.6555 79.9287C32.0596 80.3111 33.4742 80.3379 33.816 80.0483C33.9796 79.9099 34.1733 79.323 33.9929 79.1059C33.6328 78.6719 31.9165 78.3683 31.1211 78.2643ZM32.3334 80.4251C31.9811 80.366 31.6676 80.2542 31.4988 80.0943C31.0351 79.6553 30.8841 78.2062 30.8778 78.1446L30.8635 78.0037L31.0044 78.02C31.112 78.0325 33.6483 78.3333 34.1683 78.9603C34.4481 79.2973 34.1993 80.0227 33.9633 80.2226C33.6718 80.4691 32.9444 80.5269 32.3334 80.4251Z" fill="#273E47"/>
<path d="M37.1145 78.4078C36.5956 78.4484 35.5775 78.6024 35.3886 78.9748C35.2202 79.3078 35.3439 79.7648 35.4576 79.9167C35.5735 80.0713 35.8728 80.1731 36.1826 80.1638C36.4366 80.1563 36.6378 80.0766 36.7212 79.9507C36.8961 79.6867 37.0495 78.8458 37.1145 78.4078ZM35.8877 80.3706C35.6531 80.3312 35.4117 80.2353 35.2752 80.0532C35.1074 79.8292 34.979 79.28 35.1855 78.872C35.4895 78.2716 37.0633 78.1798 37.2416 78.1713L37.3778 78.1648L37.36 78.3C37.3525 78.356 37.1754 79.6771 36.9111 80.0766C36.7852 80.2668 36.5219 80.3818 36.1895 80.3912C36.0971 80.394 35.993 80.3881 35.8877 80.3706Z" fill="#273E47"/>
<path d="M28.9425 79.2539C28.9425 79.2539 27.839 77.5958 27.089 77.9856C26.3393 78.3755 27.1429 80.7609 28.0049 81.1042C28.8667 81.4478 29.2004 80.6562 29.2004 80.6562L28.9425 79.2539Z" fill="#F68C95"/>
<path d="M27.3364 78.664L27.3313 78.6871C27.9352 78.9479 28.2431 79.5205 28.4543 80.1116C28.2782 79.882 28.0343 79.7526 27.7272 79.9613L27.7429 79.9944C27.9938 79.9466 28.1729 79.9941 28.337 80.1978C28.4532 80.3421 28.5307 80.5233 28.6126 80.6886C28.6398 80.7438 28.7389 80.717 28.7196 80.6536L28.715 80.6395C28.7481 79.8626 28.1691 78.7611 27.3364 78.664Z" fill="#17282F"/>
<path d="M33.8446 87.7704L31.3362 96.8526C31.2326 97.1184 31.3622 97.3393 31.6257 97.3452L36.339 97.452C36.6023 97.458 36.9004 97.2468 37.0038 96.9809L39.5123 87.8985C39.6163 87.6324 39.4863 87.4121 39.223 87.4059L34.5096 87.2993C34.2463 87.2934 33.9485 87.504 33.8446 87.7704Z" fill="#273E47"/>
<path d="M34.4042 87.7779L31.8958 96.8604C31.7922 97.1262 31.9218 97.3471 32.1853 97.353L36.8988 97.4598C37.1618 97.4658 37.4598 97.2546 37.5635 96.9888L40.072 87.9063C40.1757 87.6402 40.0458 87.4196 39.7827 87.4137L35.0694 87.3072C34.8057 87.3009 34.508 87.5118 34.4042 87.7779Z" fill="#33535F"/>
<path d="M35.687 88.2247C35.677 88.4458 35.4899 88.6167 35.269 88.607C35.0478 88.597 34.8767 88.4099 34.8866 88.1891C34.8966 87.9679 35.0838 87.7967 35.3046 87.8067C35.5258 87.8164 35.697 88.0038 35.687 88.2247Z" fill="#17282F"/>
<path d="M16.8668 108.493C18.9314 108.687 21.4211 106.983 27.8478 101.856C28.7372 101.147 25.4188 93.5241 24.4304 94.2326C23.1851 95.1254 18.5461 98.8597 18.2414 99.1758C15.6709 101.84 15.4664 108.361 16.8668 108.493Z" fill="#F68C95"/>
<path d="M22.1611 96.6785C22.1611 96.6785 23.937 93.9463 25.3143 92.7998C27.1587 91.2644 29.383 90.6984 30.3294 90.5175C32.3052 90.1395 37.343 90.5922 37.4661 92.0657C37.5773 93.3999 32.4507 92.6774 32.4507 92.6774C32.4507 92.6774 37.7991 92.5518 37.6376 94.1828C37.4761 95.8138 31.5731 94.6361 31.5731 94.6361C31.5731 94.6361 37.0713 94.6301 36.6386 96.2858C36.3118 97.5369 30.905 96.7719 30.905 96.7719C30.905 96.7719 35.6308 96.7994 35.35 98.1005C35.0398 99.5384 30.0047 99.1451 30.0047 99.1451C28.7344 102.332 26.7588 103.3 25.3165 103.848C24.9673 103.981 22.1611 96.6785 22.1611 96.6785Z" fill="#F68C95"/>
<path d="M30.5982 92.6025C31.2257 92.565 31.861 92.5228 32.4898 92.5409C33.1189 92.5594 33.7476 92.6 34.3719 92.6768C35.9032 92.8655 36.8328 93.2229 36.7729 93.2073C35.3584 92.8327 33.1079 92.7318 32.4787 92.7134C31.8512 92.695 31.2244 92.6453 30.5964 92.6262L30.5982 92.6025Z" fill="#17282F"/>
<path d="M30.4902 94.8719C31.2939 94.8588 32.0911 94.8163 32.8956 94.8384C33.696 94.8606 34.4537 94.9518 35.2505 95.029C35.3118 95.0349 35.2886 95.0662 35.2265 95.0624C34.4273 95.0171 33.6848 95.0368 32.8851 95.0009C32.0882 94.9653 31.2865 94.8978 30.489 94.8912L30.4902 94.8719Z" fill="#17282F"/>
<path d="M30.0474 96.8035C31.2745 96.7204 32.5155 96.8638 33.7293 97.0338C33.7897 97.0422 33.7552 97.0787 33.6928 97.0738C32.4704 96.9741 31.5121 96.8876 30.0502 96.8463L30.0474 96.8035Z" fill="#17282F"/>
<path d="M22.1161 95.6246L25.138 105.038C25.138 105.038 18.3011 109.468 16.7048 108.442C15.1086 107.417 15.8869 101.872 17.5508 99.6997C18.2444 98.7941 22.1161 95.6246 22.1161 95.6246Z" fill="#E7E8E5"/>
<path d="M16.3242 108.049C16.3586 108.105 16.396 108.155 16.4399 108.202L19.3888 108.099C19.5262 108.045 19.6667 107.989 19.8073 107.93L16.3242 108.049ZM15.9306 106.94C15.94 106.993 15.9493 107.046 15.9587 107.096L21.9784 106.883C22.0847 106.827 22.1878 106.771 22.2908 106.718L15.9306 106.94ZM15.8337 105.818C15.8337 105.871 15.8369 105.921 15.8369 105.971L24.0934 105.684C24.1902 105.628 24.2777 105.571 24.362 105.518L15.8337 105.818ZM24.9243 104.375L15.8868 104.69C15.8806 104.744 15.8776 104.797 15.8744 104.847L24.9743 104.528L24.9243 104.375ZM24.5682 103.26L16.0494 103.56C16.04 103.613 16.0306 103.666 16.0212 103.716L24.6151 103.416L24.5682 103.26ZM24.209 102.148L16.3149 102.422C16.2993 102.476 16.2837 102.529 16.2711 102.582L24.2589 102.304L24.209 102.148ZM23.8528 101.035L16.696 101.285C16.6742 101.335 16.6554 101.388 16.6366 101.442L23.9028 101.189L23.8528 101.035ZM23.4967 99.9233L17.2521 100.142C17.2208 100.192 17.1896 100.245 17.1614 100.298L23.5436 100.076L23.4967 99.9233ZM23.1375 98.8081L18.2361 98.9799C18.1799 99.0361 18.1236 99.0892 18.0705 99.1423L23.1875 98.9643L23.1375 98.8081ZM22.7814 97.696L19.5293 97.8116C19.4669 97.8647 19.4044 97.9178 19.3451 97.974L22.8313 97.8522L22.7814 97.696ZM22.472 96.7369L20.707 96.7994C20.7727 96.7432 20.8382 96.687 20.9007 96.637L22.4221 96.5839L22.472 96.7369Z" fill="#D4D6D3"/>
<path d="M22.2166 95.9382L22.1002 95.6296L22.1262 95.6374C21.4873 96.2069 20.8451 96.7713 20.2133 97.3465C19.5769 97.9156 18.947 98.4926 18.3477 99.0958C18.0499 99.397 17.7467 99.6994 17.4955 100.032C17.2422 100.367 17.0267 100.731 16.8334 101.106C16.4543 101.861 16.217 102.686 16.0901 103.533C16.1209 102.677 16.3146 101.82 16.6696 101.028C16.843 100.631 17.0657 100.255 17.321 99.9027C17.5805 99.5476 17.8808 99.2392 18.1786 98.9278C18.7901 98.3224 19.4318 97.7535 20.0848 97.1987C20.7452 96.6526 21.4138 96.1172 22.1056 95.6118L22.1256 95.5971L22.1317 95.6196L22.2166 95.9382Z" fill="#17282F"/>
<path d="M20.6804 98.0544C20.8603 98.5151 21.0023 98.9937 21.1549 99.4642C21.3078 99.9356 21.456 100.408 21.598 100.883C21.8818 101.832 22.1607 102.782 22.4272 103.736C22.5 103.997 22.5724 104.259 22.6406 104.521C22.7136 104.802 22.7518 105.092 22.827 105.371L22.7932 105.381C22.7192 105.149 22.6124 104.928 22.5337 104.697C22.452 104.458 22.3755 104.217 22.3009 103.976C22.1542 103.503 22.009 103.029 21.8664 102.555C21.5812 101.607 21.3004 100.656 21.0465 99.6988C20.9032 99.158 20.7426 98.6167 20.6313 98.0681C20.6247 98.0359 20.6684 98.0241 20.6804 98.0544Z" fill="#17282F"/>
<path d="M25.1378 105.038C25.1866 105.127 25.181 105.052 25.1685 104.997C25.1561 104.942 25.0285 104.485 24.9149 104.202C24.9029 104.172 24.8569 104.123 24.8771 104.226C24.9246 104.467 25.1378 105.038 25.1378 105.038Z" fill="#17282F"/>
<path d="M50.2127 24.8928C50.2127 24.8928 48.5121 38.5087 45.7168 41.5726C42.3614 45.2482 39.9263 44.7109 38.5718 46.6058L38.5687 46.6086C37.2142 44.7109 34.7791 45.251 31.4207 41.5726C28.6255 38.5087 26.9277 24.8928 26.9277 24.8928C34.293 21.3172 38.5687 17.3102 38.5687 17.3102L38.5718 17.313C38.703 17.4361 42.9618 21.3744 50.2127 24.8928Z" fill="#E65C00"/>
<path d="M38.572 46.6057V44.3346C38.572 44.3346 38.572 44.335 38.5723 44.335C39.7169 42.7336 41.7753 43.1904 44.6121 40.0808C46.9731 37.4917 48.4067 25.9895 48.4067 25.9895C42.1851 22.9681 38.5723 19.5837 38.5723 19.5837C38.5723 19.5837 38.572 19.5837 38.572 19.584V17.3129C38.7032 17.436 42.962 21.3743 50.2129 24.8927C50.2129 24.8927 48.5123 38.5086 45.717 41.5725C44.3272 43.0951 43.0951 43.8948 42.0324 44.444C42.0314 44.4443 42.0305 44.4449 42.0292 44.4455C40.6029 45.1822 39.4814 45.468 38.6929 46.4461C38.6517 46.4973 38.6114 46.5504 38.572 46.6057Z" fill="#F86706"/>
<path d="M28.7349 25.9895C28.7349 25.9895 30.1712 37.4917 32.5321 40.0808C35.369 43.1904 37.4274 42.7336 38.5723 44.335C39.7169 42.7336 41.7752 43.1904 44.612 40.0808C46.9731 37.4917 48.4066 25.9895 48.4066 25.9895C42.1851 22.9681 38.5723 19.5837 38.5723 19.5837C38.5723 19.5837 34.9564 22.9681 28.7349 25.9895Z" fill="#E65C00"/>
<path d="M38.5715 44.3367C37.9805 43.5082 37.1449 43.2299 36.0834 42.725C37.1442 43.2296 37.9799 43.5073 38.5715 44.3345V44.3367ZM29.9532 33.0319C29.1692 29.4697 28.7344 25.99 28.7344 25.99C28.7347 25.99 28.7344 25.99 28.7348 25.99C28.7373 26.0106 29.1716 29.48 29.9532 33.0319ZM35.7625 21.8155C37.5878 20.5047 38.5715 19.5829 38.5715 19.5829V19.5841C38.5456 19.6085 37.5631 20.5226 35.7625 21.8155Z" fill="#F86706"/>
<path d="M38.5717 44.3345C37.98 43.5073 37.1443 43.2295 36.0835 42.725C35.0919 42.253 33.9033 41.5833 32.5331 40.0819C31.4703 38.9164 30.5949 35.9468 29.9533 33.0319C29.1717 29.48 28.7374 26.0106 28.7349 25.99C31.7101 24.5455 34.09 23.017 35.7626 21.8155C37.5633 20.5225 38.5457 19.6085 38.5717 19.5841V44.3345Z" fill="#F86706"/>
<path d="M41.5211 35.6809H35.6191V30.3265H41.5211V35.6809Z" fill="white"/>
<path d="M40.931 31.9785H40.3309V29.5878C40.3309 28.6172 39.5415 27.8275 38.5706 27.8275C37.6 27.8275 36.8106 28.6172 36.8106 29.5878V31.9785H36.2104V29.5878C36.2104 28.2864 37.2695 27.2277 38.5706 27.2277C39.8723 27.2277 40.931 28.2864 40.931 29.5878V31.9785Z" fill="white"/>
<path d="M38.8199 33.0699L39.067 34.2419H38.0183L38.2654 33.0699C38.118 32.9765 38.0183 32.814 38.0183 32.6272C38.0183 32.3348 38.2535 32.1027 38.5428 32.1027C38.8321 32.1027 39.067 32.3348 39.067 32.6272C39.067 32.814 38.9677 32.9765 38.8199 33.0699Z" fill="#273E47"/>
</g>
<defs>
<clipPath id="clip0_5394_9335">
<rect width="134.421" height="151" fill="white" transform="translate(3.2356)"/>
</clipPath>
</defs>
</svg>
