<svg width="166" height="176" viewBox="0 0 166 176" fill="none" xmlns="http://www.w3.org/2000/svg">
<g clip-path="url(#clip0_1_50285)">
<path d="M0 79.446V99.6348C0 103.288 2.96222 106.25 6.6152 106.25H78.9968C82.6498 106.25 85.612 103.288 85.612 99.6348V82.5777L94.6216 73.1105L6.63215 72.835C2.9707 72.8223 0 75.7887 0 79.4502L0 79.446Z" fill="#F5F5F5"/>
<path d="M74.9417 85.0655L9.25586 84.7604L9.26434 82.7432L74.9502 83.0441L74.9417 85.0655Z" fill="#E0E0E0"/>
<path d="M74.9417 91.7061L9.25586 91.401L9.26434 89.3838L74.9502 89.6889L74.9417 91.7061Z" fill="#E0E0E0"/>
<path d="M48.961 96.0292L48.9512 98.0464L74.9413 98.1734L74.9511 96.1562L48.961 96.0292Z" fill="#E0E0E0"/>
<path d="M67.0723 149.2V169.389C67.0723 173.042 70.0345 176.004 73.6875 176.004H146.073C149.726 176.004 152.688 173.042 152.688 169.389V152.332L161.698 142.865L73.7087 142.589C70.0472 142.577 67.0765 145.543 67.0765 149.205L67.0723 149.2Z" fill="#F5F5F5"/>
<path d="M142.326 154.294L76.6445 153.989L76.6488 151.972L142.335 152.273L142.326 154.294Z" fill="#E0E0E0"/>
<path d="M142.326 160.935L76.6445 160.634L76.6488 158.612L142.335 158.917L142.326 160.935Z" fill="#E0E0E0"/>
<path d="M116.344 165.258L116.334 167.275L142.324 167.402L142.334 165.385L116.344 165.258Z" fill="#E0E0E0"/>
<path d="M38.6917 3.40316H81.3833C83.498 3.40316 85.2101 5.11523 85.2101 7.2299V28.1138C85.2101 30.2284 83.498 31.9405 81.3833 31.9405H45.1544C43.0397 31.9405 41.3276 30.2284 41.3276 28.1138V6.03907L38.6875 3.39893L38.6917 3.40316Z" fill="#F5F5F5"/>
<path d="M63.4392 23.7021V37.0893C63.4392 39.5133 61.4771 41.4754 59.0531 41.4754H11.0431C8.61904 41.4754 6.65694 39.5133 6.65694 37.0893V25.7743L0.681641 19.4982L59.0404 19.3159C61.4686 19.3075 63.4392 21.2738 63.4392 23.7021Z" fill="#E0E0E0"/>
<path d="M13.7347 27.427L57.2993 27.2278L57.295 25.8887L13.7305 26.0878L13.7347 27.427Z" fill="#F5F5F5"/>
<path d="M13.7347 31.8346L57.2993 31.6311L57.295 30.292L13.7305 30.4954L13.7347 31.8346Z" fill="#F5F5F5"/>
<path d="M30.9696 34.7043L13.7305 34.7886L13.737 36.1277L30.9762 36.0435L30.9696 34.7043Z" fill="#F5F5F5"/>
<path d="M154.386 85.7903V99.1775C154.386 101.602 152.424 103.564 150 103.564H101.99C99.5663 103.564 97.6042 101.602 97.6042 99.1775V87.8626L91.6289 81.5822L149.988 81.3999C152.416 81.3915 154.386 83.3578 154.386 85.786V85.7903Z" fill="#E0E0E0"/>
<path d="M104.682 89.5154L148.247 89.3162L148.242 87.9771L104.678 88.1762L104.682 89.5154Z" fill="#F5F5F5"/>
<path d="M104.682 93.9224L148.247 93.719L148.242 92.3799L104.678 92.5833L104.682 93.9224Z" fill="#F5F5F5"/>
<path d="M121.913 96.7966L104.674 96.8809L104.68 98.22L121.92 98.1357L121.913 96.7966Z" fill="#F5F5F5"/>
<path d="M113.263 152.26C106.089 145.272 105.97 134.466 107.839 125.075C108.148 123.507 108.25 121.816 109.225 120.557C110.199 119.298 112.106 118.637 113.407 119.532C114.488 120.273 114.776 121.718 115.247 122.951C115.874 124.591 116.967 126.045 118.366 127.088C119.285 127.774 120.476 128.295 121.557 127.91C123.04 127.38 123.506 125.528 123.756 123.96C124.218 121.036 124.676 118.108 125.138 115.184C125.384 113.616 125.642 112.014 126.375 110.602C127.108 109.191 128.409 107.988 129.969 107.814C131.528 107.64 133.232 108.801 133.295 110.391C133.321 111.052 133.084 111.692 133.02 112.348C132.956 113.005 133.143 113.777 133.732 114.061C134.33 114.349 135.029 114.005 135.571 113.624C137.449 112.306 138.881 110.446 140.241 108.585C141.602 106.725 142.936 104.814 144.687 103.326C146.437 101.839 148.691 100.805 150.959 101.046C153.226 101.288 155.391 103.063 155.599 105.36C155.807 107.666 154.15 109.696 152.455 111.255C149.937 113.569 147.09 115.514 144.03 117.01C143.479 117.281 142.881 117.569 142.597 118.12C142.085 119.112 142.907 120.311 143.882 120.824C144.988 121.405 146.276 121.489 147.475 121.837C148.674 122.18 149.912 122.939 150.183 124.168C150.565 125.876 148.946 127.338 147.45 128.219C144.449 129.99 141.148 131.236 137.737 131.889C136.516 132.122 135.241 132.292 134.177 132.953C133.113 133.61 132.321 134.927 132.702 136.123C133.084 137.322 134.469 137.911 135.711 137.885C136.957 137.86 138.144 137.381 139.368 137.135C141.657 136.673 144.415 137.279 145.492 139.369C146.2 140.742 146 142.458 145.301 143.844C144.602 145.23 143.466 146.331 142.288 147.332C138.169 150.819 133.215 153.358 127.935 154.273C122.654 155.188 117.942 154.9 113.272 152.269" fill="#E65C00"/>
<path d="M111.992 159.24C112.946 155.553 114.492 151.268 116.671 146.738C118.84 142.199 121.633 137.423 124.723 132.525C125.498 131.304 126.269 130.096 127.024 128.905C127.782 127.719 128.532 126.545 129.342 125.439C130.948 123.223 132.656 121.214 134.342 119.358C136.025 117.502 137.69 115.798 139.258 114.221C140.83 112.645 142.326 111.204 143.742 109.946C146.568 107.424 149.086 105.661 150.866 104.521C151.755 103.949 152.455 103.525 152.938 103.25C153.167 103.118 153.349 103.012 153.484 102.936C153.607 102.868 153.675 102.834 153.675 102.839C153.675 102.843 153.62 102.885 153.497 102.962C153.366 103.046 153.188 103.157 152.963 103.301C152.493 103.597 151.798 104.034 150.921 104.619C149.166 105.784 146.674 107.568 143.873 110.102C142.47 111.365 140.987 112.81 139.423 114.395C137.864 115.98 136.207 117.684 134.533 119.544C132.859 121.4 131.16 123.405 129.566 125.613C128.765 126.71 128.02 127.88 127.261 129.066C126.507 130.257 125.74 131.461 124.96 132.681C121.87 137.576 119.078 142.335 116.9 146.857C114.713 151.37 113.158 155.629 112.179 159.295" fill="#263238"/>
<path d="M129.426 125.443C129.426 125.443 129.393 125.197 129.384 124.748C129.371 124.303 129.376 123.655 129.397 122.854C129.431 121.256 129.554 119.053 129.698 116.62C129.842 114.188 129.931 111.988 129.943 110.395C129.952 109.598 129.948 108.954 129.943 108.509C129.943 108.064 129.943 107.814 129.969 107.814C129.99 107.814 130.02 108.06 130.058 108.505C130.1 108.95 130.13 109.598 130.151 110.395C130.194 111.992 130.138 114.205 129.994 116.637C129.846 119.036 129.71 121.205 129.609 122.862C129.566 123.612 129.532 124.244 129.503 124.748C129.477 125.193 129.452 125.439 129.431 125.439L129.426 125.443Z" fill="#263238"/>
<path d="M150.204 124.977C150.204 124.977 149.907 124.981 149.386 124.943C148.86 124.905 148.102 124.846 147.161 124.799C145.284 124.697 142.682 124.646 139.808 124.714C136.935 124.786 134.337 124.964 132.464 125.147C131.528 125.231 130.769 125.32 130.244 125.38C129.718 125.439 129.43 125.464 129.426 125.443C129.426 125.422 129.71 125.363 130.227 125.265C130.748 125.172 131.502 125.053 132.439 124.939C134.312 124.702 136.918 124.49 139.8 124.418C142.682 124.35 145.288 124.435 147.169 124.591C148.11 124.663 148.869 124.752 149.39 124.829C149.911 124.905 150.199 124.956 150.195 124.977H150.204Z" fill="#263238"/>
<path d="M116.979 146.408C116.979 146.408 116.937 146.319 116.882 146.141C116.822 145.929 116.746 145.67 116.657 145.357C116.466 144.674 116.212 143.678 115.915 142.441C115.322 139.97 114.606 136.538 113.869 132.732C113.131 128.927 112.449 125.49 111.906 123.015C111.639 121.811 111.419 120.82 111.254 120.082C111.186 119.765 111.127 119.498 111.08 119.281C111.042 119.099 111.029 119.002 111.038 118.998C111.046 118.998 111.08 119.087 111.135 119.265C111.194 119.476 111.271 119.735 111.36 120.049C111.55 120.731 111.805 121.727 112.101 122.964C112.695 125.435 113.411 128.867 114.148 132.673C114.886 136.474 115.568 139.911 116.106 142.39C116.373 143.594 116.593 144.585 116.759 145.323C116.826 145.641 116.886 145.908 116.932 146.124C116.971 146.306 116.983 146.403 116.975 146.408H116.979Z" fill="#263238"/>
<path d="M145.183 142.161C145.183 142.161 145.086 142.195 144.899 142.229C144.679 142.263 144.408 142.309 144.077 142.36C143.319 142.475 142.297 142.632 141.056 142.822C138.505 143.212 134.987 143.788 131.101 144.433C127.215 145.077 123.689 145.623 121.13 145.958C119.85 146.128 118.812 146.251 118.095 146.327C117.765 146.357 117.489 146.382 117.269 146.407C117.078 146.42 116.981 146.424 116.977 146.416C116.977 146.407 117.074 146.382 117.261 146.348C117.481 146.314 117.752 146.268 118.083 146.217C118.841 146.102 119.858 145.946 121.104 145.755C123.655 145.365 127.173 144.789 131.059 144.144C134.945 143.5 138.471 142.954 141.03 142.619C142.31 142.449 143.348 142.326 144.065 142.25C144.395 142.22 144.671 142.191 144.891 142.17C145.082 142.157 145.179 142.153 145.183 142.161Z" fill="#263238"/>
<path d="M41.9752 56.969C40.6657 55.9519 40.0809 54.1551 40.3521 52.5193C40.6275 50.8835 41.6828 49.4384 43.0473 48.5019C43.6788 48.0696 44.4628 47.7264 45.2001 47.9425C45.8867 48.1459 46.3655 48.8112 46.5054 49.5147C46.6452 50.2182 46.4927 50.9471 46.2596 51.6251C45.4544 53.9475 44.2509 56.0494 41.9752 56.9732" fill="#2E3333"/>
<path d="M39.8223 60.9355C37.2415 58.5793 33.4741 57.5961 30.0711 58.3843C29.2024 58.5835 28.2277 59.0412 28.0836 59.9226C27.9395 60.8041 28.7277 61.5499 29.499 61.9949C32.707 63.8553 37.055 63.5036 39.924 61.1558" fill="#2E3333"/>
<path d="M27.3839 42.5687C28.8163 42.1746 30.3843 42.5306 31.6514 43.3019C32.9185 44.0731 33.9101 45.2343 34.7026 46.4887C36.2367 48.9127 36.7791 52.1758 36.8469 55.0448C33.6601 54.9177 30.9394 52.4131 29.6384 51.0528C27.5831 48.9085 25.1675 43.7807 27.3839 42.5645" fill="#2E3333"/>
<path d="M44.6452 65.2705C44.4588 64.9315 44.1536 64.6942 43.8485 64.0712C43.251 62.8296 42.4458 61.0582 42.0559 58.9562C41.666 56.85 41.9288 54.8583 42.4543 53.5615C42.7085 52.9089 42.9967 52.4131 43.2256 52.0995C43.4544 51.7816 43.6027 51.6291 43.6197 51.6375C43.6748 51.6714 43.1111 52.341 42.6704 53.6378C42.217 54.9218 41.9966 56.8458 42.3738 58.9011C42.7552 60.9565 43.5137 62.7151 44.0604 63.978" fill="#263238"/>
<path d="M44.675 65.3087C44.247 64.7578 43.6919 64.0374 43.0138 63.1686C41.6196 61.3591 39.6829 58.863 37.5089 56.1339C35.3349 53.409 33.3347 50.9638 31.8811 49.2008C31.1861 48.3491 30.6055 47.6456 30.1648 47.1074C29.7622 46.6116 29.5503 46.3276 29.563 46.3149C29.58 46.3022 29.8258 46.5565 30.258 47.0269C30.6903 47.4973 31.3048 48.1923 32.0506 49.0568C33.5508 50.7858 35.5807 53.2098 37.7547 55.9389C39.9287 58.6723 41.8399 61.1896 43.1876 63.0373C43.8614 63.9611 44.4038 64.7112 44.764 65.2409" fill="#263238"/>
<path d="M32.0626 60.2658C32.0583 60.2446 32.2533 60.1853 32.6135 60.0963C32.7957 60.0496 33.0161 59.9988 33.2788 59.9691C33.5416 59.9352 33.8382 59.8801 34.173 59.8717C34.8383 59.8208 35.635 59.8462 36.5123 59.9607C37.3852 60.092 38.3345 60.3209 39.2923 60.6853C40.2415 61.0625 41.0976 61.5371 41.8307 62.0287C42.5554 62.5372 43.1614 63.0585 43.6148 63.5458C43.8564 63.7747 44.0386 64.0205 44.2081 64.2196C44.3818 64.4188 44.5132 64.6053 44.6149 64.7621C44.8226 65.0714 44.7929 65.2155 44.776 65.2282C44.7251 65.2664 44.3988 64.6138 43.458 63.7026C42.9918 63.2449 42.3816 62.7534 41.6654 62.2702C40.9408 61.8041 40.1017 61.3464 39.1778 60.982C38.2455 60.626 37.3217 60.3971 36.4741 60.2531C35.6223 60.1259 34.8426 60.0751 34.1857 60.0963C32.8762 60.1302 32.0753 60.3209 32.0626 60.2615V60.2658Z" fill="#263238"/>
<path d="M103.152 168.398L54.2053 168.173C48.319 168.148 43.5684 163.355 43.5939 157.464L44.1109 34.7545C44.1363 28.864 48.9335 24.1091 54.824 24.1388L103.771 24.3634C109.657 24.3888 114.407 29.1818 114.382 35.0723L113.865 157.782C113.84 163.673 109.042 168.427 103.152 168.398Z" fill="#263238"/>
<path d="M103.698 28.5967L94.2094 28.5544C92.938 28.5501 91.8998 29.6223 91.8955 30.953L91.887 32.6735C91.8828 34.0042 90.8445 35.0763 89.5732 35.0721L71.0752 34.9873C69.8039 34.9831 68.7741 33.8982 68.7826 32.5676L68.791 30.847C68.7953 29.5163 67.7697 28.4315 66.4984 28.4272L63.159 28.4103L54.8529 28.3721C50.7295 28.3552 47.369 31.6819 47.352 35.8095L46.8477 155.582C46.8308 159.706 50.1574 163.062 54.2808 163.083L103.13 163.308C107.253 163.329 110.614 159.998 110.631 155.871L111.135 36.0976C111.152 31.9743 107.825 28.6179 103.702 28.601L103.698 28.5967Z" fill="#FAFAFA"/>
<path d="M76.0563 151.84C76.0563 152.319 75.6028 152.705 75.0434 152.701C74.4883 152.701 74.0391 152.307 74.0391 151.832C74.0391 151.353 74.4925 150.967 75.0519 150.972C75.607 150.972 76.0563 151.366 76.0563 151.84Z" fill="#2E3333"/>
<path d="M79.1793 151.853C79.1793 152.332 78.7259 152.718 78.1665 152.713C77.6113 152.713 77.1621 152.319 77.1621 151.845C77.1621 151.366 77.6156 150.98 78.1749 150.984C78.7343 150.989 79.1793 151.379 79.1793 151.853Z" fill="#2E3333"/>
<path d="M82.3024 151.87C82.3024 152.349 81.8489 152.735 81.2895 152.731C80.7344 152.731 80.2852 152.336 80.2852 151.862C80.2852 151.383 80.7386 150.997 81.298 151.001C81.8531 151.001 82.3024 151.396 82.3024 151.87Z" fill="#2E3333"/>
<path d="M61.9512 86.3413C62.7479 86.4557 110.762 95.8721 110.762 95.8721V86.3413H61.9512Z" fill="#EBEBEB"/>
<path d="M46.8438 146.853C46.8438 146.853 99.0789 139.462 98.6212 139.691C98.1677 139.92 46.8438 139.691 46.8438 139.691V146.853Z" fill="#EBEBEB"/>
<path d="M107.505 7.00928C107.564 7.00928 107.615 9.64943 107.615 12.9083C107.615 16.1672 107.564 18.8073 107.505 18.8073C107.445 18.8073 107.395 16.1672 107.395 12.9083C107.395 9.64943 107.445 7.00928 107.505 7.00928Z" fill="#263238"/>
<path d="M128.405 20.5832C128.431 20.6383 126.032 21.7486 123.053 23.0665C120.074 24.3802 117.637 25.4016 117.612 25.3465C117.586 25.2914 119.98 24.1811 122.964 22.8631C125.943 21.5494 128.38 20.5281 128.405 20.5832Z" fill="#263238"/>
<path d="M127.876 0.000176848C127.876 0.000176848 127.842 0.080695 127.762 0.22478C127.668 0.390054 127.546 0.593469 127.402 0.847736C127.084 1.39017 126.613 2.16569 126.02 3.11496C124.833 5.01773 123.126 7.60703 121.193 10.4294C119.256 13.2518 117.532 15.8241 116.311 17.7015C115.714 18.6253 115.226 19.3796 114.87 19.9305C114.709 20.1763 114.578 20.3755 114.472 20.5323C114.379 20.6679 114.328 20.74 114.319 20.7357C114.311 20.7357 114.353 20.6552 114.434 20.5111C114.527 20.3458 114.65 20.1424 114.794 19.8882C115.112 19.3457 115.582 18.5744 116.176 17.6209C117.362 15.7182 119.07 13.1289 121.007 10.3065C122.939 7.48413 124.668 4.91602 125.884 3.03444C126.482 2.1106 126.969 1.35627 127.325 0.805359C127.486 0.559566 127.618 0.36039 127.724 0.203591C127.817 0.0679816 127.868 -0.00406095 127.876 0.000176848Z" fill="#263238"/>
<path d="M157.177 49.8916H61.6401C59.5763 49.8916 57.9023 51.5655 57.9023 53.6293V83.2643C57.9023 85.3281 59.5763 87.002 61.6401 87.002H68.7596C69.3317 90.0956 70.0055 94.0028 70.0055 94.0028L76.4469 87.002H157.181C159.245 87.002 160.919 85.3281 160.919 83.2643V53.6293C160.919 51.5655 159.245 49.8916 157.181 49.8916H157.177Z" fill="#E65C00"/>
<path d="M117.761 65.9657C117.761 66.025 106.391 66.0758 92.3678 66.0758C78.345 66.0758 66.9707 66.025 66.9707 65.9657C66.9707 65.9063 78.3407 65.8555 92.3678 65.8555C106.395 65.8555 117.761 65.9063 117.761 65.9657Z" fill="#F5F5F5"/>
<path d="M117.761 61.41C117.761 61.4693 106.391 61.5202 92.3678 61.5202C78.345 61.5202 66.9707 61.4693 66.9707 61.41C66.9707 61.3507 78.3407 61.2998 92.3678 61.2998C106.395 61.2998 117.761 61.3507 117.761 61.41Z" fill="#F5F5F5"/>
<path d="M117.761 70.4705C117.761 70.5299 106.391 70.5807 92.3678 70.5807C78.345 70.5807 66.9707 70.5299 66.9707 70.4705C66.9707 70.4112 78.3407 70.3604 92.3678 70.3604C106.395 70.3604 117.761 70.4112 117.761 70.4705Z" fill="#F5F5F5"/>
<path d="M100.237 75.1405C100.237 75.1998 92.7874 75.2506 83.6041 75.2506C74.4208 75.2506 66.9707 75.1998 66.9707 75.1405C66.9707 75.0811 74.4165 75.0303 83.6041 75.0303C92.7916 75.0303 100.237 75.0811 100.237 75.1405Z" fill="#F5F5F5"/>
<path d="M114.01 103.169H17.6889C16.2439 103.169 15.0742 104.339 15.0742 105.784V137.14C15.0742 138.585 16.2439 139.754 17.6889 139.754H87.6465L94.0159 146.675C94.0159 146.675 94.6855 142.784 95.2449 139.754H114.01C115.455 139.754 116.625 138.585 116.625 137.14V105.784C116.625 104.339 115.455 103.169 114.01 103.169Z" fill="#2E3333"/>
<path d="M110.233 119.341C110.233 119.4 98.8634 119.451 84.8405 119.451C70.8176 119.451 59.4434 119.4 59.4434 119.341C59.4434 119.282 70.8134 119.231 84.8405 119.231C98.8676 119.231 110.233 119.282 110.233 119.341Z" fill="#F5F5F5"/>
<path d="M110.233 114.785C110.233 114.845 98.8634 114.896 84.8405 114.896C70.8176 114.896 59.4434 114.845 59.4434 114.785C59.4434 114.726 70.8134 114.675 84.8405 114.675C98.8676 114.675 110.233 114.726 110.233 114.785Z" fill="#F5F5F5"/>
<path d="M110.233 123.846C110.233 123.905 98.8634 123.956 84.8405 123.956C70.8176 123.956 59.4434 123.905 59.4434 123.846C59.4434 123.787 70.8134 123.736 84.8405 123.736C98.8676 123.736 110.233 123.787 110.233 123.846Z" fill="#F5F5F5"/>
<path d="M92.7101 128.512C92.7101 128.571 85.26 128.622 76.0767 128.622C66.8934 128.622 59.4434 128.571 59.4434 128.512C59.4434 128.452 66.8892 128.401 76.0767 128.401C85.2643 128.401 92.7101 128.452 92.7101 128.512Z" fill="#F5F5F5"/>
<path d="M133.16 37.3221C133.215 36.5424 132.52 35.4702 131.88 34.8515C131.236 34.2328 130.837 33.3979 131.172 32.152C131.431 31.19 132.041 31.2621 132.282 30.6942C132.46 30.2747 132.384 29.7958 132.422 29.3423C132.549 27.7828 134.261 26.5624 135.779 26.9522C136.207 25.469 137.588 24.3121 139.122 24.1553C140.656 23.9942 142.245 24.8418 142.97 26.2064C143.847 25.7529 144.949 25.7656 145.809 26.2488C146.67 26.7319 147.267 27.6557 147.339 28.6431C148.191 28.0286 149.501 28.2659 150.179 29.0711C150.857 29.8763 150.895 31.1137 150.382 32.0333C149.869 32.953 148.878 33.5505 147.835 33.7115C146.793 33.8726 145.72 33.6268 144.775 33.1564C143.835 32.686 143.012 32.0037 142.267 31.2621" fill="#263238"/>
<path d="M140.088 86.0228C150.22 86.0228 158.433 78.0009 158.433 68.1054C158.433 58.2099 150.22 50.188 140.088 50.188C129.956 50.188 121.742 58.2099 121.742 68.1054C121.742 78.0009 129.956 86.0228 140.088 86.0228Z" fill="#E0E0E0"/>
<path d="M158.511 68.1179L156.481 62.9097L149.205 67.4823L155.689 77.4835C155.689 77.4835 158.325 74.0551 158.511 68.1179Z" fill="#EB996E"/>
<path d="M138.418 56.8456C141.033 56.8456 143.19 54.82 143.322 52.2307C143.427 50.0736 143.521 47.9971 143.521 47.9971C143.521 47.9971 147.525 47.7089 147.894 43.7932C148.263 39.8775 148.314 30.8298 148.314 30.8298C143.898 28.5117 138.562 28.7448 134.367 31.4358L133.986 31.6816L133.524 51.934C133.494 54.6335 135.693 56.8414 138.418 56.8456Z" fill="#FFBE9D"/>
<path d="M140.716 36.8474C141.017 36.9448 141.182 37.2712 141.08 37.5678C140.979 37.8687 140.652 38.0297 140.352 37.928C140.051 37.8306 139.885 37.5042 139.987 37.2076C140.089 36.9067 140.415 36.7457 140.716 36.8474Z" fill="#263238"/>
<path d="M141.813 37.0508C141.745 37.1144 141.377 36.7965 140.83 36.7626C140.283 36.7202 139.872 36.983 139.817 36.9109C139.787 36.877 139.859 36.7584 140.037 36.6397C140.215 36.5211 140.512 36.4151 140.851 36.4363C141.19 36.4617 141.47 36.6101 141.627 36.7541C141.788 36.8982 141.838 37.0254 141.809 37.055L141.813 37.0508Z" fill="#263238"/>
<path d="M146.691 36.8474C146.991 36.9448 147.157 37.2712 147.055 37.5678C146.953 37.8687 146.627 38.0297 146.326 37.928C146.025 37.8306 145.86 37.5042 145.962 37.2076C146.063 36.9067 146.39 36.7457 146.691 36.8474Z" fill="#263238"/>
<path d="M147.86 37.0635C147.792 37.1271 147.423 36.8092 146.877 36.7753C146.33 36.7329 145.919 36.9957 145.864 36.9236C145.834 36.8897 145.906 36.7711 146.084 36.6524C146.262 36.5338 146.559 36.4278 146.898 36.449C147.237 36.4744 147.517 36.6228 147.673 36.7668C147.834 36.9109 147.885 37.0381 147.856 37.0677L147.86 37.0635Z" fill="#263238"/>
<path d="M143.75 41.2971C143.75 41.2547 144.093 41.2124 144.644 41.1827C144.788 41.1827 144.903 41.1573 144.92 41.081C144.954 40.9962 144.911 40.8437 144.852 40.6699C144.742 40.3012 144.627 39.9283 144.513 39.5384C144.047 37.9281 143.733 36.6059 143.818 36.5804C143.898 36.555 144.348 37.8433 144.814 39.4537C144.924 39.8478 145.03 40.2207 145.132 40.5894C145.17 40.7589 145.254 40.9539 145.161 41.1827C145.11 41.2971 144.992 41.3734 144.898 41.3861C144.801 41.4073 144.72 41.3988 144.653 41.3988C144.098 41.3734 143.754 41.3395 143.754 41.2929L143.75 41.2971Z" fill="#263238"/>
<path d="M143.529 47.9421C143.529 47.9421 141.016 47.9421 138.494 46.0732C138.494 46.0732 139.482 48.9931 143.457 48.9549L143.529 47.9379V47.9421Z" fill="#EB996E"/>
<path d="M133.888 37.428C133.888 37.1102 133.647 36.8389 133.329 36.822C132.592 36.7881 131.375 37.0551 131.223 39.0723C131.007 41.954 133.821 41.2886 133.829 41.2081C133.837 41.1445 133.871 38.551 133.884 37.428H133.888Z" fill="#FFBE9D"/>
<path d="M133.214 40.0594C133.214 40.0594 133.159 40.0891 133.075 40.123C132.99 40.1527 132.841 40.1696 132.697 40.1018C132.401 39.9662 132.176 39.4662 132.202 38.9449C132.214 38.6822 132.286 38.4364 132.397 38.2372C132.502 38.0338 132.651 37.8939 132.808 37.8812C132.964 37.8558 133.066 37.9575 133.096 38.0423C133.13 38.127 133.104 38.1821 133.121 38.1863C133.13 38.1948 133.189 38.144 133.172 38.0211C133.164 37.9617 133.134 37.8939 133.07 37.8304C133.007 37.771 132.905 37.7329 132.795 37.7371C132.57 37.7371 132.354 37.9236 132.231 38.144C132.1 38.3643 132.011 38.6398 131.994 38.9322C131.968 39.5128 132.227 40.0806 132.638 40.2332C132.837 40.301 133.015 40.2544 133.108 40.1908C133.206 40.1273 133.223 40.0637 133.214 40.0552V40.0594Z" fill="#EB996E"/>
<path d="M139.233 35.5167C139.377 35.7031 139.877 35.6141 140.529 35.5887C141.178 35.5378 141.686 35.5633 141.805 35.3599C141.941 35.1522 141.309 34.6691 140.474 34.7411C139.635 34.775 139.072 35.3302 139.233 35.5209V35.5167Z" fill="#263238"/>
<path d="M145.581 35.3261C145.662 35.5761 146.136 35.6524 146.666 35.6482C147.196 35.6354 147.67 35.5507 147.743 35.2964C147.819 35.0506 147.336 34.6946 146.653 34.7074C145.971 34.7158 145.501 35.0803 145.581 35.3261Z" fill="#263238"/>
<path d="M148.869 32.0671C148.869 32.0671 146.496 33.2155 143.403 31.673C141.373 30.6601 139.012 30.1643 138.491 30.5754C137.97 30.9822 137.86 33.0714 135.851 33.6817C135.851 33.6817 135.991 37.6694 134.397 37.5254C132.808 37.3813 133.8 31.2068 133.8 31.2068L137.69 29.3083L141.932 28.5073L145.933 29.071L149.026 29.9185L148.869 32.0671Z" fill="#263238"/>
<path d="M122.252 55.1377C126.409 50.8618 133.724 51.3322 133.724 51.3322L139.788 55.6717L143.225 51.667C143.225 51.667 146.84 52.0653 150.226 53.8325L150.459 53.9045V53.9512C153.116 55.3962 156.883 58.8585 160.468 62.2191L156.176 66.2026L151.425 70.4192C151.425 70.4192 151.442 70.4489 151.433 70.504C151.383 70.7583 152.095 76.564 152.823 80.9714C148.497 85.1032 142.979 86.8704 136.855 85.794C134.91 85.4549 133.969 84.9803 132.173 84.5057C129.511 83.8064 127.583 81.5011 127.346 78.7592C127.024 75.0639 126.774 70.487 126.774 70.487" fill="#2E3333"/>
<path d="M147.025 52.4172C147.025 52.4172 147.131 52.6545 147.288 53.0995C147.445 53.5444 147.657 54.1886 147.907 54.9895C148.407 56.5914 149.047 58.8247 149.649 61.3165C150.25 63.8084 150.7 66.0883 150.988 67.741C151.132 68.5674 151.238 69.2412 151.301 69.7031C151.365 70.1693 151.395 70.4278 151.382 70.4278C151.369 70.4278 151.31 70.1778 151.217 69.7159C151.119 69.22 150.992 68.5632 150.835 67.7665C150.509 66.1222 150.034 63.8507 149.437 61.3632C148.835 58.8756 148.225 56.6423 147.763 55.0277C147.538 54.2479 147.352 53.6037 147.212 53.1164C147.085 52.6672 147.017 52.4129 147.034 52.4087L147.025 52.4172Z" fill="#263238"/>
<path d="M150.928 67.6942C150.89 67.6476 152.704 66.105 154.975 64.2531C157.251 62.4012 159.124 60.9349 159.162 60.9816C159.201 61.0282 157.387 62.5707 155.115 64.4226C152.84 66.2746 150.966 67.7408 150.928 67.6942Z" fill="#263238"/>
<path opacity="0.2" d="M127.736 61.0072L124.016 73.2417L125.401 73.9621L126.766 70.4998C126.766 70.4998 128.169 63.232 127.736 61.0029V61.0072Z" fill="black"/>
<g opacity="0.2">
<path d="M146.623 52.4211C148.627 53.4763 143.601 56.0232 141.334 55.9554L142.982 51.6074C142.982 51.6074 145.953 52.0693 146.623 52.4253V52.4211Z" fill="black"/>
</g>
<path d="M133.127 51.6076V48.3657C133.127 48.3657 139.454 49.993 139.687 53.7816C139.687 53.7816 140.492 49.5947 143.751 49.3955L144.213 55.2818L140.42 58.5831H136.572L133.525 55.9556L133.127 51.8661" fill="#2E3333"/>
<path d="M141.105 71.9448C141.105 71.9448 141.088 71.6947 141.092 71.2498C141.101 70.8006 141.109 70.1522 141.114 69.3555C141.118 67.7536 141.067 65.5457 140.868 63.1132C140.664 60.6807 140.351 58.4898 140.08 56.9133C139.944 56.1547 139.834 55.5233 139.749 55.0487C139.668 54.6079 139.63 54.3621 139.643 54.3579C139.656 54.3579 139.724 54.5952 139.829 55.0275C139.94 55.464 140.075 56.0954 140.232 56.8836C140.541 58.4559 140.885 60.651 141.088 63.092C141.292 65.533 141.317 67.7536 141.27 69.3555C141.249 70.1564 141.215 70.8048 141.181 71.254C141.147 71.7032 141.122 71.949 141.105 71.949V71.9448Z" fill="#263238"/>
<path d="M139.393 52.6926C139.393 52.6926 139.249 52.6375 139.016 52.7265C138.774 52.8028 138.558 53.1037 138.38 53.5359C137.99 54.3792 137.512 55.5912 137.177 57.0363L137.143 57.1804L137.016 57.1041C136.639 56.8753 136.249 56.6295 135.859 56.3625C135.104 55.8498 134.409 55.3243 133.808 54.803C133.503 54.5403 133.253 54.2267 133.108 53.8877C132.964 53.5486 132.909 53.2138 132.897 52.9087C132.871 52.2985 132.973 51.8196 133.036 51.4933C133.108 51.167 133.159 50.989 133.176 50.9932C133.193 50.9932 133.168 51.1797 133.121 51.5102C133.083 51.8408 133.007 52.3197 133.053 52.9045C133.079 53.1927 133.138 53.5105 133.278 53.8156C133.418 54.1207 133.647 54.4047 133.943 54.6505C134.541 55.1505 135.236 55.6718 135.986 56.1803C136.372 56.443 136.757 56.6888 137.13 56.9177L136.969 56.9855C137.317 55.5234 137.829 54.3072 138.257 53.4723C138.363 53.2647 138.465 53.074 138.592 52.9257C138.715 52.7774 138.868 52.6884 138.995 52.6502C139.262 52.5739 139.406 52.6841 139.393 52.6884V52.6926Z" fill="#263238"/>
<path d="M143.75 49.3957C143.75 49.3957 143.784 49.5737 143.81 49.9C143.835 50.2729 143.869 50.7348 143.911 51.2773C143.958 51.8578 144.03 52.5486 144.149 53.3072C144.195 53.6843 144.327 54.0912 144.225 54.5488C144.094 55.0023 143.755 55.3413 143.394 55.6125C142.886 55.9897 142.356 56.2694 142 56.672L141.831 56.8627L141.814 56.6084C141.725 55.2693 141.28 54.1674 140.877 53.4513C140.474 52.7308 140.144 52.3579 140.169 52.3367C140.178 52.3282 140.267 52.413 140.419 52.5867C140.568 52.7605 140.775 53.0232 140.991 53.3835C141.432 54.0954 141.92 55.2142 142.021 56.5915L141.835 56.5279C142.22 56.0872 142.771 55.7948 143.254 55.4345C143.598 55.176 143.903 54.8582 144.009 54.4938C144.098 54.1208 143.988 53.7182 143.941 53.3326C143.831 52.5656 143.776 51.8663 143.75 51.2815C143.721 50.6967 143.716 50.2221 143.721 49.8957C143.721 49.5694 143.733 49.3872 143.746 49.3872L143.75 49.3957Z" fill="#263238"/>
<path d="M164.12 50.209C163.862 50.5141 154.547 62.969 154.547 62.969L155.861 63.7106L165.421 51.4125L164.124 50.209H164.12Z" fill="#263238"/>
<path d="M126.688 60.0574C126.688 60.0574 136.49 74.165 137.079 74.4447C138.245 74.9914 151.653 63.401 152.933 62.295C153.111 62.0576 153.471 61.5618 154.187 60.5744C154.187 60.5744 155.247 55.7349 156.374 56.1035C157.501 56.4765 155.755 58.5657 156.493 60.4049C157.23 62.2441 160.595 57.858 160.73 57.4639L161.599 56.3281C161.599 56.3281 162.51 58.909 162.447 59.9896C162.247 63.4434 158.98 67.5498 158.98 67.5498C158.98 67.5498 144.305 85.73 134.253 86.2936C131.358 86.4547 126.213 78.2418 122.772 72.08C120.696 68.3593 121.73 63.6722 125.175 61.1635L126.688 60.0574Z" fill="#FFBE9D"/>
<path d="M160.797 60.6C160.764 60.5788 161.077 60.0237 161.425 59.3202C161.772 58.6167 162.022 58.0319 162.06 58.0446C162.094 58.0574 161.895 58.6676 161.543 59.3795C161.192 60.0915 160.827 60.617 160.797 60.6Z" fill="#EB996E"/>
<path d="M125.032 53.1714C125.032 53.1714 114.509 56.9134 122.332 74.6019L134.478 67.2705L132.749 63.1344L125.032 53.1714Z" fill="#2E3333"/>
<path d="M124.222 53.4763C124.222 53.4763 124.68 53.4 125.489 53.5822C125.888 53.6839 126.366 53.8619 126.871 54.1628C127.375 54.4637 127.896 54.8875 128.405 55.4214C129.426 56.4851 130.38 57.9726 131.261 59.6889C132.151 61.4094 132.982 63.3673 133.833 65.4269C134.088 66.0414 134.342 66.6516 134.579 67.2279L134.617 67.3212L134.533 67.3678C131.02 69.2833 127.96 71.0759 125.794 72.4192C124.714 73.0888 123.849 73.6397 123.26 74.0211C122.976 74.2034 122.752 74.3474 122.578 74.4576C122.421 74.5551 122.336 74.6059 122.332 74.5975C122.332 74.5932 122.404 74.5297 122.552 74.4237C122.701 74.3135 122.921 74.1525 123.213 73.9533C123.79 73.5507 124.642 72.9786 125.714 72.2921C127.858 70.9148 130.909 69.0968 134.422 67.1729L134.376 67.3127C134.139 66.7364 133.884 66.1304 133.63 65.5116C132.778 63.4521 131.956 61.4984 131.079 59.7821C130.21 58.0658 129.278 56.5868 128.29 55.5274C127.799 54.9977 127.294 54.5739 126.807 54.2688C126.32 53.9636 125.858 53.7772 125.472 53.6628C124.688 53.4593 124.226 53.506 124.226 53.4721L124.222 53.4763Z" fill="#263238"/>
<path d="M146.857 27.249C146.857 27.249 146.882 27.3126 146.908 27.4355C146.929 27.5584 146.954 27.7448 146.937 27.9864C146.912 28.4568 146.742 29.1857 146.136 29.8214C145.547 30.457 144.433 30.8596 143.306 30.5376C142.755 30.3765 142.195 30.0417 141.856 29.4866C141.691 29.2111 141.593 28.8721 141.64 28.5288C141.687 28.1941 141.856 27.855 142.161 27.6559C142.466 27.4482 142.869 27.4524 143.178 27.5923C143.492 27.7237 143.75 27.9822 143.873 28.2915C144.123 28.9145 143.937 29.584 143.594 30.0544C142.865 31.0207 141.547 31.0969 140.814 30.6604C140.428 30.4825 140.089 30.3172 139.767 30.2579C139.449 30.1943 139.165 30.2494 138.958 30.3426C138.542 30.5418 138.373 30.7622 138.356 30.741C138.352 30.7367 138.394 30.6859 138.479 30.5969C138.521 30.5503 138.576 30.4952 138.652 30.4401C138.724 30.385 138.809 30.3172 138.924 30.2663C139.136 30.1519 139.445 30.0799 139.792 30.1392C140.14 30.1901 140.496 30.3553 140.881 30.5206C141.076 30.5969 141.276 30.6859 141.492 30.724C141.704 30.7622 141.941 30.7579 142.174 30.7113C142.64 30.6265 143.119 30.3723 143.433 29.94C143.738 29.5205 143.89 28.906 143.674 28.3805C143.483 27.8677 142.772 27.5245 142.28 27.8466C142.043 28.0033 141.894 28.283 141.856 28.567C141.814 28.8509 141.894 29.1391 142.043 29.3849C142.339 29.8765 142.852 30.1985 143.365 30.3511C144.412 30.6647 145.463 30.3045 146.03 29.7197C146.619 29.1348 146.81 28.4441 146.857 27.9864C146.908 27.5202 146.836 27.2617 146.857 27.2575V27.249Z" fill="#2E3333"/>
<path d="M144.564 43.2296C144.569 43.255 144.433 43.3101 144.2 43.3228C143.967 43.3355 143.641 43.2804 143.319 43.1194C143.001 42.9584 142.763 42.7253 142.632 42.5303C142.501 42.3354 142.467 42.1956 142.492 42.1828C142.547 42.1489 142.831 42.6321 143.42 42.9202C144.001 43.2211 144.556 43.1618 144.564 43.2253V43.2296Z" fill="#263238"/>
<path d="M133.453 41.3565C133.453 41.3565 133.592 41.543 133.436 41.8354C133.359 41.971 133.22 42.1194 133.003 42.1787C132.787 42.238 132.529 42.1702 132.347 42.0049C132.16 41.8439 132.058 41.6066 132.067 41.3905C132.075 41.1743 132.164 41.0006 132.262 40.8819C132.465 40.6446 132.673 40.6192 132.677 40.6446C132.694 40.6785 132.529 40.7505 132.389 40.9751C132.245 41.1828 132.19 41.5896 132.491 41.8397C132.631 41.9583 132.809 42.0134 132.957 41.9795C133.109 41.9498 133.228 41.8524 133.304 41.7507C133.457 41.543 133.419 41.3608 133.453 41.3565Z" fill="#263238"/>
<path d="M147.555 28.6772C147.555 28.6772 147.733 28.9485 147.759 29.457C147.788 29.9528 147.644 30.6944 147.132 31.292C146.61 31.8895 145.903 32.1353 145.403 32.1734C144.898 32.22 144.597 32.1014 144.602 32.0802C144.606 32.0421 144.911 32.0972 145.381 32.0166C145.843 31.9404 146.487 31.6861 146.962 31.1436C147.432 30.597 147.593 29.9232 147.602 29.457C147.615 28.9781 147.517 28.6857 147.555 28.6772Z" fill="#2E3333"/>
<path d="M133.223 64.1347C133.248 64.1898 130.456 65.6264 126.981 67.3427C123.506 69.059 120.67 70.4066 120.641 70.3558C120.615 70.3007 123.408 68.8641 126.883 67.1478C130.358 65.4315 133.193 64.0838 133.223 64.1347Z" fill="#E0E0E0"/>
<path d="M130.677 59.3249C130.706 59.38 128.219 60.77 125.121 62.4312C122.023 64.0924 119.489 65.3977 119.459 65.3426C119.43 65.2875 121.917 63.8975 125.015 62.2363C128.113 60.5751 130.647 59.2698 130.672 59.3249H130.677Z" fill="#E0E0E0"/>
<path d="M128.214 55.4385C128.226 55.4681 127.747 55.7394 126.968 56.1758C126.133 56.642 125.086 57.2268 123.925 57.8752C122.772 58.5321 121.725 59.1296 120.899 59.6C120.124 60.0407 119.64 60.3119 119.624 60.2823C119.607 60.2568 120.06 59.9433 120.819 59.4644C121.573 58.9855 122.632 58.3498 123.819 57.6803C125.006 57.0107 126.099 56.4344 126.896 56.036C127.697 55.6376 128.201 55.413 128.214 55.4385Z" fill="#E0E0E0"/>
<path d="M137.521 54.5189C137.517 54.5443 137.19 54.5019 136.703 54.2985C136.216 54.0993 135.584 53.7179 134.991 53.184C134.393 52.65 133.932 52.0949 133.609 51.688C133.287 51.277 133.109 51.0142 133.131 50.993C133.156 50.9718 133.376 51.2049 133.728 51.5863C134.08 51.9677 134.555 52.4974 135.139 53.0187C135.72 53.5399 136.317 53.9298 136.771 54.1587C137.224 54.3917 137.534 54.485 137.525 54.5189H137.521Z" fill="#E0E0E0"/>
<path d="M143.703 52.2266C143.758 52.2435 143.499 52.93 142.821 53.4979C142.147 54.07 141.427 54.2056 141.418 54.1505C141.397 54.087 142.05 53.8666 142.677 53.3326C143.313 52.8029 143.639 52.2011 143.698 52.2308L143.703 52.2266Z" fill="#E0E0E0"/>
<path d="M154.722 58.6045C154.722 58.6045 154.641 58.6257 154.485 58.6469C154.302 58.6681 154.078 58.6977 153.802 58.7316C153.209 58.7952 152.349 58.88 151.289 58.9605C149.162 59.13 146.221 59.2953 142.971 59.4139C139.72 59.5283 136.775 59.5707 134.639 59.5538C133.571 59.5453 132.711 59.5241 132.113 59.5029C131.834 59.4902 131.609 59.4775 131.427 59.469C131.27 59.4605 131.189 59.4478 131.189 59.4436C131.189 59.4351 131.274 59.4309 131.431 59.4266C131.613 59.4266 131.838 59.4266 132.118 59.4224C132.745 59.4182 133.597 59.4097 134.639 59.4012C136.771 59.38 139.712 59.3122 142.962 59.1978C146.208 59.0791 149.149 58.9393 151.277 58.8079C152.315 58.7401 153.171 58.6893 153.794 58.6469C154.069 58.6299 154.298 58.6172 154.48 58.6045C154.637 58.596 154.722 58.596 154.722 58.6045Z" fill="#E0E0E0"/>
<path d="M151.377 63.6263C151.377 63.6263 151.132 63.6814 150.682 63.7365C150.233 63.7916 149.58 63.8636 148.771 63.9357C147.156 64.084 144.923 64.2366 142.453 64.3383C139.982 64.4357 137.74 64.4654 136.121 64.4485C135.312 64.44 134.655 64.423 134.202 64.4061C133.748 64.3849 133.498 64.3679 133.498 64.351C133.498 64.334 133.748 64.3256 134.202 64.3171C134.693 64.3086 135.337 64.3001 136.121 64.2917C137.74 64.2705 139.978 64.2196 142.444 64.1179C144.91 64.0162 147.144 63.8891 148.763 63.7789C149.542 63.728 150.187 63.6814 150.678 63.6518C151.132 63.6221 151.382 63.6136 151.382 63.6263H151.377Z" fill="#E0E0E0"/>
<path d="M143.78 69.8262C143.78 69.8559 143.246 69.9364 142.378 70.0254C141.505 70.1144 140.301 70.2119 138.966 70.2797C137.631 70.3475 136.424 70.3687 135.546 70.3687C134.669 70.3687 134.131 70.339 134.131 70.3093C134.131 70.2797 134.673 70.25 135.546 70.2119C136.483 70.1695 137.657 70.1186 138.958 70.0593C140.259 69.9873 141.433 69.9237 142.369 69.8728C143.242 69.822 143.785 69.8008 143.785 69.8305L143.78 69.8262Z" fill="#E0E0E0"/>
<path d="M134.071 55.1165C134.071 55.1801 132.77 55.1928 131.169 55.2606C129.567 55.3241 128.27 55.4174 128.266 55.3538C128.257 55.2945 129.55 55.1038 131.16 55.0402C132.766 54.9724 134.071 55.0572 134.071 55.1165Z" fill="#E0E0E0"/>
<path d="M151.947 54.8876C151.947 54.9469 150.26 54.9935 148.179 54.985C146.098 54.9766 144.412 54.9215 144.416 54.8621C144.416 54.8028 146.103 54.7562 148.183 54.7647C150.264 54.7731 151.947 54.8282 151.947 54.8876Z" fill="#E0E0E0"/>
<path d="M152.598 80.6749C152.598 80.6749 152.466 80.7681 152.212 80.8953C151.958 81.0266 151.58 81.2004 151.11 81.3953C150.165 81.7937 148.826 82.2598 147.305 82.6116C145.779 82.9633 144.372 83.1286 143.346 83.1837C142.834 83.2133 142.423 83.2218 142.134 83.2133C141.85 83.2091 141.689 83.1964 141.689 83.1837C141.689 83.1498 142.321 83.1243 143.334 83.0269C144.347 82.9294 145.741 82.7429 147.254 82.3954C148.767 82.0437 150.101 81.6072 151.051 81.247C152.004 80.891 152.581 80.6367 152.598 80.6664V80.6749Z" fill="#E0E0E0"/>
<path d="M38.1228 138.36C48.2547 138.36 56.4682 130.524 56.4682 120.858C56.4682 111.192 48.2547 103.356 38.1228 103.356C27.9909 103.356 19.7773 111.192 19.7773 120.858C19.7773 130.524 27.9909 138.36 38.1228 138.36Z" fill="#E0E0E0"/>
<path d="M34.3847 78.6621C31.4733 78.8147 30.3334 81.8489 29.9816 82.527C29.6341 83.205 29.579 83.989 29.5155 84.7476C29.4519 85.5062 29.3629 86.2944 28.9561 86.9385C28.3162 87.9598 26.9686 88.4896 26.6041 89.638C26.1888 90.939 27.2525 92.329 26.9686 93.6639C26.816 94.3801 26.2947 94.9692 26.1083 95.6769C25.9133 96.4185 26.1168 97.2152 26.5024 97.8763C27.4601 99.5163 29.4392 100.343 31.3377 100.41C33.2363 100.478 35.0924 99.9104 36.9104 99.3468" fill="#263238"/>
<path d="M47.1913 82.4336C46.9073 83.0481 47.1743 83.7982 47.6235 84.3109C48.0685 84.8237 48.6703 85.167 49.2 85.595C49.7297 86.0188 50.2128 86.5824 50.2764 87.2562C50.3315 87.8749 50.0221 88.4936 50.1069 89.1081C50.323 90.6931 52.853 91.1719 52.9886 92.7653C53.0776 93.829 51.9885 94.8037 52.2893 95.825C52.4038 96.2149 52.7089 96.52 52.9208 96.8718C53.637 98.0626 53.1538 99.7069 52.1113 100.631C51.0731 101.555 49.6238 101.881 48.2338 101.944C47.0641 101.995 45.7377 101.805 45.0469 100.86C44.4155 99.995 44.5469 98.8127 44.674 97.749C45.2631 92.7823 45.1614 87.7647 45.0597 82.7641" fill="#263238"/>
<path d="M35.1534 105.415C35.1745 102.805 35.1534 100.059 35.1534 100.059C35.1534 100.059 31.797 99.4612 31.1529 95.0666C30.5384 90.8754 31.5809 81.8658 31.5809 81.8658C36.4416 79.9503 41.9126 80.692 45.3156 84.6035L44.7859 105.792C44.7265 108.25 42.561 110.157 39.9294 110.073C37.268 109.988 35.1322 107.903 35.1534 105.415Z" fill="#FFBE9D"/>
<path d="M32.4927 88.7861C32.48 89.0828 32.7173 89.3413 33.0266 89.3582C33.336 89.3794 33.5987 89.1548 33.6115 88.8582C33.6242 88.5615 33.3869 88.303 33.0775 88.2861C32.7681 88.2649 32.5054 88.4895 32.4927 88.7861Z" fill="#263238"/>
<path d="M31.5852 88.354C31.653 88.4303 32.0853 88.1167 32.6871 88.1252C33.827 88.2904 33.8058 88.4642 33.7974 88.3667C33.8313 88.3328 33.7592 88.2015 33.5685 88.0574C33.3778 87.9133 33.0557 87.7734 32.6786 87.7734C32.3014 87.7734 31.9836 87.9048 31.7971 88.0447C31.6107 88.1845 31.5429 88.3159 31.5768 88.3498L31.5852 88.354Z" fill="#263238"/>
<path d="M38.6841 88.9643C38.6714 89.261 38.9087 89.5195 39.218 89.5364C39.5274 89.5576 39.7901 89.333 39.8029 89.0364C39.8156 88.7397 39.5783 88.4812 39.2689 88.4643C38.9595 88.4431 38.6968 88.6677 38.6841 88.9643Z" fill="#263238"/>
<path d="M37.9002 88.5615C37.968 88.6378 38.4003 88.3242 39.002 88.3327C39.608 88.3327 40.0488 88.6505 40.1123 88.5742C40.1462 88.5403 40.0742 88.409 39.8835 88.2649C39.6928 88.1208 39.3707 87.981 38.9936 87.981C38.6164 87.981 38.2986 88.1123 38.1121 88.2522C37.9256 88.392 37.8621 88.5234 37.8917 88.5573L37.9002 88.5615Z" fill="#263238"/>
<path d="M35.6486 92.9009C35.6486 92.867 35.2756 92.7992 34.6696 92.7102C34.5171 92.6933 34.3687 92.6594 34.3433 92.5534C34.3094 92.4432 34.373 92.2737 34.4535 92.0957C34.6018 91.7228 34.7586 91.3329 34.9239 90.9261C35.5765 89.2564 36.0511 87.8876 35.9876 87.8622C35.9198 87.8367 35.335 89.1674 34.6823 90.8371C34.5255 91.2482 34.373 91.6423 34.2289 92.0152C34.1696 92.189 34.0636 92.3881 34.1399 92.6212C34.178 92.7356 34.2925 92.8204 34.3899 92.8501C34.4874 92.8797 34.5764 92.884 34.6527 92.8882C35.2672 92.9263 35.6443 92.9348 35.6486 92.9009Z" fill="#263238"/>
<path d="M35.1484 100.059C35.1484 100.059 38.0979 100.283 41.039 98.5586C41.039 98.5586 39.5812 101.555 35.1951 101.093L35.1484 100.059Z" fill="#EB996E"/>
<path d="M35.8916 94.3632C36.112 94.0792 36.4976 93.9225 36.8748 93.9691C37.1375 93.9987 37.4003 94.1301 37.5571 94.3462C37.7139 94.5624 37.7435 94.8675 37.5952 95.0667C37.4299 95.2955 37.0867 95.3421 36.7985 95.2574C36.5103 95.1726 36.2645 94.9777 36.0315 94.787C35.9679 94.7319 35.9001 94.6768 35.8619 94.6047C35.8238 94.5327 35.8153 94.4395 35.8619 94.3801" fill="#EB996E"/>
<path d="M37.424 93.3416C37.3265 93.3332 37.318 93.99 36.7502 94.4519C36.1823 94.9139 35.4831 94.8333 35.4788 94.9223C35.4704 94.9647 35.6314 95.0537 35.928 95.0622C36.2162 95.0749 36.6442 94.9859 36.9875 94.7062C37.335 94.4223 37.4875 94.0451 37.513 93.7739C37.5426 93.4984 37.4706 93.3374 37.424 93.3374V93.3416Z" fill="#263238"/>
<path d="M43.4078 81.4758C41.8017 83.7642 37.5554 86.1162 34.5127 86.6629C34.8687 86.1967 36.7375 85.044 37.0935 84.5779C35.7162 85.6077 33.7414 86.9849 31.9107 87.0782C31.6946 87.0909 31.4615 87.0867 31.2835 86.9807C31.0419 86.8324 30.9911 86.5442 30.9656 86.2899C30.847 85.2178 30.9233 83.3786 31.0928 82.3149C31.2623 81.2512 31.7539 80.1918 32.6735 79.4798C33.8474 78.5729 35.5213 78.3526 37.102 78.3144C38.4284 78.2805 39.793 78.361 41.005 78.8399C42.217 79.3188 43.251 80.2638 43.429 81.3995" fill="#263238"/>
<path d="M48.0106 91.7269C48.231 90.5912 48.409 89.5148 48.4471 88.7944C48.5785 86.5314 47.9216 78.1787 40.1198 78.8525L39.8062 81.2299C39.8062 81.2299 38.5985 89.3623 43.6457 89.4258C43.6457 89.4258 43.9254 91.8498 46.2095 94.2061C46.2095 94.2061 47.5317 94.1679 48.0064 91.7312" fill="#263238"/>
<path d="M43.6494 89.4216C44.1198 89.3369 44.6156 89.3538 45.0606 89.5276C45.5055 89.7013 45.8954 90.0361 46.0819 90.4768C46.2683 90.9176 46.2472 91.4303 46.0819 91.8795C45.9124 92.3287 45.6157 92.7186 45.2682 93.0492C45.0224 93.2865 44.7385 93.5069 44.4122 93.6043C44.0816 93.7018 43.696 93.6679 43.4375 93.4433" fill="#FFBE9D"/>
<path d="M43.8741 92.2693C43.819 92.2863 44.0224 92.5702 44.4504 92.46C44.6581 92.4092 44.8615 92.227 44.9844 92.0024C45.1115 91.7735 45.192 91.5235 45.2259 91.2268C45.2598 90.9344 45.1963 90.6208 45.0352 90.4005C44.8827 90.1716 44.6326 90.036 44.425 90.0275C43.9843 90.0106 43.8444 90.3157 43.8953 90.3242C43.9292 90.3623 44.1029 90.2055 44.3911 90.2776C44.6666 90.3327 44.9335 90.7141 44.87 91.1887C44.8106 91.6718 44.6199 92.1083 44.3614 92.2185C44.0944 92.3498 43.8995 92.227 43.8698 92.2651L43.8741 92.2693Z" fill="#EB996E"/>
<path d="M44.4954 80.6159C45.0929 80.9549 45.826 81.0523 46.4871 80.8786C47.1525 80.7048 47.7415 80.2599 48.0933 79.6708C48.3221 79.2894 48.4492 78.8275 48.339 78.3995C48.1865 77.8104 47.6144 77.4163 47.0296 77.2638C46.1778 77.0434 45.2116 77.2553 44.5674 77.8528C43.9233 78.4546 43.6478 79.4335 43.9317 80.2684C44.2157 81.099 45.0759 81.7134 45.9574 81.6668" fill="#263238"/>
<path d="M45.2074 93.2656C44.7751 93.5792 44.3344 93.8971 43.9954 94.3124C43.6563 94.7277 43.4233 95.2532 43.4741 95.7871C43.4995 96.0838 43.614 96.3804 43.5716 96.6771C43.5123 97.0839 43.1775 97.3848 42.9571 97.7365C42.385 98.6349 42.6308 99.8978 43.3555 100.682C44.0759 101.466 45.1735 101.818 46.2372 101.856C46.8559 101.877 47.5043 101.788 48.0086 101.436C48.7375 100.923 49.0172 99.9698 49.0384 99.0756" fill="#263238"/>
<path d="M45.7378 82.3658C45.759 82.3785 45.6064 82.6964 45.2758 83.1668C44.9495 83.6329 44.4368 84.2432 43.7714 84.811C43.1061 85.3789 42.4323 85.7985 41.9195 86.0485C41.4067 86.3027 41.0677 86.4087 41.0592 86.3833C41.0253 86.3197 42.3306 85.7688 43.6273 84.6415C44.9368 83.527 45.6742 82.3235 45.7335 82.3658H45.7378Z" fill="#2E3333"/>
<path d="M46.547 82.3234C46.5724 82.3234 46.5554 82.743 46.4029 83.3914C46.2503 84.044 45.9367 84.9255 45.4112 85.8027C44.8815 86.6799 44.2501 87.3707 43.7458 87.8072C43.2415 88.2479 42.8813 88.4555 42.8686 88.4343C42.8177 88.3793 44.195 87.4215 45.2248 85.6883C46.2757 83.9677 46.4749 82.3023 46.547 82.3234Z" fill="#2E3333"/>
<path d="M29.6097 85.8579C29.6732 85.8537 29.758 86.5868 30.0122 87.4556C30.258 88.3243 30.5801 88.9897 30.525 89.0193C30.4784 89.049 30.0589 88.4133 29.8004 87.5149C29.5376 86.6207 29.5546 85.8579 29.6097 85.8579Z" fill="#2E3333"/>
<path d="M48.2975 100.847C48.3102 100.822 48.4924 101.046 48.9416 101.055C49.1577 101.055 49.4332 100.995 49.6875 100.817C49.9417 100.648 50.1494 100.338 50.2511 99.9612C50.3528 99.5841 50.357 99.1391 50.2596 98.6856C50.1663 98.2237 49.9884 97.7491 49.8316 97.2321C49.679 96.7151 49.5434 96.1345 49.6451 95.5243C49.7426 94.9013 50.1452 94.4012 50.3401 93.8418C50.5393 93.2867 50.4588 92.668 50.213 92.1679C49.9629 91.6636 49.5392 91.2949 49.0518 91.1042C48.8103 91.0025 48.556 90.9135 48.3229 90.7864C48.0898 90.6635 47.8737 90.4897 47.7423 90.2651C47.4711 89.8202 47.4796 89.3328 47.4796 88.9302C47.4881 88.5192 47.5092 88.159 47.4372 87.8538C47.3694 87.5445 47.255 87.2944 47.1194 87.1249C46.8354 86.7774 46.5346 86.7986 46.5473 86.7732C46.5473 86.7732 46.6108 86.7605 46.7337 86.7859C46.8524 86.8113 47.0261 86.8919 47.1872 87.0698C47.344 87.2436 47.4796 87.5063 47.5601 87.8284C47.6491 88.1505 47.6364 88.5361 47.6406 88.9345C47.6491 89.3328 47.6576 89.7905 47.8991 90.1677C48.1364 90.5576 48.628 90.7186 49.1323 90.9178C49.6493 91.1085 50.1409 91.5238 50.4079 92.0704C50.6791 92.6129 50.7724 93.2909 50.5477 93.9139C50.3274 94.5199 49.9417 95.0072 49.857 95.5582C49.7638 96.1091 49.8824 96.6642 50.0265 97.1728C50.1748 97.6813 50.3486 98.1686 50.4376 98.6475C50.5308 99.1264 50.5223 99.5968 50.3994 100.004C50.2808 100.406 50.0435 100.737 49.751 100.919C49.4629 101.101 49.1662 101.152 48.9331 101.139C48.6958 101.127 48.5263 101.042 48.4246 100.974C48.3229 100.906 48.289 100.847 48.289 100.847H48.2975Z" fill="#2E3333"/>
<path d="M45.2383 100.55C45.2383 100.55 45.2934 100.686 45.501 100.779C45.6875 100.868 46.0986 100.873 46.3232 100.555C46.552 100.233 46.5181 99.6944 46.2554 99.2283C46.0138 98.7494 45.5349 98.279 45.412 97.5798C45.3485 97.2408 45.429 96.8551 45.6493 96.6008C45.857 96.3466 46.0986 96.1728 46.2596 95.9652C46.5774 95.5414 46.6071 95.0117 46.5562 94.6133C46.5011 94.2023 46.3825 93.8759 46.3147 93.6513C46.2384 93.4267 46.2003 93.2996 46.2172 93.2911C46.2299 93.2869 46.2935 93.4013 46.3952 93.6174C46.4927 93.8336 46.6325 94.1556 46.713 94.5879C46.7851 95.0074 46.7851 95.588 46.4249 96.0881C46.2426 96.3296 45.9968 96.5119 45.8231 96.7322C45.6409 96.9483 45.5815 97.2408 45.6366 97.5416C45.7383 98.1519 46.1875 98.6138 46.4418 99.1308C46.7173 99.6394 46.7512 100.262 46.4545 100.644C46.3104 100.839 46.0943 100.919 45.9163 100.936C45.7341 100.953 45.5773 100.915 45.4671 100.851C45.2383 100.712 45.2383 100.538 45.2468 100.546L45.2383 100.55Z" fill="#2E3333"/>
<path d="M28.6304 99.4441C28.6304 99.4441 28.4948 99.3339 28.2871 99.1009C28.0837 98.8635 27.7744 98.516 27.5498 97.9863C27.4353 97.7236 27.3633 97.4057 27.3718 97.0625C27.3802 96.7234 27.482 96.3378 27.7447 96.0369C28.0074 95.7318 28.3888 95.575 28.6177 95.2911C28.855 95.0071 28.8847 94.5961 28.7914 94.2019C28.6982 93.7994 28.516 93.4391 28.3253 93.0832C28.143 92.723 27.9735 92.3585 27.9142 91.9729C27.8464 91.5915 27.9312 91.1889 28.1346 90.9049C28.3295 90.6168 28.5753 90.4176 28.7787 90.2311C29.2067 89.8794 29.4483 89.498 29.5034 89.1971C29.5627 88.9005 29.461 88.7352 29.4864 88.731C29.4907 88.731 29.5203 88.7649 29.55 88.8411C29.5797 88.9174 29.6093 89.0488 29.5881 89.2098C29.5585 89.5361 29.3084 89.9726 28.8847 90.3456C28.6855 90.5405 28.4524 90.7397 28.2871 91.0024C28.1176 91.2609 28.0541 91.5957 28.1176 91.939C28.177 92.2865 28.338 92.634 28.5202 92.9857C28.7067 93.3332 28.9101 93.7231 29.0076 94.1553C29.1093 94.5791 29.0796 95.0834 28.783 95.4309C28.4948 95.7699 28.1176 95.9183 27.893 96.1768C27.6642 96.431 27.5625 96.7658 27.5498 97.0752C27.5328 97.3888 27.5921 97.6812 27.6896 97.9355C27.8845 98.444 28.1685 98.8042 28.3507 99.0542C28.5372 99.3043 28.6431 99.4441 28.6304 99.4526V99.4441Z" fill="#2E3333"/>
<path d="M46.3008 81.1707C46.2414 81.2004 45.9448 80.552 45.2668 80.0477C44.5972 79.5307 43.8937 79.4247 43.9064 79.3569C43.8979 79.3018 44.6735 79.3146 45.4024 79.8697C46.1355 80.4164 46.3601 81.1622 46.3008 81.1665V81.1707Z" fill="#E65C00"/>
<path d="M46.9126 77.111C46.9338 77.0983 47.0778 77.2636 47.1923 77.5899C47.3067 77.9162 47.3745 78.412 47.2304 78.9333C47.0863 79.4545 46.7727 79.8486 46.51 80.069C46.243 80.2936 46.0353 80.3614 46.0226 80.3402C46.0057 80.3106 46.1794 80.1961 46.3998 79.9588C46.6244 79.7257 46.8871 79.3486 47.0185 78.8782C47.1499 78.4078 47.116 77.9501 47.0439 77.6365C46.9761 77.3187 46.8871 77.128 46.9168 77.1153L46.9126 77.111Z" fill="#2E3333"/>
<path opacity="0.3" d="M25.3926 129.244C25.3926 129.244 35.9193 139.241 42.1785 137.432C48.4377 135.622 50.2896 130.927 50.2896 130.927L50.4422 129.244L49.815 128.833L25.7189 126.884L25.3926 129.244Z" fill="black"/>
<path d="M19.1621 119.879L21.192 114.67L28.4683 119.243L21.9845 129.244C21.9845 129.244 19.3486 125.816 19.1621 119.879Z" fill="#EB996E"/>
<path d="M27.3755 105.491C30.7615 103.724 35.1476 103.211 35.1476 103.211C36.4189 105.758 40.4321 106.08 42.8604 104.343L44.9072 102.957C44.9072 102.957 45.2251 102.944 45.7633 102.991C50.552 103.415 54.4762 106.992 55.4509 111.704C55.8069 113.42 56.0696 115.387 55.9637 117.209C55.6967 121.837 50.9037 122.256 50.9037 122.256C50.9037 122.256 50.6579 126.833 50.3316 130.528C50.0901 133.291 48.6577 135.355 46.1404 136.508C44.2631 137.368 43.2291 137.766 40.7966 138.156C34.656 139.139 28.757 136.809 24.8709 132.643C25.5998 128.231 26.2948 122.523 26.244 122.269C26.2355 122.214 26.2525 122.184 26.2525 122.184L21.5019 117.967L18.8066 115.704C18.8066 115.704 24.7184 106.932 27.3755 105.487" fill="#E65C00"/>
<path d="M33.2671 108.348C33.2501 108.39 32.8603 108.021 32.0932 108.021C31.7203 108.021 31.2584 108.132 30.8812 108.441C30.6947 108.594 30.5337 108.805 30.343 109.022C30.1565 109.229 29.915 109.471 29.576 109.53C29.2327 109.594 28.9191 109.445 28.6818 109.289C28.436 109.132 28.2283 108.962 28.0164 108.839C27.5969 108.581 27.1223 108.606 26.7748 108.729C26.4188 108.852 26.1857 109.064 26.0543 109.229C25.923 109.394 25.8721 109.505 25.8552 109.5C25.8467 109.5 25.8679 109.373 25.9865 109.178C26.1052 108.992 26.3425 108.742 26.7239 108.585C27.0926 108.428 27.6393 108.382 28.1224 108.661C28.3597 108.793 28.5716 108.962 28.8047 109.106C29.0335 109.25 29.2878 109.361 29.5463 109.314C29.8048 109.267 30.0125 109.077 30.1947 108.877C30.3811 108.674 30.5507 108.454 30.7668 108.284C31.199 107.945 31.7076 107.848 32.1102 107.865C32.517 107.882 32.8264 108.009 33.0171 108.123C33.2078 108.242 33.2883 108.339 33.2798 108.344L33.2671 108.348Z" fill="#FAFAFA"/>
<path d="M38.0933 114.67C38.0637 114.704 37.8136 114.234 37.0847 113.988C36.733 113.87 36.2626 113.827 35.8007 114.001C35.5718 114.086 35.3515 114.234 35.1057 114.378C34.8641 114.518 34.559 114.666 34.2158 114.615C33.8725 114.569 33.6182 114.323 33.4445 114.103C33.2622 113.878 33.1182 113.649 32.9571 113.463C32.6435 113.086 32.1816 112.954 31.8129 112.963C31.4358 112.967 31.1476 113.094 30.9696 113.204C30.7916 113.319 30.7069 113.408 30.6941 113.395C30.6857 113.391 30.745 113.276 30.9187 113.132C31.0925 112.992 31.3976 112.831 31.8044 112.806C32.2028 112.776 32.7368 112.903 33.1055 113.327C33.2877 113.526 33.436 113.755 33.6097 113.967C33.7793 114.175 33.9869 114.365 34.2454 114.399C34.5039 114.437 34.7624 114.323 34.9997 114.192C35.2413 114.06 35.4701 113.903 35.7329 113.814C36.2541 113.632 36.7627 113.7 37.1356 113.848C37.5128 113.997 37.7713 114.213 37.9111 114.382C38.0552 114.556 38.1018 114.67 38.0891 114.679L38.0933 114.67Z" fill="#FAFAFA"/>
<path d="M48.819 105.406C48.8106 105.453 48.3529 105.173 47.6028 105.339C47.2383 105.419 46.8103 105.623 46.5094 106.004C46.3569 106.19 46.2467 106.436 46.1068 106.686C45.9712 106.928 45.7848 107.216 45.4627 107.347C45.1406 107.483 44.8016 107.402 44.5389 107.301C44.2676 107.199 44.0261 107.076 43.793 107.004C43.3311 106.843 42.8692 106.966 42.5556 107.161C42.2377 107.356 42.0513 107.614 41.9538 107.801C41.8606 107.992 41.8351 108.11 41.814 108.106C41.8055 108.106 41.797 107.979 41.8733 107.767C41.9496 107.559 42.1276 107.263 42.4666 107.03C42.7929 106.801 43.3184 106.635 43.8481 106.809C44.1066 106.885 44.3524 107.008 44.6067 107.097C44.8609 107.191 45.1322 107.246 45.3737 107.14C45.6153 107.042 45.7805 106.809 45.9119 106.576C46.0518 106.339 46.1704 106.089 46.3442 105.877C46.6959 105.453 47.1705 105.25 47.5646 105.186C47.963 105.118 48.2978 105.173 48.5054 105.245C48.7173 105.322 48.8148 105.398 48.8106 105.406H48.819Z" fill="#FAFAFA"/>
<path d="M43.87 112.361C43.8404 112.391 43.6581 112.022 43.1072 111.814C42.8402 111.712 42.4843 111.666 42.1325 111.785C41.9588 111.84 41.785 111.95 41.5858 112.052C41.3909 112.149 41.1494 112.259 40.8739 112.208C40.5984 112.157 40.412 111.954 40.2806 111.776C40.1492 111.594 40.0475 111.412 39.9289 111.268C39.7043 110.971 39.3652 110.856 39.0813 110.844C38.4965 110.827 38.2253 111.157 38.2041 111.119C38.1956 111.111 38.2422 111.026 38.3821 110.916C38.5219 110.81 38.7635 110.691 39.0813 110.687C39.3949 110.674 39.8102 110.793 40.0814 111.136C40.217 111.297 40.323 111.479 40.4501 111.645C40.573 111.81 40.7213 111.954 40.912 111.988C41.3019 112.056 41.6579 111.704 42.0647 111.59C42.48 111.467 42.8741 111.543 43.1581 111.67C43.7471 111.941 43.8827 112.365 43.8615 112.361H43.87Z" fill="#FAFAFA"/>
<path d="M32.9579 118.217C32.9282 118.247 32.746 117.878 32.1951 117.671C31.9281 117.569 31.5722 117.522 31.2204 117.641C31.0467 117.696 30.8729 117.806 30.6737 117.908C30.4788 118.005 30.2372 118.116 29.9618 118.065C29.6863 118.014 29.4999 117.81 29.3685 117.632C29.2371 117.45 29.1354 117.268 29.0168 117.124C28.7922 116.827 28.4531 116.713 28.1692 116.7C27.5844 116.683 27.3089 117.014 27.292 116.976C27.2835 116.967 27.3301 116.882 27.47 116.772C27.6098 116.666 27.8514 116.548 28.1692 116.543C28.4828 116.531 28.8981 116.649 29.1693 116.993C29.3049 117.154 29.4109 117.336 29.538 117.501C29.6609 117.666 29.8092 117.81 29.9999 117.844C30.3898 117.912 30.7458 117.56 31.1526 117.446C31.5679 117.323 31.962 117.399 32.246 117.527C32.835 117.798 32.9706 118.222 32.9494 118.217H32.9579Z" fill="#FAFAFA"/>
<path d="M43.1577 118.349C43.1365 118.387 42.8484 118.099 42.2593 118.078C41.9754 118.069 41.6236 118.141 41.327 118.366C41.1787 118.476 41.0515 118.633 40.8947 118.794C40.7422 118.951 40.5472 119.133 40.2718 119.171C39.9963 119.209 39.7505 119.082 39.5725 118.955C39.3861 118.823 39.2335 118.688 39.0725 118.586C38.7631 118.378 38.4029 118.378 38.1359 118.459C37.5765 118.633 37.424 119.035 37.3943 119.006C37.3816 119.006 37.3986 118.904 37.496 118.756C37.5935 118.612 37.7842 118.421 38.0851 118.311C38.3775 118.196 38.8097 118.175 39.1784 118.412C39.3607 118.523 39.5217 118.658 39.6912 118.777C39.8607 118.895 40.0472 118.984 40.2379 118.955C40.6278 118.891 40.8524 118.446 41.1999 118.205C41.5516 117.955 41.9499 117.895 42.2635 117.925C42.9077 117.993 43.1747 118.349 43.1492 118.349H43.1577Z" fill="#FAFAFA"/>
<path d="M39.7886 123.006C39.7674 123.044 39.4792 122.756 38.8902 122.735C38.6062 122.726 38.2545 122.798 37.9578 123.023C37.8095 123.133 37.6824 123.29 37.5256 123.451C37.373 123.608 37.1781 123.79 36.9026 123.828C36.6272 123.866 36.3814 123.739 36.2034 123.612C36.0169 123.481 35.8644 123.345 35.7033 123.243C35.394 123.036 35.0338 123.036 34.7668 123.116C34.2074 123.29 34.0548 123.692 34.0252 123.663C34.0125 123.663 34.0294 123.561 34.1269 123.413C34.2243 123.269 34.415 123.078 34.7159 122.968C35.0083 122.853 35.4406 122.832 35.8093 123.07C35.9915 123.18 36.1525 123.315 36.3221 123.434C36.4916 123.553 36.678 123.642 36.8687 123.612C37.2586 123.553 37.4832 123.103 37.8307 122.862C38.1825 122.612 38.5808 122.553 38.8944 122.582C39.5385 122.65 39.8055 123.006 39.7801 123.006H39.7886Z" fill="#FAFAFA"/>
<path d="M32.6695 134.558C32.6398 134.588 32.4534 134.224 31.9025 134.024C31.6355 133.927 31.2795 133.885 30.9278 134.008C30.754 134.067 30.5803 134.177 30.3853 134.283C30.1946 134.385 29.9488 134.495 29.6776 134.448C29.4022 134.402 29.2115 134.198 29.0801 134.024C28.9445 133.842 28.8385 133.664 28.7199 133.52C28.491 133.228 28.1478 133.118 27.8681 133.109C27.279 133.101 27.0163 133.435 26.9951 133.397C26.9866 133.389 27.0332 133.304 27.1689 133.194C27.3045 133.088 27.546 132.965 27.8681 132.952C28.1774 132.935 28.597 133.05 28.8767 133.389C29.0165 133.55 29.1267 133.728 29.2538 133.893C29.381 134.058 29.5293 134.198 29.72 134.232C30.1099 134.296 30.4616 133.94 30.8684 133.817C31.2795 133.685 31.6779 133.757 31.966 133.88C32.5593 134.143 32.6992 134.563 32.678 134.558H32.6695Z" fill="#FAFAFA"/>
<path d="M41.0014 137.017C40.9803 137.055 40.6963 136.762 40.1073 136.733C39.8233 136.72 39.4674 136.783 39.1707 137.008C39.0224 137.114 38.891 137.271 38.7342 137.432C38.5817 137.584 38.3825 137.762 38.107 137.801C37.8316 137.839 37.5858 137.703 37.412 137.572C37.2298 137.44 37.0772 137.3 36.9205 137.195C36.6153 136.983 36.2551 136.978 35.9839 137.055C35.4203 137.22 35.2677 137.623 35.2338 137.589C35.2211 137.589 35.2423 137.487 35.3398 137.343C35.4372 137.199 35.6322 137.012 35.933 136.906C36.2255 136.796 36.6577 136.783 37.0264 137.021C37.2044 137.131 37.3654 137.271 37.5349 137.389C37.7044 137.508 37.8909 137.601 38.0816 137.576C38.4715 137.521 38.7046 137.076 39.0563 136.839C39.4123 136.593 39.8106 136.542 40.12 136.576C40.7641 136.652 41.0226 137.012 41.0014 137.012V137.017Z" fill="#FAFAFA"/>
<path d="M13.5569 101.97C13.8154 102.275 23.1301 114.73 23.1301 114.73L21.8163 115.471L12.2559 103.173L13.5526 101.97H13.5569Z" fill="#263238"/>
<path d="M49.921 110.856C49.921 110.856 41.1827 125.926 40.5894 126.205C39.424 126.752 26.0156 115.162 24.7358 114.056C24.5578 113.818 24.1976 113.323 23.4814 112.335C23.4814 112.335 22.4219 107.496 21.2947 107.864C20.1674 108.237 21.9134 110.326 21.176 112.166C20.4387 114.005 17.0738 109.619 16.9382 109.225L16.0695 108.089C16.0695 108.089 15.1584 110.67 15.2219 111.75C15.4211 115.204 18.6884 119.311 18.6884 119.311C18.6884 119.311 31.9655 135.948 42.0175 136.516C44.9119 136.677 50.4423 128.341 53.8834 122.184C55.9599 118.463 54.9979 114.683 51.5526 112.174L49.9125 110.86L49.921 110.856Z" fill="#FFBE9D"/>
<path d="M16.8799 112.361C16.8502 112.378 16.4815 111.852 16.134 111.14C15.7823 110.433 15.5831 109.818 15.617 109.805C15.6509 109.793 15.9052 110.377 16.2527 111.081C16.6002 111.784 16.9138 112.34 16.8799 112.361Z" fill="#EB996E"/>
<path d="M49.5104 106.665C49.1672 106.873 41.0391 121.959 41.0391 121.959L51.4979 130.155C51.4979 130.155 54.2186 123.451 55.6552 118.001C56.0451 116.522 55.8459 112.568 55.295 111.043C54.5153 108.877 53.3372 109.415 51.57 108.148L49.5104 106.665Z" fill="#E65C00"/>
<g opacity="0.7">
<path d="M52.9481 106.665C52.9481 106.665 52.8464 106.606 52.6515 106.508C52.4608 106.411 52.1429 106.288 51.7319 106.313C51.3208 106.326 50.8335 106.529 50.3673 106.881C49.8969 107.237 49.4392 107.741 49.007 108.347C48.5662 108.949 48.2018 109.687 47.7526 110.449C47.3161 111.221 46.8457 112.039 46.3541 112.903C45.3667 114.632 44.2776 116.526 43.1376 118.518C42.4426 119.726 41.7688 120.9 41.1331 122.006L41.1077 121.87C43.9428 124.108 46.4092 126.057 48.1848 127.464C49.0451 128.155 49.7401 128.714 50.2402 129.113C50.4648 129.299 50.647 129.447 50.7826 129.562C50.9055 129.668 50.9691 129.723 50.9648 129.727C50.9648 129.731 50.8928 129.685 50.7614 129.591C50.6173 129.486 50.4309 129.346 50.1936 129.172C49.685 128.786 48.9773 128.244 48.1001 127.574C46.3117 126.184 43.8284 124.256 40.9763 122.044L40.9043 121.989L40.9509 121.908C41.5823 120.802 42.2562 119.628 42.9512 118.421C44.0954 116.433 45.1845 114.539 46.1804 112.814C46.6762 111.954 47.1508 111.136 47.5958 110.369C48.045 109.61 48.4264 108.869 48.8841 108.263C49.3333 107.652 49.8079 107.144 50.2995 106.788C50.7868 106.432 51.2996 106.233 51.7361 106.233C52.1684 106.22 52.4904 106.36 52.6811 106.474C52.7828 106.525 52.8464 106.584 52.893 106.614C52.9396 106.648 52.9608 106.665 52.9608 106.669L52.9481 106.665Z" fill="black"/>
</g>
<path d="M49.8231 120.811C49.7935 120.841 49.6113 120.472 49.0603 120.264C48.7934 120.163 48.4374 120.116 48.0857 120.235C47.9119 120.29 47.7382 120.4 47.539 120.502C47.344 120.599 47.1025 120.709 46.827 120.659C46.5516 120.608 46.3651 120.404 46.2337 120.226C46.1024 120.044 46.0007 119.862 45.882 119.718C45.6574 119.421 45.3184 119.307 45.0344 119.294C44.4496 119.277 44.1784 119.608 44.1572 119.569C44.1487 119.561 44.1954 119.476 44.3352 119.366C44.475 119.26 44.7166 119.141 45.0344 119.137C45.348 119.124 45.7633 119.243 46.0346 119.586C46.1702 119.747 46.2761 119.93 46.4032 120.095C46.5261 120.26 46.6745 120.404 46.8652 120.438C47.255 120.506 47.611 120.154 48.0178 120.04C48.4331 119.917 48.8273 119.993 49.1112 120.12C49.7003 120.392 49.8359 120.815 49.8147 120.811H49.8231Z" fill="#FAFAFA"/>
<path d="M54.6043 118.857C54.5662 118.879 54.4899 118.476 54.0195 118.129C53.7906 117.959 53.4601 117.819 53.0872 117.836C52.9049 117.845 52.7058 117.9 52.4896 117.946C52.2778 117.989 52.0108 118.027 51.7607 117.904C51.5107 117.781 51.3836 117.535 51.3073 117.328C51.2268 117.116 51.1802 116.912 51.1039 116.743C50.9683 116.395 50.6716 116.192 50.4046 116.107C49.8453 115.933 49.4935 116.179 49.485 116.137C49.4766 116.128 49.5486 116.056 49.7096 115.989C49.8707 115.925 50.1334 115.878 50.447 115.955C50.7521 116.027 51.1208 116.255 51.2903 116.658C51.3793 116.849 51.4302 117.056 51.5065 117.247C51.5785 117.442 51.6845 117.62 51.8582 117.705C52.2142 117.874 52.6549 117.633 53.0787 117.633C53.511 117.624 53.8712 117.807 54.1127 118.006C54.6085 118.425 54.6213 118.87 54.6043 118.857Z" fill="#FAFAFA"/>
<path d="M54.8504 112.624C54.8123 112.645 54.736 112.242 54.2656 111.895C54.0367 111.725 53.7062 111.585 53.3333 111.602C53.151 111.611 52.9519 111.666 52.7357 111.712C52.5238 111.755 52.2569 111.793 52.0068 111.67C51.7568 111.547 51.6297 111.301 51.5534 111.094C51.4729 110.882 51.4263 110.678 51.35 110.509C51.2144 110.161 50.9177 109.958 50.6507 109.873C50.0913 109.7 49.7396 109.945 49.7311 109.903C49.7227 109.894 49.7947 109.822 49.9557 109.755C50.1168 109.691 50.3795 109.644 50.6931 109.721C50.9982 109.793 51.3669 110.022 51.5364 110.424C51.6254 110.615 51.6763 110.823 51.7526 111.013C51.8246 111.208 51.9306 111.386 52.1043 111.471C52.4603 111.64 52.901 111.399 53.3248 111.399C53.757 111.39 54.1173 111.573 54.3588 111.772C54.8546 112.191 54.8673 112.636 54.8504 112.624Z" fill="#FAFAFA"/>
<path d="M52.5359 126.96C52.4978 126.981 52.4215 126.579 51.9511 126.231C51.7223 126.062 51.3917 125.922 51.0188 125.939C50.8366 125.947 50.6374 126.002 50.4213 126.049C50.2094 126.091 49.9424 126.129 49.6924 126.007C49.4424 125.884 49.3152 125.638 49.2389 125.43C49.1584 125.218 49.1118 125.015 49.0355 124.845C48.8999 124.498 48.6033 124.294 48.3363 124.21C47.7769 124.036 47.4252 124.282 47.4167 124.239C47.4082 124.231 47.4802 124.159 47.6413 124.091C47.8023 124.027 48.0651 123.981 48.3787 124.057C48.6838 124.129 49.0525 124.358 49.222 124.761C49.311 124.951 49.3618 125.159 49.4381 125.35C49.5102 125.545 49.6161 125.723 49.7898 125.807C50.1458 125.977 50.5866 125.735 51.0103 125.735C51.4426 125.727 51.8028 125.909 52.0444 126.108C52.5402 126.528 52.5529 126.973 52.5359 126.96Z" fill="#FAFAFA"/>
</g>
<defs>
<clipPath id="clip0_1_50285">
<rect width="165.418" height="176" fill="white"/>
</clipPath>
</defs>
</svg>
