<svg width="160" height="160" viewBox="0 0 160 160" fill="none" xmlns="http://www.w3.org/2000/svg">
<circle cx="80" cy="80" r="79.5" stroke="#E55C00" stroke-dasharray="4 4"/>
<circle cx="80" cy="80" r="64" fill="#FDF6F1"/>
<circle cx="80" cy="80" r="63" stroke="#E55C00" stroke-opacity="0.5" stroke-width="2"/>
<path d="M118.12 86.0864L71.1842 117.093C70.3208 117.663 70.0832 118.826 70.652 119.69L73.6604 124.258C74.7867 125.966 76.5099 127.132 78.5133 127.543C80.5192 127.954 82.5615 127.56 84.2687 126.432L121.57 101.79C125.092 99.464 126.063 94.7081 123.737 91.187L120.719 86.6174C120.147 85.7526 118.985 85.5149 118.12 86.0864Z" fill="#E65C00" fill-opacity="0.07"/>
<path d="M78.7782 40.1437C77.82 40.7767 76.8993 41.5232 75.9853 42.4058C69.6464 40.596 62.9456 41.6113 57.4287 45.2559C47.0732 52.0969 44.2143 66.0856 51.0553 76.441C51.6256 77.3044 51.3877 78.4694 50.5241 79.0398C49.6607 79.6102 48.4958 79.3723 47.9253 78.5087C45.687 75.1205 44.3009 71.3274 43.8061 67.2355C43.7183 66.5077 43.2147 65.8985 42.5177 65.6741C41.8227 65.4528 41.0582 65.6548 40.5612 66.1917C34.1397 73.1889 33.2958 83.5852 38.5073 91.474C42.8041 97.9783 50.378 101.468 58.0678 100.587L66.5244 113.425C66.798 113.839 67.2252 114.13 67.7134 114.231C68.2021 114.33 68.7086 114.232 69.1242 113.958L116.053 82.9564C116.918 82.3849 117.155 81.2225 116.584 80.3575L108.094 67.5064C111.895 60.7852 111.647 52.4685 107.365 45.9857C101.094 36.494 88.2702 33.8731 78.7782 40.1437ZM74.6152 96.334C74.4807 96.7652 74.2061 97.1136 73.8577 97.3438C73.4054 97.6426 72.8268 97.7439 72.2682 97.5727C71.3347 97.2828 63.0745 94.635 60.3596 90.5254C59.7882 89.6604 60.0258 88.498 60.8908 87.9266C61.7558 87.3551 62.9182 87.5927 63.4896 88.4577C64.9859 90.7227 70.3478 93.0505 73.3765 93.9867C74.3657 94.2949 74.9206 95.3441 74.6152 96.334ZM86.9066 86.4754C87.4781 87.3405 87.2405 88.5028 86.3755 89.0743C85.5105 89.6457 84.3483 89.4081 83.7768 88.5431L77.5739 79.1534C77.0025 78.2884 77.24 77.126 78.105 76.5546C78.97 75.9832 80.1324 76.2207 80.7039 77.0857L86.9068 86.4754L86.9066 86.4754ZM99.7279 79.4325C99.666 80.0135 99.3474 80.5049 98.8951 80.8037C98.5452 81.0348 98.1169 81.1508 97.6691 81.1042C96.6387 80.9967 95.8898 80.0757 95.9957 79.0465C96.3199 75.8885 96.2794 70.0388 94.7882 67.7814C94.2167 66.9164 94.4543 65.754 95.3193 65.1826C96.1843 64.6112 97.3467 64.8487 97.9181 65.7137C100.633 69.8232 99.8275 78.4601 99.7279 79.4325Z" fill="#E65C00" fill-opacity="0.07"/>
<path d="M61 49.9949C59.3553 49.9949 58.0039 51.356 58.0039 53.0007V102.999C58.0039 104.643 59.3553 106.003 61 106.003H74.9258L70.5664 93.9988H63.0019C62.8698 93.9995 62.7388 93.9741 62.6166 93.9239C62.4943 93.8738 62.3832 93.7998 62.2897 93.7065C62.1962 93.6131 62.1221 93.5022 62.0717 93.3801C62.0213 93.2579 61.9956 93.127 61.9961 92.9948V59.0026C61.9956 58.8705 62.0213 58.7395 62.0717 58.6174C62.1221 58.4952 62.1962 58.3843 62.2897 58.291C62.3832 58.1976 62.4943 58.1237 62.6166 58.0735C62.7388 58.0234 62.8698 57.998 63.0019 57.9988H93.0019C93.2672 57.9999 93.5211 58.1062 93.7079 58.2944C93.8947 58.4827 93.9991 58.7374 93.998 59.0026V84.0241C95.5182 84.1587 96.851 84.9025 97.7559 86.0476C97.8334 86.0362 97.9175 86.04 97.998 86.0324V53.0011C97.998 51.3564 96.6467 49.9953 95.0019 49.9953L61 49.9949ZM74.9961 53.9968H80.998C81.1312 53.9938 81.2637 54.0175 81.3876 54.0664C81.5115 54.1154 81.6244 54.1885 81.7196 54.2817C81.8149 54.3748 81.8905 54.4861 81.9422 54.6089C81.9939 54.7317 82.0205 54.8636 82.0205 54.9968C82.0205 55.13 81.9939 55.2619 81.9422 55.3847C81.8905 55.5075 81.8149 55.6188 81.7196 55.7119C81.6244 55.8051 81.5115 55.8782 81.3876 55.9271C81.2637 55.9761 81.1312 55.9998 80.998 55.9968H74.9961C74.8629 55.9998 74.7305 55.9761 74.6066 55.9271C74.4826 55.8782 74.3698 55.8051 74.2745 55.7119C74.1793 55.6188 74.1036 55.5075 74.0519 55.3847C74.0003 55.2619 73.9737 55.13 73.9737 54.9968C73.9737 54.8636 74.0003 54.7317 74.0519 54.6089C74.1036 54.4861 74.1793 54.3748 74.2745 54.2817C74.3698 54.1885 74.4826 54.1154 74.6066 54.0664C74.7305 54.0175 74.8629 53.9938 74.9961 53.9968ZM78 64.0007C76.355 64.0007 74.9961 65.3517 74.9961 66.9967C74.9961 67.4544 75.1094 67.8858 75.2969 68.2761C72.1593 68.9405 70.2555 70.7285 69.2519 72.5124C68.7586 73.3893 68.4627 74.2606 68.2812 75.0026H80.3613C81.2542 74.3753 82.3364 74.0026 83.5 74.0026C84.6644 74.0026 85.747 74.3746 86.6406 75.0026H87.7187C87.5373 74.2606 87.242 73.3894 86.748 72.5124C85.7439 70.7273 83.8385 68.9375 80.6973 68.2742C80.8836 67.8842 80.9961 67.4538 80.9961 66.9967C80.9961 65.3517 79.645 64.0007 78 64.0007ZM83.5 76.0027C81.5783 76.0027 80.0019 77.579 80.0019 79.5007V92.3894C79.5915 91.7047 79.18 91.0233 78.7695 90.3386C78.3658 89.6651 77.8686 89.013 77.1738 88.5515C76.479 88.09 75.5303 87.8641 74.5898 88.116C72.733 88.6133 71.5478 90.5635 72.1367 92.4636L76.2598 103.862C77.3282 107.849 81.5371 109.885 81.5371 109.885C81.6809 109.959 81.8404 109.997 82.0019 109.995H96.8672C97.2286 109.995 97.4882 109.926 97.6973 109.717C97.6973 109.717 102 105.534 102 100V91.4965C102 89.5748 100.422 87.9986 98.5 87.9986C97.8898 87.9986 97.3235 88.1712 96.8223 88.4497C96.3718 87.0369 95.0592 85.9966 93.5039 85.9966C92.8919 85.9966 92.3217 86.1715 91.8184 86.4516C91.3687 85.0375 90.0544 83.9965 88.498 83.9965C87.9607 83.9965 87.4565 84.1304 87 84.35V79.5004C87 77.5787 85.4217 76.0027 83.5 76.0027ZM66.9492 77.0027C66.3857 77.0537 65.9977 77.4837 65.998 77.9968C65.9977 80.1943 67.7993 81.9967 69.998 81.9967H78.0019V79.5007C78.0019 78.6028 78.2265 77.7546 78.6152 77.0027H66.9492ZM88.3867 77.0027C88.7757 77.7546 89 78.6024 89 79.5007V80.6062C89.6123 79.9024 89.9959 78.9967 89.9961 77.9968C89.9941 77.4484 89.5496 77.0047 89 77.0027H88.3867Z" fill="#E05B01"/>
</svg>
