<svg width="25" height="25" viewBox="0 0 25 25" fill="none" xmlns="http://www.w3.org/2000/svg">
<path fill-rule="evenodd" clip-rule="evenodd" d="M12.6738 2.42627C6.92584 2.42627 2.2666 7.0855 2.2666 12.8335C2.2666 18.5815 6.92584 23.2407 12.6738 23.2407C18.4218 23.2407 23.0811 18.5815 23.0811 12.8335C23.0811 7.0855 18.4218 2.42627 12.6738 2.42627ZM3.86771 12.8335C3.8683 10.9782 4.45486 9.17044 5.54369 7.66822C6.63253 6.16601 8.16801 5.04607 9.93104 4.4682C11.6941 3.89034 13.5946 3.88407 15.3614 4.4503C17.1282 5.01653 18.671 6.12632 19.7697 7.62133C20.8685 9.11633 21.4669 10.9202 21.4797 12.7754C21.4926 14.6307 20.9191 16.4426 19.8411 17.9527C18.7632 19.4627 17.2358 20.5937 15.477 21.1843C13.7182 21.7749 11.8178 21.7949 10.0469 21.2415C10.4981 20.5329 10.8568 19.7696 11.1143 18.97L11.6651 16.8598C11.8929 17.1849 12.1983 17.448 12.5536 17.6251C12.9089 17.8022 13.3029 17.8877 13.6996 17.8738C16.4055 17.8738 18.3076 15.4145 18.3076 12.3596C18.3076 9.42526 15.9113 7.23281 12.8382 7.23281C9.00942 7.23281 6.97601 9.80526 6.97601 12.6008C6.97601 13.9062 7.66662 15.5223 8.77565 16.0421C8.94003 16.1179 9.04784 16.0421 9.07346 15.9215C9.09908 15.8009 9.25065 15.1935 9.32003 14.9139C9.33078 14.8698 9.33066 14.8237 9.31969 14.7796C9.30872 14.7356 9.28723 14.6948 9.25706 14.6609C8.83796 14.0707 8.61605 13.3631 8.62302 12.6392C8.6208 12.1196 8.72407 11.6049 8.92656 11.1263C9.12906 10.6477 9.42657 10.2152 9.80109 9.85497C10.1756 9.49472 10.6193 9.21422 11.1054 9.03046C11.5915 8.8467 12.1098 8.76349 12.629 8.78589C13.1152 8.75744 13.602 8.83065 14.0583 9.00084C14.5146 9.17103 14.9304 9.43447 15.2792 9.77434C15.628 10.1142 15.9021 10.5231 16.0841 10.9748C16.2661 11.4265 16.3519 11.9112 16.3361 12.398C16.3361 14.7933 15.1193 16.4605 13.548 16.4605C13.345 16.476 13.1413 16.4424 12.9541 16.3625C12.7668 16.2826 12.6016 16.1587 12.4723 16.0015C12.343 15.8443 12.2534 15.6582 12.2112 15.459C12.169 15.2599 12.1754 15.0535 12.2298 14.8573C12.3194 14.4837 12.439 14.0984 12.5543 13.7226C12.7646 13.0416 12.9652 12.3937 12.9652 11.9038C12.9871 11.7445 12.9743 11.5824 12.9277 11.4286C12.8811 11.2747 12.8018 11.1327 12.6953 11.0123C12.5888 10.8919 12.4575 10.7959 12.3105 10.7309C12.1635 10.6659 12.0041 10.6334 11.8434 10.6357C10.9553 10.6357 10.2391 11.5611 10.2391 12.7908C10.2327 13.2252 10.3138 13.6565 10.4803 14.0589L9.43425 18.495C9.30638 19.3334 9.30638 20.1864 9.43425 21.0248C8.74485 20.7516 8.09282 20.3922 7.4937 19.9552C6.02291 18.8811 4.91832 17.3804 4.3299 15.6568C4.02279 14.7472 3.86666 13.7935 3.86771 12.8335Z" fill="white"/>
</svg>
