<svg width="120" height="120" viewBox="0 0 120 120" fill="none" xmlns="http://www.w3.org/2000/svg">
<g clip-path="url(#clip0_3752_98)">
<path d="M79.7931 57.654L54.8755 39.5408C53.961 38.8779 52.7471 38.7781 51.7448 39.2932C50.7345 39.8044 50.1036 40.8426 50.1036 41.9647V78.1791C50.1036 79.3132 50.7345 80.3475 51.7448 80.8586C52.1721 81.0742 52.6393 81.182 53.1105 81.182C53.7254 81.182 54.3484 80.9864 54.8755 80.599L79.7931 62.5018C80.5798 61.9228 81.039 61.0283 81.039 60.0779C81.043 59.1116 80.5718 58.2211 79.7931 57.654Z" fill="white"/>
<path d="M60.002 0.00765991C26.8583 0.00765991 0 26.866 0 60.0097C0 93.1413 26.8583 119.992 60.002 119.992C93.1377 119.992 120 93.1373 120 60.0097C120.004 26.866 93.1377 0.00765991 60.002 0.00765991ZM60.002 109.981C32.4009 109.981 10.023 87.6147 10.023 60.0097C10.023 32.4166 32.4009 10.0226 60.002 10.0226C87.5991 10.0226 109.973 32.4126 109.973 60.0097C109.977 87.6147 87.5991 109.981 60.002 109.981Z" fill="white"/>
</g>
<defs>
<clipPath id="clip0_3752_98">
<rect width="120" height="120" fill="white"/>
</clipPath>
</defs>
</svg>
