<svg width="48" height="48" viewBox="0 0 48 48" fill="none" xmlns="http://www.w3.org/2000/svg">
<path d="M39.7536 38.9646H7.52931C6.93653 38.9646 6.45596 39.4452 6.45485 40.0379L6.45062 43.171C6.44962 44.3429 6.9049 45.4447 7.73278 46.2735C8.56166 47.1035 9.6623 47.5599 10.8344 47.5599H36.4442C38.8616 47.5599 40.8279 45.5936 40.8279 43.1762V40.039C40.8279 39.4452 40.3474 38.9646 39.7536 38.9646Z" fill="#FFF3E8"/>
<path d="M35.4559 4.58324C34.798 4.58324 34.1222 4.64931 33.4067 4.78258C30.9483 1.91599 27.425 0.285522 23.6373 0.285522C16.5277 0.285522 10.7442 6.06896 10.7442 13.1786C10.7442 13.7713 10.2627 14.253 9.66978 14.253C9.077 14.253 8.59533 13.7714 8.59533 13.1786C8.59533 10.8524 9.13049 8.60174 10.186 6.4897C10.3739 6.11409 10.3255 5.66394 10.0632 5.33657C9.80093 5.01133 9.37173 4.86648 8.96469 4.9662C3.686 6.283 0 10.9856 0 16.4018C0 20.8674 2.51817 24.9269 6.4717 26.934L6.46012 35.7403C6.46012 36.0246 6.57243 36.2985 6.77388 36.501C6.97635 36.7024 7.24921 36.8157 7.53457 36.8157H39.7536C40.3475 36.8157 40.828 36.3352 40.828 35.7413V26.9182C44.7669 24.9058 47.2746 20.8525 47.2746 16.4017C47.2745 9.885 41.9727 4.58324 35.4559 4.58324ZM15.7239 30.1259C15.5234 30.2896 15.2822 30.3693 15.043 30.3693C14.7324 30.3693 14.4239 30.2351 14.211 29.9769C13.8563 29.5436 10.7442 25.6698 10.7442 22.8484C10.7442 22.2545 11.2248 21.7739 11.8187 21.7739C12.4126 21.7739 12.8931 22.2545 12.8931 22.8484C12.8931 24.4034 14.7209 27.209 15.8729 28.6129C16.2485 29.0725 16.1824 29.7492 15.7239 30.1259ZM24.7116 29.2949C24.7116 29.8888 24.2311 30.3693 23.6372 30.3693C23.0433 30.3693 22.5628 29.8888 22.5628 29.2949V22.8484C22.5628 22.2545 23.0434 21.7739 23.6373 21.7739C24.2312 21.7739 24.7117 22.2545 24.7117 22.8484V29.2949H24.7116ZM33.0636 29.9769C32.8506 30.2351 32.5431 30.3693 32.2326 30.3693C31.9924 30.3693 31.751 30.2896 31.5517 30.1259C31.0932 29.7492 31.026 29.0725 31.4016 28.614C32.5537 27.2069 34.3814 24.3981 34.3814 22.8484C34.3814 22.2545 34.862 21.7739 35.4559 21.7739C36.0498 21.7739 36.5303 22.2545 36.5303 22.8484C36.5303 25.6697 33.4183 29.5436 33.0636 29.9769Z" fill="#FFF3E8"/>
</svg>
