<svg width="25" height="25" viewBox="0 0 25 25" fill="none" xmlns="http://www.w3.org/2000/svg">
<path d="M22.1546 17.3934C22.0146 17.0134 21.7246 16.8334 21.4446 16.6434C21.3946 16.6134 21.3346 16.5834 21.2946 16.5634C21.2246 16.5134 21.1146 16.4734 21.0246 16.4234C20.0846 15.9234 19.3446 15.2934 18.8346 14.5534C18.6978 14.3412 18.5742 14.1208 18.4646 13.8934C18.4246 13.7634 18.4246 13.6934 18.4546 13.6334C18.4846 13.5834 18.5246 13.5334 18.5746 13.5034C18.7246 13.3934 18.9046 13.2934 19.0146 13.2134C19.2246 13.0834 19.3746 12.9834 19.4746 12.9134C19.8646 12.6434 20.1346 12.3334 20.3046 12.0334C20.5446 11.5834 20.5746 11.0534 20.3846 10.5834C20.1346 9.9134 19.4946 9.4934 18.7246 9.4934C18.5646 9.4934 18.4046 9.5134 18.2246 9.5434C18.2246 9.5534 18.1646 9.5634 18.1246 9.5734C18.1246 9.1134 18.1146 8.6334 18.0746 8.1534C17.9346 6.4734 17.3446 5.5934 16.7246 4.8934C16.3346 4.4534 15.8746 4.0734 15.3646 3.7834C14.4346 3.2534 13.3746 2.9834 12.2246 2.9834C11.0746 2.9834 10.0246 3.2534 9.09458 3.7834C8.57458 4.0734 8.11458 4.4534 7.72458 4.8934C7.10458 5.5934 6.52458 6.4734 6.37458 8.1534C6.33458 8.6334 6.32458 9.1134 6.33458 9.5734C6.28458 9.5634 6.22458 9.5534 6.22458 9.5434C6.04458 9.5134 5.88458 9.4934 5.72458 9.4934C4.95458 9.4934 4.31458 9.9134 4.06458 10.5834C3.87458 11.0534 3.90458 11.5834 4.14458 12.0334C4.31458 12.3334 4.58458 12.6434 4.97458 12.9134C5.07458 12.9834 5.22458 13.0834 5.43458 13.2234L5.85458 13.4934C5.91458 13.5334 5.95458 13.5834 5.99458 13.6334C6.02458 13.7034 6.02458 13.7734 5.97458 13.9034C5.87458 14.1334 5.75458 14.3334 5.61458 14.5534C5.11458 15.2834 4.40458 15.9034 3.49458 16.3934C3.00458 16.6534 2.50458 16.8334 2.29458 17.3934C2.13458 17.8334 2.22458 18.3334 2.64458 18.7434C2.79458 18.8934 2.96458 19.0234 3.15458 19.1234C3.55458 19.3334 3.97458 19.5134 4.40458 19.6234C4.49458 19.6534 4.58458 19.6834 4.65458 19.7434C4.80458 19.8634 4.78458 20.0634 4.98458 20.3334C5.08458 20.4934 5.22458 20.6234 5.35458 20.7234C5.76458 21.0134 6.22458 21.0234 6.72458 21.0434C7.16458 21.0634 7.66458 21.0834 8.22458 21.2734C8.48458 21.3334 8.72458 21.5034 9.01458 21.6834C9.72458 22.1034 10.6446 22.6834 12.2246 22.6834C13.7946 22.6834 14.7246 22.1034 15.4446 21.6734C15.7246 21.5034 15.9746 21.3334 16.2246 21.2734C16.7746 21.0834 17.2846 21.0634 17.7246 21.0434C18.2246 21.0334 18.6846 21.0134 19.0946 20.7234C19.2646 20.6034 19.4046 20.4434 19.5146 20.2634C19.6546 20.0234 19.6546 19.8334 19.7846 19.7434C19.8546 19.6934 19.9346 19.6534 20.0246 19.6334C20.4646 19.5134 20.8846 19.3334 21.2846 19.1234C21.4946 19.0134 21.6746 18.8734 21.8246 18.7034H21.8346C22.2246 18.2934 22.3046 17.8334 22.1546 17.3934ZM20.7546 18.1434C19.8946 18.6134 19.3246 18.5634 18.8846 18.8334C18.7246 18.9534 18.6746 19.1134 18.6446 19.2734L18.6146 19.4734C18.5946 19.6134 18.5646 19.7334 18.4646 19.8034C18.1246 20.0334 17.1346 19.7834 15.8546 20.2034C14.7946 20.5534 14.1246 21.5634 12.2246 21.5634C10.3246 21.5634 9.67458 20.5634 8.59458 20.2034C7.32458 19.7834 6.32458 20.0334 5.99458 19.8034C5.72458 19.6134 5.94458 19.0934 5.56458 18.8334C5.12458 18.5634 4.55458 18.6134 3.72458 18.1434C3.41458 17.9834 3.36458 17.8334 3.40458 17.7634C3.44458 17.6734 3.56458 17.6034 3.64458 17.5634C5.29458 16.7734 6.22458 15.7434 6.69458 14.9334C7.13458 14.2134 7.22458 13.6634 7.25458 13.5834C7.28458 13.3734 7.31458 13.2134 7.08458 13.0034C6.86458 12.7934 5.88458 12.1934 5.61458 12.0034C5.15458 11.6834 4.96458 11.3734 5.10458 10.9834C5.22458 10.7134 5.45458 10.6134 5.72458 10.6134C5.80458 10.6134 5.88458 10.6234 5.96458 10.6434C6.46458 10.7434 6.94458 10.9934 7.22458 11.0634C7.25458 11.0734 7.28458 11.0734 7.32458 11.0734C7.41458 11.0734 7.46458 11.0434 7.49458 10.9834C7.50458 10.9434 7.51458 10.8934 7.51458 10.8334C7.47458 10.2934 7.40458 9.2434 7.48458 8.2534C7.52458 7.8334 7.59458 7.4734 7.68458 7.1634C7.88458 6.4834 8.22458 6.0334 8.56458 5.6234C8.81458 5.3334 9.97458 4.1034 12.2246 4.1034C14.0746 4.1034 15.1846 4.9434 15.6646 5.3934C15.7646 5.4934 15.8446 5.5734 15.8846 5.6234C16.2646 6.0634 16.6046 6.5434 16.8046 7.3034C16.8746 7.5734 16.9346 7.8934 16.9646 8.2534C17.0446 9.2334 16.9746 10.2934 16.9346 10.8334C16.9346 10.8734 16.9346 10.9134 16.9446 10.9434C16.9546 11.0334 17.0146 11.0734 17.1246 11.0734C17.1646 11.0734 17.1946 11.0734 17.2246 11.0634C17.5046 10.9934 17.9846 10.7434 18.4846 10.6334C18.5646 10.6234 18.6446 10.6134 18.7246 10.6134C18.9746 10.6134 19.2246 10.7034 19.3246 10.9334L19.3346 10.9734H19.3446V10.9834C19.4946 11.3634 19.2946 11.6834 18.8446 11.9934C18.5746 12.1834 17.5846 12.7934 17.3646 12.9934C17.1346 13.2134 17.1646 13.3734 17.1946 13.5834C17.2246 13.6834 17.4046 14.6334 18.3046 15.6934C18.8546 16.3334 19.6446 17.0034 20.8046 17.5634C20.8746 17.5934 20.9646 17.6434 21.0146 17.7034C21.0446 17.7534 21.0646 17.7934 21.0546 17.8334C21.0446 17.9334 20.9546 18.0334 20.7546 18.1434Z" fill="white"/>
</svg>
