<svg width="23" height="23" viewBox="0 0 23 23" fill="none" xmlns="http://www.w3.org/2000/svg">
<path d="M11.5 7.49756C12.2885 7.49756 12.9277 6.85832 12.9277 6.06977C12.9277 5.28123 12.2885 4.64199 11.5 4.64199C10.7114 4.64199 10.0722 5.28123 10.0722 6.06977C10.0722 6.85832 10.7114 7.49756 11.5 7.49756Z" fill="#979999" stroke="#979999" stroke-width="0.3"/>
<path d="M11.5 13.2476C12.2885 13.2476 12.9277 12.6083 12.9277 11.8198C12.9277 11.0312 12.2885 10.392 11.5 10.392C10.7114 10.392 10.0722 11.0312 10.0722 11.8198C10.0722 12.6083 10.7114 13.2476 11.5 13.2476Z" fill="#979999" stroke="#979999" stroke-width="0.3"/>
<path d="M11.5 18.6782C12.2885 18.6782 12.9277 18.039 12.9277 17.2504C12.9277 16.4619 12.2885 15.8227 11.5 15.8227C10.7114 15.8227 10.0722 16.4619 10.0722 17.2504C10.0722 18.039 10.7114 18.6782 11.5 18.6782Z" fill="#979999" stroke="#979999" stroke-width="0.3"/>
</svg>
