<svg width="25" height="25" viewBox="0 0 25 25" fill="none" xmlns="http://www.w3.org/2000/svg">
<path d="M21.4492 7.771C20.2065 7.76951 19.0151 7.27517 18.1363 6.39642C17.2575 5.51766 16.7632 4.32624 16.7617 3.0835C16.7617 2.93431 16.7025 2.79124 16.597 2.68575C16.4915 2.58026 16.3484 2.521 16.1992 2.521H12.4492C12.3 2.521 12.157 2.58026 12.0515 2.68575C11.946 2.79124 11.8867 2.93431 11.8867 3.0835V15.4585C11.8865 15.8275 11.7873 16.1898 11.5993 16.5074C11.4114 16.825 11.1418 17.0864 10.8184 17.2643C10.4951 17.4422 10.13 17.5301 9.76109 17.5188C9.39222 17.5075 9.03314 17.3974 8.72129 17.2001C8.40945 17.0027 8.15627 16.7253 7.98816 16.3968C7.82004 16.0683 7.74315 15.7007 7.76551 15.3323C7.78786 14.9639 7.90864 14.6083 8.11525 14.3025C8.32187 13.9967 8.60674 13.752 8.94016 13.5938C9.03634 13.5482 9.11761 13.4763 9.17454 13.3863C9.23146 13.2964 9.26169 13.1921 9.26172 13.0857V9.0835C9.26164 9.00174 9.24373 8.92099 9.20926 8.84686C9.17478 8.77273 9.12456 8.70701 9.06209 8.65427C8.99963 8.60152 8.92641 8.56304 8.84755 8.54148C8.76869 8.51992 8.68608 8.51581 8.60547 8.52943C5.34297 9.10975 2.88672 12.0882 2.88672 15.4585C2.88672 17.2984 3.61763 19.063 4.91867 20.364C6.2197 21.6651 7.98428 22.396 9.82422 22.396C11.6642 22.396 13.4287 21.6651 14.7298 20.364C16.0308 19.063 16.7617 17.2984 16.7617 15.4585V11.4207C18.192 12.2276 19.807 12.6498 21.4492 12.646C21.5984 12.646 21.7415 12.5867 21.847 12.4812C21.9525 12.3758 22.0117 12.2327 22.0117 12.0835V8.3335C22.0117 8.18431 21.9525 8.04124 21.847 7.93575C21.7415 7.83026 21.5984 7.771 21.4492 7.771ZM20.8867 11.5022C19.3152 11.4019 17.804 10.8595 16.5273 9.93756C16.4432 9.87712 16.344 9.8411 16.2407 9.83347C16.1373 9.82583 16.0339 9.84689 15.9418 9.89431C15.8497 9.94172 15.7724 10.0137 15.7186 10.1022C15.6648 10.1907 15.6364 10.2924 15.6367 10.396V15.4585C15.6367 17.0001 15.0243 18.4785 13.9343 19.5686C12.8442 20.6586 11.3658 21.271 9.82422 21.271C8.28265 21.271 6.80422 20.6586 5.71416 19.5686C4.62411 18.4785 4.01172 17.0001 4.01172 15.4585C4.01172 12.8597 5.74328 10.5385 8.13672 9.79787V12.7538C7.66599 13.0476 7.2801 13.4591 7.0172 13.9477C6.75431 14.4364 6.62352 14.9852 6.63777 15.5399C6.65202 16.0945 6.81082 16.6359 7.09847 17.1104C7.38611 17.5849 7.79263 17.976 8.27783 18.2452C8.76302 18.5144 9.31008 18.6523 9.8649 18.6452C10.4197 18.6381 10.9631 18.4863 11.4412 18.2049C11.9194 17.9234 12.3158 17.5219 12.5913 17.0403C12.8667 16.5586 13.0116 16.0134 13.0117 15.4585V3.646H15.6639C15.7958 4.98637 16.3885 6.23952 17.3408 7.19188C18.2932 8.14425 19.5463 8.73689 20.8867 8.86881V11.5022Z" fill="white"/>
</svg>
