<svg width="34" height="35" viewBox="0 0 34 35" fill="none" xmlns="http://www.w3.org/2000/svg">
<rect x="0.217896" y="0.757568" width="33.6358" height="33.6358" rx="11.2119" fill="#E65C00"/>
<path opacity="0.4" d="M22.3919 15.8155C22.3919 15.8631 22.0184 20.5867 21.8051 22.5746C21.6715 23.7946 20.8851 24.5346 19.7054 24.5556C18.799 24.5759 17.9116 24.5829 17.0386 24.5829C16.1118 24.5829 15.2053 24.5759 14.3255 24.5556C13.1853 24.5282 12.3982 23.7736 12.2714 22.5746C12.052 20.5797 11.6853 15.8631 11.6785 15.8155C11.6717 15.6718 11.718 15.5352 11.8121 15.4245C11.9048 15.3222 12.0384 15.2605 12.1787 15.2605H21.8985C22.0382 15.2605 22.1649 15.3222 22.2651 15.4245C22.3585 15.5352 22.4055 15.6718 22.3919 15.8155Z" fill="white"/>
<path d="M23.3426 13.3546C23.3426 13.0666 23.1156 12.841 22.843 12.841H20.7998C20.3841 12.841 20.0229 12.5453 19.9302 12.1284L19.8157 11.6176C19.6556 11.0002 19.1029 10.5679 18.4827 10.5679H15.5897C14.9627 10.5679 14.4154 11.0002 14.2491 11.6512L14.1421 12.1291C14.0488 12.5453 13.6876 12.841 13.2725 12.841H11.2294C10.9561 12.841 10.7291 13.0666 10.7291 13.3546V13.6209C10.7291 13.9019 10.9561 14.1345 11.2294 14.1345H22.843C23.1156 14.1345 23.3426 13.9019 23.3426 13.6209V13.3546Z" fill="white"/>
</svg>
