<svg width="17" height="17" viewBox="0 0 17 17" fill="none" xmlns="http://www.w3.org/2000/svg">
<path d="M2.06543 4.98047L2.9476 15.6299C3.01082 16.3979 3.66499 17 4.4359 17H12.5642C13.3351 17 13.9893 16.3979 14.0525 15.6299L14.9346 4.98047H2.06543ZM6.00933 15.0078C5.74862 15.0078 5.52928 14.805 5.51274 14.5409L5.0147 6.50572C4.99766 6.23093 5.20631 5.99456 5.48064 5.97753C5.76515 5.95757 5.99133 6.16868 6.00883 6.44346L6.50688 14.4786C6.52451 14.7632 6.29936 15.0078 6.00933 15.0078ZM8.99808 14.5098C8.99808 14.7851 8.77532 15.0078 8.50003 15.0078C8.22474 15.0078 8.00198 14.7851 8.00198 14.5098V6.47461C8.00198 6.19932 8.22474 5.97656 8.50003 5.97656C8.77532 5.97656 8.99808 6.19932 8.99808 6.47461V14.5098ZM11.9854 6.50575L11.4873 14.5409C11.4709 14.8024 11.253 15.0202 10.9591 15.0069C10.6848 14.9898 10.4761 14.7534 10.4932 14.4787L10.9912 6.4435C11.0083 6.16871 11.249 5.96879 11.5194 5.97756C11.7937 5.99459 12.0024 6.23097 11.9854 6.50575Z" fill="white"/>
<path d="M14.9746 1.99219H11.9863V1.49414C11.9863 0.670238 11.3161 0 10.4922 0H6.50781C5.68391 0 5.01367 0.670238 5.01367 1.49414V1.99219H2.02539C1.47525 1.99219 1.0293 2.43814 1.0293 2.98828C1.0293 3.53836 1.47525 3.98438 2.02539 3.98438C6.60629 3.98438 10.3939 3.98438 14.9746 3.98438C15.5248 3.98438 15.9707 3.53836 15.9707 2.98828C15.9707 2.43814 15.5248 1.99219 14.9746 1.99219ZM10.9902 1.99219H6.00977V1.49414C6.00977 1.21935 6.23302 0.996094 6.50781 0.996094H10.4922C10.767 0.996094 10.9902 1.21935 10.9902 1.49414V1.99219Z" fill="white"/>
</svg>
