<svg width="24" height="25" viewBox="0 0 24 25" fill="none" xmlns="http://www.w3.org/2000/svg">
<path d="M15.2117 11.4243L10.9923 8.99479C10.7446 8.85216 10.4637 8.7772 10.1778 8.77741C9.89199 8.77762 9.61122 8.853 9.3637 8.99599C9.11617 9.13898 8.91061 9.34455 8.76762 9.59207C8.62463 9.8396 8.54925 10.1204 8.54905 10.4062V15.2629C8.5456 15.8449 8.85618 16.3833 9.36117 16.6709C9.60876 16.8155 9.89027 16.8919 10.177 16.8923C10.4638 16.8927 10.7455 16.8171 10.9935 16.6732L15.2117 14.2437C15.4595 14.1012 15.6653 13.896 15.8085 13.6486C15.9516 13.4011 16.027 13.1204 16.027 12.8345C16.027 12.5487 15.9516 12.2679 15.8085 12.0205C15.6653 11.7731 15.4595 11.5679 15.2117 11.4254M14.6365 13.2452L10.4195 15.6758C10.3464 15.7187 10.2632 15.7413 10.1785 15.7413C10.0937 15.7413 10.0106 15.7187 9.93748 15.6758C9.86418 15.6343 9.8034 15.5739 9.7615 15.5008C9.71961 15.4278 9.69814 15.3448 9.69937 15.2606V10.4062C9.69856 10.3224 9.72022 10.2399 9.76209 10.1673C9.80396 10.0946 9.86453 10.0346 9.93748 9.99327C10.0099 9.94918 10.0931 9.92586 10.1779 9.92586C10.2627 9.92586 10.3459 9.94918 10.4183 9.99327L14.6365 12.4239C14.7093 12.465 14.7698 12.5246 14.8119 12.5968C14.854 12.669 14.8762 12.751 14.8762 12.8345C14.8762 12.9181 14.854 13.0001 14.8119 13.0723C14.7698 13.1445 14.7093 13.2041 14.6365 13.2452ZM20.0522 3.63086H3.94778C3.03281 3.63177 2.15558 3.99565 1.5086 4.64263C0.861615 5.28961 0.49774 6.16684 0.496826 7.08181V18.585C0.49774 19.5 0.861615 20.3772 1.5086 21.0242C2.15558 21.6712 3.03281 22.035 3.94778 22.0359H20.0522C20.9672 22.035 21.8444 21.6712 22.4914 21.0242C23.1384 20.3772 23.5023 19.5 23.5032 18.585V7.08181C23.5023 6.16684 23.1384 5.28961 22.4914 4.64263C21.8444 3.99565 20.9672 3.63177 20.0522 3.63086ZM22.3529 18.585C22.3519 19.1949 22.1093 19.7795 21.678 20.2108C21.2468 20.642 20.6621 20.8847 20.0522 20.8856H3.94778C3.33789 20.8847 2.75325 20.642 2.32199 20.2108C1.89074 19.7795 1.64806 19.1949 1.64714 18.585V7.08181C1.64806 6.47193 1.89074 5.88728 2.32199 5.45603C2.75325 5.02477 3.33789 4.78209 3.94778 4.78118H20.0522C20.6621 4.78209 21.2468 5.02477 21.678 5.45603C22.1093 5.88728 22.3519 6.47193 22.3529 7.08181V18.585Z" fill="white"/>
</svg>
